G04 #@! TF.GenerationSoftware,KiCad,Pcbnew,(5.1.4)-1*
G04 #@! TF.CreationDate,2021-06-12T17:19:04+05:30*
G04 #@! TF.ProjectId,Breadboard_Power_Supply,42726561-6462-46f6-9172-645f506f7765,1*
G04 #@! TF.SameCoordinates,Original*
G04 #@! TF.FileFunction,Copper,L1,Top*
G04 #@! TF.FilePolarity,Positive*
%FSLAX46Y46*%
G04 Gerber Fmt 4.6, Leading zero omitted, Abs format (unit mm)*
G04 Created by KiCad (PCBNEW (5.1.4)-1) date 2021-06-12 17:19:04*
%MOMM*%
%LPD*%
G04 APERTURE LIST*
%ADD10R,2.300000X2.500000*%
%ADD11R,1.300000X1.300000*%
%ADD12R,1.300000X2.000000*%
%ADD13R,1.500000X2.000000*%
%ADD14R,3.800000X2.000000*%
%ADD15R,2.440000X1.120000*%
%ADD16C,0.100000*%
%ADD17C,1.150000*%
%ADD18R,3.150000X1.000000*%
%ADD19C,1.425000*%
%ADD20O,1.700000X1.700000*%
%ADD21R,1.700000X1.700000*%
%ADD22R,1.000000X2.510000*%
%ADD23C,1.700000*%
%ADD24C,3.500000*%
%ADD25C,2.600000*%
%ADD26R,2.600000X2.600000*%
%ADD27R,2.000000X1.500000*%
%ADD28R,2.000000X3.800000*%
%ADD29C,0.800000*%
%ADD30C,0.400000*%
%ADD31C,0.254000*%
G04 APERTURE END LIST*
D10*
X144550000Y-112350000D03*
X144550000Y-116650000D03*
D11*
X134750000Y-77050000D03*
D12*
X140250000Y-75900000D03*
D11*
X134750000Y-74750000D03*
D13*
X147200000Y-68750000D03*
X151800000Y-68750000D03*
X149500000Y-68750000D03*
D14*
X149500000Y-62450000D03*
D15*
X153005000Y-89990000D03*
X144395000Y-97610000D03*
X153005000Y-92530000D03*
X144395000Y-95070000D03*
X153005000Y-95070000D03*
X144395000Y-92530000D03*
X153005000Y-97610000D03*
X144395000Y-89990000D03*
D16*
G36*
X147074505Y-108401204D02*
G01*
X147098773Y-108404804D01*
X147122572Y-108410765D01*
X147145671Y-108419030D01*
X147167850Y-108429520D01*
X147188893Y-108442132D01*
X147208599Y-108456747D01*
X147226777Y-108473223D01*
X147243253Y-108491401D01*
X147257868Y-108511107D01*
X147270480Y-108532150D01*
X147280970Y-108554329D01*
X147289235Y-108577428D01*
X147295196Y-108601227D01*
X147298796Y-108625495D01*
X147300000Y-108649999D01*
X147300000Y-109550001D01*
X147298796Y-109574505D01*
X147295196Y-109598773D01*
X147289235Y-109622572D01*
X147280970Y-109645671D01*
X147270480Y-109667850D01*
X147257868Y-109688893D01*
X147243253Y-109708599D01*
X147226777Y-109726777D01*
X147208599Y-109743253D01*
X147188893Y-109757868D01*
X147167850Y-109770480D01*
X147145671Y-109780970D01*
X147122572Y-109789235D01*
X147098773Y-109795196D01*
X147074505Y-109798796D01*
X147050001Y-109800000D01*
X146399999Y-109800000D01*
X146375495Y-109798796D01*
X146351227Y-109795196D01*
X146327428Y-109789235D01*
X146304329Y-109780970D01*
X146282150Y-109770480D01*
X146261107Y-109757868D01*
X146241401Y-109743253D01*
X146223223Y-109726777D01*
X146206747Y-109708599D01*
X146192132Y-109688893D01*
X146179520Y-109667850D01*
X146169030Y-109645671D01*
X146160765Y-109622572D01*
X146154804Y-109598773D01*
X146151204Y-109574505D01*
X146150000Y-109550001D01*
X146150000Y-108649999D01*
X146151204Y-108625495D01*
X146154804Y-108601227D01*
X146160765Y-108577428D01*
X146169030Y-108554329D01*
X146179520Y-108532150D01*
X146192132Y-108511107D01*
X146206747Y-108491401D01*
X146223223Y-108473223D01*
X146241401Y-108456747D01*
X146261107Y-108442132D01*
X146282150Y-108429520D01*
X146304329Y-108419030D01*
X146327428Y-108410765D01*
X146351227Y-108404804D01*
X146375495Y-108401204D01*
X146399999Y-108400000D01*
X147050001Y-108400000D01*
X147074505Y-108401204D01*
X147074505Y-108401204D01*
G37*
D17*
X146725000Y-109100000D03*
D16*
G36*
X145024505Y-108401204D02*
G01*
X145048773Y-108404804D01*
X145072572Y-108410765D01*
X145095671Y-108419030D01*
X145117850Y-108429520D01*
X145138893Y-108442132D01*
X145158599Y-108456747D01*
X145176777Y-108473223D01*
X145193253Y-108491401D01*
X145207868Y-108511107D01*
X145220480Y-108532150D01*
X145230970Y-108554329D01*
X145239235Y-108577428D01*
X145245196Y-108601227D01*
X145248796Y-108625495D01*
X145250000Y-108649999D01*
X145250000Y-109550001D01*
X145248796Y-109574505D01*
X145245196Y-109598773D01*
X145239235Y-109622572D01*
X145230970Y-109645671D01*
X145220480Y-109667850D01*
X145207868Y-109688893D01*
X145193253Y-109708599D01*
X145176777Y-109726777D01*
X145158599Y-109743253D01*
X145138893Y-109757868D01*
X145117850Y-109770480D01*
X145095671Y-109780970D01*
X145072572Y-109789235D01*
X145048773Y-109795196D01*
X145024505Y-109798796D01*
X145000001Y-109800000D01*
X144349999Y-109800000D01*
X144325495Y-109798796D01*
X144301227Y-109795196D01*
X144277428Y-109789235D01*
X144254329Y-109780970D01*
X144232150Y-109770480D01*
X144211107Y-109757868D01*
X144191401Y-109743253D01*
X144173223Y-109726777D01*
X144156747Y-109708599D01*
X144142132Y-109688893D01*
X144129520Y-109667850D01*
X144119030Y-109645671D01*
X144110765Y-109622572D01*
X144104804Y-109598773D01*
X144101204Y-109574505D01*
X144100000Y-109550001D01*
X144100000Y-108649999D01*
X144101204Y-108625495D01*
X144104804Y-108601227D01*
X144110765Y-108577428D01*
X144119030Y-108554329D01*
X144129520Y-108532150D01*
X144142132Y-108511107D01*
X144156747Y-108491401D01*
X144173223Y-108473223D01*
X144191401Y-108456747D01*
X144211107Y-108442132D01*
X144232150Y-108429520D01*
X144254329Y-108419030D01*
X144277428Y-108410765D01*
X144301227Y-108404804D01*
X144325495Y-108401204D01*
X144349999Y-108400000D01*
X145000001Y-108400000D01*
X145024505Y-108401204D01*
X145024505Y-108401204D01*
G37*
D17*
X144675000Y-109100000D03*
D16*
G36*
X144674505Y-67051204D02*
G01*
X144698773Y-67054804D01*
X144722572Y-67060765D01*
X144745671Y-67069030D01*
X144767850Y-67079520D01*
X144788893Y-67092132D01*
X144808599Y-67106747D01*
X144826777Y-67123223D01*
X144843253Y-67141401D01*
X144857868Y-67161107D01*
X144870480Y-67182150D01*
X144880970Y-67204329D01*
X144889235Y-67227428D01*
X144895196Y-67251227D01*
X144898796Y-67275495D01*
X144900000Y-67299999D01*
X144900000Y-67950001D01*
X144898796Y-67974505D01*
X144895196Y-67998773D01*
X144889235Y-68022572D01*
X144880970Y-68045671D01*
X144870480Y-68067850D01*
X144857868Y-68088893D01*
X144843253Y-68108599D01*
X144826777Y-68126777D01*
X144808599Y-68143253D01*
X144788893Y-68157868D01*
X144767850Y-68170480D01*
X144745671Y-68180970D01*
X144722572Y-68189235D01*
X144698773Y-68195196D01*
X144674505Y-68198796D01*
X144650001Y-68200000D01*
X143749999Y-68200000D01*
X143725495Y-68198796D01*
X143701227Y-68195196D01*
X143677428Y-68189235D01*
X143654329Y-68180970D01*
X143632150Y-68170480D01*
X143611107Y-68157868D01*
X143591401Y-68143253D01*
X143573223Y-68126777D01*
X143556747Y-68108599D01*
X143542132Y-68088893D01*
X143529520Y-68067850D01*
X143519030Y-68045671D01*
X143510765Y-68022572D01*
X143504804Y-67998773D01*
X143501204Y-67974505D01*
X143500000Y-67950001D01*
X143500000Y-67299999D01*
X143501204Y-67275495D01*
X143504804Y-67251227D01*
X143510765Y-67227428D01*
X143519030Y-67204329D01*
X143529520Y-67182150D01*
X143542132Y-67161107D01*
X143556747Y-67141401D01*
X143573223Y-67123223D01*
X143591401Y-67106747D01*
X143611107Y-67092132D01*
X143632150Y-67079520D01*
X143654329Y-67069030D01*
X143677428Y-67060765D01*
X143701227Y-67054804D01*
X143725495Y-67051204D01*
X143749999Y-67050000D01*
X144650001Y-67050000D01*
X144674505Y-67051204D01*
X144674505Y-67051204D01*
G37*
D17*
X144200000Y-67625000D03*
D16*
G36*
X144674505Y-65001204D02*
G01*
X144698773Y-65004804D01*
X144722572Y-65010765D01*
X144745671Y-65019030D01*
X144767850Y-65029520D01*
X144788893Y-65042132D01*
X144808599Y-65056747D01*
X144826777Y-65073223D01*
X144843253Y-65091401D01*
X144857868Y-65111107D01*
X144870480Y-65132150D01*
X144880970Y-65154329D01*
X144889235Y-65177428D01*
X144895196Y-65201227D01*
X144898796Y-65225495D01*
X144900000Y-65249999D01*
X144900000Y-65900001D01*
X144898796Y-65924505D01*
X144895196Y-65948773D01*
X144889235Y-65972572D01*
X144880970Y-65995671D01*
X144870480Y-66017850D01*
X144857868Y-66038893D01*
X144843253Y-66058599D01*
X144826777Y-66076777D01*
X144808599Y-66093253D01*
X144788893Y-66107868D01*
X144767850Y-66120480D01*
X144745671Y-66130970D01*
X144722572Y-66139235D01*
X144698773Y-66145196D01*
X144674505Y-66148796D01*
X144650001Y-66150000D01*
X143749999Y-66150000D01*
X143725495Y-66148796D01*
X143701227Y-66145196D01*
X143677428Y-66139235D01*
X143654329Y-66130970D01*
X143632150Y-66120480D01*
X143611107Y-66107868D01*
X143591401Y-66093253D01*
X143573223Y-66076777D01*
X143556747Y-66058599D01*
X143542132Y-66038893D01*
X143529520Y-66017850D01*
X143519030Y-65995671D01*
X143510765Y-65972572D01*
X143504804Y-65948773D01*
X143501204Y-65924505D01*
X143500000Y-65900001D01*
X143500000Y-65249999D01*
X143501204Y-65225495D01*
X143504804Y-65201227D01*
X143510765Y-65177428D01*
X143519030Y-65154329D01*
X143529520Y-65132150D01*
X143542132Y-65111107D01*
X143556747Y-65091401D01*
X143573223Y-65073223D01*
X143591401Y-65056747D01*
X143611107Y-65042132D01*
X143632150Y-65029520D01*
X143654329Y-65019030D01*
X143677428Y-65010765D01*
X143701227Y-65004804D01*
X143725495Y-65001204D01*
X143749999Y-65000000D01*
X144650001Y-65000000D01*
X144674505Y-65001204D01*
X144674505Y-65001204D01*
G37*
D17*
X144200000Y-65575000D03*
D18*
X151225000Y-83910000D03*
X146175000Y-83910000D03*
X151225000Y-81370000D03*
X146175000Y-81370000D03*
X151225000Y-78830000D03*
X146175000Y-78830000D03*
X151225000Y-76290000D03*
X146175000Y-76290000D03*
D16*
G36*
X150199504Y-108226204D02*
G01*
X150223773Y-108229804D01*
X150247571Y-108235765D01*
X150270671Y-108244030D01*
X150292849Y-108254520D01*
X150313893Y-108267133D01*
X150333598Y-108281747D01*
X150351777Y-108298223D01*
X150368253Y-108316402D01*
X150382867Y-108336107D01*
X150395480Y-108357151D01*
X150405970Y-108379329D01*
X150414235Y-108402429D01*
X150420196Y-108426227D01*
X150423796Y-108450496D01*
X150425000Y-108475000D01*
X150425000Y-109725000D01*
X150423796Y-109749504D01*
X150420196Y-109773773D01*
X150414235Y-109797571D01*
X150405970Y-109820671D01*
X150395480Y-109842849D01*
X150382867Y-109863893D01*
X150368253Y-109883598D01*
X150351777Y-109901777D01*
X150333598Y-109918253D01*
X150313893Y-109932867D01*
X150292849Y-109945480D01*
X150270671Y-109955970D01*
X150247571Y-109964235D01*
X150223773Y-109970196D01*
X150199504Y-109973796D01*
X150175000Y-109975000D01*
X149250000Y-109975000D01*
X149225496Y-109973796D01*
X149201227Y-109970196D01*
X149177429Y-109964235D01*
X149154329Y-109955970D01*
X149132151Y-109945480D01*
X149111107Y-109932867D01*
X149091402Y-109918253D01*
X149073223Y-109901777D01*
X149056747Y-109883598D01*
X149042133Y-109863893D01*
X149029520Y-109842849D01*
X149019030Y-109820671D01*
X149010765Y-109797571D01*
X149004804Y-109773773D01*
X149001204Y-109749504D01*
X149000000Y-109725000D01*
X149000000Y-108475000D01*
X149001204Y-108450496D01*
X149004804Y-108426227D01*
X149010765Y-108402429D01*
X149019030Y-108379329D01*
X149029520Y-108357151D01*
X149042133Y-108336107D01*
X149056747Y-108316402D01*
X149073223Y-108298223D01*
X149091402Y-108281747D01*
X149111107Y-108267133D01*
X149132151Y-108254520D01*
X149154329Y-108244030D01*
X149177429Y-108235765D01*
X149201227Y-108229804D01*
X149225496Y-108226204D01*
X149250000Y-108225000D01*
X150175000Y-108225000D01*
X150199504Y-108226204D01*
X150199504Y-108226204D01*
G37*
D19*
X149712500Y-109100000D03*
D16*
G36*
X153174504Y-108226204D02*
G01*
X153198773Y-108229804D01*
X153222571Y-108235765D01*
X153245671Y-108244030D01*
X153267849Y-108254520D01*
X153288893Y-108267133D01*
X153308598Y-108281747D01*
X153326777Y-108298223D01*
X153343253Y-108316402D01*
X153357867Y-108336107D01*
X153370480Y-108357151D01*
X153380970Y-108379329D01*
X153389235Y-108402429D01*
X153395196Y-108426227D01*
X153398796Y-108450496D01*
X153400000Y-108475000D01*
X153400000Y-109725000D01*
X153398796Y-109749504D01*
X153395196Y-109773773D01*
X153389235Y-109797571D01*
X153380970Y-109820671D01*
X153370480Y-109842849D01*
X153357867Y-109863893D01*
X153343253Y-109883598D01*
X153326777Y-109901777D01*
X153308598Y-109918253D01*
X153288893Y-109932867D01*
X153267849Y-109945480D01*
X153245671Y-109955970D01*
X153222571Y-109964235D01*
X153198773Y-109970196D01*
X153174504Y-109973796D01*
X153150000Y-109975000D01*
X152225000Y-109975000D01*
X152200496Y-109973796D01*
X152176227Y-109970196D01*
X152152429Y-109964235D01*
X152129329Y-109955970D01*
X152107151Y-109945480D01*
X152086107Y-109932867D01*
X152066402Y-109918253D01*
X152048223Y-109901777D01*
X152031747Y-109883598D01*
X152017133Y-109863893D01*
X152004520Y-109842849D01*
X151994030Y-109820671D01*
X151985765Y-109797571D01*
X151979804Y-109773773D01*
X151976204Y-109749504D01*
X151975000Y-109725000D01*
X151975000Y-108475000D01*
X151976204Y-108450496D01*
X151979804Y-108426227D01*
X151985765Y-108402429D01*
X151994030Y-108379329D01*
X152004520Y-108357151D01*
X152017133Y-108336107D01*
X152031747Y-108316402D01*
X152048223Y-108298223D01*
X152066402Y-108281747D01*
X152086107Y-108267133D01*
X152107151Y-108254520D01*
X152129329Y-108244030D01*
X152152429Y-108235765D01*
X152176227Y-108229804D01*
X152200496Y-108226204D01*
X152225000Y-108225000D01*
X153150000Y-108225000D01*
X153174504Y-108226204D01*
X153174504Y-108226204D01*
G37*
D19*
X152687500Y-109100000D03*
D16*
G36*
X144499504Y-71226204D02*
G01*
X144523773Y-71229804D01*
X144547571Y-71235765D01*
X144570671Y-71244030D01*
X144592849Y-71254520D01*
X144613893Y-71267133D01*
X144633598Y-71281747D01*
X144651777Y-71298223D01*
X144668253Y-71316402D01*
X144682867Y-71336107D01*
X144695480Y-71357151D01*
X144705970Y-71379329D01*
X144714235Y-71402429D01*
X144720196Y-71426227D01*
X144723796Y-71450496D01*
X144725000Y-71475000D01*
X144725000Y-72725000D01*
X144723796Y-72749504D01*
X144720196Y-72773773D01*
X144714235Y-72797571D01*
X144705970Y-72820671D01*
X144695480Y-72842849D01*
X144682867Y-72863893D01*
X144668253Y-72883598D01*
X144651777Y-72901777D01*
X144633598Y-72918253D01*
X144613893Y-72932867D01*
X144592849Y-72945480D01*
X144570671Y-72955970D01*
X144547571Y-72964235D01*
X144523773Y-72970196D01*
X144499504Y-72973796D01*
X144475000Y-72975000D01*
X143550000Y-72975000D01*
X143525496Y-72973796D01*
X143501227Y-72970196D01*
X143477429Y-72964235D01*
X143454329Y-72955970D01*
X143432151Y-72945480D01*
X143411107Y-72932867D01*
X143391402Y-72918253D01*
X143373223Y-72901777D01*
X143356747Y-72883598D01*
X143342133Y-72863893D01*
X143329520Y-72842849D01*
X143319030Y-72820671D01*
X143310765Y-72797571D01*
X143304804Y-72773773D01*
X143301204Y-72749504D01*
X143300000Y-72725000D01*
X143300000Y-71475000D01*
X143301204Y-71450496D01*
X143304804Y-71426227D01*
X143310765Y-71402429D01*
X143319030Y-71379329D01*
X143329520Y-71357151D01*
X143342133Y-71336107D01*
X143356747Y-71316402D01*
X143373223Y-71298223D01*
X143391402Y-71281747D01*
X143411107Y-71267133D01*
X143432151Y-71254520D01*
X143454329Y-71244030D01*
X143477429Y-71235765D01*
X143501227Y-71229804D01*
X143525496Y-71226204D01*
X143550000Y-71225000D01*
X144475000Y-71225000D01*
X144499504Y-71226204D01*
X144499504Y-71226204D01*
G37*
D19*
X144012500Y-72100000D03*
D16*
G36*
X147474504Y-71226204D02*
G01*
X147498773Y-71229804D01*
X147522571Y-71235765D01*
X147545671Y-71244030D01*
X147567849Y-71254520D01*
X147588893Y-71267133D01*
X147608598Y-71281747D01*
X147626777Y-71298223D01*
X147643253Y-71316402D01*
X147657867Y-71336107D01*
X147670480Y-71357151D01*
X147680970Y-71379329D01*
X147689235Y-71402429D01*
X147695196Y-71426227D01*
X147698796Y-71450496D01*
X147700000Y-71475000D01*
X147700000Y-72725000D01*
X147698796Y-72749504D01*
X147695196Y-72773773D01*
X147689235Y-72797571D01*
X147680970Y-72820671D01*
X147670480Y-72842849D01*
X147657867Y-72863893D01*
X147643253Y-72883598D01*
X147626777Y-72901777D01*
X147608598Y-72918253D01*
X147588893Y-72932867D01*
X147567849Y-72945480D01*
X147545671Y-72955970D01*
X147522571Y-72964235D01*
X147498773Y-72970196D01*
X147474504Y-72973796D01*
X147450000Y-72975000D01*
X146525000Y-72975000D01*
X146500496Y-72973796D01*
X146476227Y-72970196D01*
X146452429Y-72964235D01*
X146429329Y-72955970D01*
X146407151Y-72945480D01*
X146386107Y-72932867D01*
X146366402Y-72918253D01*
X146348223Y-72901777D01*
X146331747Y-72883598D01*
X146317133Y-72863893D01*
X146304520Y-72842849D01*
X146294030Y-72820671D01*
X146285765Y-72797571D01*
X146279804Y-72773773D01*
X146276204Y-72749504D01*
X146275000Y-72725000D01*
X146275000Y-71475000D01*
X146276204Y-71450496D01*
X146279804Y-71426227D01*
X146285765Y-71402429D01*
X146294030Y-71379329D01*
X146304520Y-71357151D01*
X146317133Y-71336107D01*
X146331747Y-71316402D01*
X146348223Y-71298223D01*
X146366402Y-71281747D01*
X146386107Y-71267133D01*
X146407151Y-71254520D01*
X146429329Y-71244030D01*
X146452429Y-71235765D01*
X146476227Y-71229804D01*
X146500496Y-71226204D01*
X146525000Y-71225000D01*
X147450000Y-71225000D01*
X147474504Y-71226204D01*
X147474504Y-71226204D01*
G37*
D19*
X146987500Y-72100000D03*
D16*
G36*
X150599504Y-71226204D02*
G01*
X150623773Y-71229804D01*
X150647571Y-71235765D01*
X150670671Y-71244030D01*
X150692849Y-71254520D01*
X150713893Y-71267133D01*
X150733598Y-71281747D01*
X150751777Y-71298223D01*
X150768253Y-71316402D01*
X150782867Y-71336107D01*
X150795480Y-71357151D01*
X150805970Y-71379329D01*
X150814235Y-71402429D01*
X150820196Y-71426227D01*
X150823796Y-71450496D01*
X150825000Y-71475000D01*
X150825000Y-72725000D01*
X150823796Y-72749504D01*
X150820196Y-72773773D01*
X150814235Y-72797571D01*
X150805970Y-72820671D01*
X150795480Y-72842849D01*
X150782867Y-72863893D01*
X150768253Y-72883598D01*
X150751777Y-72901777D01*
X150733598Y-72918253D01*
X150713893Y-72932867D01*
X150692849Y-72945480D01*
X150670671Y-72955970D01*
X150647571Y-72964235D01*
X150623773Y-72970196D01*
X150599504Y-72973796D01*
X150575000Y-72975000D01*
X149650000Y-72975000D01*
X149625496Y-72973796D01*
X149601227Y-72970196D01*
X149577429Y-72964235D01*
X149554329Y-72955970D01*
X149532151Y-72945480D01*
X149511107Y-72932867D01*
X149491402Y-72918253D01*
X149473223Y-72901777D01*
X149456747Y-72883598D01*
X149442133Y-72863893D01*
X149429520Y-72842849D01*
X149419030Y-72820671D01*
X149410765Y-72797571D01*
X149404804Y-72773773D01*
X149401204Y-72749504D01*
X149400000Y-72725000D01*
X149400000Y-71475000D01*
X149401204Y-71450496D01*
X149404804Y-71426227D01*
X149410765Y-71402429D01*
X149419030Y-71379329D01*
X149429520Y-71357151D01*
X149442133Y-71336107D01*
X149456747Y-71316402D01*
X149473223Y-71298223D01*
X149491402Y-71281747D01*
X149511107Y-71267133D01*
X149532151Y-71254520D01*
X149554329Y-71244030D01*
X149577429Y-71235765D01*
X149601227Y-71229804D01*
X149625496Y-71226204D01*
X149650000Y-71225000D01*
X150575000Y-71225000D01*
X150599504Y-71226204D01*
X150599504Y-71226204D01*
G37*
D19*
X150112500Y-72100000D03*
D16*
G36*
X153574504Y-71226204D02*
G01*
X153598773Y-71229804D01*
X153622571Y-71235765D01*
X153645671Y-71244030D01*
X153667849Y-71254520D01*
X153688893Y-71267133D01*
X153708598Y-71281747D01*
X153726777Y-71298223D01*
X153743253Y-71316402D01*
X153757867Y-71336107D01*
X153770480Y-71357151D01*
X153780970Y-71379329D01*
X153789235Y-71402429D01*
X153795196Y-71426227D01*
X153798796Y-71450496D01*
X153800000Y-71475000D01*
X153800000Y-72725000D01*
X153798796Y-72749504D01*
X153795196Y-72773773D01*
X153789235Y-72797571D01*
X153780970Y-72820671D01*
X153770480Y-72842849D01*
X153757867Y-72863893D01*
X153743253Y-72883598D01*
X153726777Y-72901777D01*
X153708598Y-72918253D01*
X153688893Y-72932867D01*
X153667849Y-72945480D01*
X153645671Y-72955970D01*
X153622571Y-72964235D01*
X153598773Y-72970196D01*
X153574504Y-72973796D01*
X153550000Y-72975000D01*
X152625000Y-72975000D01*
X152600496Y-72973796D01*
X152576227Y-72970196D01*
X152552429Y-72964235D01*
X152529329Y-72955970D01*
X152507151Y-72945480D01*
X152486107Y-72932867D01*
X152466402Y-72918253D01*
X152448223Y-72901777D01*
X152431747Y-72883598D01*
X152417133Y-72863893D01*
X152404520Y-72842849D01*
X152394030Y-72820671D01*
X152385765Y-72797571D01*
X152379804Y-72773773D01*
X152376204Y-72749504D01*
X152375000Y-72725000D01*
X152375000Y-71475000D01*
X152376204Y-71450496D01*
X152379804Y-71426227D01*
X152385765Y-71402429D01*
X152394030Y-71379329D01*
X152404520Y-71357151D01*
X152417133Y-71336107D01*
X152431747Y-71316402D01*
X152448223Y-71298223D01*
X152466402Y-71281747D01*
X152486107Y-71267133D01*
X152507151Y-71254520D01*
X152529329Y-71244030D01*
X152552429Y-71235765D01*
X152576227Y-71229804D01*
X152600496Y-71226204D01*
X152625000Y-71225000D01*
X153550000Y-71225000D01*
X153574504Y-71226204D01*
X153574504Y-71226204D01*
G37*
D19*
X153087500Y-72100000D03*
D20*
X156960000Y-113760000D03*
X159500000Y-113760000D03*
X156960000Y-116300000D03*
D21*
X159500000Y-116300000D03*
D20*
X156960000Y-62710000D03*
X159500000Y-62710000D03*
X156960000Y-65250000D03*
D21*
X159500000Y-65250000D03*
D16*
G36*
X147074505Y-105101204D02*
G01*
X147098773Y-105104804D01*
X147122572Y-105110765D01*
X147145671Y-105119030D01*
X147167850Y-105129520D01*
X147188893Y-105142132D01*
X147208599Y-105156747D01*
X147226777Y-105173223D01*
X147243253Y-105191401D01*
X147257868Y-105211107D01*
X147270480Y-105232150D01*
X147280970Y-105254329D01*
X147289235Y-105277428D01*
X147295196Y-105301227D01*
X147298796Y-105325495D01*
X147300000Y-105349999D01*
X147300000Y-106250001D01*
X147298796Y-106274505D01*
X147295196Y-106298773D01*
X147289235Y-106322572D01*
X147280970Y-106345671D01*
X147270480Y-106367850D01*
X147257868Y-106388893D01*
X147243253Y-106408599D01*
X147226777Y-106426777D01*
X147208599Y-106443253D01*
X147188893Y-106457868D01*
X147167850Y-106470480D01*
X147145671Y-106480970D01*
X147122572Y-106489235D01*
X147098773Y-106495196D01*
X147074505Y-106498796D01*
X147050001Y-106500000D01*
X146399999Y-106500000D01*
X146375495Y-106498796D01*
X146351227Y-106495196D01*
X146327428Y-106489235D01*
X146304329Y-106480970D01*
X146282150Y-106470480D01*
X146261107Y-106457868D01*
X146241401Y-106443253D01*
X146223223Y-106426777D01*
X146206747Y-106408599D01*
X146192132Y-106388893D01*
X146179520Y-106367850D01*
X146169030Y-106345671D01*
X146160765Y-106322572D01*
X146154804Y-106298773D01*
X146151204Y-106274505D01*
X146150000Y-106250001D01*
X146150000Y-105349999D01*
X146151204Y-105325495D01*
X146154804Y-105301227D01*
X146160765Y-105277428D01*
X146169030Y-105254329D01*
X146179520Y-105232150D01*
X146192132Y-105211107D01*
X146206747Y-105191401D01*
X146223223Y-105173223D01*
X146241401Y-105156747D01*
X146261107Y-105142132D01*
X146282150Y-105129520D01*
X146304329Y-105119030D01*
X146327428Y-105110765D01*
X146351227Y-105104804D01*
X146375495Y-105101204D01*
X146399999Y-105100000D01*
X147050001Y-105100000D01*
X147074505Y-105101204D01*
X147074505Y-105101204D01*
G37*
D17*
X146725000Y-105800000D03*
D16*
G36*
X145024505Y-105101204D02*
G01*
X145048773Y-105104804D01*
X145072572Y-105110765D01*
X145095671Y-105119030D01*
X145117850Y-105129520D01*
X145138893Y-105142132D01*
X145158599Y-105156747D01*
X145176777Y-105173223D01*
X145193253Y-105191401D01*
X145207868Y-105211107D01*
X145220480Y-105232150D01*
X145230970Y-105254329D01*
X145239235Y-105277428D01*
X145245196Y-105301227D01*
X145248796Y-105325495D01*
X145250000Y-105349999D01*
X145250000Y-106250001D01*
X145248796Y-106274505D01*
X145245196Y-106298773D01*
X145239235Y-106322572D01*
X145230970Y-106345671D01*
X145220480Y-106367850D01*
X145207868Y-106388893D01*
X145193253Y-106408599D01*
X145176777Y-106426777D01*
X145158599Y-106443253D01*
X145138893Y-106457868D01*
X145117850Y-106470480D01*
X145095671Y-106480970D01*
X145072572Y-106489235D01*
X145048773Y-106495196D01*
X145024505Y-106498796D01*
X145000001Y-106500000D01*
X144349999Y-106500000D01*
X144325495Y-106498796D01*
X144301227Y-106495196D01*
X144277428Y-106489235D01*
X144254329Y-106480970D01*
X144232150Y-106470480D01*
X144211107Y-106457868D01*
X144191401Y-106443253D01*
X144173223Y-106426777D01*
X144156747Y-106408599D01*
X144142132Y-106388893D01*
X144129520Y-106367850D01*
X144119030Y-106345671D01*
X144110765Y-106322572D01*
X144104804Y-106298773D01*
X144101204Y-106274505D01*
X144100000Y-106250001D01*
X144100000Y-105349999D01*
X144101204Y-105325495D01*
X144104804Y-105301227D01*
X144110765Y-105277428D01*
X144119030Y-105254329D01*
X144129520Y-105232150D01*
X144142132Y-105211107D01*
X144156747Y-105191401D01*
X144173223Y-105173223D01*
X144191401Y-105156747D01*
X144211107Y-105142132D01*
X144232150Y-105129520D01*
X144254329Y-105119030D01*
X144277428Y-105110765D01*
X144301227Y-105104804D01*
X144325495Y-105101204D01*
X144349999Y-105100000D01*
X145000001Y-105100000D01*
X145024505Y-105101204D01*
X145024505Y-105101204D01*
G37*
D17*
X144675000Y-105800000D03*
D16*
G36*
X146974505Y-101901204D02*
G01*
X146998773Y-101904804D01*
X147022572Y-101910765D01*
X147045671Y-101919030D01*
X147067850Y-101929520D01*
X147088893Y-101942132D01*
X147108599Y-101956747D01*
X147126777Y-101973223D01*
X147143253Y-101991401D01*
X147157868Y-102011107D01*
X147170480Y-102032150D01*
X147180970Y-102054329D01*
X147189235Y-102077428D01*
X147195196Y-102101227D01*
X147198796Y-102125495D01*
X147200000Y-102149999D01*
X147200000Y-103050001D01*
X147198796Y-103074505D01*
X147195196Y-103098773D01*
X147189235Y-103122572D01*
X147180970Y-103145671D01*
X147170480Y-103167850D01*
X147157868Y-103188893D01*
X147143253Y-103208599D01*
X147126777Y-103226777D01*
X147108599Y-103243253D01*
X147088893Y-103257868D01*
X147067850Y-103270480D01*
X147045671Y-103280970D01*
X147022572Y-103289235D01*
X146998773Y-103295196D01*
X146974505Y-103298796D01*
X146950001Y-103300000D01*
X146299999Y-103300000D01*
X146275495Y-103298796D01*
X146251227Y-103295196D01*
X146227428Y-103289235D01*
X146204329Y-103280970D01*
X146182150Y-103270480D01*
X146161107Y-103257868D01*
X146141401Y-103243253D01*
X146123223Y-103226777D01*
X146106747Y-103208599D01*
X146092132Y-103188893D01*
X146079520Y-103167850D01*
X146069030Y-103145671D01*
X146060765Y-103122572D01*
X146054804Y-103098773D01*
X146051204Y-103074505D01*
X146050000Y-103050001D01*
X146050000Y-102149999D01*
X146051204Y-102125495D01*
X146054804Y-102101227D01*
X146060765Y-102077428D01*
X146069030Y-102054329D01*
X146079520Y-102032150D01*
X146092132Y-102011107D01*
X146106747Y-101991401D01*
X146123223Y-101973223D01*
X146141401Y-101956747D01*
X146161107Y-101942132D01*
X146182150Y-101929520D01*
X146204329Y-101919030D01*
X146227428Y-101910765D01*
X146251227Y-101904804D01*
X146275495Y-101901204D01*
X146299999Y-101900000D01*
X146950001Y-101900000D01*
X146974505Y-101901204D01*
X146974505Y-101901204D01*
G37*
D17*
X146625000Y-102600000D03*
D16*
G36*
X144924505Y-101901204D02*
G01*
X144948773Y-101904804D01*
X144972572Y-101910765D01*
X144995671Y-101919030D01*
X145017850Y-101929520D01*
X145038893Y-101942132D01*
X145058599Y-101956747D01*
X145076777Y-101973223D01*
X145093253Y-101991401D01*
X145107868Y-102011107D01*
X145120480Y-102032150D01*
X145130970Y-102054329D01*
X145139235Y-102077428D01*
X145145196Y-102101227D01*
X145148796Y-102125495D01*
X145150000Y-102149999D01*
X145150000Y-103050001D01*
X145148796Y-103074505D01*
X145145196Y-103098773D01*
X145139235Y-103122572D01*
X145130970Y-103145671D01*
X145120480Y-103167850D01*
X145107868Y-103188893D01*
X145093253Y-103208599D01*
X145076777Y-103226777D01*
X145058599Y-103243253D01*
X145038893Y-103257868D01*
X145017850Y-103270480D01*
X144995671Y-103280970D01*
X144972572Y-103289235D01*
X144948773Y-103295196D01*
X144924505Y-103298796D01*
X144900001Y-103300000D01*
X144249999Y-103300000D01*
X144225495Y-103298796D01*
X144201227Y-103295196D01*
X144177428Y-103289235D01*
X144154329Y-103280970D01*
X144132150Y-103270480D01*
X144111107Y-103257868D01*
X144091401Y-103243253D01*
X144073223Y-103226777D01*
X144056747Y-103208599D01*
X144042132Y-103188893D01*
X144029520Y-103167850D01*
X144019030Y-103145671D01*
X144010765Y-103122572D01*
X144004804Y-103098773D01*
X144001204Y-103074505D01*
X144000000Y-103050001D01*
X144000000Y-102149999D01*
X144001204Y-102125495D01*
X144004804Y-102101227D01*
X144010765Y-102077428D01*
X144019030Y-102054329D01*
X144029520Y-102032150D01*
X144042132Y-102011107D01*
X144056747Y-101991401D01*
X144073223Y-101973223D01*
X144091401Y-101956747D01*
X144111107Y-101942132D01*
X144132150Y-101929520D01*
X144154329Y-101919030D01*
X144177428Y-101910765D01*
X144201227Y-101904804D01*
X144225495Y-101901204D01*
X144249999Y-101900000D01*
X144900001Y-101900000D01*
X144924505Y-101901204D01*
X144924505Y-101901204D01*
G37*
D17*
X144575000Y-102600000D03*
D22*
X148930000Y-116255000D03*
X151470000Y-112945000D03*
D16*
G36*
X150099504Y-104926204D02*
G01*
X150123773Y-104929804D01*
X150147571Y-104935765D01*
X150170671Y-104944030D01*
X150192849Y-104954520D01*
X150213893Y-104967133D01*
X150233598Y-104981747D01*
X150251777Y-104998223D01*
X150268253Y-105016402D01*
X150282867Y-105036107D01*
X150295480Y-105057151D01*
X150305970Y-105079329D01*
X150314235Y-105102429D01*
X150320196Y-105126227D01*
X150323796Y-105150496D01*
X150325000Y-105175000D01*
X150325000Y-106425000D01*
X150323796Y-106449504D01*
X150320196Y-106473773D01*
X150314235Y-106497571D01*
X150305970Y-106520671D01*
X150295480Y-106542849D01*
X150282867Y-106563893D01*
X150268253Y-106583598D01*
X150251777Y-106601777D01*
X150233598Y-106618253D01*
X150213893Y-106632867D01*
X150192849Y-106645480D01*
X150170671Y-106655970D01*
X150147571Y-106664235D01*
X150123773Y-106670196D01*
X150099504Y-106673796D01*
X150075000Y-106675000D01*
X149150000Y-106675000D01*
X149125496Y-106673796D01*
X149101227Y-106670196D01*
X149077429Y-106664235D01*
X149054329Y-106655970D01*
X149032151Y-106645480D01*
X149011107Y-106632867D01*
X148991402Y-106618253D01*
X148973223Y-106601777D01*
X148956747Y-106583598D01*
X148942133Y-106563893D01*
X148929520Y-106542849D01*
X148919030Y-106520671D01*
X148910765Y-106497571D01*
X148904804Y-106473773D01*
X148901204Y-106449504D01*
X148900000Y-106425000D01*
X148900000Y-105175000D01*
X148901204Y-105150496D01*
X148904804Y-105126227D01*
X148910765Y-105102429D01*
X148919030Y-105079329D01*
X148929520Y-105057151D01*
X148942133Y-105036107D01*
X148956747Y-105016402D01*
X148973223Y-104998223D01*
X148991402Y-104981747D01*
X149011107Y-104967133D01*
X149032151Y-104954520D01*
X149054329Y-104944030D01*
X149077429Y-104935765D01*
X149101227Y-104929804D01*
X149125496Y-104926204D01*
X149150000Y-104925000D01*
X150075000Y-104925000D01*
X150099504Y-104926204D01*
X150099504Y-104926204D01*
G37*
D19*
X149612500Y-105800000D03*
D16*
G36*
X153074504Y-104926204D02*
G01*
X153098773Y-104929804D01*
X153122571Y-104935765D01*
X153145671Y-104944030D01*
X153167849Y-104954520D01*
X153188893Y-104967133D01*
X153208598Y-104981747D01*
X153226777Y-104998223D01*
X153243253Y-105016402D01*
X153257867Y-105036107D01*
X153270480Y-105057151D01*
X153280970Y-105079329D01*
X153289235Y-105102429D01*
X153295196Y-105126227D01*
X153298796Y-105150496D01*
X153300000Y-105175000D01*
X153300000Y-106425000D01*
X153298796Y-106449504D01*
X153295196Y-106473773D01*
X153289235Y-106497571D01*
X153280970Y-106520671D01*
X153270480Y-106542849D01*
X153257867Y-106563893D01*
X153243253Y-106583598D01*
X153226777Y-106601777D01*
X153208598Y-106618253D01*
X153188893Y-106632867D01*
X153167849Y-106645480D01*
X153145671Y-106655970D01*
X153122571Y-106664235D01*
X153098773Y-106670196D01*
X153074504Y-106673796D01*
X153050000Y-106675000D01*
X152125000Y-106675000D01*
X152100496Y-106673796D01*
X152076227Y-106670196D01*
X152052429Y-106664235D01*
X152029329Y-106655970D01*
X152007151Y-106645480D01*
X151986107Y-106632867D01*
X151966402Y-106618253D01*
X151948223Y-106601777D01*
X151931747Y-106583598D01*
X151917133Y-106563893D01*
X151904520Y-106542849D01*
X151894030Y-106520671D01*
X151885765Y-106497571D01*
X151879804Y-106473773D01*
X151876204Y-106449504D01*
X151875000Y-106425000D01*
X151875000Y-105175000D01*
X151876204Y-105150496D01*
X151879804Y-105126227D01*
X151885765Y-105102429D01*
X151894030Y-105079329D01*
X151904520Y-105057151D01*
X151917133Y-105036107D01*
X151931747Y-105016402D01*
X151948223Y-104998223D01*
X151966402Y-104981747D01*
X151986107Y-104967133D01*
X152007151Y-104954520D01*
X152029329Y-104944030D01*
X152052429Y-104935765D01*
X152076227Y-104929804D01*
X152100496Y-104926204D01*
X152125000Y-104925000D01*
X153050000Y-104925000D01*
X153074504Y-104926204D01*
X153074504Y-104926204D01*
G37*
D19*
X152587500Y-105800000D03*
D16*
G36*
X150099504Y-101726204D02*
G01*
X150123773Y-101729804D01*
X150147571Y-101735765D01*
X150170671Y-101744030D01*
X150192849Y-101754520D01*
X150213893Y-101767133D01*
X150233598Y-101781747D01*
X150251777Y-101798223D01*
X150268253Y-101816402D01*
X150282867Y-101836107D01*
X150295480Y-101857151D01*
X150305970Y-101879329D01*
X150314235Y-101902429D01*
X150320196Y-101926227D01*
X150323796Y-101950496D01*
X150325000Y-101975000D01*
X150325000Y-103225000D01*
X150323796Y-103249504D01*
X150320196Y-103273773D01*
X150314235Y-103297571D01*
X150305970Y-103320671D01*
X150295480Y-103342849D01*
X150282867Y-103363893D01*
X150268253Y-103383598D01*
X150251777Y-103401777D01*
X150233598Y-103418253D01*
X150213893Y-103432867D01*
X150192849Y-103445480D01*
X150170671Y-103455970D01*
X150147571Y-103464235D01*
X150123773Y-103470196D01*
X150099504Y-103473796D01*
X150075000Y-103475000D01*
X149150000Y-103475000D01*
X149125496Y-103473796D01*
X149101227Y-103470196D01*
X149077429Y-103464235D01*
X149054329Y-103455970D01*
X149032151Y-103445480D01*
X149011107Y-103432867D01*
X148991402Y-103418253D01*
X148973223Y-103401777D01*
X148956747Y-103383598D01*
X148942133Y-103363893D01*
X148929520Y-103342849D01*
X148919030Y-103320671D01*
X148910765Y-103297571D01*
X148904804Y-103273773D01*
X148901204Y-103249504D01*
X148900000Y-103225000D01*
X148900000Y-101975000D01*
X148901204Y-101950496D01*
X148904804Y-101926227D01*
X148910765Y-101902429D01*
X148919030Y-101879329D01*
X148929520Y-101857151D01*
X148942133Y-101836107D01*
X148956747Y-101816402D01*
X148973223Y-101798223D01*
X148991402Y-101781747D01*
X149011107Y-101767133D01*
X149032151Y-101754520D01*
X149054329Y-101744030D01*
X149077429Y-101735765D01*
X149101227Y-101729804D01*
X149125496Y-101726204D01*
X149150000Y-101725000D01*
X150075000Y-101725000D01*
X150099504Y-101726204D01*
X150099504Y-101726204D01*
G37*
D19*
X149612500Y-102600000D03*
D16*
G36*
X153074504Y-101726204D02*
G01*
X153098773Y-101729804D01*
X153122571Y-101735765D01*
X153145671Y-101744030D01*
X153167849Y-101754520D01*
X153188893Y-101767133D01*
X153208598Y-101781747D01*
X153226777Y-101798223D01*
X153243253Y-101816402D01*
X153257867Y-101836107D01*
X153270480Y-101857151D01*
X153280970Y-101879329D01*
X153289235Y-101902429D01*
X153295196Y-101926227D01*
X153298796Y-101950496D01*
X153300000Y-101975000D01*
X153300000Y-103225000D01*
X153298796Y-103249504D01*
X153295196Y-103273773D01*
X153289235Y-103297571D01*
X153280970Y-103320671D01*
X153270480Y-103342849D01*
X153257867Y-103363893D01*
X153243253Y-103383598D01*
X153226777Y-103401777D01*
X153208598Y-103418253D01*
X153188893Y-103432867D01*
X153167849Y-103445480D01*
X153145671Y-103455970D01*
X153122571Y-103464235D01*
X153098773Y-103470196D01*
X153074504Y-103473796D01*
X153050000Y-103475000D01*
X152125000Y-103475000D01*
X152100496Y-103473796D01*
X152076227Y-103470196D01*
X152052429Y-103464235D01*
X152029329Y-103455970D01*
X152007151Y-103445480D01*
X151986107Y-103432867D01*
X151966402Y-103418253D01*
X151948223Y-103401777D01*
X151931747Y-103383598D01*
X151917133Y-103363893D01*
X151904520Y-103342849D01*
X151894030Y-103320671D01*
X151885765Y-103297571D01*
X151879804Y-103273773D01*
X151876204Y-103249504D01*
X151875000Y-103225000D01*
X151875000Y-101975000D01*
X151876204Y-101950496D01*
X151879804Y-101926227D01*
X151885765Y-101902429D01*
X151894030Y-101879329D01*
X151904520Y-101857151D01*
X151917133Y-101836107D01*
X151931747Y-101816402D01*
X151948223Y-101798223D01*
X151966402Y-101781747D01*
X151986107Y-101767133D01*
X152007151Y-101754520D01*
X152029329Y-101744030D01*
X152052429Y-101735765D01*
X152076227Y-101729804D01*
X152100496Y-101726204D01*
X152125000Y-101725000D01*
X153050000Y-101725000D01*
X153074504Y-101726204D01*
X153074504Y-101726204D01*
G37*
D19*
X152587500Y-102600000D03*
D16*
G36*
X139174504Y-87726204D02*
G01*
X139198773Y-87729804D01*
X139222571Y-87735765D01*
X139245671Y-87744030D01*
X139267849Y-87754520D01*
X139288893Y-87767133D01*
X139308598Y-87781747D01*
X139326777Y-87798223D01*
X139343253Y-87816402D01*
X139357867Y-87836107D01*
X139370480Y-87857151D01*
X139380970Y-87879329D01*
X139389235Y-87902429D01*
X139395196Y-87926227D01*
X139398796Y-87950496D01*
X139400000Y-87975000D01*
X139400000Y-89225000D01*
X139398796Y-89249504D01*
X139395196Y-89273773D01*
X139389235Y-89297571D01*
X139380970Y-89320671D01*
X139370480Y-89342849D01*
X139357867Y-89363893D01*
X139343253Y-89383598D01*
X139326777Y-89401777D01*
X139308598Y-89418253D01*
X139288893Y-89432867D01*
X139267849Y-89445480D01*
X139245671Y-89455970D01*
X139222571Y-89464235D01*
X139198773Y-89470196D01*
X139174504Y-89473796D01*
X139150000Y-89475000D01*
X138225000Y-89475000D01*
X138200496Y-89473796D01*
X138176227Y-89470196D01*
X138152429Y-89464235D01*
X138129329Y-89455970D01*
X138107151Y-89445480D01*
X138086107Y-89432867D01*
X138066402Y-89418253D01*
X138048223Y-89401777D01*
X138031747Y-89383598D01*
X138017133Y-89363893D01*
X138004520Y-89342849D01*
X137994030Y-89320671D01*
X137985765Y-89297571D01*
X137979804Y-89273773D01*
X137976204Y-89249504D01*
X137975000Y-89225000D01*
X137975000Y-87975000D01*
X137976204Y-87950496D01*
X137979804Y-87926227D01*
X137985765Y-87902429D01*
X137994030Y-87879329D01*
X138004520Y-87857151D01*
X138017133Y-87836107D01*
X138031747Y-87816402D01*
X138048223Y-87798223D01*
X138066402Y-87781747D01*
X138086107Y-87767133D01*
X138107151Y-87754520D01*
X138129329Y-87744030D01*
X138152429Y-87735765D01*
X138176227Y-87729804D01*
X138200496Y-87726204D01*
X138225000Y-87725000D01*
X139150000Y-87725000D01*
X139174504Y-87726204D01*
X139174504Y-87726204D01*
G37*
D19*
X138687500Y-88600000D03*
D16*
G36*
X136199504Y-87726204D02*
G01*
X136223773Y-87729804D01*
X136247571Y-87735765D01*
X136270671Y-87744030D01*
X136292849Y-87754520D01*
X136313893Y-87767133D01*
X136333598Y-87781747D01*
X136351777Y-87798223D01*
X136368253Y-87816402D01*
X136382867Y-87836107D01*
X136395480Y-87857151D01*
X136405970Y-87879329D01*
X136414235Y-87902429D01*
X136420196Y-87926227D01*
X136423796Y-87950496D01*
X136425000Y-87975000D01*
X136425000Y-89225000D01*
X136423796Y-89249504D01*
X136420196Y-89273773D01*
X136414235Y-89297571D01*
X136405970Y-89320671D01*
X136395480Y-89342849D01*
X136382867Y-89363893D01*
X136368253Y-89383598D01*
X136351777Y-89401777D01*
X136333598Y-89418253D01*
X136313893Y-89432867D01*
X136292849Y-89445480D01*
X136270671Y-89455970D01*
X136247571Y-89464235D01*
X136223773Y-89470196D01*
X136199504Y-89473796D01*
X136175000Y-89475000D01*
X135250000Y-89475000D01*
X135225496Y-89473796D01*
X135201227Y-89470196D01*
X135177429Y-89464235D01*
X135154329Y-89455970D01*
X135132151Y-89445480D01*
X135111107Y-89432867D01*
X135091402Y-89418253D01*
X135073223Y-89401777D01*
X135056747Y-89383598D01*
X135042133Y-89363893D01*
X135029520Y-89342849D01*
X135019030Y-89320671D01*
X135010765Y-89297571D01*
X135004804Y-89273773D01*
X135001204Y-89249504D01*
X135000000Y-89225000D01*
X135000000Y-87975000D01*
X135001204Y-87950496D01*
X135004804Y-87926227D01*
X135010765Y-87902429D01*
X135019030Y-87879329D01*
X135029520Y-87857151D01*
X135042133Y-87836107D01*
X135056747Y-87816402D01*
X135073223Y-87798223D01*
X135091402Y-87781747D01*
X135111107Y-87767133D01*
X135132151Y-87754520D01*
X135154329Y-87744030D01*
X135177429Y-87735765D01*
X135201227Y-87729804D01*
X135225496Y-87726204D01*
X135250000Y-87725000D01*
X136175000Y-87725000D01*
X136199504Y-87726204D01*
X136199504Y-87726204D01*
G37*
D19*
X135712500Y-88600000D03*
D16*
G36*
X139174504Y-90826204D02*
G01*
X139198773Y-90829804D01*
X139222571Y-90835765D01*
X139245671Y-90844030D01*
X139267849Y-90854520D01*
X139288893Y-90867133D01*
X139308598Y-90881747D01*
X139326777Y-90898223D01*
X139343253Y-90916402D01*
X139357867Y-90936107D01*
X139370480Y-90957151D01*
X139380970Y-90979329D01*
X139389235Y-91002429D01*
X139395196Y-91026227D01*
X139398796Y-91050496D01*
X139400000Y-91075000D01*
X139400000Y-92325000D01*
X139398796Y-92349504D01*
X139395196Y-92373773D01*
X139389235Y-92397571D01*
X139380970Y-92420671D01*
X139370480Y-92442849D01*
X139357867Y-92463893D01*
X139343253Y-92483598D01*
X139326777Y-92501777D01*
X139308598Y-92518253D01*
X139288893Y-92532867D01*
X139267849Y-92545480D01*
X139245671Y-92555970D01*
X139222571Y-92564235D01*
X139198773Y-92570196D01*
X139174504Y-92573796D01*
X139150000Y-92575000D01*
X138225000Y-92575000D01*
X138200496Y-92573796D01*
X138176227Y-92570196D01*
X138152429Y-92564235D01*
X138129329Y-92555970D01*
X138107151Y-92545480D01*
X138086107Y-92532867D01*
X138066402Y-92518253D01*
X138048223Y-92501777D01*
X138031747Y-92483598D01*
X138017133Y-92463893D01*
X138004520Y-92442849D01*
X137994030Y-92420671D01*
X137985765Y-92397571D01*
X137979804Y-92373773D01*
X137976204Y-92349504D01*
X137975000Y-92325000D01*
X137975000Y-91075000D01*
X137976204Y-91050496D01*
X137979804Y-91026227D01*
X137985765Y-91002429D01*
X137994030Y-90979329D01*
X138004520Y-90957151D01*
X138017133Y-90936107D01*
X138031747Y-90916402D01*
X138048223Y-90898223D01*
X138066402Y-90881747D01*
X138086107Y-90867133D01*
X138107151Y-90854520D01*
X138129329Y-90844030D01*
X138152429Y-90835765D01*
X138176227Y-90829804D01*
X138200496Y-90826204D01*
X138225000Y-90825000D01*
X139150000Y-90825000D01*
X139174504Y-90826204D01*
X139174504Y-90826204D01*
G37*
D19*
X138687500Y-91700000D03*
D16*
G36*
X136199504Y-90826204D02*
G01*
X136223773Y-90829804D01*
X136247571Y-90835765D01*
X136270671Y-90844030D01*
X136292849Y-90854520D01*
X136313893Y-90867133D01*
X136333598Y-90881747D01*
X136351777Y-90898223D01*
X136368253Y-90916402D01*
X136382867Y-90936107D01*
X136395480Y-90957151D01*
X136405970Y-90979329D01*
X136414235Y-91002429D01*
X136420196Y-91026227D01*
X136423796Y-91050496D01*
X136425000Y-91075000D01*
X136425000Y-92325000D01*
X136423796Y-92349504D01*
X136420196Y-92373773D01*
X136414235Y-92397571D01*
X136405970Y-92420671D01*
X136395480Y-92442849D01*
X136382867Y-92463893D01*
X136368253Y-92483598D01*
X136351777Y-92501777D01*
X136333598Y-92518253D01*
X136313893Y-92532867D01*
X136292849Y-92545480D01*
X136270671Y-92555970D01*
X136247571Y-92564235D01*
X136223773Y-92570196D01*
X136199504Y-92573796D01*
X136175000Y-92575000D01*
X135250000Y-92575000D01*
X135225496Y-92573796D01*
X135201227Y-92570196D01*
X135177429Y-92564235D01*
X135154329Y-92555970D01*
X135132151Y-92545480D01*
X135111107Y-92532867D01*
X135091402Y-92518253D01*
X135073223Y-92501777D01*
X135056747Y-92483598D01*
X135042133Y-92463893D01*
X135029520Y-92442849D01*
X135019030Y-92420671D01*
X135010765Y-92397571D01*
X135004804Y-92373773D01*
X135001204Y-92349504D01*
X135000000Y-92325000D01*
X135000000Y-91075000D01*
X135001204Y-91050496D01*
X135004804Y-91026227D01*
X135010765Y-91002429D01*
X135019030Y-90979329D01*
X135029520Y-90957151D01*
X135042133Y-90936107D01*
X135056747Y-90916402D01*
X135073223Y-90898223D01*
X135091402Y-90881747D01*
X135111107Y-90867133D01*
X135132151Y-90854520D01*
X135154329Y-90844030D01*
X135177429Y-90835765D01*
X135201227Y-90829804D01*
X135225496Y-90826204D01*
X135250000Y-90825000D01*
X136175000Y-90825000D01*
X136199504Y-90826204D01*
X136199504Y-90826204D01*
G37*
D19*
X135712500Y-91700000D03*
D21*
X139750000Y-110750000D03*
D23*
X139750000Y-108250000D03*
X137750000Y-108250000D03*
X137750000Y-110750000D03*
D24*
X135040000Y-115520000D03*
X135040000Y-103480000D03*
D25*
X137500000Y-70450000D03*
X134500000Y-65750000D03*
D26*
X140500000Y-65750000D03*
D27*
X140850000Y-85400000D03*
X140850000Y-80800000D03*
X140850000Y-83100000D03*
D28*
X134550000Y-83100000D03*
D27*
X140750000Y-98900000D03*
X140750000Y-94300000D03*
X140750000Y-96600000D03*
D28*
X134450000Y-96600000D03*
D29*
X137439100Y-89958000D03*
X144395000Y-91260000D03*
X145302400Y-99944600D03*
X148700000Y-76331200D03*
X153314000Y-87874600D03*
X143176900Y-76117600D03*
X136375300Y-79292600D03*
X143477800Y-98982500D03*
D30*
X144012500Y-72701000D02*
X140748800Y-72701000D01*
X140748800Y-72701000D02*
X140249900Y-73199900D01*
X150112500Y-72100000D02*
X148716500Y-73496000D01*
X148716500Y-73496000D02*
X144807500Y-73496000D01*
X144807500Y-73496000D02*
X144012500Y-72701000D01*
X144012500Y-72100000D02*
X144012500Y-72701000D01*
X140249900Y-73199900D02*
X140249900Y-74399700D01*
X140249900Y-74399700D02*
X140250000Y-74399700D01*
X137500000Y-70450000D02*
X140249900Y-73199900D01*
X140250000Y-75900000D02*
X140250000Y-74399700D01*
X138687500Y-89958000D02*
X138687500Y-88600000D01*
X152587500Y-105800000D02*
X152687500Y-105900000D01*
X152687500Y-105900000D02*
X152687500Y-109100000D01*
X152587500Y-105800000D02*
X152587500Y-102600000D01*
X151470000Y-112945000D02*
X152470300Y-112945000D01*
X152470300Y-112945000D02*
X152470300Y-109317200D01*
X152470300Y-109317200D02*
X152687500Y-109100000D01*
X138687500Y-91700000D02*
X138687500Y-89958000D01*
X137439100Y-89958000D02*
X138687500Y-89958000D01*
X140250000Y-75900000D02*
X141400300Y-75900000D01*
X146175000Y-83910000D02*
X151225000Y-83910000D01*
X141400300Y-75900000D02*
X143751100Y-78250800D01*
X143751100Y-78250800D02*
X143751100Y-81734900D01*
X143751100Y-81734900D02*
X145926200Y-83910000D01*
X145926200Y-83910000D02*
X146175000Y-83910000D01*
X135895000Y-103480000D02*
X135895000Y-106390500D01*
X135895000Y-106390500D02*
X136358700Y-106854200D01*
X136358700Y-106854200D02*
X136358700Y-109358700D01*
X136358700Y-109358700D02*
X137750000Y-110750000D01*
X135895000Y-103480000D02*
X135040000Y-103480000D01*
X135040000Y-115520000D02*
X135040000Y-113460000D01*
X135040000Y-113460000D02*
X137750000Y-110750000D01*
X139620000Y-98900000D02*
X140750000Y-98900000D01*
X135040000Y-103480000D02*
X139620000Y-98900000D01*
X138800000Y-88600000D02*
X138687500Y-88600000D01*
X140850000Y-86550000D02*
X138800000Y-88600000D01*
X140850000Y-85400000D02*
X140850000Y-86550000D01*
X153605000Y-112945000D02*
X156960000Y-116300000D01*
X152470300Y-112945000D02*
X153605000Y-112945000D01*
X150570000Y-112945000D02*
X151470000Y-112945000D01*
X148375000Y-110750000D02*
X150570000Y-112945000D01*
X144550000Y-110750000D02*
X148375000Y-110750000D01*
X136358700Y-106854200D02*
X140654200Y-106854200D01*
X140654200Y-106854200D02*
X144550000Y-110750000D01*
X144395000Y-92530000D02*
X144395000Y-91260000D01*
X139750000Y-112000000D02*
X139750000Y-110750000D01*
X144150000Y-116400000D02*
X139750000Y-112000000D01*
X145300000Y-116400000D02*
X144150000Y-116400000D01*
X144575000Y-102600000D02*
X144575000Y-100672000D01*
X144575000Y-100672000D02*
X145302400Y-99944600D01*
X148700000Y-76331200D02*
X148658800Y-76290000D01*
X148658800Y-76290000D02*
X148250300Y-76290000D01*
X148700000Y-76331200D02*
X148741200Y-76290000D01*
X148741200Y-76290000D02*
X149149700Y-76290000D01*
X146175000Y-76290000D02*
X148250300Y-76290000D01*
X151225000Y-76290000D02*
X149149700Y-76290000D01*
X153314000Y-87874600D02*
X153005000Y-88183600D01*
X153005000Y-88183600D02*
X153005000Y-89990000D01*
X146175000Y-78830000D02*
X145889300Y-78830000D01*
X145889300Y-78830000D02*
X143176900Y-76117600D01*
X153005000Y-95070000D02*
X154725300Y-95070000D01*
X154725300Y-101218800D02*
X154725300Y-95070000D01*
X151766600Y-101218800D02*
X150876400Y-102109000D01*
X150876400Y-102109000D02*
X150876400Y-103544700D01*
X150876400Y-103544700D02*
X150221100Y-104200000D01*
X150221100Y-104200000D02*
X146275000Y-104200000D01*
X146275000Y-104200000D02*
X144675000Y-105800000D01*
X151225000Y-78830000D02*
X153300300Y-78830000D01*
X153005000Y-95070000D02*
X151284700Y-95070000D01*
X151284700Y-95070000D02*
X151284700Y-88593700D01*
X151284700Y-88593700D02*
X154026400Y-85852000D01*
X154026400Y-85852000D02*
X154026400Y-79556100D01*
X154026400Y-79556100D02*
X153300300Y-78830000D01*
X151225000Y-78830000D02*
X146175000Y-78830000D01*
X154725300Y-111525300D02*
X156960000Y-113760000D01*
X153418800Y-101218800D02*
X154725300Y-102525300D01*
X151766600Y-101218800D02*
X153418800Y-101218800D01*
X154725300Y-101218800D02*
X154725300Y-102525300D01*
X154725300Y-102525300D02*
X154725300Y-111525300D01*
X149612500Y-102600000D02*
X146625000Y-102600000D01*
X149612500Y-105800000D02*
X146725000Y-105800000D01*
X148605000Y-116255000D02*
X148930000Y-116255000D01*
X144600000Y-112250000D02*
X148605000Y-116255000D01*
X144600000Y-112150000D02*
X144600000Y-112250000D01*
X136375300Y-80265700D02*
X136375300Y-79292600D01*
X136375300Y-80265700D02*
X133719800Y-80265700D01*
X139349700Y-80800000D02*
X138815400Y-80265700D01*
X138815400Y-80265700D02*
X136375300Y-80265700D01*
X151800000Y-68750000D02*
X151800000Y-67249700D01*
X133719800Y-80265700D02*
X133555700Y-80101600D01*
X133555700Y-80101600D02*
X133555700Y-69354900D01*
X133555700Y-69354900D02*
X138967400Y-63943200D01*
X138967400Y-63943200D02*
X144701000Y-63943200D01*
X144701000Y-63943200D02*
X145410300Y-64652500D01*
X145410300Y-64652500D02*
X149202800Y-64652500D01*
X149202800Y-64652500D02*
X151800000Y-67249700D01*
X133719800Y-80265700D02*
X133049600Y-80935900D01*
X133049600Y-80935900D02*
X133049600Y-88097000D01*
X133049600Y-88097000D02*
X135102600Y-90150000D01*
X135102600Y-90150000D02*
X136356500Y-90150000D01*
X136356500Y-90150000D02*
X137200000Y-90993500D01*
X137200000Y-90993500D02*
X137200000Y-92425500D01*
X137200000Y-92425500D02*
X139074500Y-94300000D01*
X139074500Y-94300000D02*
X140750000Y-94300000D01*
X153005000Y-92530000D02*
X154725300Y-92530000D01*
X154725300Y-92530000D02*
X154729900Y-92525400D01*
X154729900Y-92525400D02*
X154729900Y-73742400D01*
X154729900Y-73742400D02*
X153087500Y-72100000D01*
X151800000Y-70250300D02*
X151800000Y-70812500D01*
X151800000Y-70812500D02*
X153087500Y-72100000D01*
X140850000Y-80800000D02*
X139349700Y-80800000D01*
X151800000Y-68750000D02*
X151800000Y-70250300D01*
X146987500Y-72100000D02*
X144500000Y-69612500D01*
X144500000Y-69612500D02*
X141212600Y-69612500D01*
X141212600Y-69612500D02*
X140237300Y-68637200D01*
X140237300Y-68637200D02*
X136705300Y-68637200D01*
X136705300Y-68637200D02*
X135675400Y-69667100D01*
X135675400Y-69667100D02*
X135675400Y-72025400D01*
X135675400Y-72025400D02*
X137550600Y-73900600D01*
X137550600Y-73900600D02*
X137550600Y-75572400D01*
X137550600Y-75572400D02*
X140425600Y-78447400D01*
X140425600Y-78447400D02*
X140973400Y-78447400D01*
X140973400Y-78447400D02*
X143050700Y-80524700D01*
X143050700Y-80524700D02*
X143050700Y-83583200D01*
X143050700Y-83583200D02*
X146834100Y-87366600D01*
X146834100Y-87366600D02*
X146834100Y-96891200D01*
X146834100Y-96891200D02*
X146115300Y-97610000D01*
X144395000Y-97610000D02*
X146115300Y-97610000D01*
X149500000Y-68750000D02*
X149500000Y-67249700D01*
X149500000Y-67249700D02*
X147825300Y-65575000D01*
X147825300Y-65575000D02*
X144200000Y-65575000D01*
X147758847Y-71328653D02*
X146987500Y-72100000D01*
X149500000Y-69587500D02*
X147758847Y-71328653D01*
X149500000Y-68750000D02*
X149500000Y-69587500D01*
X135649700Y-93000000D02*
X135712500Y-92937200D01*
X135712500Y-92937200D02*
X135712500Y-91700000D01*
X134450000Y-94199700D02*
X135649700Y-93000000D01*
X139249700Y-96600000D02*
X135649700Y-93000000D01*
X140750000Y-96600000D02*
X142250300Y-96600000D01*
X144395000Y-89990000D02*
X142674700Y-89990000D01*
X142674700Y-89990000D02*
X142250300Y-90414400D01*
X142250300Y-90414400D02*
X142250300Y-96600000D01*
X140750000Y-96600000D02*
X139249700Y-96600000D01*
X134450000Y-96600000D02*
X134450000Y-94199700D01*
X144395000Y-95070000D02*
X146115300Y-95070000D01*
X135712500Y-86662800D02*
X139275300Y-83100000D01*
X139275300Y-83100000D02*
X140850000Y-83100000D01*
X135712500Y-86662800D02*
X135712500Y-88600000D01*
X134550000Y-85500300D02*
X135712500Y-86662800D01*
X134550000Y-83100000D02*
X134550000Y-85500300D01*
X146115300Y-88115300D02*
X146115300Y-89384700D01*
X141100000Y-83100000D02*
X146115300Y-88115300D01*
X140850000Y-83100000D02*
X141100000Y-83100000D01*
X146115300Y-95070000D02*
X146115300Y-89384700D01*
X146115300Y-89384700D02*
X146115300Y-89146600D01*
X149712500Y-109100000D02*
X146725000Y-109100000D01*
X153300300Y-81370000D02*
X153300300Y-85157800D01*
X153300300Y-85157800D02*
X150568800Y-87889300D01*
X150568800Y-87889300D02*
X150568800Y-96894100D01*
X150568800Y-96894100D02*
X151284700Y-97610000D01*
X150568800Y-96894100D02*
X148480400Y-98982500D01*
X148480400Y-98982500D02*
X143477800Y-98982500D01*
X144675000Y-109100000D02*
X143477800Y-107902800D01*
X143477800Y-107902800D02*
X143477800Y-98982500D01*
X153005000Y-97610000D02*
X151284700Y-97610000D01*
X151225000Y-81370000D02*
X153300300Y-81370000D01*
X146175000Y-81370000D02*
X151225000Y-81370000D01*
X147200000Y-68750000D02*
X145949700Y-68750000D01*
X144200000Y-67625000D02*
X136727000Y-67625000D01*
X136727000Y-67625000D02*
X134750000Y-69602000D01*
X134750000Y-69602000D02*
X134750000Y-74750000D01*
X145949700Y-68750000D02*
X144824700Y-67625000D01*
X144824700Y-67625000D02*
X144200000Y-67625000D01*
D31*
G36*
X138630263Y-97161432D02*
G01*
X138656409Y-97193291D01*
X138688268Y-97219437D01*
X138688270Y-97219439D01*
X138783554Y-97297636D01*
X138928613Y-97375172D01*
X139086011Y-97422918D01*
X139119434Y-97426210D01*
X139124188Y-97474482D01*
X139160498Y-97594180D01*
X139219463Y-97704494D01*
X139256809Y-97750000D01*
X139219463Y-97795506D01*
X139160498Y-97905820D01*
X139124188Y-98025518D01*
X139111928Y-98150000D01*
X139115000Y-98614250D01*
X139273750Y-98773000D01*
X140623000Y-98773000D01*
X140623000Y-98753000D01*
X140877000Y-98753000D01*
X140877000Y-98773000D01*
X142226250Y-98773000D01*
X142385000Y-98614250D01*
X142388072Y-98150000D01*
X142375812Y-98025518D01*
X142339502Y-97905820D01*
X142280537Y-97795506D01*
X142243191Y-97750000D01*
X142280537Y-97704494D01*
X142339502Y-97594180D01*
X142375812Y-97474482D01*
X142380566Y-97426210D01*
X142413989Y-97422918D01*
X142536928Y-97385625D01*
X142536928Y-98170000D01*
X142549188Y-98294482D01*
X142585498Y-98414180D01*
X142597612Y-98436844D01*
X142560595Y-98492244D01*
X142482574Y-98680602D01*
X142442800Y-98880561D01*
X142442800Y-99084439D01*
X142482574Y-99284398D01*
X142560595Y-99472756D01*
X142642801Y-99595786D01*
X142642800Y-107861781D01*
X142638760Y-107902800D01*
X142642800Y-107943818D01*
X142654882Y-108066488D01*
X142702628Y-108223886D01*
X142780164Y-108368945D01*
X142884509Y-108496091D01*
X142916379Y-108522246D01*
X143461928Y-109067795D01*
X143461928Y-109550001D01*
X143478992Y-109723255D01*
X143529528Y-109889851D01*
X143611595Y-110043387D01*
X143722038Y-110177962D01*
X143856613Y-110288405D01*
X144010149Y-110370472D01*
X144176745Y-110421008D01*
X144349999Y-110438072D01*
X145000001Y-110438072D01*
X145173255Y-110421008D01*
X145339851Y-110370472D01*
X145493387Y-110288405D01*
X145627962Y-110177962D01*
X145700000Y-110090184D01*
X145772038Y-110177962D01*
X145906613Y-110288405D01*
X146060149Y-110370472D01*
X146226745Y-110421008D01*
X146399999Y-110438072D01*
X147050001Y-110438072D01*
X147223255Y-110421008D01*
X147389851Y-110370472D01*
X147543387Y-110288405D01*
X147677962Y-110177962D01*
X147788405Y-110043387D01*
X147846339Y-109935000D01*
X148390139Y-109935000D01*
X148429528Y-110064850D01*
X148511595Y-110218386D01*
X148622038Y-110352962D01*
X148756614Y-110463405D01*
X148910150Y-110545472D01*
X149076746Y-110596008D01*
X149250000Y-110613072D01*
X150175000Y-110613072D01*
X150348254Y-110596008D01*
X150514850Y-110545472D01*
X150668386Y-110463405D01*
X150802962Y-110352962D01*
X150913405Y-110218386D01*
X150995472Y-110064850D01*
X151022727Y-109975000D01*
X151336928Y-109975000D01*
X151349188Y-110099482D01*
X151385498Y-110219180D01*
X151444463Y-110329494D01*
X151523815Y-110426185D01*
X151620506Y-110505537D01*
X151730820Y-110564502D01*
X151850518Y-110600812D01*
X151975000Y-110613072D01*
X152401750Y-110610000D01*
X152560500Y-110451250D01*
X152560500Y-109227000D01*
X151498750Y-109227000D01*
X151340000Y-109385750D01*
X151336928Y-109975000D01*
X151022727Y-109975000D01*
X151046008Y-109898254D01*
X151063072Y-109725000D01*
X151063072Y-108475000D01*
X151046008Y-108301746D01*
X151022728Y-108225000D01*
X151336928Y-108225000D01*
X151340000Y-108814250D01*
X151498750Y-108973000D01*
X152560500Y-108973000D01*
X152560500Y-107748750D01*
X152401750Y-107590000D01*
X151975000Y-107586928D01*
X151850518Y-107599188D01*
X151730820Y-107635498D01*
X151620506Y-107694463D01*
X151523815Y-107773815D01*
X151444463Y-107870506D01*
X151385498Y-107980820D01*
X151349188Y-108100518D01*
X151336928Y-108225000D01*
X151022728Y-108225000D01*
X150995472Y-108135150D01*
X150913405Y-107981614D01*
X150802962Y-107847038D01*
X150668386Y-107736595D01*
X150514850Y-107654528D01*
X150348254Y-107603992D01*
X150175000Y-107586928D01*
X149250000Y-107586928D01*
X149076746Y-107603992D01*
X148910150Y-107654528D01*
X148756614Y-107736595D01*
X148622038Y-107847038D01*
X148511595Y-107981614D01*
X148429528Y-108135150D01*
X148390139Y-108265000D01*
X147846339Y-108265000D01*
X147788405Y-108156613D01*
X147677962Y-108022038D01*
X147543387Y-107911595D01*
X147389851Y-107829528D01*
X147223255Y-107778992D01*
X147050001Y-107761928D01*
X146399999Y-107761928D01*
X146226745Y-107778992D01*
X146060149Y-107829528D01*
X145906613Y-107911595D01*
X145772038Y-108022038D01*
X145700000Y-108109816D01*
X145627962Y-108022038D01*
X145493387Y-107911595D01*
X145339851Y-107829528D01*
X145173255Y-107778992D01*
X145000001Y-107761928D01*
X144517795Y-107761928D01*
X144312800Y-107556933D01*
X144312800Y-107134408D01*
X144349999Y-107138072D01*
X145000001Y-107138072D01*
X145173255Y-107121008D01*
X145339851Y-107070472D01*
X145493387Y-106988405D01*
X145627962Y-106877962D01*
X145700000Y-106790184D01*
X145772038Y-106877962D01*
X145906613Y-106988405D01*
X146060149Y-107070472D01*
X146226745Y-107121008D01*
X146399999Y-107138072D01*
X147050001Y-107138072D01*
X147223255Y-107121008D01*
X147389851Y-107070472D01*
X147543387Y-106988405D01*
X147677962Y-106877962D01*
X147788405Y-106743387D01*
X147846339Y-106635000D01*
X148290139Y-106635000D01*
X148329528Y-106764850D01*
X148411595Y-106918386D01*
X148522038Y-107052962D01*
X148656614Y-107163405D01*
X148810150Y-107245472D01*
X148976746Y-107296008D01*
X149150000Y-107313072D01*
X150075000Y-107313072D01*
X150248254Y-107296008D01*
X150414850Y-107245472D01*
X150568386Y-107163405D01*
X150702962Y-107052962D01*
X150813405Y-106918386D01*
X150895472Y-106764850D01*
X150922727Y-106675000D01*
X151236928Y-106675000D01*
X151249188Y-106799482D01*
X151285498Y-106919180D01*
X151344463Y-107029494D01*
X151423815Y-107126185D01*
X151520506Y-107205537D01*
X151630820Y-107264502D01*
X151750518Y-107300812D01*
X151875000Y-107313072D01*
X152301750Y-107310000D01*
X152460500Y-107151250D01*
X152460500Y-105927000D01*
X151398750Y-105927000D01*
X151240000Y-106085750D01*
X151236928Y-106675000D01*
X150922727Y-106675000D01*
X150946008Y-106598254D01*
X150963072Y-106425000D01*
X150963072Y-105175000D01*
X150946008Y-105001746D01*
X150922728Y-104925000D01*
X151236928Y-104925000D01*
X151240000Y-105514250D01*
X151398750Y-105673000D01*
X152460500Y-105673000D01*
X152460500Y-104448750D01*
X152301750Y-104290000D01*
X151875000Y-104286928D01*
X151750518Y-104299188D01*
X151630820Y-104335498D01*
X151520506Y-104394463D01*
X151423815Y-104473815D01*
X151344463Y-104570506D01*
X151285498Y-104680820D01*
X151249188Y-104800518D01*
X151236928Y-104925000D01*
X150922728Y-104925000D01*
X150895472Y-104835150D01*
X150850658Y-104751309D01*
X151437826Y-104164142D01*
X151469691Y-104137991D01*
X151560743Y-104027044D01*
X151630820Y-104064502D01*
X151750518Y-104100812D01*
X151875000Y-104113072D01*
X152301750Y-104110000D01*
X152460500Y-103951250D01*
X152460500Y-102727000D01*
X152440500Y-102727000D01*
X152440500Y-102473000D01*
X152460500Y-102473000D01*
X152460500Y-102453000D01*
X152714500Y-102453000D01*
X152714500Y-102473000D01*
X152734500Y-102473000D01*
X152734500Y-102727000D01*
X152714500Y-102727000D01*
X152714500Y-103951250D01*
X152873250Y-104110000D01*
X153300000Y-104113072D01*
X153424482Y-104100812D01*
X153544180Y-104064502D01*
X153654494Y-104005537D01*
X153751185Y-103926185D01*
X153830537Y-103829494D01*
X153889502Y-103719180D01*
X153890300Y-103716549D01*
X153890300Y-104683451D01*
X153889502Y-104680820D01*
X153830537Y-104570506D01*
X153751185Y-104473815D01*
X153654494Y-104394463D01*
X153544180Y-104335498D01*
X153424482Y-104299188D01*
X153300000Y-104286928D01*
X152873250Y-104290000D01*
X152714500Y-104448750D01*
X152714500Y-105673000D01*
X152734500Y-105673000D01*
X152734500Y-105927000D01*
X152714500Y-105927000D01*
X152714500Y-107151250D01*
X152873250Y-107310000D01*
X153300000Y-107313072D01*
X153424482Y-107300812D01*
X153544180Y-107264502D01*
X153654494Y-107205537D01*
X153751185Y-107126185D01*
X153830537Y-107029494D01*
X153889502Y-106919180D01*
X153890300Y-106916548D01*
X153890301Y-107821478D01*
X153851185Y-107773815D01*
X153754494Y-107694463D01*
X153644180Y-107635498D01*
X153524482Y-107599188D01*
X153400000Y-107586928D01*
X152973250Y-107590000D01*
X152814500Y-107748750D01*
X152814500Y-108973000D01*
X152834500Y-108973000D01*
X152834500Y-109227000D01*
X152814500Y-109227000D01*
X152814500Y-110451250D01*
X152973250Y-110610000D01*
X153400000Y-110613072D01*
X153524482Y-110600812D01*
X153644180Y-110564502D01*
X153754494Y-110505537D01*
X153851185Y-110426185D01*
X153890301Y-110378522D01*
X153890301Y-111484271D01*
X153886260Y-111525300D01*
X153902382Y-111688988D01*
X153950128Y-111846386D01*
X154027664Y-111991445D01*
X154027665Y-111991446D01*
X154132010Y-112118591D01*
X154163874Y-112144741D01*
X155495728Y-113476596D01*
X155467815Y-113760000D01*
X155496487Y-114051111D01*
X155581401Y-114331034D01*
X155719294Y-114589014D01*
X155904866Y-114815134D01*
X156130986Y-115000706D01*
X156195523Y-115035201D01*
X156078645Y-115104822D01*
X155862412Y-115299731D01*
X155688359Y-115533080D01*
X155563175Y-115795901D01*
X155518524Y-115943110D01*
X155639845Y-116173000D01*
X156833000Y-116173000D01*
X156833000Y-116153000D01*
X157087000Y-116153000D01*
X157087000Y-116173000D01*
X159373000Y-116173000D01*
X159373000Y-116153000D01*
X159627000Y-116153000D01*
X159627000Y-116173000D01*
X160826250Y-116173000D01*
X160985000Y-116014250D01*
X160988072Y-115450000D01*
X160975812Y-115325518D01*
X160939502Y-115205820D01*
X160880537Y-115095506D01*
X160801185Y-114998815D01*
X160704494Y-114919463D01*
X160594180Y-114860498D01*
X160525313Y-114839607D01*
X160555134Y-114815134D01*
X160740706Y-114589014D01*
X160878599Y-114331034D01*
X160963513Y-114051111D01*
X160992185Y-113760000D01*
X160963513Y-113468889D01*
X160878599Y-113188966D01*
X160740706Y-112930986D01*
X160555134Y-112704866D01*
X160329014Y-112519294D01*
X160071034Y-112381401D01*
X159791111Y-112296487D01*
X159572950Y-112275000D01*
X159427050Y-112275000D01*
X159208889Y-112296487D01*
X158928966Y-112381401D01*
X158670986Y-112519294D01*
X158444866Y-112704866D01*
X158259294Y-112930986D01*
X158230000Y-112985791D01*
X158200706Y-112930986D01*
X158015134Y-112704866D01*
X157789014Y-112519294D01*
X157531034Y-112381401D01*
X157251111Y-112296487D01*
X157032950Y-112275000D01*
X156887050Y-112275000D01*
X156676596Y-112295728D01*
X155590867Y-111210000D01*
X161465278Y-111210000D01*
X161555665Y-111218863D01*
X161609214Y-111235030D01*
X161658597Y-111261288D01*
X161701945Y-111296641D01*
X161737600Y-111339740D01*
X161764201Y-111388937D01*
X161780742Y-111442375D01*
X161790000Y-111530455D01*
X161790001Y-118465269D01*
X161781138Y-118555664D01*
X161764970Y-118609214D01*
X161738712Y-118658597D01*
X161703357Y-118701947D01*
X161660261Y-118737599D01*
X161611063Y-118764201D01*
X161557625Y-118780742D01*
X161469545Y-118790000D01*
X134034729Y-118790000D01*
X133847216Y-118771614D01*
X133700252Y-118727243D01*
X133564703Y-118655171D01*
X133445742Y-118558148D01*
X133347882Y-118439856D01*
X133274868Y-118304819D01*
X133229471Y-118158167D01*
X133210000Y-117972908D01*
X133210000Y-117189609D01*
X133549997Y-117189609D01*
X133736073Y-117530766D01*
X134153409Y-117746513D01*
X134604815Y-117876696D01*
X135072946Y-117916313D01*
X135539811Y-117863842D01*
X135987468Y-117721297D01*
X136343927Y-117530766D01*
X136530003Y-117189609D01*
X135040000Y-115699605D01*
X133549997Y-117189609D01*
X133210000Y-117189609D01*
X133210000Y-116922522D01*
X133370391Y-117010003D01*
X134860395Y-115520000D01*
X135219605Y-115520000D01*
X136709609Y-117010003D01*
X137050766Y-116823927D01*
X137266513Y-116406591D01*
X137396696Y-115955185D01*
X137436313Y-115487054D01*
X137383842Y-115020189D01*
X137241297Y-114572532D01*
X137050766Y-114216073D01*
X136709609Y-114029997D01*
X135219605Y-115520000D01*
X134860395Y-115520000D01*
X133370391Y-114029997D01*
X133210000Y-114117478D01*
X133210000Y-113850391D01*
X133549997Y-113850391D01*
X135040000Y-115340395D01*
X136530003Y-113850391D01*
X136343927Y-113509234D01*
X135926591Y-113293487D01*
X135475185Y-113163304D01*
X135007054Y-113123687D01*
X134540189Y-113176158D01*
X134092532Y-113318703D01*
X133736073Y-113509234D01*
X133549997Y-113850391D01*
X133210000Y-113850391D01*
X133210000Y-110818531D01*
X136259389Y-110818531D01*
X136301401Y-111108019D01*
X136399081Y-111383747D01*
X136472528Y-111521157D01*
X136721603Y-111598792D01*
X137570395Y-110750000D01*
X136721603Y-109901208D01*
X136472528Y-109978843D01*
X136346629Y-110242883D01*
X136274661Y-110526411D01*
X136259389Y-110818531D01*
X133210000Y-110818531D01*
X133210000Y-108103740D01*
X136265000Y-108103740D01*
X136265000Y-108396260D01*
X136322068Y-108683158D01*
X136434010Y-108953411D01*
X136596525Y-109196632D01*
X136803368Y-109403475D01*
X136966410Y-109512416D01*
X136901208Y-109721603D01*
X137750000Y-110570395D01*
X137764143Y-110556253D01*
X137943748Y-110735858D01*
X137929605Y-110750000D01*
X137943748Y-110764143D01*
X137764143Y-110943748D01*
X137750000Y-110929605D01*
X136901208Y-111778397D01*
X136978843Y-112027472D01*
X137242883Y-112153371D01*
X137526411Y-112225339D01*
X137818531Y-112240611D01*
X138108019Y-112198599D01*
X138383747Y-112100919D01*
X138459850Y-112060241D01*
X138545506Y-112130537D01*
X138655820Y-112189502D01*
X138775518Y-112225812D01*
X138900000Y-112238072D01*
X138949646Y-112238072D01*
X138974828Y-112321086D01*
X139052364Y-112466145D01*
X139156709Y-112593291D01*
X139188579Y-112619446D01*
X142761928Y-116192797D01*
X142761928Y-117900000D01*
X142774188Y-118024482D01*
X142810498Y-118144180D01*
X142869463Y-118254494D01*
X142948815Y-118351185D01*
X143045506Y-118430537D01*
X143155820Y-118489502D01*
X143275518Y-118525812D01*
X143400000Y-118538072D01*
X145700000Y-118538072D01*
X145824482Y-118525812D01*
X145944180Y-118489502D01*
X146054494Y-118430537D01*
X146151185Y-118351185D01*
X146230537Y-118254494D01*
X146289502Y-118144180D01*
X146325812Y-118024482D01*
X146338072Y-117900000D01*
X146338072Y-115400000D01*
X146325812Y-115275518D01*
X146289502Y-115155820D01*
X146248794Y-115079661D01*
X147791928Y-116622796D01*
X147791928Y-117510000D01*
X147804188Y-117634482D01*
X147840498Y-117754180D01*
X147899463Y-117864494D01*
X147978815Y-117961185D01*
X148075506Y-118040537D01*
X148185820Y-118099502D01*
X148305518Y-118135812D01*
X148430000Y-118148072D01*
X149430000Y-118148072D01*
X149554482Y-118135812D01*
X149674180Y-118099502D01*
X149784494Y-118040537D01*
X149881185Y-117961185D01*
X149960537Y-117864494D01*
X150019502Y-117754180D01*
X150055812Y-117634482D01*
X150068072Y-117510000D01*
X150068072Y-116656890D01*
X155518524Y-116656890D01*
X155563175Y-116804099D01*
X155688359Y-117066920D01*
X155862412Y-117300269D01*
X156078645Y-117495178D01*
X156328748Y-117644157D01*
X156603109Y-117741481D01*
X156833000Y-117620814D01*
X156833000Y-116427000D01*
X157087000Y-116427000D01*
X157087000Y-117620814D01*
X157316891Y-117741481D01*
X157591252Y-117644157D01*
X157841355Y-117495178D01*
X158037502Y-117318374D01*
X158060498Y-117394180D01*
X158119463Y-117504494D01*
X158198815Y-117601185D01*
X158295506Y-117680537D01*
X158405820Y-117739502D01*
X158525518Y-117775812D01*
X158650000Y-117788072D01*
X159214250Y-117785000D01*
X159373000Y-117626250D01*
X159373000Y-116427000D01*
X159627000Y-116427000D01*
X159627000Y-117626250D01*
X159785750Y-117785000D01*
X160350000Y-117788072D01*
X160474482Y-117775812D01*
X160594180Y-117739502D01*
X160704494Y-117680537D01*
X160801185Y-117601185D01*
X160880537Y-117504494D01*
X160939502Y-117394180D01*
X160975812Y-117274482D01*
X160988072Y-117150000D01*
X160985000Y-116585750D01*
X160826250Y-116427000D01*
X159627000Y-116427000D01*
X159373000Y-116427000D01*
X157087000Y-116427000D01*
X156833000Y-116427000D01*
X155639845Y-116427000D01*
X155518524Y-116656890D01*
X150068072Y-116656890D01*
X150068072Y-115000000D01*
X150055812Y-114875518D01*
X150019502Y-114755820D01*
X149960537Y-114645506D01*
X149881185Y-114548815D01*
X149784494Y-114469463D01*
X149674180Y-114410498D01*
X149554482Y-114374188D01*
X149430000Y-114361928D01*
X148430000Y-114361928D01*
X148305518Y-114374188D01*
X148185820Y-114410498D01*
X148075506Y-114469463D01*
X148034216Y-114503349D01*
X147730867Y-114200000D01*
X150331928Y-114200000D01*
X150344188Y-114324482D01*
X150380498Y-114444180D01*
X150439463Y-114554494D01*
X150518815Y-114651185D01*
X150615506Y-114730537D01*
X150725820Y-114789502D01*
X150845518Y-114825812D01*
X150970000Y-114838072D01*
X151184250Y-114835000D01*
X151343000Y-114676250D01*
X151343000Y-113072000D01*
X151597000Y-113072000D01*
X151597000Y-114676250D01*
X151755750Y-114835000D01*
X151970000Y-114838072D01*
X152094482Y-114825812D01*
X152214180Y-114789502D01*
X152324494Y-114730537D01*
X152421185Y-114651185D01*
X152500537Y-114554494D01*
X152559502Y-114444180D01*
X152595812Y-114324482D01*
X152608072Y-114200000D01*
X152605000Y-113230750D01*
X152446250Y-113072000D01*
X151597000Y-113072000D01*
X151343000Y-113072000D01*
X150493750Y-113072000D01*
X150335000Y-113230750D01*
X150331928Y-114200000D01*
X147730867Y-114200000D01*
X146338072Y-112807205D01*
X146338072Y-111690000D01*
X150331928Y-111690000D01*
X150335000Y-112659250D01*
X150493750Y-112818000D01*
X151343000Y-112818000D01*
X151343000Y-111213750D01*
X151597000Y-111213750D01*
X151597000Y-112818000D01*
X152446250Y-112818000D01*
X152605000Y-112659250D01*
X152608072Y-111690000D01*
X152595812Y-111565518D01*
X152559502Y-111445820D01*
X152500537Y-111335506D01*
X152421185Y-111238815D01*
X152324494Y-111159463D01*
X152214180Y-111100498D01*
X152094482Y-111064188D01*
X151970000Y-111051928D01*
X151755750Y-111055000D01*
X151597000Y-111213750D01*
X151343000Y-111213750D01*
X151184250Y-111055000D01*
X150970000Y-111051928D01*
X150845518Y-111064188D01*
X150725820Y-111100498D01*
X150615506Y-111159463D01*
X150518815Y-111238815D01*
X150439463Y-111335506D01*
X150380498Y-111445820D01*
X150344188Y-111565518D01*
X150331928Y-111690000D01*
X146338072Y-111690000D01*
X146338072Y-111100000D01*
X146325812Y-110975518D01*
X146289502Y-110855820D01*
X146230537Y-110745506D01*
X146151185Y-110648815D01*
X146054494Y-110569463D01*
X145944180Y-110510498D01*
X145824482Y-110474188D01*
X145700000Y-110461928D01*
X143400000Y-110461928D01*
X143275518Y-110474188D01*
X143155820Y-110510498D01*
X143045506Y-110569463D01*
X142948815Y-110648815D01*
X142869463Y-110745506D01*
X142810498Y-110855820D01*
X142774188Y-110975518D01*
X142761928Y-111100000D01*
X142761928Y-113600000D01*
X142774188Y-113724482D01*
X142810498Y-113844180D01*
X142851206Y-113920338D01*
X141013214Y-112082347D01*
X141051185Y-112051185D01*
X141130537Y-111954494D01*
X141189502Y-111844180D01*
X141225812Y-111724482D01*
X141238072Y-111600000D01*
X141238072Y-109900000D01*
X141225812Y-109775518D01*
X141189502Y-109655820D01*
X141130537Y-109545506D01*
X141051185Y-109448815D01*
X140954494Y-109369463D01*
X140844180Y-109310498D01*
X140802310Y-109297797D01*
X140903475Y-109196632D01*
X141065990Y-108953411D01*
X141177932Y-108683158D01*
X141235000Y-108396260D01*
X141235000Y-108103740D01*
X141177932Y-107816842D01*
X141065990Y-107546589D01*
X140903475Y-107303368D01*
X140696632Y-107096525D01*
X140453411Y-106934010D01*
X140183158Y-106822068D01*
X139896260Y-106765000D01*
X139603740Y-106765000D01*
X139316842Y-106822068D01*
X139046589Y-106934010D01*
X138803368Y-107096525D01*
X138750000Y-107149893D01*
X138696632Y-107096525D01*
X138453411Y-106934010D01*
X138183158Y-106822068D01*
X137896260Y-106765000D01*
X137603740Y-106765000D01*
X137316842Y-106822068D01*
X137046589Y-106934010D01*
X136803368Y-107096525D01*
X136596525Y-107303368D01*
X136434010Y-107546589D01*
X136322068Y-107816842D01*
X136265000Y-108103740D01*
X133210000Y-108103740D01*
X133210000Y-105149609D01*
X133549997Y-105149609D01*
X133736073Y-105490766D01*
X134153409Y-105706513D01*
X134604815Y-105836696D01*
X135072946Y-105876313D01*
X135539811Y-105823842D01*
X135987468Y-105681297D01*
X136343927Y-105490766D01*
X136530003Y-105149609D01*
X135040000Y-103659605D01*
X133549997Y-105149609D01*
X133210000Y-105149609D01*
X133210000Y-104882522D01*
X133370391Y-104970003D01*
X134860395Y-103480000D01*
X135219605Y-103480000D01*
X136709609Y-104970003D01*
X137050766Y-104783927D01*
X137266513Y-104366591D01*
X137396696Y-103915185D01*
X137436313Y-103447054D01*
X137383842Y-102980189D01*
X137241297Y-102532532D01*
X137050766Y-102176073D01*
X136709609Y-101989997D01*
X135219605Y-103480000D01*
X134860395Y-103480000D01*
X133370391Y-101989997D01*
X133210000Y-102077478D01*
X133210000Y-101810391D01*
X133549997Y-101810391D01*
X135040000Y-103300395D01*
X136530003Y-101810391D01*
X136343927Y-101469234D01*
X135926591Y-101253487D01*
X135475185Y-101123304D01*
X135007054Y-101083687D01*
X134540189Y-101136158D01*
X134092532Y-101278703D01*
X133736073Y-101469234D01*
X133549997Y-101810391D01*
X133210000Y-101810391D01*
X133210000Y-99650000D01*
X139111928Y-99650000D01*
X139124188Y-99774482D01*
X139160498Y-99894180D01*
X139219463Y-100004494D01*
X139298815Y-100101185D01*
X139395506Y-100180537D01*
X139505820Y-100239502D01*
X139625518Y-100275812D01*
X139750000Y-100288072D01*
X140464250Y-100285000D01*
X140623000Y-100126250D01*
X140623000Y-99027000D01*
X140877000Y-99027000D01*
X140877000Y-100126250D01*
X141035750Y-100285000D01*
X141750000Y-100288072D01*
X141874482Y-100275812D01*
X141994180Y-100239502D01*
X142104494Y-100180537D01*
X142201185Y-100101185D01*
X142280537Y-100004494D01*
X142339502Y-99894180D01*
X142375812Y-99774482D01*
X142388072Y-99650000D01*
X142385000Y-99185750D01*
X142226250Y-99027000D01*
X140877000Y-99027000D01*
X140623000Y-99027000D01*
X139273750Y-99027000D01*
X139115000Y-99185750D01*
X139111928Y-99650000D01*
X133210000Y-99650000D01*
X133210000Y-99090770D01*
X133325518Y-99125812D01*
X133450000Y-99138072D01*
X135450000Y-99138072D01*
X135574482Y-99125812D01*
X135694180Y-99089502D01*
X135804494Y-99030537D01*
X135901185Y-98951185D01*
X135980537Y-98854494D01*
X136039502Y-98744180D01*
X136075812Y-98624482D01*
X136088072Y-98500000D01*
X136088072Y-94700000D01*
X136079249Y-94610417D01*
X138630263Y-97161432D01*
X138630263Y-97161432D01*
G37*
X138630263Y-97161432D02*
X138656409Y-97193291D01*
X138688268Y-97219437D01*
X138688270Y-97219439D01*
X138783554Y-97297636D01*
X138928613Y-97375172D01*
X139086011Y-97422918D01*
X139119434Y-97426210D01*
X139124188Y-97474482D01*
X139160498Y-97594180D01*
X139219463Y-97704494D01*
X139256809Y-97750000D01*
X139219463Y-97795506D01*
X139160498Y-97905820D01*
X139124188Y-98025518D01*
X139111928Y-98150000D01*
X139115000Y-98614250D01*
X139273750Y-98773000D01*
X140623000Y-98773000D01*
X140623000Y-98753000D01*
X140877000Y-98753000D01*
X140877000Y-98773000D01*
X142226250Y-98773000D01*
X142385000Y-98614250D01*
X142388072Y-98150000D01*
X142375812Y-98025518D01*
X142339502Y-97905820D01*
X142280537Y-97795506D01*
X142243191Y-97750000D01*
X142280537Y-97704494D01*
X142339502Y-97594180D01*
X142375812Y-97474482D01*
X142380566Y-97426210D01*
X142413989Y-97422918D01*
X142536928Y-97385625D01*
X142536928Y-98170000D01*
X142549188Y-98294482D01*
X142585498Y-98414180D01*
X142597612Y-98436844D01*
X142560595Y-98492244D01*
X142482574Y-98680602D01*
X142442800Y-98880561D01*
X142442800Y-99084439D01*
X142482574Y-99284398D01*
X142560595Y-99472756D01*
X142642801Y-99595786D01*
X142642800Y-107861781D01*
X142638760Y-107902800D01*
X142642800Y-107943818D01*
X142654882Y-108066488D01*
X142702628Y-108223886D01*
X142780164Y-108368945D01*
X142884509Y-108496091D01*
X142916379Y-108522246D01*
X143461928Y-109067795D01*
X143461928Y-109550001D01*
X143478992Y-109723255D01*
X143529528Y-109889851D01*
X143611595Y-110043387D01*
X143722038Y-110177962D01*
X143856613Y-110288405D01*
X144010149Y-110370472D01*
X144176745Y-110421008D01*
X144349999Y-110438072D01*
X145000001Y-110438072D01*
X145173255Y-110421008D01*
X145339851Y-110370472D01*
X145493387Y-110288405D01*
X145627962Y-110177962D01*
X145700000Y-110090184D01*
X145772038Y-110177962D01*
X145906613Y-110288405D01*
X146060149Y-110370472D01*
X146226745Y-110421008D01*
X146399999Y-110438072D01*
X147050001Y-110438072D01*
X147223255Y-110421008D01*
X147389851Y-110370472D01*
X147543387Y-110288405D01*
X147677962Y-110177962D01*
X147788405Y-110043387D01*
X147846339Y-109935000D01*
X148390139Y-109935000D01*
X148429528Y-110064850D01*
X148511595Y-110218386D01*
X148622038Y-110352962D01*
X148756614Y-110463405D01*
X148910150Y-110545472D01*
X149076746Y-110596008D01*
X149250000Y-110613072D01*
X150175000Y-110613072D01*
X150348254Y-110596008D01*
X150514850Y-110545472D01*
X150668386Y-110463405D01*
X150802962Y-110352962D01*
X150913405Y-110218386D01*
X150995472Y-110064850D01*
X151022727Y-109975000D01*
X151336928Y-109975000D01*
X151349188Y-110099482D01*
X151385498Y-110219180D01*
X151444463Y-110329494D01*
X151523815Y-110426185D01*
X151620506Y-110505537D01*
X151730820Y-110564502D01*
X151850518Y-110600812D01*
X151975000Y-110613072D01*
X152401750Y-110610000D01*
X152560500Y-110451250D01*
X152560500Y-109227000D01*
X151498750Y-109227000D01*
X151340000Y-109385750D01*
X151336928Y-109975000D01*
X151022727Y-109975000D01*
X151046008Y-109898254D01*
X151063072Y-109725000D01*
X151063072Y-108475000D01*
X151046008Y-108301746D01*
X151022728Y-108225000D01*
X151336928Y-108225000D01*
X151340000Y-108814250D01*
X151498750Y-108973000D01*
X152560500Y-108973000D01*
X152560500Y-107748750D01*
X152401750Y-107590000D01*
X151975000Y-107586928D01*
X151850518Y-107599188D01*
X151730820Y-107635498D01*
X151620506Y-107694463D01*
X151523815Y-107773815D01*
X151444463Y-107870506D01*
X151385498Y-107980820D01*
X151349188Y-108100518D01*
X151336928Y-108225000D01*
X151022728Y-108225000D01*
X150995472Y-108135150D01*
X150913405Y-107981614D01*
X150802962Y-107847038D01*
X150668386Y-107736595D01*
X150514850Y-107654528D01*
X150348254Y-107603992D01*
X150175000Y-107586928D01*
X149250000Y-107586928D01*
X149076746Y-107603992D01*
X148910150Y-107654528D01*
X148756614Y-107736595D01*
X148622038Y-107847038D01*
X148511595Y-107981614D01*
X148429528Y-108135150D01*
X148390139Y-108265000D01*
X147846339Y-108265000D01*
X147788405Y-108156613D01*
X147677962Y-108022038D01*
X147543387Y-107911595D01*
X147389851Y-107829528D01*
X147223255Y-107778992D01*
X147050001Y-107761928D01*
X146399999Y-107761928D01*
X146226745Y-107778992D01*
X146060149Y-107829528D01*
X145906613Y-107911595D01*
X145772038Y-108022038D01*
X145700000Y-108109816D01*
X145627962Y-108022038D01*
X145493387Y-107911595D01*
X145339851Y-107829528D01*
X145173255Y-107778992D01*
X145000001Y-107761928D01*
X144517795Y-107761928D01*
X144312800Y-107556933D01*
X144312800Y-107134408D01*
X144349999Y-107138072D01*
X145000001Y-107138072D01*
X145173255Y-107121008D01*
X145339851Y-107070472D01*
X145493387Y-106988405D01*
X145627962Y-106877962D01*
X145700000Y-106790184D01*
X145772038Y-106877962D01*
X145906613Y-106988405D01*
X146060149Y-107070472D01*
X146226745Y-107121008D01*
X146399999Y-107138072D01*
X147050001Y-107138072D01*
X147223255Y-107121008D01*
X147389851Y-107070472D01*
X147543387Y-106988405D01*
X147677962Y-106877962D01*
X147788405Y-106743387D01*
X147846339Y-106635000D01*
X148290139Y-106635000D01*
X148329528Y-106764850D01*
X148411595Y-106918386D01*
X148522038Y-107052962D01*
X148656614Y-107163405D01*
X148810150Y-107245472D01*
X148976746Y-107296008D01*
X149150000Y-107313072D01*
X150075000Y-107313072D01*
X150248254Y-107296008D01*
X150414850Y-107245472D01*
X150568386Y-107163405D01*
X150702962Y-107052962D01*
X150813405Y-106918386D01*
X150895472Y-106764850D01*
X150922727Y-106675000D01*
X151236928Y-106675000D01*
X151249188Y-106799482D01*
X151285498Y-106919180D01*
X151344463Y-107029494D01*
X151423815Y-107126185D01*
X151520506Y-107205537D01*
X151630820Y-107264502D01*
X151750518Y-107300812D01*
X151875000Y-107313072D01*
X152301750Y-107310000D01*
X152460500Y-107151250D01*
X152460500Y-105927000D01*
X151398750Y-105927000D01*
X151240000Y-106085750D01*
X151236928Y-106675000D01*
X150922727Y-106675000D01*
X150946008Y-106598254D01*
X150963072Y-106425000D01*
X150963072Y-105175000D01*
X150946008Y-105001746D01*
X150922728Y-104925000D01*
X151236928Y-104925000D01*
X151240000Y-105514250D01*
X151398750Y-105673000D01*
X152460500Y-105673000D01*
X152460500Y-104448750D01*
X152301750Y-104290000D01*
X151875000Y-104286928D01*
X151750518Y-104299188D01*
X151630820Y-104335498D01*
X151520506Y-104394463D01*
X151423815Y-104473815D01*
X151344463Y-104570506D01*
X151285498Y-104680820D01*
X151249188Y-104800518D01*
X151236928Y-104925000D01*
X150922728Y-104925000D01*
X150895472Y-104835150D01*
X150850658Y-104751309D01*
X151437826Y-104164142D01*
X151469691Y-104137991D01*
X151560743Y-104027044D01*
X151630820Y-104064502D01*
X151750518Y-104100812D01*
X151875000Y-104113072D01*
X152301750Y-104110000D01*
X152460500Y-103951250D01*
X152460500Y-102727000D01*
X152440500Y-102727000D01*
X152440500Y-102473000D01*
X152460500Y-102473000D01*
X152460500Y-102453000D01*
X152714500Y-102453000D01*
X152714500Y-102473000D01*
X152734500Y-102473000D01*
X152734500Y-102727000D01*
X152714500Y-102727000D01*
X152714500Y-103951250D01*
X152873250Y-104110000D01*
X153300000Y-104113072D01*
X153424482Y-104100812D01*
X153544180Y-104064502D01*
X153654494Y-104005537D01*
X153751185Y-103926185D01*
X153830537Y-103829494D01*
X153889502Y-103719180D01*
X153890300Y-103716549D01*
X153890300Y-104683451D01*
X153889502Y-104680820D01*
X153830537Y-104570506D01*
X153751185Y-104473815D01*
X153654494Y-104394463D01*
X153544180Y-104335498D01*
X153424482Y-104299188D01*
X153300000Y-104286928D01*
X152873250Y-104290000D01*
X152714500Y-104448750D01*
X152714500Y-105673000D01*
X152734500Y-105673000D01*
X152734500Y-105927000D01*
X152714500Y-105927000D01*
X152714500Y-107151250D01*
X152873250Y-107310000D01*
X153300000Y-107313072D01*
X153424482Y-107300812D01*
X153544180Y-107264502D01*
X153654494Y-107205537D01*
X153751185Y-107126185D01*
X153830537Y-107029494D01*
X153889502Y-106919180D01*
X153890300Y-106916548D01*
X153890301Y-107821478D01*
X153851185Y-107773815D01*
X153754494Y-107694463D01*
X153644180Y-107635498D01*
X153524482Y-107599188D01*
X153400000Y-107586928D01*
X152973250Y-107590000D01*
X152814500Y-107748750D01*
X152814500Y-108973000D01*
X152834500Y-108973000D01*
X152834500Y-109227000D01*
X152814500Y-109227000D01*
X152814500Y-110451250D01*
X152973250Y-110610000D01*
X153400000Y-110613072D01*
X153524482Y-110600812D01*
X153644180Y-110564502D01*
X153754494Y-110505537D01*
X153851185Y-110426185D01*
X153890301Y-110378522D01*
X153890301Y-111484271D01*
X153886260Y-111525300D01*
X153902382Y-111688988D01*
X153950128Y-111846386D01*
X154027664Y-111991445D01*
X154027665Y-111991446D01*
X154132010Y-112118591D01*
X154163874Y-112144741D01*
X155495728Y-113476596D01*
X155467815Y-113760000D01*
X155496487Y-114051111D01*
X155581401Y-114331034D01*
X155719294Y-114589014D01*
X155904866Y-114815134D01*
X156130986Y-115000706D01*
X156195523Y-115035201D01*
X156078645Y-115104822D01*
X155862412Y-115299731D01*
X155688359Y-115533080D01*
X155563175Y-115795901D01*
X155518524Y-115943110D01*
X155639845Y-116173000D01*
X156833000Y-116173000D01*
X156833000Y-116153000D01*
X157087000Y-116153000D01*
X157087000Y-116173000D01*
X159373000Y-116173000D01*
X159373000Y-116153000D01*
X159627000Y-116153000D01*
X159627000Y-116173000D01*
X160826250Y-116173000D01*
X160985000Y-116014250D01*
X160988072Y-115450000D01*
X160975812Y-115325518D01*
X160939502Y-115205820D01*
X160880537Y-115095506D01*
X160801185Y-114998815D01*
X160704494Y-114919463D01*
X160594180Y-114860498D01*
X160525313Y-114839607D01*
X160555134Y-114815134D01*
X160740706Y-114589014D01*
X160878599Y-114331034D01*
X160963513Y-114051111D01*
X160992185Y-113760000D01*
X160963513Y-113468889D01*
X160878599Y-113188966D01*
X160740706Y-112930986D01*
X160555134Y-112704866D01*
X160329014Y-112519294D01*
X160071034Y-112381401D01*
X159791111Y-112296487D01*
X159572950Y-112275000D01*
X159427050Y-112275000D01*
X159208889Y-112296487D01*
X158928966Y-112381401D01*
X158670986Y-112519294D01*
X158444866Y-112704866D01*
X158259294Y-112930986D01*
X158230000Y-112985791D01*
X158200706Y-112930986D01*
X158015134Y-112704866D01*
X157789014Y-112519294D01*
X157531034Y-112381401D01*
X157251111Y-112296487D01*
X157032950Y-112275000D01*
X156887050Y-112275000D01*
X156676596Y-112295728D01*
X155590867Y-111210000D01*
X161465278Y-111210000D01*
X161555665Y-111218863D01*
X161609214Y-111235030D01*
X161658597Y-111261288D01*
X161701945Y-111296641D01*
X161737600Y-111339740D01*
X161764201Y-111388937D01*
X161780742Y-111442375D01*
X161790000Y-111530455D01*
X161790001Y-118465269D01*
X161781138Y-118555664D01*
X161764970Y-118609214D01*
X161738712Y-118658597D01*
X161703357Y-118701947D01*
X161660261Y-118737599D01*
X161611063Y-118764201D01*
X161557625Y-118780742D01*
X161469545Y-118790000D01*
X134034729Y-118790000D01*
X133847216Y-118771614D01*
X133700252Y-118727243D01*
X133564703Y-118655171D01*
X133445742Y-118558148D01*
X133347882Y-118439856D01*
X133274868Y-118304819D01*
X133229471Y-118158167D01*
X133210000Y-117972908D01*
X133210000Y-117189609D01*
X133549997Y-117189609D01*
X133736073Y-117530766D01*
X134153409Y-117746513D01*
X134604815Y-117876696D01*
X135072946Y-117916313D01*
X135539811Y-117863842D01*
X135987468Y-117721297D01*
X136343927Y-117530766D01*
X136530003Y-117189609D01*
X135040000Y-115699605D01*
X133549997Y-117189609D01*
X133210000Y-117189609D01*
X133210000Y-116922522D01*
X133370391Y-117010003D01*
X134860395Y-115520000D01*
X135219605Y-115520000D01*
X136709609Y-117010003D01*
X137050766Y-116823927D01*
X137266513Y-116406591D01*
X137396696Y-115955185D01*
X137436313Y-115487054D01*
X137383842Y-115020189D01*
X137241297Y-114572532D01*
X137050766Y-114216073D01*
X136709609Y-114029997D01*
X135219605Y-115520000D01*
X134860395Y-115520000D01*
X133370391Y-114029997D01*
X133210000Y-114117478D01*
X133210000Y-113850391D01*
X133549997Y-113850391D01*
X135040000Y-115340395D01*
X136530003Y-113850391D01*
X136343927Y-113509234D01*
X135926591Y-113293487D01*
X135475185Y-113163304D01*
X135007054Y-113123687D01*
X134540189Y-113176158D01*
X134092532Y-113318703D01*
X133736073Y-113509234D01*
X133549997Y-113850391D01*
X133210000Y-113850391D01*
X133210000Y-110818531D01*
X136259389Y-110818531D01*
X136301401Y-111108019D01*
X136399081Y-111383747D01*
X136472528Y-111521157D01*
X136721603Y-111598792D01*
X137570395Y-110750000D01*
X136721603Y-109901208D01*
X136472528Y-109978843D01*
X136346629Y-110242883D01*
X136274661Y-110526411D01*
X136259389Y-110818531D01*
X133210000Y-110818531D01*
X133210000Y-108103740D01*
X136265000Y-108103740D01*
X136265000Y-108396260D01*
X136322068Y-108683158D01*
X136434010Y-108953411D01*
X136596525Y-109196632D01*
X136803368Y-109403475D01*
X136966410Y-109512416D01*
X136901208Y-109721603D01*
X137750000Y-110570395D01*
X137764143Y-110556253D01*
X137943748Y-110735858D01*
X137929605Y-110750000D01*
X137943748Y-110764143D01*
X137764143Y-110943748D01*
X137750000Y-110929605D01*
X136901208Y-111778397D01*
X136978843Y-112027472D01*
X137242883Y-112153371D01*
X137526411Y-112225339D01*
X137818531Y-112240611D01*
X138108019Y-112198599D01*
X138383747Y-112100919D01*
X138459850Y-112060241D01*
X138545506Y-112130537D01*
X138655820Y-112189502D01*
X138775518Y-112225812D01*
X138900000Y-112238072D01*
X138949646Y-112238072D01*
X138974828Y-112321086D01*
X139052364Y-112466145D01*
X139156709Y-112593291D01*
X139188579Y-112619446D01*
X142761928Y-116192797D01*
X142761928Y-117900000D01*
X142774188Y-118024482D01*
X142810498Y-118144180D01*
X142869463Y-118254494D01*
X142948815Y-118351185D01*
X143045506Y-118430537D01*
X143155820Y-118489502D01*
X143275518Y-118525812D01*
X143400000Y-118538072D01*
X145700000Y-118538072D01*
X145824482Y-118525812D01*
X145944180Y-118489502D01*
X146054494Y-118430537D01*
X146151185Y-118351185D01*
X146230537Y-118254494D01*
X146289502Y-118144180D01*
X146325812Y-118024482D01*
X146338072Y-117900000D01*
X146338072Y-115400000D01*
X146325812Y-115275518D01*
X146289502Y-115155820D01*
X146248794Y-115079661D01*
X147791928Y-116622796D01*
X147791928Y-117510000D01*
X147804188Y-117634482D01*
X147840498Y-117754180D01*
X147899463Y-117864494D01*
X147978815Y-117961185D01*
X148075506Y-118040537D01*
X148185820Y-118099502D01*
X148305518Y-118135812D01*
X148430000Y-118148072D01*
X149430000Y-118148072D01*
X149554482Y-118135812D01*
X149674180Y-118099502D01*
X149784494Y-118040537D01*
X149881185Y-117961185D01*
X149960537Y-117864494D01*
X150019502Y-117754180D01*
X150055812Y-117634482D01*
X150068072Y-117510000D01*
X150068072Y-116656890D01*
X155518524Y-116656890D01*
X155563175Y-116804099D01*
X155688359Y-117066920D01*
X155862412Y-117300269D01*
X156078645Y-117495178D01*
X156328748Y-117644157D01*
X156603109Y-117741481D01*
X156833000Y-117620814D01*
X156833000Y-116427000D01*
X157087000Y-116427000D01*
X157087000Y-117620814D01*
X157316891Y-117741481D01*
X157591252Y-117644157D01*
X157841355Y-117495178D01*
X158037502Y-117318374D01*
X158060498Y-117394180D01*
X158119463Y-117504494D01*
X158198815Y-117601185D01*
X158295506Y-117680537D01*
X158405820Y-117739502D01*
X158525518Y-117775812D01*
X158650000Y-117788072D01*
X159214250Y-117785000D01*
X159373000Y-117626250D01*
X159373000Y-116427000D01*
X159627000Y-116427000D01*
X159627000Y-117626250D01*
X159785750Y-117785000D01*
X160350000Y-117788072D01*
X160474482Y-117775812D01*
X160594180Y-117739502D01*
X160704494Y-117680537D01*
X160801185Y-117601185D01*
X160880537Y-117504494D01*
X160939502Y-117394180D01*
X160975812Y-117274482D01*
X160988072Y-117150000D01*
X160985000Y-116585750D01*
X160826250Y-116427000D01*
X159627000Y-116427000D01*
X159373000Y-116427000D01*
X157087000Y-116427000D01*
X156833000Y-116427000D01*
X155639845Y-116427000D01*
X155518524Y-116656890D01*
X150068072Y-116656890D01*
X150068072Y-115000000D01*
X150055812Y-114875518D01*
X150019502Y-114755820D01*
X149960537Y-114645506D01*
X149881185Y-114548815D01*
X149784494Y-114469463D01*
X149674180Y-114410498D01*
X149554482Y-114374188D01*
X149430000Y-114361928D01*
X148430000Y-114361928D01*
X148305518Y-114374188D01*
X148185820Y-114410498D01*
X148075506Y-114469463D01*
X148034216Y-114503349D01*
X147730867Y-114200000D01*
X150331928Y-114200000D01*
X150344188Y-114324482D01*
X150380498Y-114444180D01*
X150439463Y-114554494D01*
X150518815Y-114651185D01*
X150615506Y-114730537D01*
X150725820Y-114789502D01*
X150845518Y-114825812D01*
X150970000Y-114838072D01*
X151184250Y-114835000D01*
X151343000Y-114676250D01*
X151343000Y-113072000D01*
X151597000Y-113072000D01*
X151597000Y-114676250D01*
X151755750Y-114835000D01*
X151970000Y-114838072D01*
X152094482Y-114825812D01*
X152214180Y-114789502D01*
X152324494Y-114730537D01*
X152421185Y-114651185D01*
X152500537Y-114554494D01*
X152559502Y-114444180D01*
X152595812Y-114324482D01*
X152608072Y-114200000D01*
X152605000Y-113230750D01*
X152446250Y-113072000D01*
X151597000Y-113072000D01*
X151343000Y-113072000D01*
X150493750Y-113072000D01*
X150335000Y-113230750D01*
X150331928Y-114200000D01*
X147730867Y-114200000D01*
X146338072Y-112807205D01*
X146338072Y-111690000D01*
X150331928Y-111690000D01*
X150335000Y-112659250D01*
X150493750Y-112818000D01*
X151343000Y-112818000D01*
X151343000Y-111213750D01*
X151597000Y-111213750D01*
X151597000Y-112818000D01*
X152446250Y-112818000D01*
X152605000Y-112659250D01*
X152608072Y-111690000D01*
X152595812Y-111565518D01*
X152559502Y-111445820D01*
X152500537Y-111335506D01*
X152421185Y-111238815D01*
X152324494Y-111159463D01*
X152214180Y-111100498D01*
X152094482Y-111064188D01*
X151970000Y-111051928D01*
X151755750Y-111055000D01*
X151597000Y-111213750D01*
X151343000Y-111213750D01*
X151184250Y-111055000D01*
X150970000Y-111051928D01*
X150845518Y-111064188D01*
X150725820Y-111100498D01*
X150615506Y-111159463D01*
X150518815Y-111238815D01*
X150439463Y-111335506D01*
X150380498Y-111445820D01*
X150344188Y-111565518D01*
X150331928Y-111690000D01*
X146338072Y-111690000D01*
X146338072Y-111100000D01*
X146325812Y-110975518D01*
X146289502Y-110855820D01*
X146230537Y-110745506D01*
X146151185Y-110648815D01*
X146054494Y-110569463D01*
X145944180Y-110510498D01*
X145824482Y-110474188D01*
X145700000Y-110461928D01*
X143400000Y-110461928D01*
X143275518Y-110474188D01*
X143155820Y-110510498D01*
X143045506Y-110569463D01*
X142948815Y-110648815D01*
X142869463Y-110745506D01*
X142810498Y-110855820D01*
X142774188Y-110975518D01*
X142761928Y-111100000D01*
X142761928Y-113600000D01*
X142774188Y-113724482D01*
X142810498Y-113844180D01*
X142851206Y-113920338D01*
X141013214Y-112082347D01*
X141051185Y-112051185D01*
X141130537Y-111954494D01*
X141189502Y-111844180D01*
X141225812Y-111724482D01*
X141238072Y-111600000D01*
X141238072Y-109900000D01*
X141225812Y-109775518D01*
X141189502Y-109655820D01*
X141130537Y-109545506D01*
X141051185Y-109448815D01*
X140954494Y-109369463D01*
X140844180Y-109310498D01*
X140802310Y-109297797D01*
X140903475Y-109196632D01*
X141065990Y-108953411D01*
X141177932Y-108683158D01*
X141235000Y-108396260D01*
X141235000Y-108103740D01*
X141177932Y-107816842D01*
X141065990Y-107546589D01*
X140903475Y-107303368D01*
X140696632Y-107096525D01*
X140453411Y-106934010D01*
X140183158Y-106822068D01*
X139896260Y-106765000D01*
X139603740Y-106765000D01*
X139316842Y-106822068D01*
X139046589Y-106934010D01*
X138803368Y-107096525D01*
X138750000Y-107149893D01*
X138696632Y-107096525D01*
X138453411Y-106934010D01*
X138183158Y-106822068D01*
X137896260Y-106765000D01*
X137603740Y-106765000D01*
X137316842Y-106822068D01*
X137046589Y-106934010D01*
X136803368Y-107096525D01*
X136596525Y-107303368D01*
X136434010Y-107546589D01*
X136322068Y-107816842D01*
X136265000Y-108103740D01*
X133210000Y-108103740D01*
X133210000Y-105149609D01*
X133549997Y-105149609D01*
X133736073Y-105490766D01*
X134153409Y-105706513D01*
X134604815Y-105836696D01*
X135072946Y-105876313D01*
X135539811Y-105823842D01*
X135987468Y-105681297D01*
X136343927Y-105490766D01*
X136530003Y-105149609D01*
X135040000Y-103659605D01*
X133549997Y-105149609D01*
X133210000Y-105149609D01*
X133210000Y-104882522D01*
X133370391Y-104970003D01*
X134860395Y-103480000D01*
X135219605Y-103480000D01*
X136709609Y-104970003D01*
X137050766Y-104783927D01*
X137266513Y-104366591D01*
X137396696Y-103915185D01*
X137436313Y-103447054D01*
X137383842Y-102980189D01*
X137241297Y-102532532D01*
X137050766Y-102176073D01*
X136709609Y-101989997D01*
X135219605Y-103480000D01*
X134860395Y-103480000D01*
X133370391Y-101989997D01*
X133210000Y-102077478D01*
X133210000Y-101810391D01*
X133549997Y-101810391D01*
X135040000Y-103300395D01*
X136530003Y-101810391D01*
X136343927Y-101469234D01*
X135926591Y-101253487D01*
X135475185Y-101123304D01*
X135007054Y-101083687D01*
X134540189Y-101136158D01*
X134092532Y-101278703D01*
X133736073Y-101469234D01*
X133549997Y-101810391D01*
X133210000Y-101810391D01*
X133210000Y-99650000D01*
X139111928Y-99650000D01*
X139124188Y-99774482D01*
X139160498Y-99894180D01*
X139219463Y-100004494D01*
X139298815Y-100101185D01*
X139395506Y-100180537D01*
X139505820Y-100239502D01*
X139625518Y-100275812D01*
X139750000Y-100288072D01*
X140464250Y-100285000D01*
X140623000Y-100126250D01*
X140623000Y-99027000D01*
X140877000Y-99027000D01*
X140877000Y-100126250D01*
X141035750Y-100285000D01*
X141750000Y-100288072D01*
X141874482Y-100275812D01*
X141994180Y-100239502D01*
X142104494Y-100180537D01*
X142201185Y-100101185D01*
X142280537Y-100004494D01*
X142339502Y-99894180D01*
X142375812Y-99774482D01*
X142388072Y-99650000D01*
X142385000Y-99185750D01*
X142226250Y-99027000D01*
X140877000Y-99027000D01*
X140623000Y-99027000D01*
X139273750Y-99027000D01*
X139115000Y-99185750D01*
X139111928Y-99650000D01*
X133210000Y-99650000D01*
X133210000Y-99090770D01*
X133325518Y-99125812D01*
X133450000Y-99138072D01*
X135450000Y-99138072D01*
X135574482Y-99125812D01*
X135694180Y-99089502D01*
X135804494Y-99030537D01*
X135901185Y-98951185D01*
X135980537Y-98854494D01*
X136039502Y-98744180D01*
X136075812Y-98624482D01*
X136088072Y-98500000D01*
X136088072Y-94700000D01*
X136079249Y-94610417D01*
X138630263Y-97161432D01*
G36*
X140593158Y-70173926D02*
G01*
X140619309Y-70205791D01*
X140746454Y-70310136D01*
X140891513Y-70387672D01*
X141048911Y-70435418D01*
X141171581Y-70447500D01*
X141171591Y-70447500D01*
X141212599Y-70451539D01*
X141253607Y-70447500D01*
X144154133Y-70447500D01*
X144297441Y-70590809D01*
X144139500Y-70748750D01*
X144139500Y-71973000D01*
X145201250Y-71973000D01*
X145360000Y-71814250D01*
X145360834Y-71654202D01*
X145636928Y-71930296D01*
X145636928Y-72725000D01*
X145653992Y-72898254D01*
X145704528Y-73064850D01*
X145786595Y-73218386D01*
X145897038Y-73352962D01*
X146031614Y-73463405D01*
X146185150Y-73545472D01*
X146351746Y-73596008D01*
X146525000Y-73613072D01*
X147450000Y-73613072D01*
X147623254Y-73596008D01*
X147789850Y-73545472D01*
X147943386Y-73463405D01*
X148077962Y-73352962D01*
X148188405Y-73218386D01*
X148270472Y-73064850D01*
X148297727Y-72975000D01*
X148761928Y-72975000D01*
X148774188Y-73099482D01*
X148810498Y-73219180D01*
X148869463Y-73329494D01*
X148948815Y-73426185D01*
X149045506Y-73505537D01*
X149155820Y-73564502D01*
X149275518Y-73600812D01*
X149400000Y-73613072D01*
X149826750Y-73610000D01*
X149985500Y-73451250D01*
X149985500Y-72227000D01*
X150239500Y-72227000D01*
X150239500Y-73451250D01*
X150398250Y-73610000D01*
X150825000Y-73613072D01*
X150949482Y-73600812D01*
X151069180Y-73564502D01*
X151179494Y-73505537D01*
X151276185Y-73426185D01*
X151355537Y-73329494D01*
X151414502Y-73219180D01*
X151450812Y-73099482D01*
X151463072Y-72975000D01*
X151460000Y-72385750D01*
X151301250Y-72227000D01*
X150239500Y-72227000D01*
X149985500Y-72227000D01*
X148923750Y-72227000D01*
X148765000Y-72385750D01*
X148761928Y-72975000D01*
X148297727Y-72975000D01*
X148321008Y-72898254D01*
X148338072Y-72725000D01*
X148338072Y-71930296D01*
X148378285Y-71890083D01*
X148378289Y-71890078D01*
X148763388Y-71504980D01*
X148765000Y-71814250D01*
X148923750Y-71973000D01*
X149985500Y-71973000D01*
X149985500Y-70748750D01*
X149826750Y-70590000D01*
X149679428Y-70588939D01*
X149880296Y-70388072D01*
X150250000Y-70388072D01*
X150374482Y-70375812D01*
X150494180Y-70339502D01*
X150604494Y-70280537D01*
X150650000Y-70243191D01*
X150695506Y-70280537D01*
X150805820Y-70339502D01*
X150925518Y-70375812D01*
X150965000Y-70379701D01*
X150965000Y-70603895D01*
X150949482Y-70599188D01*
X150825000Y-70586928D01*
X150398250Y-70590000D01*
X150239500Y-70748750D01*
X150239500Y-71973000D01*
X151301250Y-71973000D01*
X151460000Y-71814250D01*
X151460834Y-71654202D01*
X151736928Y-71930296D01*
X151736928Y-72725000D01*
X151753992Y-72898254D01*
X151804528Y-73064850D01*
X151886595Y-73218386D01*
X151997038Y-73352962D01*
X152131614Y-73463405D01*
X152285150Y-73545472D01*
X152451746Y-73596008D01*
X152625000Y-73613072D01*
X153419704Y-73613072D01*
X153894901Y-74088269D01*
X153894901Y-78238305D01*
X153893591Y-78236709D01*
X153766446Y-78132364D01*
X153621387Y-78054828D01*
X153463989Y-78007082D01*
X153341319Y-77995000D01*
X153341318Y-77995000D01*
X153340937Y-77994962D01*
X153330537Y-77975506D01*
X153251185Y-77878815D01*
X153154494Y-77799463D01*
X153044180Y-77740498D01*
X152924482Y-77704188D01*
X152800000Y-77691928D01*
X149650000Y-77691928D01*
X149525518Y-77704188D01*
X149405820Y-77740498D01*
X149295506Y-77799463D01*
X149198815Y-77878815D01*
X149119463Y-77975506D01*
X149109043Y-77995000D01*
X148290957Y-77995000D01*
X148280537Y-77975506D01*
X148201185Y-77878815D01*
X148104494Y-77799463D01*
X147994180Y-77740498D01*
X147874482Y-77704188D01*
X147750000Y-77691928D01*
X145932097Y-77691928D01*
X145668240Y-77428072D01*
X147750000Y-77428072D01*
X147874482Y-77415812D01*
X147994180Y-77379502D01*
X148104494Y-77320537D01*
X148200177Y-77242012D01*
X148209744Y-77248405D01*
X148398102Y-77326426D01*
X148598061Y-77366200D01*
X148801939Y-77366200D01*
X149001898Y-77326426D01*
X149190256Y-77248405D01*
X149199823Y-77242012D01*
X149295506Y-77320537D01*
X149405820Y-77379502D01*
X149525518Y-77415812D01*
X149650000Y-77428072D01*
X152800000Y-77428072D01*
X152924482Y-77415812D01*
X153044180Y-77379502D01*
X153154494Y-77320537D01*
X153251185Y-77241185D01*
X153330537Y-77144494D01*
X153389502Y-77034180D01*
X153425812Y-76914482D01*
X153438072Y-76790000D01*
X153438072Y-75790000D01*
X153425812Y-75665518D01*
X153389502Y-75545820D01*
X153330537Y-75435506D01*
X153251185Y-75338815D01*
X153154494Y-75259463D01*
X153044180Y-75200498D01*
X152924482Y-75164188D01*
X152800000Y-75151928D01*
X149650000Y-75151928D01*
X149525518Y-75164188D01*
X149405820Y-75200498D01*
X149295506Y-75259463D01*
X149198815Y-75338815D01*
X149150598Y-75397568D01*
X149001898Y-75335974D01*
X148801939Y-75296200D01*
X148598061Y-75296200D01*
X148398102Y-75335974D01*
X148249402Y-75397568D01*
X148201185Y-75338815D01*
X148104494Y-75259463D01*
X147994180Y-75200498D01*
X147874482Y-75164188D01*
X147750000Y-75151928D01*
X144600000Y-75151928D01*
X144475518Y-75164188D01*
X144355820Y-75200498D01*
X144245506Y-75259463D01*
X144148815Y-75338815D01*
X144069463Y-75435506D01*
X144023446Y-75521596D01*
X143980837Y-75457826D01*
X143836674Y-75313663D01*
X143667156Y-75200395D01*
X143478798Y-75122374D01*
X143278839Y-75082600D01*
X143074961Y-75082600D01*
X142875002Y-75122374D01*
X142686644Y-75200395D01*
X142517126Y-75313663D01*
X142372963Y-75457826D01*
X142259695Y-75627344D01*
X142181674Y-75815702D01*
X142141900Y-76015661D01*
X142141900Y-76219539D01*
X142181674Y-76419498D01*
X142259695Y-76607856D01*
X142372963Y-76777374D01*
X142517126Y-76921537D01*
X142686644Y-77034805D01*
X142875002Y-77112826D01*
X143020125Y-77141693D01*
X143999734Y-78121303D01*
X143974188Y-78205518D01*
X143961928Y-78330000D01*
X143961928Y-79330000D01*
X143974188Y-79454482D01*
X144010498Y-79574180D01*
X144069463Y-79684494D01*
X144148815Y-79781185D01*
X144245506Y-79860537D01*
X144355820Y-79919502D01*
X144475518Y-79955812D01*
X144600000Y-79968072D01*
X147750000Y-79968072D01*
X147874482Y-79955812D01*
X147994180Y-79919502D01*
X148104494Y-79860537D01*
X148201185Y-79781185D01*
X148280537Y-79684494D01*
X148290957Y-79665000D01*
X149109043Y-79665000D01*
X149119463Y-79684494D01*
X149198815Y-79781185D01*
X149295506Y-79860537D01*
X149405820Y-79919502D01*
X149525518Y-79955812D01*
X149650000Y-79968072D01*
X152800000Y-79968072D01*
X152924482Y-79955812D01*
X153044180Y-79919502D01*
X153151545Y-79862113D01*
X153191401Y-79901969D01*
X153191401Y-80369752D01*
X153154494Y-80339463D01*
X153044180Y-80280498D01*
X152924482Y-80244188D01*
X152800000Y-80231928D01*
X149650000Y-80231928D01*
X149525518Y-80244188D01*
X149405820Y-80280498D01*
X149295506Y-80339463D01*
X149198815Y-80418815D01*
X149119463Y-80515506D01*
X149109043Y-80535000D01*
X148290957Y-80535000D01*
X148280537Y-80515506D01*
X148201185Y-80418815D01*
X148104494Y-80339463D01*
X147994180Y-80280498D01*
X147874482Y-80244188D01*
X147750000Y-80231928D01*
X144600000Y-80231928D01*
X144475518Y-80244188D01*
X144355820Y-80280498D01*
X144245506Y-80339463D01*
X144148815Y-80418815D01*
X144069463Y-80515506D01*
X144010498Y-80625820D01*
X143974188Y-80745518D01*
X143961928Y-80870000D01*
X143961928Y-81870000D01*
X143974188Y-81994482D01*
X144010498Y-82114180D01*
X144069463Y-82224494D01*
X144148815Y-82321185D01*
X144245506Y-82400537D01*
X144355820Y-82459502D01*
X144475518Y-82495812D01*
X144600000Y-82508072D01*
X147750000Y-82508072D01*
X147874482Y-82495812D01*
X147994180Y-82459502D01*
X148104494Y-82400537D01*
X148201185Y-82321185D01*
X148280537Y-82224494D01*
X148290957Y-82205000D01*
X149109043Y-82205000D01*
X149119463Y-82224494D01*
X149198815Y-82321185D01*
X149295506Y-82400537D01*
X149405820Y-82459502D01*
X149525518Y-82495812D01*
X149650000Y-82508072D01*
X152465300Y-82508072D01*
X152465300Y-82772726D01*
X151510750Y-82775000D01*
X151352000Y-82933750D01*
X151352000Y-83783000D01*
X151372000Y-83783000D01*
X151372000Y-84037000D01*
X151352000Y-84037000D01*
X151352000Y-84886250D01*
X151510750Y-85045000D01*
X152230517Y-85046715D01*
X150007379Y-87269854D01*
X149975509Y-87296009D01*
X149890689Y-87399364D01*
X149871164Y-87423155D01*
X149793628Y-87568214D01*
X149745882Y-87725612D01*
X149729760Y-87889300D01*
X149733800Y-87930319D01*
X149733801Y-96548230D01*
X148134533Y-98147500D01*
X146758667Y-98147500D01*
X147395531Y-97510637D01*
X147427391Y-97484491D01*
X147458725Y-97446311D01*
X147531736Y-97357346D01*
X147609272Y-97212287D01*
X147615035Y-97193290D01*
X147657018Y-97054889D01*
X147669100Y-96932219D01*
X147669100Y-96932218D01*
X147673140Y-96891200D01*
X147669100Y-96850182D01*
X147669100Y-87407618D01*
X147673140Y-87366600D01*
X147660336Y-87236595D01*
X147657018Y-87202911D01*
X147609272Y-87045513D01*
X147531736Y-86900454D01*
X147427391Y-86773309D01*
X147395533Y-86747164D01*
X145693834Y-85045466D01*
X145889250Y-85045000D01*
X146048000Y-84886250D01*
X146048000Y-84037000D01*
X146302000Y-84037000D01*
X146302000Y-84886250D01*
X146460750Y-85045000D01*
X147750000Y-85048072D01*
X147874482Y-85035812D01*
X147994180Y-84999502D01*
X148104494Y-84940537D01*
X148201185Y-84861185D01*
X148280537Y-84764494D01*
X148339502Y-84654180D01*
X148375812Y-84534482D01*
X148388072Y-84410000D01*
X149011928Y-84410000D01*
X149024188Y-84534482D01*
X149060498Y-84654180D01*
X149119463Y-84764494D01*
X149198815Y-84861185D01*
X149295506Y-84940537D01*
X149405820Y-84999502D01*
X149525518Y-85035812D01*
X149650000Y-85048072D01*
X150939250Y-85045000D01*
X151098000Y-84886250D01*
X151098000Y-84037000D01*
X149173750Y-84037000D01*
X149015000Y-84195750D01*
X149011928Y-84410000D01*
X148388072Y-84410000D01*
X148385000Y-84195750D01*
X148226250Y-84037000D01*
X146302000Y-84037000D01*
X146048000Y-84037000D01*
X146028000Y-84037000D01*
X146028000Y-83783000D01*
X146048000Y-83783000D01*
X146048000Y-82933750D01*
X146302000Y-82933750D01*
X146302000Y-83783000D01*
X148226250Y-83783000D01*
X148385000Y-83624250D01*
X148388072Y-83410000D01*
X149011928Y-83410000D01*
X149015000Y-83624250D01*
X149173750Y-83783000D01*
X151098000Y-83783000D01*
X151098000Y-82933750D01*
X150939250Y-82775000D01*
X149650000Y-82771928D01*
X149525518Y-82784188D01*
X149405820Y-82820498D01*
X149295506Y-82879463D01*
X149198815Y-82958815D01*
X149119463Y-83055506D01*
X149060498Y-83165820D01*
X149024188Y-83285518D01*
X149011928Y-83410000D01*
X148388072Y-83410000D01*
X148375812Y-83285518D01*
X148339502Y-83165820D01*
X148280537Y-83055506D01*
X148201185Y-82958815D01*
X148104494Y-82879463D01*
X147994180Y-82820498D01*
X147874482Y-82784188D01*
X147750000Y-82771928D01*
X146460750Y-82775000D01*
X146302000Y-82933750D01*
X146048000Y-82933750D01*
X145889250Y-82775000D01*
X144600000Y-82771928D01*
X144475518Y-82784188D01*
X144355820Y-82820498D01*
X144245506Y-82879463D01*
X144148815Y-82958815D01*
X144069463Y-83055506D01*
X144010498Y-83165820D01*
X143974188Y-83285518D01*
X143970575Y-83322207D01*
X143885700Y-83237333D01*
X143885700Y-80565718D01*
X143889740Y-80524700D01*
X143873618Y-80361011D01*
X143825872Y-80203613D01*
X143748336Y-80058554D01*
X143670139Y-79963270D01*
X143670137Y-79963268D01*
X143643991Y-79931409D01*
X143612133Y-79905264D01*
X141592846Y-77885979D01*
X141566691Y-77854109D01*
X141439546Y-77749764D01*
X141294487Y-77672228D01*
X141137089Y-77624482D01*
X141014419Y-77612400D01*
X141014418Y-77612400D01*
X140973400Y-77608360D01*
X140932382Y-77612400D01*
X140771468Y-77612400D01*
X140695414Y-77536347D01*
X140900000Y-77538072D01*
X141024482Y-77525812D01*
X141144180Y-77489502D01*
X141254494Y-77430537D01*
X141351185Y-77351185D01*
X141430537Y-77254494D01*
X141489502Y-77144180D01*
X141525812Y-77024482D01*
X141538072Y-76900000D01*
X141535000Y-76185750D01*
X141376250Y-76027000D01*
X140377000Y-76027000D01*
X140377000Y-76047000D01*
X140123000Y-76047000D01*
X140123000Y-76027000D01*
X140103000Y-76027000D01*
X140103000Y-75773000D01*
X140123000Y-75773000D01*
X140123000Y-74423750D01*
X140377000Y-74423750D01*
X140377000Y-75773000D01*
X141376250Y-75773000D01*
X141535000Y-75614250D01*
X141538072Y-74900000D01*
X141525812Y-74775518D01*
X141489502Y-74655820D01*
X141430537Y-74545506D01*
X141351185Y-74448815D01*
X141254494Y-74369463D01*
X141144180Y-74310498D01*
X141024482Y-74274188D01*
X140900000Y-74261928D01*
X140535750Y-74265000D01*
X140377000Y-74423750D01*
X140123000Y-74423750D01*
X139964250Y-74265000D01*
X139600000Y-74261928D01*
X139475518Y-74274188D01*
X139355820Y-74310498D01*
X139245506Y-74369463D01*
X139148815Y-74448815D01*
X139069463Y-74545506D01*
X139010498Y-74655820D01*
X138974188Y-74775518D01*
X138961928Y-74900000D01*
X138965000Y-75614250D01*
X139123748Y-75772998D01*
X138965000Y-75772998D01*
X138965000Y-75805933D01*
X138385600Y-75226533D01*
X138385600Y-73941607D01*
X138389639Y-73900599D01*
X138385600Y-73859591D01*
X138385600Y-73859581D01*
X138373518Y-73736911D01*
X138325772Y-73579513D01*
X138248236Y-73434454D01*
X138143891Y-73307309D01*
X138112028Y-73281160D01*
X137805868Y-72975000D01*
X142661928Y-72975000D01*
X142674188Y-73099482D01*
X142710498Y-73219180D01*
X142769463Y-73329494D01*
X142848815Y-73426185D01*
X142945506Y-73505537D01*
X143055820Y-73564502D01*
X143175518Y-73600812D01*
X143300000Y-73613072D01*
X143726750Y-73610000D01*
X143885500Y-73451250D01*
X143885500Y-72227000D01*
X144139500Y-72227000D01*
X144139500Y-73451250D01*
X144298250Y-73610000D01*
X144725000Y-73613072D01*
X144849482Y-73600812D01*
X144969180Y-73564502D01*
X145079494Y-73505537D01*
X145176185Y-73426185D01*
X145255537Y-73329494D01*
X145314502Y-73219180D01*
X145350812Y-73099482D01*
X145363072Y-72975000D01*
X145360000Y-72385750D01*
X145201250Y-72227000D01*
X144139500Y-72227000D01*
X143885500Y-72227000D01*
X142823750Y-72227000D01*
X142665000Y-72385750D01*
X142661928Y-72975000D01*
X137805868Y-72975000D01*
X137199185Y-72368317D01*
X137550729Y-72393701D01*
X137928951Y-72346457D01*
X138290690Y-72226333D01*
X138537683Y-72094312D01*
X138669619Y-71799224D01*
X137500000Y-70629605D01*
X137485858Y-70643748D01*
X137306253Y-70464143D01*
X137320395Y-70450000D01*
X137306253Y-70435858D01*
X137485858Y-70256253D01*
X137500000Y-70270395D01*
X137514143Y-70256253D01*
X137693748Y-70435858D01*
X137679605Y-70450000D01*
X138849224Y-71619619D01*
X139144312Y-71487683D01*
X139276025Y-71225000D01*
X142661928Y-71225000D01*
X142665000Y-71814250D01*
X142823750Y-71973000D01*
X143885500Y-71973000D01*
X143885500Y-70748750D01*
X143726750Y-70590000D01*
X143300000Y-70586928D01*
X143175518Y-70599188D01*
X143055820Y-70635498D01*
X142945506Y-70694463D01*
X142848815Y-70773815D01*
X142769463Y-70870506D01*
X142710498Y-70980820D01*
X142674188Y-71100518D01*
X142661928Y-71225000D01*
X139276025Y-71225000D01*
X139315159Y-71146955D01*
X139416250Y-70779443D01*
X139443701Y-70399271D01*
X139396457Y-70021049D01*
X139276333Y-69659310D01*
X139176320Y-69472200D01*
X139891433Y-69472200D01*
X140593158Y-70173926D01*
X140593158Y-70173926D01*
G37*
X140593158Y-70173926D02*
X140619309Y-70205791D01*
X140746454Y-70310136D01*
X140891513Y-70387672D01*
X141048911Y-70435418D01*
X141171581Y-70447500D01*
X141171591Y-70447500D01*
X141212599Y-70451539D01*
X141253607Y-70447500D01*
X144154133Y-70447500D01*
X144297441Y-70590809D01*
X144139500Y-70748750D01*
X144139500Y-71973000D01*
X145201250Y-71973000D01*
X145360000Y-71814250D01*
X145360834Y-71654202D01*
X145636928Y-71930296D01*
X145636928Y-72725000D01*
X145653992Y-72898254D01*
X145704528Y-73064850D01*
X145786595Y-73218386D01*
X145897038Y-73352962D01*
X146031614Y-73463405D01*
X146185150Y-73545472D01*
X146351746Y-73596008D01*
X146525000Y-73613072D01*
X147450000Y-73613072D01*
X147623254Y-73596008D01*
X147789850Y-73545472D01*
X147943386Y-73463405D01*
X148077962Y-73352962D01*
X148188405Y-73218386D01*
X148270472Y-73064850D01*
X148297727Y-72975000D01*
X148761928Y-72975000D01*
X148774188Y-73099482D01*
X148810498Y-73219180D01*
X148869463Y-73329494D01*
X148948815Y-73426185D01*
X149045506Y-73505537D01*
X149155820Y-73564502D01*
X149275518Y-73600812D01*
X149400000Y-73613072D01*
X149826750Y-73610000D01*
X149985500Y-73451250D01*
X149985500Y-72227000D01*
X150239500Y-72227000D01*
X150239500Y-73451250D01*
X150398250Y-73610000D01*
X150825000Y-73613072D01*
X150949482Y-73600812D01*
X151069180Y-73564502D01*
X151179494Y-73505537D01*
X151276185Y-73426185D01*
X151355537Y-73329494D01*
X151414502Y-73219180D01*
X151450812Y-73099482D01*
X151463072Y-72975000D01*
X151460000Y-72385750D01*
X151301250Y-72227000D01*
X150239500Y-72227000D01*
X149985500Y-72227000D01*
X148923750Y-72227000D01*
X148765000Y-72385750D01*
X148761928Y-72975000D01*
X148297727Y-72975000D01*
X148321008Y-72898254D01*
X148338072Y-72725000D01*
X148338072Y-71930296D01*
X148378285Y-71890083D01*
X148378289Y-71890078D01*
X148763388Y-71504980D01*
X148765000Y-71814250D01*
X148923750Y-71973000D01*
X149985500Y-71973000D01*
X149985500Y-70748750D01*
X149826750Y-70590000D01*
X149679428Y-70588939D01*
X149880296Y-70388072D01*
X150250000Y-70388072D01*
X150374482Y-70375812D01*
X150494180Y-70339502D01*
X150604494Y-70280537D01*
X150650000Y-70243191D01*
X150695506Y-70280537D01*
X150805820Y-70339502D01*
X150925518Y-70375812D01*
X150965000Y-70379701D01*
X150965000Y-70603895D01*
X150949482Y-70599188D01*
X150825000Y-70586928D01*
X150398250Y-70590000D01*
X150239500Y-70748750D01*
X150239500Y-71973000D01*
X151301250Y-71973000D01*
X151460000Y-71814250D01*
X151460834Y-71654202D01*
X151736928Y-71930296D01*
X151736928Y-72725000D01*
X151753992Y-72898254D01*
X151804528Y-73064850D01*
X151886595Y-73218386D01*
X151997038Y-73352962D01*
X152131614Y-73463405D01*
X152285150Y-73545472D01*
X152451746Y-73596008D01*
X152625000Y-73613072D01*
X153419704Y-73613072D01*
X153894901Y-74088269D01*
X153894901Y-78238305D01*
X153893591Y-78236709D01*
X153766446Y-78132364D01*
X153621387Y-78054828D01*
X153463989Y-78007082D01*
X153341319Y-77995000D01*
X153341318Y-77995000D01*
X153340937Y-77994962D01*
X153330537Y-77975506D01*
X153251185Y-77878815D01*
X153154494Y-77799463D01*
X153044180Y-77740498D01*
X152924482Y-77704188D01*
X152800000Y-77691928D01*
X149650000Y-77691928D01*
X149525518Y-77704188D01*
X149405820Y-77740498D01*
X149295506Y-77799463D01*
X149198815Y-77878815D01*
X149119463Y-77975506D01*
X149109043Y-77995000D01*
X148290957Y-77995000D01*
X148280537Y-77975506D01*
X148201185Y-77878815D01*
X148104494Y-77799463D01*
X147994180Y-77740498D01*
X147874482Y-77704188D01*
X147750000Y-77691928D01*
X145932097Y-77691928D01*
X145668240Y-77428072D01*
X147750000Y-77428072D01*
X147874482Y-77415812D01*
X147994180Y-77379502D01*
X148104494Y-77320537D01*
X148200177Y-77242012D01*
X148209744Y-77248405D01*
X148398102Y-77326426D01*
X148598061Y-77366200D01*
X148801939Y-77366200D01*
X149001898Y-77326426D01*
X149190256Y-77248405D01*
X149199823Y-77242012D01*
X149295506Y-77320537D01*
X149405820Y-77379502D01*
X149525518Y-77415812D01*
X149650000Y-77428072D01*
X152800000Y-77428072D01*
X152924482Y-77415812D01*
X153044180Y-77379502D01*
X153154494Y-77320537D01*
X153251185Y-77241185D01*
X153330537Y-77144494D01*
X153389502Y-77034180D01*
X153425812Y-76914482D01*
X153438072Y-76790000D01*
X153438072Y-75790000D01*
X153425812Y-75665518D01*
X153389502Y-75545820D01*
X153330537Y-75435506D01*
X153251185Y-75338815D01*
X153154494Y-75259463D01*
X153044180Y-75200498D01*
X152924482Y-75164188D01*
X152800000Y-75151928D01*
X149650000Y-75151928D01*
X149525518Y-75164188D01*
X149405820Y-75200498D01*
X149295506Y-75259463D01*
X149198815Y-75338815D01*
X149150598Y-75397568D01*
X149001898Y-75335974D01*
X148801939Y-75296200D01*
X148598061Y-75296200D01*
X148398102Y-75335974D01*
X148249402Y-75397568D01*
X148201185Y-75338815D01*
X148104494Y-75259463D01*
X147994180Y-75200498D01*
X147874482Y-75164188D01*
X147750000Y-75151928D01*
X144600000Y-75151928D01*
X144475518Y-75164188D01*
X144355820Y-75200498D01*
X144245506Y-75259463D01*
X144148815Y-75338815D01*
X144069463Y-75435506D01*
X144023446Y-75521596D01*
X143980837Y-75457826D01*
X143836674Y-75313663D01*
X143667156Y-75200395D01*
X143478798Y-75122374D01*
X143278839Y-75082600D01*
X143074961Y-75082600D01*
X142875002Y-75122374D01*
X142686644Y-75200395D01*
X142517126Y-75313663D01*
X142372963Y-75457826D01*
X142259695Y-75627344D01*
X142181674Y-75815702D01*
X142141900Y-76015661D01*
X142141900Y-76219539D01*
X142181674Y-76419498D01*
X142259695Y-76607856D01*
X142372963Y-76777374D01*
X142517126Y-76921537D01*
X142686644Y-77034805D01*
X142875002Y-77112826D01*
X143020125Y-77141693D01*
X143999734Y-78121303D01*
X143974188Y-78205518D01*
X143961928Y-78330000D01*
X143961928Y-79330000D01*
X143974188Y-79454482D01*
X144010498Y-79574180D01*
X144069463Y-79684494D01*
X144148815Y-79781185D01*
X144245506Y-79860537D01*
X144355820Y-79919502D01*
X144475518Y-79955812D01*
X144600000Y-79968072D01*
X147750000Y-79968072D01*
X147874482Y-79955812D01*
X147994180Y-79919502D01*
X148104494Y-79860537D01*
X148201185Y-79781185D01*
X148280537Y-79684494D01*
X148290957Y-79665000D01*
X149109043Y-79665000D01*
X149119463Y-79684494D01*
X149198815Y-79781185D01*
X149295506Y-79860537D01*
X149405820Y-79919502D01*
X149525518Y-79955812D01*
X149650000Y-79968072D01*
X152800000Y-79968072D01*
X152924482Y-79955812D01*
X153044180Y-79919502D01*
X153151545Y-79862113D01*
X153191401Y-79901969D01*
X153191401Y-80369752D01*
X153154494Y-80339463D01*
X153044180Y-80280498D01*
X152924482Y-80244188D01*
X152800000Y-80231928D01*
X149650000Y-80231928D01*
X149525518Y-80244188D01*
X149405820Y-80280498D01*
X149295506Y-80339463D01*
X149198815Y-80418815D01*
X149119463Y-80515506D01*
X149109043Y-80535000D01*
X148290957Y-80535000D01*
X148280537Y-80515506D01*
X148201185Y-80418815D01*
X148104494Y-80339463D01*
X147994180Y-80280498D01*
X147874482Y-80244188D01*
X147750000Y-80231928D01*
X144600000Y-80231928D01*
X144475518Y-80244188D01*
X144355820Y-80280498D01*
X144245506Y-80339463D01*
X144148815Y-80418815D01*
X144069463Y-80515506D01*
X144010498Y-80625820D01*
X143974188Y-80745518D01*
X143961928Y-80870000D01*
X143961928Y-81870000D01*
X143974188Y-81994482D01*
X144010498Y-82114180D01*
X144069463Y-82224494D01*
X144148815Y-82321185D01*
X144245506Y-82400537D01*
X144355820Y-82459502D01*
X144475518Y-82495812D01*
X144600000Y-82508072D01*
X147750000Y-82508072D01*
X147874482Y-82495812D01*
X147994180Y-82459502D01*
X148104494Y-82400537D01*
X148201185Y-82321185D01*
X148280537Y-82224494D01*
X148290957Y-82205000D01*
X149109043Y-82205000D01*
X149119463Y-82224494D01*
X149198815Y-82321185D01*
X149295506Y-82400537D01*
X149405820Y-82459502D01*
X149525518Y-82495812D01*
X149650000Y-82508072D01*
X152465300Y-82508072D01*
X152465300Y-82772726D01*
X151510750Y-82775000D01*
X151352000Y-82933750D01*
X151352000Y-83783000D01*
X151372000Y-83783000D01*
X151372000Y-84037000D01*
X151352000Y-84037000D01*
X151352000Y-84886250D01*
X151510750Y-85045000D01*
X152230517Y-85046715D01*
X150007379Y-87269854D01*
X149975509Y-87296009D01*
X149890689Y-87399364D01*
X149871164Y-87423155D01*
X149793628Y-87568214D01*
X149745882Y-87725612D01*
X149729760Y-87889300D01*
X149733800Y-87930319D01*
X149733801Y-96548230D01*
X148134533Y-98147500D01*
X146758667Y-98147500D01*
X147395531Y-97510637D01*
X147427391Y-97484491D01*
X147458725Y-97446311D01*
X147531736Y-97357346D01*
X147609272Y-97212287D01*
X147615035Y-97193290D01*
X147657018Y-97054889D01*
X147669100Y-96932219D01*
X147669100Y-96932218D01*
X147673140Y-96891200D01*
X147669100Y-96850182D01*
X147669100Y-87407618D01*
X147673140Y-87366600D01*
X147660336Y-87236595D01*
X147657018Y-87202911D01*
X147609272Y-87045513D01*
X147531736Y-86900454D01*
X147427391Y-86773309D01*
X147395533Y-86747164D01*
X145693834Y-85045466D01*
X145889250Y-85045000D01*
X146048000Y-84886250D01*
X146048000Y-84037000D01*
X146302000Y-84037000D01*
X146302000Y-84886250D01*
X146460750Y-85045000D01*
X147750000Y-85048072D01*
X147874482Y-85035812D01*
X147994180Y-84999502D01*
X148104494Y-84940537D01*
X148201185Y-84861185D01*
X148280537Y-84764494D01*
X148339502Y-84654180D01*
X148375812Y-84534482D01*
X148388072Y-84410000D01*
X149011928Y-84410000D01*
X149024188Y-84534482D01*
X149060498Y-84654180D01*
X149119463Y-84764494D01*
X149198815Y-84861185D01*
X149295506Y-84940537D01*
X149405820Y-84999502D01*
X149525518Y-85035812D01*
X149650000Y-85048072D01*
X150939250Y-85045000D01*
X151098000Y-84886250D01*
X151098000Y-84037000D01*
X149173750Y-84037000D01*
X149015000Y-84195750D01*
X149011928Y-84410000D01*
X148388072Y-84410000D01*
X148385000Y-84195750D01*
X148226250Y-84037000D01*
X146302000Y-84037000D01*
X146048000Y-84037000D01*
X146028000Y-84037000D01*
X146028000Y-83783000D01*
X146048000Y-83783000D01*
X146048000Y-82933750D01*
X146302000Y-82933750D01*
X146302000Y-83783000D01*
X148226250Y-83783000D01*
X148385000Y-83624250D01*
X148388072Y-83410000D01*
X149011928Y-83410000D01*
X149015000Y-83624250D01*
X149173750Y-83783000D01*
X151098000Y-83783000D01*
X151098000Y-82933750D01*
X150939250Y-82775000D01*
X149650000Y-82771928D01*
X149525518Y-82784188D01*
X149405820Y-82820498D01*
X149295506Y-82879463D01*
X149198815Y-82958815D01*
X149119463Y-83055506D01*
X149060498Y-83165820D01*
X149024188Y-83285518D01*
X149011928Y-83410000D01*
X148388072Y-83410000D01*
X148375812Y-83285518D01*
X148339502Y-83165820D01*
X148280537Y-83055506D01*
X148201185Y-82958815D01*
X148104494Y-82879463D01*
X147994180Y-82820498D01*
X147874482Y-82784188D01*
X147750000Y-82771928D01*
X146460750Y-82775000D01*
X146302000Y-82933750D01*
X146048000Y-82933750D01*
X145889250Y-82775000D01*
X144600000Y-82771928D01*
X144475518Y-82784188D01*
X144355820Y-82820498D01*
X144245506Y-82879463D01*
X144148815Y-82958815D01*
X144069463Y-83055506D01*
X144010498Y-83165820D01*
X143974188Y-83285518D01*
X143970575Y-83322207D01*
X143885700Y-83237333D01*
X143885700Y-80565718D01*
X143889740Y-80524700D01*
X143873618Y-80361011D01*
X143825872Y-80203613D01*
X143748336Y-80058554D01*
X143670139Y-79963270D01*
X143670137Y-79963268D01*
X143643991Y-79931409D01*
X143612133Y-79905264D01*
X141592846Y-77885979D01*
X141566691Y-77854109D01*
X141439546Y-77749764D01*
X141294487Y-77672228D01*
X141137089Y-77624482D01*
X141014419Y-77612400D01*
X141014418Y-77612400D01*
X140973400Y-77608360D01*
X140932382Y-77612400D01*
X140771468Y-77612400D01*
X140695414Y-77536347D01*
X140900000Y-77538072D01*
X141024482Y-77525812D01*
X141144180Y-77489502D01*
X141254494Y-77430537D01*
X141351185Y-77351185D01*
X141430537Y-77254494D01*
X141489502Y-77144180D01*
X141525812Y-77024482D01*
X141538072Y-76900000D01*
X141535000Y-76185750D01*
X141376250Y-76027000D01*
X140377000Y-76027000D01*
X140377000Y-76047000D01*
X140123000Y-76047000D01*
X140123000Y-76027000D01*
X140103000Y-76027000D01*
X140103000Y-75773000D01*
X140123000Y-75773000D01*
X140123000Y-74423750D01*
X140377000Y-74423750D01*
X140377000Y-75773000D01*
X141376250Y-75773000D01*
X141535000Y-75614250D01*
X141538072Y-74900000D01*
X141525812Y-74775518D01*
X141489502Y-74655820D01*
X141430537Y-74545506D01*
X141351185Y-74448815D01*
X141254494Y-74369463D01*
X141144180Y-74310498D01*
X141024482Y-74274188D01*
X140900000Y-74261928D01*
X140535750Y-74265000D01*
X140377000Y-74423750D01*
X140123000Y-74423750D01*
X139964250Y-74265000D01*
X139600000Y-74261928D01*
X139475518Y-74274188D01*
X139355820Y-74310498D01*
X139245506Y-74369463D01*
X139148815Y-74448815D01*
X139069463Y-74545506D01*
X139010498Y-74655820D01*
X138974188Y-74775518D01*
X138961928Y-74900000D01*
X138965000Y-75614250D01*
X139123748Y-75772998D01*
X138965000Y-75772998D01*
X138965000Y-75805933D01*
X138385600Y-75226533D01*
X138385600Y-73941607D01*
X138389639Y-73900599D01*
X138385600Y-73859591D01*
X138385600Y-73859581D01*
X138373518Y-73736911D01*
X138325772Y-73579513D01*
X138248236Y-73434454D01*
X138143891Y-73307309D01*
X138112028Y-73281160D01*
X137805868Y-72975000D01*
X142661928Y-72975000D01*
X142674188Y-73099482D01*
X142710498Y-73219180D01*
X142769463Y-73329494D01*
X142848815Y-73426185D01*
X142945506Y-73505537D01*
X143055820Y-73564502D01*
X143175518Y-73600812D01*
X143300000Y-73613072D01*
X143726750Y-73610000D01*
X143885500Y-73451250D01*
X143885500Y-72227000D01*
X144139500Y-72227000D01*
X144139500Y-73451250D01*
X144298250Y-73610000D01*
X144725000Y-73613072D01*
X144849482Y-73600812D01*
X144969180Y-73564502D01*
X145079494Y-73505537D01*
X145176185Y-73426185D01*
X145255537Y-73329494D01*
X145314502Y-73219180D01*
X145350812Y-73099482D01*
X145363072Y-72975000D01*
X145360000Y-72385750D01*
X145201250Y-72227000D01*
X144139500Y-72227000D01*
X143885500Y-72227000D01*
X142823750Y-72227000D01*
X142665000Y-72385750D01*
X142661928Y-72975000D01*
X137805868Y-72975000D01*
X137199185Y-72368317D01*
X137550729Y-72393701D01*
X137928951Y-72346457D01*
X138290690Y-72226333D01*
X138537683Y-72094312D01*
X138669619Y-71799224D01*
X137500000Y-70629605D01*
X137485858Y-70643748D01*
X137306253Y-70464143D01*
X137320395Y-70450000D01*
X137306253Y-70435858D01*
X137485858Y-70256253D01*
X137500000Y-70270395D01*
X137514143Y-70256253D01*
X137693748Y-70435858D01*
X137679605Y-70450000D01*
X138849224Y-71619619D01*
X139144312Y-71487683D01*
X139276025Y-71225000D01*
X142661928Y-71225000D01*
X142665000Y-71814250D01*
X142823750Y-71973000D01*
X143885500Y-71973000D01*
X143885500Y-70748750D01*
X143726750Y-70590000D01*
X143300000Y-70586928D01*
X143175518Y-70599188D01*
X143055820Y-70635498D01*
X142945506Y-70694463D01*
X142848815Y-70773815D01*
X142769463Y-70870506D01*
X142710498Y-70980820D01*
X142674188Y-71100518D01*
X142661928Y-71225000D01*
X139276025Y-71225000D01*
X139315159Y-71146955D01*
X139416250Y-70779443D01*
X139443701Y-70399271D01*
X139396457Y-70021049D01*
X139276333Y-69659310D01*
X139176320Y-69472200D01*
X139891433Y-69472200D01*
X140593158Y-70173926D01*
G36*
X139356809Y-84250000D02*
G01*
X139319463Y-84295506D01*
X139260498Y-84405820D01*
X139224188Y-84525518D01*
X139211928Y-84650000D01*
X139215000Y-85114250D01*
X139373750Y-85273000D01*
X140723000Y-85273000D01*
X140723000Y-85253000D01*
X140977000Y-85253000D01*
X140977000Y-85273000D01*
X140997000Y-85273000D01*
X140997000Y-85527000D01*
X140977000Y-85527000D01*
X140977000Y-86626250D01*
X141135750Y-86785000D01*
X141850000Y-86788072D01*
X141974482Y-86775812D01*
X142094180Y-86739502D01*
X142204494Y-86680537D01*
X142301185Y-86601185D01*
X142380537Y-86504494D01*
X142439502Y-86394180D01*
X142475812Y-86274482D01*
X142488072Y-86150000D01*
X142485000Y-85685750D01*
X142326252Y-85527002D01*
X142346135Y-85527002D01*
X145280300Y-88461168D01*
X145280301Y-88791928D01*
X143175000Y-88791928D01*
X143050518Y-88804188D01*
X142930820Y-88840498D01*
X142820506Y-88899463D01*
X142723815Y-88978815D01*
X142644463Y-89075506D01*
X142600210Y-89158297D01*
X142511011Y-89167082D01*
X142353613Y-89214828D01*
X142208554Y-89292364D01*
X142081409Y-89396709D01*
X142055254Y-89428579D01*
X141688879Y-89794954D01*
X141657009Y-89821109D01*
X141570776Y-89926185D01*
X141552664Y-89948255D01*
X141475128Y-90093314D01*
X141427382Y-90250712D01*
X141411260Y-90414400D01*
X141415300Y-90455419D01*
X141415300Y-92911928D01*
X139939926Y-92911928D01*
X139989502Y-92819180D01*
X140025812Y-92699482D01*
X140038072Y-92575000D01*
X140035000Y-91985750D01*
X139876250Y-91827000D01*
X138814500Y-91827000D01*
X138814500Y-91847000D01*
X138560500Y-91847000D01*
X138560500Y-91827000D01*
X138540500Y-91827000D01*
X138540500Y-91573000D01*
X138560500Y-91573000D01*
X138560500Y-90348750D01*
X138814500Y-90348750D01*
X138814500Y-91573000D01*
X139876250Y-91573000D01*
X140035000Y-91414250D01*
X140038072Y-90825000D01*
X140025812Y-90700518D01*
X139989502Y-90580820D01*
X139930537Y-90470506D01*
X139851185Y-90373815D01*
X139754494Y-90294463D01*
X139644180Y-90235498D01*
X139524482Y-90199188D01*
X139400000Y-90186928D01*
X138973250Y-90190000D01*
X138814500Y-90348750D01*
X138560500Y-90348750D01*
X138401750Y-90190000D01*
X137975000Y-90186928D01*
X137850518Y-90199188D01*
X137730820Y-90235498D01*
X137660470Y-90273102D01*
X136980405Y-89593038D01*
X136995472Y-89564850D01*
X137022727Y-89475000D01*
X137336928Y-89475000D01*
X137349188Y-89599482D01*
X137385498Y-89719180D01*
X137444463Y-89829494D01*
X137523815Y-89926185D01*
X137620506Y-90005537D01*
X137730820Y-90064502D01*
X137850518Y-90100812D01*
X137975000Y-90113072D01*
X138401750Y-90110000D01*
X138560500Y-89951250D01*
X138560500Y-88727000D01*
X138814500Y-88727000D01*
X138814500Y-89951250D01*
X138973250Y-90110000D01*
X139400000Y-90113072D01*
X139524482Y-90100812D01*
X139644180Y-90064502D01*
X139754494Y-90005537D01*
X139851185Y-89926185D01*
X139930537Y-89829494D01*
X139989502Y-89719180D01*
X140025812Y-89599482D01*
X140038072Y-89475000D01*
X140035000Y-88885750D01*
X139876250Y-88727000D01*
X138814500Y-88727000D01*
X138560500Y-88727000D01*
X137498750Y-88727000D01*
X137340000Y-88885750D01*
X137336928Y-89475000D01*
X137022727Y-89475000D01*
X137046008Y-89398254D01*
X137063072Y-89225000D01*
X137063072Y-87975000D01*
X137046008Y-87801746D01*
X137022728Y-87725000D01*
X137336928Y-87725000D01*
X137340000Y-88314250D01*
X137498750Y-88473000D01*
X138560500Y-88473000D01*
X138560500Y-87248750D01*
X138814500Y-87248750D01*
X138814500Y-88473000D01*
X139876250Y-88473000D01*
X140035000Y-88314250D01*
X140038072Y-87725000D01*
X140025812Y-87600518D01*
X139989502Y-87480820D01*
X139930537Y-87370506D01*
X139851185Y-87273815D01*
X139754494Y-87194463D01*
X139644180Y-87135498D01*
X139524482Y-87099188D01*
X139400000Y-87086928D01*
X138973250Y-87090000D01*
X138814500Y-87248750D01*
X138560500Y-87248750D01*
X138401750Y-87090000D01*
X137975000Y-87086928D01*
X137850518Y-87099188D01*
X137730820Y-87135498D01*
X137620506Y-87194463D01*
X137523815Y-87273815D01*
X137444463Y-87370506D01*
X137385498Y-87480820D01*
X137349188Y-87600518D01*
X137336928Y-87725000D01*
X137022728Y-87725000D01*
X136995472Y-87635150D01*
X136913405Y-87481614D01*
X136802962Y-87347038D01*
X136668386Y-87236595D01*
X136547500Y-87171980D01*
X136547500Y-87008667D01*
X137406167Y-86150000D01*
X139211928Y-86150000D01*
X139224188Y-86274482D01*
X139260498Y-86394180D01*
X139319463Y-86504494D01*
X139398815Y-86601185D01*
X139495506Y-86680537D01*
X139605820Y-86739502D01*
X139725518Y-86775812D01*
X139850000Y-86788072D01*
X140564250Y-86785000D01*
X140723000Y-86626250D01*
X140723000Y-85527000D01*
X139373750Y-85527000D01*
X139215000Y-85685750D01*
X139211928Y-86150000D01*
X137406167Y-86150000D01*
X139333982Y-84222186D01*
X139356809Y-84250000D01*
X139356809Y-84250000D01*
G37*
X139356809Y-84250000D02*
X139319463Y-84295506D01*
X139260498Y-84405820D01*
X139224188Y-84525518D01*
X139211928Y-84650000D01*
X139215000Y-85114250D01*
X139373750Y-85273000D01*
X140723000Y-85273000D01*
X140723000Y-85253000D01*
X140977000Y-85253000D01*
X140977000Y-85273000D01*
X140997000Y-85273000D01*
X140997000Y-85527000D01*
X140977000Y-85527000D01*
X140977000Y-86626250D01*
X141135750Y-86785000D01*
X141850000Y-86788072D01*
X141974482Y-86775812D01*
X142094180Y-86739502D01*
X142204494Y-86680537D01*
X142301185Y-86601185D01*
X142380537Y-86504494D01*
X142439502Y-86394180D01*
X142475812Y-86274482D01*
X142488072Y-86150000D01*
X142485000Y-85685750D01*
X142326252Y-85527002D01*
X142346135Y-85527002D01*
X145280300Y-88461168D01*
X145280301Y-88791928D01*
X143175000Y-88791928D01*
X143050518Y-88804188D01*
X142930820Y-88840498D01*
X142820506Y-88899463D01*
X142723815Y-88978815D01*
X142644463Y-89075506D01*
X142600210Y-89158297D01*
X142511011Y-89167082D01*
X142353613Y-89214828D01*
X142208554Y-89292364D01*
X142081409Y-89396709D01*
X142055254Y-89428579D01*
X141688879Y-89794954D01*
X141657009Y-89821109D01*
X141570776Y-89926185D01*
X141552664Y-89948255D01*
X141475128Y-90093314D01*
X141427382Y-90250712D01*
X141411260Y-90414400D01*
X141415300Y-90455419D01*
X141415300Y-92911928D01*
X139939926Y-92911928D01*
X139989502Y-92819180D01*
X140025812Y-92699482D01*
X140038072Y-92575000D01*
X140035000Y-91985750D01*
X139876250Y-91827000D01*
X138814500Y-91827000D01*
X138814500Y-91847000D01*
X138560500Y-91847000D01*
X138560500Y-91827000D01*
X138540500Y-91827000D01*
X138540500Y-91573000D01*
X138560500Y-91573000D01*
X138560500Y-90348750D01*
X138814500Y-90348750D01*
X138814500Y-91573000D01*
X139876250Y-91573000D01*
X140035000Y-91414250D01*
X140038072Y-90825000D01*
X140025812Y-90700518D01*
X139989502Y-90580820D01*
X139930537Y-90470506D01*
X139851185Y-90373815D01*
X139754494Y-90294463D01*
X139644180Y-90235498D01*
X139524482Y-90199188D01*
X139400000Y-90186928D01*
X138973250Y-90190000D01*
X138814500Y-90348750D01*
X138560500Y-90348750D01*
X138401750Y-90190000D01*
X137975000Y-90186928D01*
X137850518Y-90199188D01*
X137730820Y-90235498D01*
X137660470Y-90273102D01*
X136980405Y-89593038D01*
X136995472Y-89564850D01*
X137022727Y-89475000D01*
X137336928Y-89475000D01*
X137349188Y-89599482D01*
X137385498Y-89719180D01*
X137444463Y-89829494D01*
X137523815Y-89926185D01*
X137620506Y-90005537D01*
X137730820Y-90064502D01*
X137850518Y-90100812D01*
X137975000Y-90113072D01*
X138401750Y-90110000D01*
X138560500Y-89951250D01*
X138560500Y-88727000D01*
X138814500Y-88727000D01*
X138814500Y-89951250D01*
X138973250Y-90110000D01*
X139400000Y-90113072D01*
X139524482Y-90100812D01*
X139644180Y-90064502D01*
X139754494Y-90005537D01*
X139851185Y-89926185D01*
X139930537Y-89829494D01*
X139989502Y-89719180D01*
X140025812Y-89599482D01*
X140038072Y-89475000D01*
X140035000Y-88885750D01*
X139876250Y-88727000D01*
X138814500Y-88727000D01*
X138560500Y-88727000D01*
X137498750Y-88727000D01*
X137340000Y-88885750D01*
X137336928Y-89475000D01*
X137022727Y-89475000D01*
X137046008Y-89398254D01*
X137063072Y-89225000D01*
X137063072Y-87975000D01*
X137046008Y-87801746D01*
X137022728Y-87725000D01*
X137336928Y-87725000D01*
X137340000Y-88314250D01*
X137498750Y-88473000D01*
X138560500Y-88473000D01*
X138560500Y-87248750D01*
X138814500Y-87248750D01*
X138814500Y-88473000D01*
X139876250Y-88473000D01*
X140035000Y-88314250D01*
X140038072Y-87725000D01*
X140025812Y-87600518D01*
X139989502Y-87480820D01*
X139930537Y-87370506D01*
X139851185Y-87273815D01*
X139754494Y-87194463D01*
X139644180Y-87135498D01*
X139524482Y-87099188D01*
X139400000Y-87086928D01*
X138973250Y-87090000D01*
X138814500Y-87248750D01*
X138560500Y-87248750D01*
X138401750Y-87090000D01*
X137975000Y-87086928D01*
X137850518Y-87099188D01*
X137730820Y-87135498D01*
X137620506Y-87194463D01*
X137523815Y-87273815D01*
X137444463Y-87370506D01*
X137385498Y-87480820D01*
X137349188Y-87600518D01*
X137336928Y-87725000D01*
X137022728Y-87725000D01*
X136995472Y-87635150D01*
X136913405Y-87481614D01*
X136802962Y-87347038D01*
X136668386Y-87236595D01*
X136547500Y-87171980D01*
X136547500Y-87008667D01*
X137406167Y-86150000D01*
X139211928Y-86150000D01*
X139224188Y-86274482D01*
X139260498Y-86394180D01*
X139319463Y-86504494D01*
X139398815Y-86601185D01*
X139495506Y-86680537D01*
X139605820Y-86739502D01*
X139725518Y-86775812D01*
X139850000Y-86788072D01*
X140564250Y-86785000D01*
X140723000Y-86626250D01*
X140723000Y-85527000D01*
X139373750Y-85527000D01*
X139215000Y-85685750D01*
X139211928Y-86150000D01*
X137406167Y-86150000D01*
X139333982Y-84222186D01*
X139356809Y-84250000D01*
G36*
X161555665Y-60218863D02*
G01*
X161609214Y-60235030D01*
X161658597Y-60261288D01*
X161701945Y-60296641D01*
X161737600Y-60339740D01*
X161764201Y-60388937D01*
X161780742Y-60442375D01*
X161790001Y-60530464D01*
X161790000Y-67465279D01*
X161781138Y-67555664D01*
X161764970Y-67609214D01*
X161738712Y-67658597D01*
X161703357Y-67701947D01*
X161660261Y-67737599D01*
X161611063Y-67764201D01*
X161557625Y-67780742D01*
X161469545Y-67790000D01*
X155534877Y-67790000D01*
X155500000Y-67786565D01*
X155390870Y-67797313D01*
X155360816Y-67800273D01*
X155226980Y-67840872D01*
X155103637Y-67906800D01*
X154995525Y-67995525D01*
X154906800Y-68103637D01*
X154840872Y-68226980D01*
X154800273Y-68360816D01*
X154786565Y-68500000D01*
X154790000Y-68534877D01*
X154790000Y-72621632D01*
X154438072Y-72269705D01*
X154438072Y-71475000D01*
X154421008Y-71301746D01*
X154370472Y-71135150D01*
X154288405Y-70981614D01*
X154177962Y-70847038D01*
X154043386Y-70736595D01*
X153889850Y-70654528D01*
X153723254Y-70603992D01*
X153550000Y-70586928D01*
X152755296Y-70586928D01*
X152635000Y-70466633D01*
X152635000Y-70379701D01*
X152674482Y-70375812D01*
X152794180Y-70339502D01*
X152904494Y-70280537D01*
X153001185Y-70201185D01*
X153080537Y-70104494D01*
X153139502Y-69994180D01*
X153175812Y-69874482D01*
X153188072Y-69750000D01*
X153188072Y-67750000D01*
X153175812Y-67625518D01*
X153139502Y-67505820D01*
X153080537Y-67395506D01*
X153001185Y-67298815D01*
X152904494Y-67219463D01*
X152794180Y-67160498D01*
X152674482Y-67124188D01*
X152626210Y-67119434D01*
X152622918Y-67086011D01*
X152575172Y-66928613D01*
X152497636Y-66783554D01*
X152393291Y-66656409D01*
X152361427Y-66630259D01*
X150981168Y-65250000D01*
X155467815Y-65250000D01*
X155496487Y-65541111D01*
X155581401Y-65821034D01*
X155719294Y-66079014D01*
X155904866Y-66305134D01*
X156130986Y-66490706D01*
X156388966Y-66628599D01*
X156668889Y-66713513D01*
X156887050Y-66735000D01*
X157032950Y-66735000D01*
X157251111Y-66713513D01*
X157531034Y-66628599D01*
X157789014Y-66490706D01*
X158015134Y-66305134D01*
X158039607Y-66275313D01*
X158060498Y-66344180D01*
X158119463Y-66454494D01*
X158198815Y-66551185D01*
X158295506Y-66630537D01*
X158405820Y-66689502D01*
X158525518Y-66725812D01*
X158650000Y-66738072D01*
X160350000Y-66738072D01*
X160474482Y-66725812D01*
X160594180Y-66689502D01*
X160704494Y-66630537D01*
X160801185Y-66551185D01*
X160880537Y-66454494D01*
X160939502Y-66344180D01*
X160975812Y-66224482D01*
X160988072Y-66100000D01*
X160988072Y-64400000D01*
X160975812Y-64275518D01*
X160939502Y-64155820D01*
X160880537Y-64045506D01*
X160801185Y-63948815D01*
X160704494Y-63869463D01*
X160594180Y-63810498D01*
X160513534Y-63786034D01*
X160597588Y-63710269D01*
X160771641Y-63476920D01*
X160896825Y-63214099D01*
X160941476Y-63066890D01*
X160820155Y-62837000D01*
X159627000Y-62837000D01*
X159627000Y-62857000D01*
X159373000Y-62857000D01*
X159373000Y-62837000D01*
X157087000Y-62837000D01*
X157087000Y-62857000D01*
X156833000Y-62857000D01*
X156833000Y-62837000D01*
X155639845Y-62837000D01*
X155518524Y-63066890D01*
X155563175Y-63214099D01*
X155688359Y-63476920D01*
X155862412Y-63710269D01*
X156078645Y-63905178D01*
X156195523Y-63974799D01*
X156130986Y-64009294D01*
X155904866Y-64194866D01*
X155719294Y-64420986D01*
X155581401Y-64678966D01*
X155496487Y-64958889D01*
X155467815Y-65250000D01*
X150981168Y-65250000D01*
X149822246Y-64091079D01*
X149819778Y-64088072D01*
X151400000Y-64088072D01*
X151524482Y-64075812D01*
X151644180Y-64039502D01*
X151754494Y-63980537D01*
X151851185Y-63901185D01*
X151930537Y-63804494D01*
X151989502Y-63694180D01*
X152025812Y-63574482D01*
X152038072Y-63450000D01*
X152038072Y-62353110D01*
X155518524Y-62353110D01*
X155639845Y-62583000D01*
X156833000Y-62583000D01*
X156833000Y-61389186D01*
X157087000Y-61389186D01*
X157087000Y-62583000D01*
X159373000Y-62583000D01*
X159373000Y-61389186D01*
X159627000Y-61389186D01*
X159627000Y-62583000D01*
X160820155Y-62583000D01*
X160941476Y-62353110D01*
X160896825Y-62205901D01*
X160771641Y-61943080D01*
X160597588Y-61709731D01*
X160381355Y-61514822D01*
X160131252Y-61365843D01*
X159856891Y-61268519D01*
X159627000Y-61389186D01*
X159373000Y-61389186D01*
X159143109Y-61268519D01*
X158868748Y-61365843D01*
X158618645Y-61514822D01*
X158402412Y-61709731D01*
X158230000Y-61940880D01*
X158057588Y-61709731D01*
X157841355Y-61514822D01*
X157591252Y-61365843D01*
X157316891Y-61268519D01*
X157087000Y-61389186D01*
X156833000Y-61389186D01*
X156603109Y-61268519D01*
X156328748Y-61365843D01*
X156078645Y-61514822D01*
X155862412Y-61709731D01*
X155688359Y-61943080D01*
X155563175Y-62205901D01*
X155518524Y-62353110D01*
X152038072Y-62353110D01*
X152038072Y-61450000D01*
X152025812Y-61325518D01*
X151989502Y-61205820D01*
X151930537Y-61095506D01*
X151851185Y-60998815D01*
X151754494Y-60919463D01*
X151644180Y-60860498D01*
X151524482Y-60824188D01*
X151400000Y-60811928D01*
X147600000Y-60811928D01*
X147475518Y-60824188D01*
X147355820Y-60860498D01*
X147245506Y-60919463D01*
X147148815Y-60998815D01*
X147069463Y-61095506D01*
X147010498Y-61205820D01*
X146974188Y-61325518D01*
X146961928Y-61450000D01*
X146961928Y-63450000D01*
X146974188Y-63574482D01*
X147010498Y-63694180D01*
X147069463Y-63804494D01*
X147080137Y-63817500D01*
X145756168Y-63817500D01*
X145320445Y-63381778D01*
X145294291Y-63349909D01*
X145167146Y-63245564D01*
X145022087Y-63168028D01*
X144864689Y-63120282D01*
X144742019Y-63108200D01*
X144742018Y-63108200D01*
X144701000Y-63104160D01*
X144659982Y-63108200D01*
X139008418Y-63108200D01*
X138967400Y-63104160D01*
X138926382Y-63108200D01*
X138926381Y-63108200D01*
X138803711Y-63120282D01*
X138646313Y-63168028D01*
X138501254Y-63245564D01*
X138374109Y-63349909D01*
X138347963Y-63381768D01*
X136397815Y-65331917D01*
X136396457Y-65321049D01*
X136276333Y-64959310D01*
X136144312Y-64712317D01*
X135849224Y-64580381D01*
X134679605Y-65750000D01*
X134693748Y-65764143D01*
X134514143Y-65943748D01*
X134500000Y-65929605D01*
X134485858Y-65943748D01*
X134306253Y-65764143D01*
X134320395Y-65750000D01*
X134306253Y-65735858D01*
X134485858Y-65556253D01*
X134500000Y-65570395D01*
X135669619Y-64400776D01*
X135537683Y-64105688D01*
X135196955Y-63934841D01*
X134829443Y-63833750D01*
X134449271Y-63806299D01*
X134071049Y-63853543D01*
X133709310Y-63973667D01*
X133462317Y-64105688D01*
X133330382Y-64400774D01*
X133215367Y-64285759D01*
X133210000Y-64291126D01*
X133210000Y-61034729D01*
X133228386Y-60847215D01*
X133272757Y-60700252D01*
X133344829Y-60564703D01*
X133441852Y-60445742D01*
X133560144Y-60347882D01*
X133695181Y-60274868D01*
X133841833Y-60229471D01*
X134027092Y-60210000D01*
X161465278Y-60210000D01*
X161555665Y-60218863D01*
X161555665Y-60218863D01*
G37*
X161555665Y-60218863D02*
X161609214Y-60235030D01*
X161658597Y-60261288D01*
X161701945Y-60296641D01*
X161737600Y-60339740D01*
X161764201Y-60388937D01*
X161780742Y-60442375D01*
X161790001Y-60530464D01*
X161790000Y-67465279D01*
X161781138Y-67555664D01*
X161764970Y-67609214D01*
X161738712Y-67658597D01*
X161703357Y-67701947D01*
X161660261Y-67737599D01*
X161611063Y-67764201D01*
X161557625Y-67780742D01*
X161469545Y-67790000D01*
X155534877Y-67790000D01*
X155500000Y-67786565D01*
X155390870Y-67797313D01*
X155360816Y-67800273D01*
X155226980Y-67840872D01*
X155103637Y-67906800D01*
X154995525Y-67995525D01*
X154906800Y-68103637D01*
X154840872Y-68226980D01*
X154800273Y-68360816D01*
X154786565Y-68500000D01*
X154790000Y-68534877D01*
X154790000Y-72621632D01*
X154438072Y-72269705D01*
X154438072Y-71475000D01*
X154421008Y-71301746D01*
X154370472Y-71135150D01*
X154288405Y-70981614D01*
X154177962Y-70847038D01*
X154043386Y-70736595D01*
X153889850Y-70654528D01*
X153723254Y-70603992D01*
X153550000Y-70586928D01*
X152755296Y-70586928D01*
X152635000Y-70466633D01*
X152635000Y-70379701D01*
X152674482Y-70375812D01*
X152794180Y-70339502D01*
X152904494Y-70280537D01*
X153001185Y-70201185D01*
X153080537Y-70104494D01*
X153139502Y-69994180D01*
X153175812Y-69874482D01*
X153188072Y-69750000D01*
X153188072Y-67750000D01*
X153175812Y-67625518D01*
X153139502Y-67505820D01*
X153080537Y-67395506D01*
X153001185Y-67298815D01*
X152904494Y-67219463D01*
X152794180Y-67160498D01*
X152674482Y-67124188D01*
X152626210Y-67119434D01*
X152622918Y-67086011D01*
X152575172Y-66928613D01*
X152497636Y-66783554D01*
X152393291Y-66656409D01*
X152361427Y-66630259D01*
X150981168Y-65250000D01*
X155467815Y-65250000D01*
X155496487Y-65541111D01*
X155581401Y-65821034D01*
X155719294Y-66079014D01*
X155904866Y-66305134D01*
X156130986Y-66490706D01*
X156388966Y-66628599D01*
X156668889Y-66713513D01*
X156887050Y-66735000D01*
X157032950Y-66735000D01*
X157251111Y-66713513D01*
X157531034Y-66628599D01*
X157789014Y-66490706D01*
X158015134Y-66305134D01*
X158039607Y-66275313D01*
X158060498Y-66344180D01*
X158119463Y-66454494D01*
X158198815Y-66551185D01*
X158295506Y-66630537D01*
X158405820Y-66689502D01*
X158525518Y-66725812D01*
X158650000Y-66738072D01*
X160350000Y-66738072D01*
X160474482Y-66725812D01*
X160594180Y-66689502D01*
X160704494Y-66630537D01*
X160801185Y-66551185D01*
X160880537Y-66454494D01*
X160939502Y-66344180D01*
X160975812Y-66224482D01*
X160988072Y-66100000D01*
X160988072Y-64400000D01*
X160975812Y-64275518D01*
X160939502Y-64155820D01*
X160880537Y-64045506D01*
X160801185Y-63948815D01*
X160704494Y-63869463D01*
X160594180Y-63810498D01*
X160513534Y-63786034D01*
X160597588Y-63710269D01*
X160771641Y-63476920D01*
X160896825Y-63214099D01*
X160941476Y-63066890D01*
X160820155Y-62837000D01*
X159627000Y-62837000D01*
X159627000Y-62857000D01*
X159373000Y-62857000D01*
X159373000Y-62837000D01*
X157087000Y-62837000D01*
X157087000Y-62857000D01*
X156833000Y-62857000D01*
X156833000Y-62837000D01*
X155639845Y-62837000D01*
X155518524Y-63066890D01*
X155563175Y-63214099D01*
X155688359Y-63476920D01*
X155862412Y-63710269D01*
X156078645Y-63905178D01*
X156195523Y-63974799D01*
X156130986Y-64009294D01*
X155904866Y-64194866D01*
X155719294Y-64420986D01*
X155581401Y-64678966D01*
X155496487Y-64958889D01*
X155467815Y-65250000D01*
X150981168Y-65250000D01*
X149822246Y-64091079D01*
X149819778Y-64088072D01*
X151400000Y-64088072D01*
X151524482Y-64075812D01*
X151644180Y-64039502D01*
X151754494Y-63980537D01*
X151851185Y-63901185D01*
X151930537Y-63804494D01*
X151989502Y-63694180D01*
X152025812Y-63574482D01*
X152038072Y-63450000D01*
X152038072Y-62353110D01*
X155518524Y-62353110D01*
X155639845Y-62583000D01*
X156833000Y-62583000D01*
X156833000Y-61389186D01*
X157087000Y-61389186D01*
X157087000Y-62583000D01*
X159373000Y-62583000D01*
X159373000Y-61389186D01*
X159627000Y-61389186D01*
X159627000Y-62583000D01*
X160820155Y-62583000D01*
X160941476Y-62353110D01*
X160896825Y-62205901D01*
X160771641Y-61943080D01*
X160597588Y-61709731D01*
X160381355Y-61514822D01*
X160131252Y-61365843D01*
X159856891Y-61268519D01*
X159627000Y-61389186D01*
X159373000Y-61389186D01*
X159143109Y-61268519D01*
X158868748Y-61365843D01*
X158618645Y-61514822D01*
X158402412Y-61709731D01*
X158230000Y-61940880D01*
X158057588Y-61709731D01*
X157841355Y-61514822D01*
X157591252Y-61365843D01*
X157316891Y-61268519D01*
X157087000Y-61389186D01*
X156833000Y-61389186D01*
X156603109Y-61268519D01*
X156328748Y-61365843D01*
X156078645Y-61514822D01*
X155862412Y-61709731D01*
X155688359Y-61943080D01*
X155563175Y-62205901D01*
X155518524Y-62353110D01*
X152038072Y-62353110D01*
X152038072Y-61450000D01*
X152025812Y-61325518D01*
X151989502Y-61205820D01*
X151930537Y-61095506D01*
X151851185Y-60998815D01*
X151754494Y-60919463D01*
X151644180Y-60860498D01*
X151524482Y-60824188D01*
X151400000Y-60811928D01*
X147600000Y-60811928D01*
X147475518Y-60824188D01*
X147355820Y-60860498D01*
X147245506Y-60919463D01*
X147148815Y-60998815D01*
X147069463Y-61095506D01*
X147010498Y-61205820D01*
X146974188Y-61325518D01*
X146961928Y-61450000D01*
X146961928Y-63450000D01*
X146974188Y-63574482D01*
X147010498Y-63694180D01*
X147069463Y-63804494D01*
X147080137Y-63817500D01*
X145756168Y-63817500D01*
X145320445Y-63381778D01*
X145294291Y-63349909D01*
X145167146Y-63245564D01*
X145022087Y-63168028D01*
X144864689Y-63120282D01*
X144742019Y-63108200D01*
X144742018Y-63108200D01*
X144701000Y-63104160D01*
X144659982Y-63108200D01*
X139008418Y-63108200D01*
X138967400Y-63104160D01*
X138926382Y-63108200D01*
X138926381Y-63108200D01*
X138803711Y-63120282D01*
X138646313Y-63168028D01*
X138501254Y-63245564D01*
X138374109Y-63349909D01*
X138347963Y-63381768D01*
X136397815Y-65331917D01*
X136396457Y-65321049D01*
X136276333Y-64959310D01*
X136144312Y-64712317D01*
X135849224Y-64580381D01*
X134679605Y-65750000D01*
X134693748Y-65764143D01*
X134514143Y-65943748D01*
X134500000Y-65929605D01*
X134485858Y-65943748D01*
X134306253Y-65764143D01*
X134320395Y-65750000D01*
X134306253Y-65735858D01*
X134485858Y-65556253D01*
X134500000Y-65570395D01*
X135669619Y-64400776D01*
X135537683Y-64105688D01*
X135196955Y-63934841D01*
X134829443Y-63833750D01*
X134449271Y-63806299D01*
X134071049Y-63853543D01*
X133709310Y-63973667D01*
X133462317Y-64105688D01*
X133330382Y-64400774D01*
X133215367Y-64285759D01*
X133210000Y-64291126D01*
X133210000Y-61034729D01*
X133228386Y-60847215D01*
X133272757Y-60700252D01*
X133344829Y-60564703D01*
X133441852Y-60445742D01*
X133560144Y-60347882D01*
X133695181Y-60274868D01*
X133841833Y-60229471D01*
X134027092Y-60210000D01*
X161465278Y-60210000D01*
X161555665Y-60218863D01*
M02*
