G04 #@! TF.GenerationSoftware,KiCad,Pcbnew,(5.1.4)-1*
G04 #@! TF.CreationDate,2020-11-14T09:15:54+05:30*
G04 #@! TF.ProjectId,Breadboard_Power_Supply,42726561-6462-46f6-9172-645f506f7765,1*
G04 #@! TF.SameCoordinates,Original*
G04 #@! TF.FileFunction,Legend,Bot*
G04 #@! TF.FilePolarity,Positive*
%FSLAX46Y46*%
G04 Gerber Fmt 4.6, Leading zero omitted, Abs format (unit mm)*
G04 Created by KiCad (PCBNEW (5.1.4)-1) date 2020-11-14 09:15:54*
%MOMM*%
%LPD*%
G04 APERTURE LIST*
%ADD10C,0.120000*%
%ADD11C,0.250000*%
%ADD12C,0.010000*%
G04 APERTURE END LIST*
D10*
X140608054Y-77494844D02*
G75*
G02X141600000Y-77500000I497519J294844D01*
G01*
X142000000Y-77105573D02*
G75*
G03X142000000Y-77105573I-894427J0D01*
G01*
D11*
X141688095Y-78550000D02*
X140388095Y-78550000D01*
X140821428Y-79169047D02*
X141688095Y-79169047D01*
X140945238Y-79169047D02*
X140883333Y-79230952D01*
X140821428Y-79354761D01*
X140821428Y-79540476D01*
X140883333Y-79664285D01*
X141007142Y-79726190D01*
X141688095Y-79726190D01*
X140821428Y-80345238D02*
X142121428Y-80345238D01*
X140883333Y-80345238D02*
X140821428Y-80469047D01*
X140821428Y-80716666D01*
X140883333Y-80840476D01*
X140945238Y-80902380D01*
X141069047Y-80964285D01*
X141440476Y-80964285D01*
X141564285Y-80902380D01*
X141626190Y-80840476D01*
X141688095Y-80716666D01*
X141688095Y-80469047D01*
X141626190Y-80345238D01*
X140821428Y-82078571D02*
X141688095Y-82078571D01*
X140821428Y-81521428D02*
X141502380Y-81521428D01*
X141626190Y-81583333D01*
X141688095Y-81707142D01*
X141688095Y-81892857D01*
X141626190Y-82016666D01*
X141564285Y-82078571D01*
X140821428Y-82511904D02*
X140821428Y-83007142D01*
X140388095Y-82697619D02*
X141502380Y-82697619D01*
X141626190Y-82759523D01*
X141688095Y-82883333D01*
X141688095Y-83007142D01*
X141007142Y-83873809D02*
X141069047Y-84059523D01*
X141130952Y-84121428D01*
X141254761Y-84183333D01*
X141440476Y-84183333D01*
X141564285Y-84121428D01*
X141626190Y-84059523D01*
X141688095Y-83935714D01*
X141688095Y-83440476D01*
X140388095Y-83440476D01*
X140388095Y-83873809D01*
X140450000Y-83997619D01*
X140511904Y-84059523D01*
X140635714Y-84121428D01*
X140759523Y-84121428D01*
X140883333Y-84059523D01*
X140945238Y-83997619D01*
X141007142Y-83873809D01*
X141007142Y-83440476D01*
X141688095Y-84926190D02*
X141626190Y-84802380D01*
X141502380Y-84740476D01*
X140388095Y-84740476D01*
X141688095Y-85978571D02*
X141007142Y-85978571D01*
X140883333Y-85916666D01*
X140821428Y-85792857D01*
X140821428Y-85545238D01*
X140883333Y-85421428D01*
X141626190Y-85978571D02*
X141688095Y-85854761D01*
X141688095Y-85545238D01*
X141626190Y-85421428D01*
X141502380Y-85359523D01*
X141378571Y-85359523D01*
X141254761Y-85421428D01*
X141192857Y-85545238D01*
X141192857Y-85854761D01*
X141130952Y-85978571D01*
X141626190Y-87154761D02*
X141688095Y-87030952D01*
X141688095Y-86783333D01*
X141626190Y-86659523D01*
X141564285Y-86597619D01*
X141440476Y-86535714D01*
X141069047Y-86535714D01*
X140945238Y-86597619D01*
X140883333Y-86659523D01*
X140821428Y-86783333D01*
X140821428Y-87030952D01*
X140883333Y-87154761D01*
X141688095Y-87711904D02*
X140388095Y-87711904D01*
X141192857Y-87835714D02*
X141688095Y-88207142D01*
X140821428Y-88207142D02*
X141316666Y-87711904D01*
X141007142Y-89197619D02*
X141069047Y-89383333D01*
X141130952Y-89445238D01*
X141254761Y-89507142D01*
X141440476Y-89507142D01*
X141564285Y-89445238D01*
X141626190Y-89383333D01*
X141688095Y-89259523D01*
X141688095Y-88764285D01*
X140388095Y-88764285D01*
X140388095Y-89197619D01*
X140450000Y-89321428D01*
X140511904Y-89383333D01*
X140635714Y-89445238D01*
X140759523Y-89445238D01*
X140883333Y-89383333D01*
X140945238Y-89321428D01*
X141007142Y-89197619D01*
X141007142Y-88764285D01*
X141688095Y-90250000D02*
X141626190Y-90126190D01*
X141564285Y-90064285D01*
X141440476Y-90002380D01*
X141069047Y-90002380D01*
X140945238Y-90064285D01*
X140883333Y-90126190D01*
X140821428Y-90250000D01*
X140821428Y-90435714D01*
X140883333Y-90559523D01*
X140945238Y-90621428D01*
X141069047Y-90683333D01*
X141440476Y-90683333D01*
X141564285Y-90621428D01*
X141626190Y-90559523D01*
X141688095Y-90435714D01*
X141688095Y-90250000D01*
X141688095Y-91116666D02*
X140821428Y-91797619D01*
X140821428Y-91116666D02*
X141688095Y-91797619D01*
X140388095Y-92540476D02*
X140388095Y-92788095D01*
X140450000Y-92911904D01*
X140573809Y-93035714D01*
X140821428Y-93097619D01*
X141254761Y-93097619D01*
X141502380Y-93035714D01*
X141626190Y-92911904D01*
X141688095Y-92788095D01*
X141688095Y-92540476D01*
X141626190Y-92416666D01*
X141502380Y-92292857D01*
X141254761Y-92230952D01*
X140821428Y-92230952D01*
X140573809Y-92292857D01*
X140450000Y-92416666D01*
X140388095Y-92540476D01*
X140821428Y-94211904D02*
X141688095Y-94211904D01*
X140821428Y-93654761D02*
X141502380Y-93654761D01*
X141626190Y-93716666D01*
X141688095Y-93840476D01*
X141688095Y-94026190D01*
X141626190Y-94150000D01*
X141564285Y-94211904D01*
X140821428Y-94645238D02*
X140821428Y-95140476D01*
X140388095Y-94830952D02*
X141502380Y-94830952D01*
X141626190Y-94892857D01*
X141688095Y-95016666D01*
X141688095Y-95140476D01*
X140821428Y-95573809D02*
X142121428Y-95573809D01*
X140883333Y-95573809D02*
X140821428Y-95697619D01*
X140821428Y-95945238D01*
X140883333Y-96069047D01*
X140945238Y-96130952D01*
X141069047Y-96192857D01*
X141440476Y-96192857D01*
X141564285Y-96130952D01*
X141626190Y-96069047D01*
X141688095Y-95945238D01*
X141688095Y-95697619D01*
X141626190Y-95573809D01*
X140821428Y-97307142D02*
X141688095Y-97307142D01*
X140821428Y-96750000D02*
X141502380Y-96750000D01*
X141626190Y-96811904D01*
X141688095Y-96935714D01*
X141688095Y-97121428D01*
X141626190Y-97245238D01*
X141564285Y-97307142D01*
X140821428Y-97740476D02*
X140821428Y-98235714D01*
X140388095Y-97926190D02*
X141502380Y-97926190D01*
X141626190Y-97988095D01*
X141688095Y-98111904D01*
X141688095Y-98235714D01*
X138407142Y-75614285D02*
X138469047Y-75800000D01*
X138530952Y-75861904D01*
X138654761Y-75923809D01*
X138840476Y-75923809D01*
X138964285Y-75861904D01*
X139026190Y-75800000D01*
X139088095Y-75676190D01*
X139088095Y-75180952D01*
X137788095Y-75180952D01*
X137788095Y-75614285D01*
X137850000Y-75738095D01*
X137911904Y-75800000D01*
X138035714Y-75861904D01*
X138159523Y-75861904D01*
X138283333Y-75800000D01*
X138345238Y-75738095D01*
X138407142Y-75614285D01*
X138407142Y-75180952D01*
X139088095Y-76480952D02*
X138221428Y-76480952D01*
X138469047Y-76480952D02*
X138345238Y-76542857D01*
X138283333Y-76604761D01*
X138221428Y-76728571D01*
X138221428Y-76852380D01*
X139026190Y-77780952D02*
X139088095Y-77657142D01*
X139088095Y-77409523D01*
X139026190Y-77285714D01*
X138902380Y-77223809D01*
X138407142Y-77223809D01*
X138283333Y-77285714D01*
X138221428Y-77409523D01*
X138221428Y-77657142D01*
X138283333Y-77780952D01*
X138407142Y-77842857D01*
X138530952Y-77842857D01*
X138654761Y-77223809D01*
X139088095Y-78957142D02*
X138407142Y-78957142D01*
X138283333Y-78895238D01*
X138221428Y-78771428D01*
X138221428Y-78523809D01*
X138283333Y-78400000D01*
X139026190Y-78957142D02*
X139088095Y-78833333D01*
X139088095Y-78523809D01*
X139026190Y-78400000D01*
X138902380Y-78338095D01*
X138778571Y-78338095D01*
X138654761Y-78400000D01*
X138592857Y-78523809D01*
X138592857Y-78833333D01*
X138530952Y-78957142D01*
X139088095Y-80133333D02*
X137788095Y-80133333D01*
X139026190Y-80133333D02*
X139088095Y-80009523D01*
X139088095Y-79761904D01*
X139026190Y-79638095D01*
X138964285Y-79576190D01*
X138840476Y-79514285D01*
X138469047Y-79514285D01*
X138345238Y-79576190D01*
X138283333Y-79638095D01*
X138221428Y-79761904D01*
X138221428Y-80009523D01*
X138283333Y-80133333D01*
X139088095Y-80752380D02*
X137788095Y-80752380D01*
X138283333Y-80752380D02*
X138221428Y-80876190D01*
X138221428Y-81123809D01*
X138283333Y-81247619D01*
X138345238Y-81309523D01*
X138469047Y-81371428D01*
X138840476Y-81371428D01*
X138964285Y-81309523D01*
X139026190Y-81247619D01*
X139088095Y-81123809D01*
X139088095Y-80876190D01*
X139026190Y-80752380D01*
X139088095Y-82114285D02*
X139026190Y-81990476D01*
X138964285Y-81928571D01*
X138840476Y-81866666D01*
X138469047Y-81866666D01*
X138345238Y-81928571D01*
X138283333Y-81990476D01*
X138221428Y-82114285D01*
X138221428Y-82300000D01*
X138283333Y-82423809D01*
X138345238Y-82485714D01*
X138469047Y-82547619D01*
X138840476Y-82547619D01*
X138964285Y-82485714D01*
X139026190Y-82423809D01*
X139088095Y-82300000D01*
X139088095Y-82114285D01*
X139088095Y-83661904D02*
X138407142Y-83661904D01*
X138283333Y-83600000D01*
X138221428Y-83476190D01*
X138221428Y-83228571D01*
X138283333Y-83104761D01*
X139026190Y-83661904D02*
X139088095Y-83538095D01*
X139088095Y-83228571D01*
X139026190Y-83104761D01*
X138902380Y-83042857D01*
X138778571Y-83042857D01*
X138654761Y-83104761D01*
X138592857Y-83228571D01*
X138592857Y-83538095D01*
X138530952Y-83661904D01*
X139088095Y-84280952D02*
X138221428Y-84280952D01*
X138469047Y-84280952D02*
X138345238Y-84342857D01*
X138283333Y-84404761D01*
X138221428Y-84528571D01*
X138221428Y-84652380D01*
X139088095Y-85642857D02*
X137788095Y-85642857D01*
X139026190Y-85642857D02*
X139088095Y-85519047D01*
X139088095Y-85271428D01*
X139026190Y-85147619D01*
X138964285Y-85085714D01*
X138840476Y-85023809D01*
X138469047Y-85023809D01*
X138345238Y-85085714D01*
X138283333Y-85147619D01*
X138221428Y-85271428D01*
X138221428Y-85519047D01*
X138283333Y-85642857D01*
X139088095Y-87252380D02*
X137788095Y-87252380D01*
X137788095Y-87747619D01*
X137850000Y-87871428D01*
X137911904Y-87933333D01*
X138035714Y-87995238D01*
X138221428Y-87995238D01*
X138345238Y-87933333D01*
X138407142Y-87871428D01*
X138469047Y-87747619D01*
X138469047Y-87252380D01*
X139088095Y-88738095D02*
X139026190Y-88614285D01*
X138964285Y-88552380D01*
X138840476Y-88490476D01*
X138469047Y-88490476D01*
X138345238Y-88552380D01*
X138283333Y-88614285D01*
X138221428Y-88738095D01*
X138221428Y-88923809D01*
X138283333Y-89047619D01*
X138345238Y-89109523D01*
X138469047Y-89171428D01*
X138840476Y-89171428D01*
X138964285Y-89109523D01*
X139026190Y-89047619D01*
X139088095Y-88923809D01*
X139088095Y-88738095D01*
X138221428Y-89604761D02*
X139088095Y-89852380D01*
X138469047Y-90100000D01*
X139088095Y-90347619D01*
X138221428Y-90595238D01*
X139026190Y-91585714D02*
X139088095Y-91461904D01*
X139088095Y-91214285D01*
X139026190Y-91090476D01*
X138902380Y-91028571D01*
X138407142Y-91028571D01*
X138283333Y-91090476D01*
X138221428Y-91214285D01*
X138221428Y-91461904D01*
X138283333Y-91585714D01*
X138407142Y-91647619D01*
X138530952Y-91647619D01*
X138654761Y-91028571D01*
X139088095Y-92204761D02*
X138221428Y-92204761D01*
X138469047Y-92204761D02*
X138345238Y-92266666D01*
X138283333Y-92328571D01*
X138221428Y-92452380D01*
X138221428Y-92576190D01*
X139026190Y-93938095D02*
X139088095Y-94123809D01*
X139088095Y-94433333D01*
X139026190Y-94557142D01*
X138964285Y-94619047D01*
X138840476Y-94680952D01*
X138716666Y-94680952D01*
X138592857Y-94619047D01*
X138530952Y-94557142D01*
X138469047Y-94433333D01*
X138407142Y-94185714D01*
X138345238Y-94061904D01*
X138283333Y-94000000D01*
X138159523Y-93938095D01*
X138035714Y-93938095D01*
X137911904Y-94000000D01*
X137850000Y-94061904D01*
X137788095Y-94185714D01*
X137788095Y-94495238D01*
X137850000Y-94680952D01*
X138221428Y-95795238D02*
X139088095Y-95795238D01*
X138221428Y-95238095D02*
X138902380Y-95238095D01*
X139026190Y-95300000D01*
X139088095Y-95423809D01*
X139088095Y-95609523D01*
X139026190Y-95733333D01*
X138964285Y-95795238D01*
X138221428Y-96414285D02*
X139521428Y-96414285D01*
X138283333Y-96414285D02*
X138221428Y-96538095D01*
X138221428Y-96785714D01*
X138283333Y-96909523D01*
X138345238Y-96971428D01*
X138469047Y-97033333D01*
X138840476Y-97033333D01*
X138964285Y-96971428D01*
X139026190Y-96909523D01*
X139088095Y-96785714D01*
X139088095Y-96538095D01*
X139026190Y-96414285D01*
X138221428Y-97590476D02*
X139521428Y-97590476D01*
X138283333Y-97590476D02*
X138221428Y-97714285D01*
X138221428Y-97961904D01*
X138283333Y-98085714D01*
X138345238Y-98147619D01*
X138469047Y-98209523D01*
X138840476Y-98209523D01*
X138964285Y-98147619D01*
X139026190Y-98085714D01*
X139088095Y-97961904D01*
X139088095Y-97714285D01*
X139026190Y-97590476D01*
X139088095Y-98952380D02*
X139026190Y-98828571D01*
X138902380Y-98766666D01*
X137788095Y-98766666D01*
X138221428Y-99323809D02*
X139088095Y-99633333D01*
X138221428Y-99942857D02*
X139088095Y-99633333D01*
X139397619Y-99509523D01*
X139459523Y-99447619D01*
X139521428Y-99323809D01*
D12*
G36*
X149003910Y-66057652D02*
G01*
X149082454Y-66057222D01*
X149139298Y-66056058D01*
X149178105Y-66053793D01*
X149202538Y-66050060D01*
X149216262Y-66044494D01*
X149222940Y-66036727D01*
X149226236Y-66026395D01*
X149226556Y-66025057D01*
X149231562Y-66000921D01*
X149240829Y-65953299D01*
X149253392Y-65887259D01*
X149268287Y-65807872D01*
X149284551Y-65720204D01*
X149285119Y-65717125D01*
X149301410Y-65631211D01*
X149316652Y-65555304D01*
X149329861Y-65493955D01*
X149340054Y-65451718D01*
X149346248Y-65433145D01*
X149346543Y-65432816D01*
X149364788Y-65423747D01*
X149402405Y-65408633D01*
X149451271Y-65390738D01*
X149451543Y-65390642D01*
X149513093Y-65367507D01*
X149585657Y-65338035D01*
X149654057Y-65308403D01*
X149657294Y-65306938D01*
X149768702Y-65256374D01*
X150015399Y-65424840D01*
X150091077Y-65476197D01*
X150159631Y-65522111D01*
X150217088Y-65559970D01*
X150259476Y-65587163D01*
X150282825Y-65601079D01*
X150285042Y-65602111D01*
X150302010Y-65597516D01*
X150333701Y-65575345D01*
X150381352Y-65534553D01*
X150446198Y-65474095D01*
X150512397Y-65409773D01*
X150576214Y-65346388D01*
X150633329Y-65288549D01*
X150680305Y-65239825D01*
X150713703Y-65203790D01*
X150730085Y-65184016D01*
X150730694Y-65182998D01*
X150732505Y-65169428D01*
X150725683Y-65147267D01*
X150708540Y-65113522D01*
X150679393Y-65065200D01*
X150636555Y-64999308D01*
X150579448Y-64914483D01*
X150528766Y-64839823D01*
X150483461Y-64772860D01*
X150446150Y-64717484D01*
X150419452Y-64677580D01*
X150405985Y-64657038D01*
X150405137Y-64655644D01*
X150406781Y-64635962D01*
X150419245Y-64597707D01*
X150440048Y-64548111D01*
X150447462Y-64532272D01*
X150479814Y-64461710D01*
X150514328Y-64381647D01*
X150542365Y-64312371D01*
X150562568Y-64260955D01*
X150578615Y-64221881D01*
X150587888Y-64201459D01*
X150589041Y-64199886D01*
X150606096Y-64197279D01*
X150646298Y-64190137D01*
X150704302Y-64179477D01*
X150774763Y-64166315D01*
X150852335Y-64151667D01*
X150931672Y-64136551D01*
X151007431Y-64121982D01*
X151074264Y-64108978D01*
X151126828Y-64098555D01*
X151159776Y-64091730D01*
X151167857Y-64089801D01*
X151176205Y-64085038D01*
X151182506Y-64074282D01*
X151187045Y-64053902D01*
X151190104Y-64020266D01*
X151191967Y-63969745D01*
X151192918Y-63898708D01*
X151193240Y-63803524D01*
X151193257Y-63764508D01*
X151193257Y-63447201D01*
X151117057Y-63432161D01*
X151074663Y-63424005D01*
X151011400Y-63412101D01*
X150934962Y-63397884D01*
X150853043Y-63382790D01*
X150830400Y-63378645D01*
X150754806Y-63363947D01*
X150688953Y-63349495D01*
X150638366Y-63336625D01*
X150608574Y-63326678D01*
X150603612Y-63323713D01*
X150591426Y-63302717D01*
X150573953Y-63262033D01*
X150554577Y-63209678D01*
X150550734Y-63198400D01*
X150525339Y-63128477D01*
X150493817Y-63049582D01*
X150462969Y-62978734D01*
X150462817Y-62978405D01*
X150411447Y-62867267D01*
X150580399Y-62618747D01*
X150749352Y-62370228D01*
X150532429Y-62152942D01*
X150466819Y-62088274D01*
X150406979Y-62031267D01*
X150356267Y-61984967D01*
X150318046Y-61952416D01*
X150295675Y-61936657D01*
X150292466Y-61935657D01*
X150273626Y-61943531D01*
X150235180Y-61965422D01*
X150181330Y-61998733D01*
X150116276Y-62040869D01*
X150045940Y-62088057D01*
X149974555Y-62136190D01*
X149910908Y-62178072D01*
X149859041Y-62211129D01*
X149822995Y-62232782D01*
X149806867Y-62240457D01*
X149787189Y-62233963D01*
X149749875Y-62216850D01*
X149702621Y-62192674D01*
X149697612Y-62189987D01*
X149633977Y-62158073D01*
X149590341Y-62142421D01*
X149563202Y-62142255D01*
X149549057Y-62156796D01*
X149548975Y-62157000D01*
X149541905Y-62174221D01*
X149525042Y-62215101D01*
X149499695Y-62276475D01*
X149467171Y-62355181D01*
X149428778Y-62448053D01*
X149385822Y-62551928D01*
X149344222Y-62652498D01*
X149298504Y-62763484D01*
X149256526Y-62866297D01*
X149219548Y-62957785D01*
X149188827Y-63034799D01*
X149165622Y-63094185D01*
X149151190Y-63132791D01*
X149146743Y-63147200D01*
X149157896Y-63163728D01*
X149187069Y-63190070D01*
X149225971Y-63219113D01*
X149336757Y-63310961D01*
X149423351Y-63416241D01*
X149484716Y-63532734D01*
X149519815Y-63658224D01*
X149527608Y-63790493D01*
X149521943Y-63851543D01*
X149491078Y-63978205D01*
X149437920Y-64090059D01*
X149365767Y-64185999D01*
X149277917Y-64264924D01*
X149177665Y-64325730D01*
X149068310Y-64367313D01*
X148953147Y-64388572D01*
X148835475Y-64388401D01*
X148718590Y-64365699D01*
X148605789Y-64319362D01*
X148500369Y-64248287D01*
X148456368Y-64208089D01*
X148371979Y-64104871D01*
X148313222Y-63992075D01*
X148279704Y-63872990D01*
X148271035Y-63750905D01*
X148286823Y-63629107D01*
X148326678Y-63510884D01*
X148390207Y-63399525D01*
X148477021Y-63298316D01*
X148574029Y-63219113D01*
X148614437Y-63188838D01*
X148642982Y-63162781D01*
X148653257Y-63147175D01*
X148647877Y-63130157D01*
X148632575Y-63089500D01*
X148608612Y-63028358D01*
X148577244Y-62949881D01*
X148539732Y-62857220D01*
X148497333Y-62753528D01*
X148455663Y-62652474D01*
X148409690Y-62541393D01*
X148367107Y-62438459D01*
X148329221Y-62346835D01*
X148297340Y-62269684D01*
X148272771Y-62210169D01*
X148256820Y-62171456D01*
X148250910Y-62157000D01*
X148236948Y-62142315D01*
X148209940Y-62142358D01*
X148166413Y-62157901D01*
X148102890Y-62189716D01*
X148102388Y-62189987D01*
X148054560Y-62214677D01*
X148015897Y-62232662D01*
X147994095Y-62240386D01*
X147993133Y-62240457D01*
X147976721Y-62232622D01*
X147940487Y-62210835D01*
X147888474Y-62177672D01*
X147824725Y-62135709D01*
X147754060Y-62088057D01*
X147682116Y-62039809D01*
X147617274Y-61997849D01*
X147563735Y-61964773D01*
X147525697Y-61943179D01*
X147507533Y-61935657D01*
X147490808Y-61945543D01*
X147457180Y-61973174D01*
X147410010Y-62015505D01*
X147352658Y-62069495D01*
X147288484Y-62132101D01*
X147267497Y-62153017D01*
X147050499Y-62370377D01*
X147215668Y-62612780D01*
X147265864Y-62687219D01*
X147309919Y-62754028D01*
X147345362Y-62809335D01*
X147369719Y-62849271D01*
X147380522Y-62869964D01*
X147380838Y-62871437D01*
X147375143Y-62890942D01*
X147359826Y-62930178D01*
X147337537Y-62982570D01*
X147321893Y-63017645D01*
X147292641Y-63084799D01*
X147265094Y-63152642D01*
X147243737Y-63209966D01*
X147237935Y-63227428D01*
X147221452Y-63274062D01*
X147205340Y-63310095D01*
X147196490Y-63323713D01*
X147176960Y-63332048D01*
X147134334Y-63343863D01*
X147074145Y-63357819D01*
X147001922Y-63372578D01*
X146969600Y-63378645D01*
X146887522Y-63393727D01*
X146808795Y-63408331D01*
X146741109Y-63421020D01*
X146692160Y-63430358D01*
X146682943Y-63432161D01*
X146606743Y-63447201D01*
X146606743Y-63764508D01*
X146606914Y-63868846D01*
X146607616Y-63947787D01*
X146609134Y-64004962D01*
X146611749Y-64044001D01*
X146615746Y-64068535D01*
X146621409Y-64082195D01*
X146629020Y-64088611D01*
X146632143Y-64089801D01*
X146650978Y-64094020D01*
X146692588Y-64102438D01*
X146751630Y-64114039D01*
X146822757Y-64127805D01*
X146900625Y-64142720D01*
X146979887Y-64157768D01*
X147055198Y-64171931D01*
X147121213Y-64184194D01*
X147172587Y-64193539D01*
X147203975Y-64198950D01*
X147210959Y-64199886D01*
X147217285Y-64212404D01*
X147231290Y-64245754D01*
X147250355Y-64293623D01*
X147257634Y-64312371D01*
X147286996Y-64384805D01*
X147321571Y-64464830D01*
X147352537Y-64532272D01*
X147375323Y-64583841D01*
X147390482Y-64626215D01*
X147395542Y-64652166D01*
X147394736Y-64655644D01*
X147384041Y-64672064D01*
X147359620Y-64708583D01*
X147324095Y-64761313D01*
X147280087Y-64826365D01*
X147230217Y-64899849D01*
X147220356Y-64914355D01*
X147162492Y-65000296D01*
X147119956Y-65065739D01*
X147091054Y-65113696D01*
X147074090Y-65147180D01*
X147067367Y-65169205D01*
X147069190Y-65182783D01*
X147069236Y-65182869D01*
X147083586Y-65200703D01*
X147115323Y-65235183D01*
X147161010Y-65282732D01*
X147217204Y-65339778D01*
X147280468Y-65402745D01*
X147287602Y-65409773D01*
X147367330Y-65486980D01*
X147428857Y-65543670D01*
X147473421Y-65580890D01*
X147502257Y-65599685D01*
X147514958Y-65602111D01*
X147533494Y-65591529D01*
X147571961Y-65567084D01*
X147626386Y-65531388D01*
X147692798Y-65487053D01*
X147767225Y-65436689D01*
X147784601Y-65424840D01*
X148031297Y-65256374D01*
X148142706Y-65306938D01*
X148210457Y-65336405D01*
X148283183Y-65366041D01*
X148345703Y-65389670D01*
X148348457Y-65390642D01*
X148397360Y-65408543D01*
X148435057Y-65423680D01*
X148453425Y-65432790D01*
X148453456Y-65432816D01*
X148459285Y-65449283D01*
X148469192Y-65489781D01*
X148482195Y-65549758D01*
X148497309Y-65624660D01*
X148513552Y-65709936D01*
X148514881Y-65717125D01*
X148531175Y-65804986D01*
X148546133Y-65884740D01*
X148558791Y-65951319D01*
X148568186Y-65999653D01*
X148573354Y-66024675D01*
X148573444Y-66025057D01*
X148576589Y-66035701D01*
X148582704Y-66043738D01*
X148595453Y-66049533D01*
X148618500Y-66053453D01*
X148655509Y-66055865D01*
X148710144Y-66057135D01*
X148786067Y-66057629D01*
X148886944Y-66057714D01*
X148900000Y-66057714D01*
X149003910Y-66057652D01*
X149003910Y-66057652D01*
G37*
X149003910Y-66057652D02*
X149082454Y-66057222D01*
X149139298Y-66056058D01*
X149178105Y-66053793D01*
X149202538Y-66050060D01*
X149216262Y-66044494D01*
X149222940Y-66036727D01*
X149226236Y-66026395D01*
X149226556Y-66025057D01*
X149231562Y-66000921D01*
X149240829Y-65953299D01*
X149253392Y-65887259D01*
X149268287Y-65807872D01*
X149284551Y-65720204D01*
X149285119Y-65717125D01*
X149301410Y-65631211D01*
X149316652Y-65555304D01*
X149329861Y-65493955D01*
X149340054Y-65451718D01*
X149346248Y-65433145D01*
X149346543Y-65432816D01*
X149364788Y-65423747D01*
X149402405Y-65408633D01*
X149451271Y-65390738D01*
X149451543Y-65390642D01*
X149513093Y-65367507D01*
X149585657Y-65338035D01*
X149654057Y-65308403D01*
X149657294Y-65306938D01*
X149768702Y-65256374D01*
X150015399Y-65424840D01*
X150091077Y-65476197D01*
X150159631Y-65522111D01*
X150217088Y-65559970D01*
X150259476Y-65587163D01*
X150282825Y-65601079D01*
X150285042Y-65602111D01*
X150302010Y-65597516D01*
X150333701Y-65575345D01*
X150381352Y-65534553D01*
X150446198Y-65474095D01*
X150512397Y-65409773D01*
X150576214Y-65346388D01*
X150633329Y-65288549D01*
X150680305Y-65239825D01*
X150713703Y-65203790D01*
X150730085Y-65184016D01*
X150730694Y-65182998D01*
X150732505Y-65169428D01*
X150725683Y-65147267D01*
X150708540Y-65113522D01*
X150679393Y-65065200D01*
X150636555Y-64999308D01*
X150579448Y-64914483D01*
X150528766Y-64839823D01*
X150483461Y-64772860D01*
X150446150Y-64717484D01*
X150419452Y-64677580D01*
X150405985Y-64657038D01*
X150405137Y-64655644D01*
X150406781Y-64635962D01*
X150419245Y-64597707D01*
X150440048Y-64548111D01*
X150447462Y-64532272D01*
X150479814Y-64461710D01*
X150514328Y-64381647D01*
X150542365Y-64312371D01*
X150562568Y-64260955D01*
X150578615Y-64221881D01*
X150587888Y-64201459D01*
X150589041Y-64199886D01*
X150606096Y-64197279D01*
X150646298Y-64190137D01*
X150704302Y-64179477D01*
X150774763Y-64166315D01*
X150852335Y-64151667D01*
X150931672Y-64136551D01*
X151007431Y-64121982D01*
X151074264Y-64108978D01*
X151126828Y-64098555D01*
X151159776Y-64091730D01*
X151167857Y-64089801D01*
X151176205Y-64085038D01*
X151182506Y-64074282D01*
X151187045Y-64053902D01*
X151190104Y-64020266D01*
X151191967Y-63969745D01*
X151192918Y-63898708D01*
X151193240Y-63803524D01*
X151193257Y-63764508D01*
X151193257Y-63447201D01*
X151117057Y-63432161D01*
X151074663Y-63424005D01*
X151011400Y-63412101D01*
X150934962Y-63397884D01*
X150853043Y-63382790D01*
X150830400Y-63378645D01*
X150754806Y-63363947D01*
X150688953Y-63349495D01*
X150638366Y-63336625D01*
X150608574Y-63326678D01*
X150603612Y-63323713D01*
X150591426Y-63302717D01*
X150573953Y-63262033D01*
X150554577Y-63209678D01*
X150550734Y-63198400D01*
X150525339Y-63128477D01*
X150493817Y-63049582D01*
X150462969Y-62978734D01*
X150462817Y-62978405D01*
X150411447Y-62867267D01*
X150580399Y-62618747D01*
X150749352Y-62370228D01*
X150532429Y-62152942D01*
X150466819Y-62088274D01*
X150406979Y-62031267D01*
X150356267Y-61984967D01*
X150318046Y-61952416D01*
X150295675Y-61936657D01*
X150292466Y-61935657D01*
X150273626Y-61943531D01*
X150235180Y-61965422D01*
X150181330Y-61998733D01*
X150116276Y-62040869D01*
X150045940Y-62088057D01*
X149974555Y-62136190D01*
X149910908Y-62178072D01*
X149859041Y-62211129D01*
X149822995Y-62232782D01*
X149806867Y-62240457D01*
X149787189Y-62233963D01*
X149749875Y-62216850D01*
X149702621Y-62192674D01*
X149697612Y-62189987D01*
X149633977Y-62158073D01*
X149590341Y-62142421D01*
X149563202Y-62142255D01*
X149549057Y-62156796D01*
X149548975Y-62157000D01*
X149541905Y-62174221D01*
X149525042Y-62215101D01*
X149499695Y-62276475D01*
X149467171Y-62355181D01*
X149428778Y-62448053D01*
X149385822Y-62551928D01*
X149344222Y-62652498D01*
X149298504Y-62763484D01*
X149256526Y-62866297D01*
X149219548Y-62957785D01*
X149188827Y-63034799D01*
X149165622Y-63094185D01*
X149151190Y-63132791D01*
X149146743Y-63147200D01*
X149157896Y-63163728D01*
X149187069Y-63190070D01*
X149225971Y-63219113D01*
X149336757Y-63310961D01*
X149423351Y-63416241D01*
X149484716Y-63532734D01*
X149519815Y-63658224D01*
X149527608Y-63790493D01*
X149521943Y-63851543D01*
X149491078Y-63978205D01*
X149437920Y-64090059D01*
X149365767Y-64185999D01*
X149277917Y-64264924D01*
X149177665Y-64325730D01*
X149068310Y-64367313D01*
X148953147Y-64388572D01*
X148835475Y-64388401D01*
X148718590Y-64365699D01*
X148605789Y-64319362D01*
X148500369Y-64248287D01*
X148456368Y-64208089D01*
X148371979Y-64104871D01*
X148313222Y-63992075D01*
X148279704Y-63872990D01*
X148271035Y-63750905D01*
X148286823Y-63629107D01*
X148326678Y-63510884D01*
X148390207Y-63399525D01*
X148477021Y-63298316D01*
X148574029Y-63219113D01*
X148614437Y-63188838D01*
X148642982Y-63162781D01*
X148653257Y-63147175D01*
X148647877Y-63130157D01*
X148632575Y-63089500D01*
X148608612Y-63028358D01*
X148577244Y-62949881D01*
X148539732Y-62857220D01*
X148497333Y-62753528D01*
X148455663Y-62652474D01*
X148409690Y-62541393D01*
X148367107Y-62438459D01*
X148329221Y-62346835D01*
X148297340Y-62269684D01*
X148272771Y-62210169D01*
X148256820Y-62171456D01*
X148250910Y-62157000D01*
X148236948Y-62142315D01*
X148209940Y-62142358D01*
X148166413Y-62157901D01*
X148102890Y-62189716D01*
X148102388Y-62189987D01*
X148054560Y-62214677D01*
X148015897Y-62232662D01*
X147994095Y-62240386D01*
X147993133Y-62240457D01*
X147976721Y-62232622D01*
X147940487Y-62210835D01*
X147888474Y-62177672D01*
X147824725Y-62135709D01*
X147754060Y-62088057D01*
X147682116Y-62039809D01*
X147617274Y-61997849D01*
X147563735Y-61964773D01*
X147525697Y-61943179D01*
X147507533Y-61935657D01*
X147490808Y-61945543D01*
X147457180Y-61973174D01*
X147410010Y-62015505D01*
X147352658Y-62069495D01*
X147288484Y-62132101D01*
X147267497Y-62153017D01*
X147050499Y-62370377D01*
X147215668Y-62612780D01*
X147265864Y-62687219D01*
X147309919Y-62754028D01*
X147345362Y-62809335D01*
X147369719Y-62849271D01*
X147380522Y-62869964D01*
X147380838Y-62871437D01*
X147375143Y-62890942D01*
X147359826Y-62930178D01*
X147337537Y-62982570D01*
X147321893Y-63017645D01*
X147292641Y-63084799D01*
X147265094Y-63152642D01*
X147243737Y-63209966D01*
X147237935Y-63227428D01*
X147221452Y-63274062D01*
X147205340Y-63310095D01*
X147196490Y-63323713D01*
X147176960Y-63332048D01*
X147134334Y-63343863D01*
X147074145Y-63357819D01*
X147001922Y-63372578D01*
X146969600Y-63378645D01*
X146887522Y-63393727D01*
X146808795Y-63408331D01*
X146741109Y-63421020D01*
X146692160Y-63430358D01*
X146682943Y-63432161D01*
X146606743Y-63447201D01*
X146606743Y-63764508D01*
X146606914Y-63868846D01*
X146607616Y-63947787D01*
X146609134Y-64004962D01*
X146611749Y-64044001D01*
X146615746Y-64068535D01*
X146621409Y-64082195D01*
X146629020Y-64088611D01*
X146632143Y-64089801D01*
X146650978Y-64094020D01*
X146692588Y-64102438D01*
X146751630Y-64114039D01*
X146822757Y-64127805D01*
X146900625Y-64142720D01*
X146979887Y-64157768D01*
X147055198Y-64171931D01*
X147121213Y-64184194D01*
X147172587Y-64193539D01*
X147203975Y-64198950D01*
X147210959Y-64199886D01*
X147217285Y-64212404D01*
X147231290Y-64245754D01*
X147250355Y-64293623D01*
X147257634Y-64312371D01*
X147286996Y-64384805D01*
X147321571Y-64464830D01*
X147352537Y-64532272D01*
X147375323Y-64583841D01*
X147390482Y-64626215D01*
X147395542Y-64652166D01*
X147394736Y-64655644D01*
X147384041Y-64672064D01*
X147359620Y-64708583D01*
X147324095Y-64761313D01*
X147280087Y-64826365D01*
X147230217Y-64899849D01*
X147220356Y-64914355D01*
X147162492Y-65000296D01*
X147119956Y-65065739D01*
X147091054Y-65113696D01*
X147074090Y-65147180D01*
X147067367Y-65169205D01*
X147069190Y-65182783D01*
X147069236Y-65182869D01*
X147083586Y-65200703D01*
X147115323Y-65235183D01*
X147161010Y-65282732D01*
X147217204Y-65339778D01*
X147280468Y-65402745D01*
X147287602Y-65409773D01*
X147367330Y-65486980D01*
X147428857Y-65543670D01*
X147473421Y-65580890D01*
X147502257Y-65599685D01*
X147514958Y-65602111D01*
X147533494Y-65591529D01*
X147571961Y-65567084D01*
X147626386Y-65531388D01*
X147692798Y-65487053D01*
X147767225Y-65436689D01*
X147784601Y-65424840D01*
X148031297Y-65256374D01*
X148142706Y-65306938D01*
X148210457Y-65336405D01*
X148283183Y-65366041D01*
X148345703Y-65389670D01*
X148348457Y-65390642D01*
X148397360Y-65408543D01*
X148435057Y-65423680D01*
X148453425Y-65432790D01*
X148453456Y-65432816D01*
X148459285Y-65449283D01*
X148469192Y-65489781D01*
X148482195Y-65549758D01*
X148497309Y-65624660D01*
X148513552Y-65709936D01*
X148514881Y-65717125D01*
X148531175Y-65804986D01*
X148546133Y-65884740D01*
X148558791Y-65951319D01*
X148568186Y-65999653D01*
X148573354Y-66024675D01*
X148573444Y-66025057D01*
X148576589Y-66035701D01*
X148582704Y-66043738D01*
X148595453Y-66049533D01*
X148618500Y-66053453D01*
X148655509Y-66055865D01*
X148710144Y-66057135D01*
X148786067Y-66057629D01*
X148886944Y-66057714D01*
X148900000Y-66057714D01*
X149003910Y-66057652D01*
G36*
X152053595Y-61333034D02*
G01*
X152111021Y-61295503D01*
X152138719Y-61261904D01*
X152160662Y-61200936D01*
X152162405Y-61152692D01*
X152158457Y-61088184D01*
X152009686Y-61023066D01*
X151937349Y-60989798D01*
X151890084Y-60963036D01*
X151865507Y-60939856D01*
X151861237Y-60917333D01*
X151874889Y-60892545D01*
X151889943Y-60876114D01*
X151933746Y-60849765D01*
X151981389Y-60847919D01*
X152025145Y-60868454D01*
X152057289Y-60909248D01*
X152063038Y-60923653D01*
X152090576Y-60968644D01*
X152122258Y-60987818D01*
X152165714Y-61004221D01*
X152165714Y-60942034D01*
X152161872Y-60899717D01*
X152146823Y-60864031D01*
X152115280Y-60823057D01*
X152110592Y-60817733D01*
X152075506Y-60781280D01*
X152045347Y-60761717D01*
X152007615Y-60752717D01*
X151976335Y-60749770D01*
X151920385Y-60749035D01*
X151880555Y-60758340D01*
X151855708Y-60772154D01*
X151816656Y-60802533D01*
X151789625Y-60835387D01*
X151772517Y-60876706D01*
X151763238Y-60932479D01*
X151759693Y-61008695D01*
X151759410Y-61047378D01*
X151760372Y-61093753D01*
X151848007Y-61093753D01*
X151849023Y-61068874D01*
X151851556Y-61064800D01*
X151868274Y-61070335D01*
X151904249Y-61084983D01*
X151952331Y-61105810D01*
X151962386Y-61110286D01*
X152023152Y-61141186D01*
X152056632Y-61168343D01*
X152063990Y-61193780D01*
X152046391Y-61219519D01*
X152031856Y-61230891D01*
X151979410Y-61253636D01*
X151930322Y-61249878D01*
X151889227Y-61222116D01*
X151860758Y-61172848D01*
X151851631Y-61133743D01*
X151848007Y-61093753D01*
X151760372Y-61093753D01*
X151761285Y-61137751D01*
X151768196Y-61204616D01*
X151781884Y-61253305D01*
X151804096Y-61289151D01*
X151836574Y-61317487D01*
X151850733Y-61326645D01*
X151915053Y-61350493D01*
X151985473Y-61351994D01*
X152053595Y-61333034D01*
X152053595Y-61333034D01*
G37*
X152053595Y-61333034D02*
X152111021Y-61295503D01*
X152138719Y-61261904D01*
X152160662Y-61200936D01*
X152162405Y-61152692D01*
X152158457Y-61088184D01*
X152009686Y-61023066D01*
X151937349Y-60989798D01*
X151890084Y-60963036D01*
X151865507Y-60939856D01*
X151861237Y-60917333D01*
X151874889Y-60892545D01*
X151889943Y-60876114D01*
X151933746Y-60849765D01*
X151981389Y-60847919D01*
X152025145Y-60868454D01*
X152057289Y-60909248D01*
X152063038Y-60923653D01*
X152090576Y-60968644D01*
X152122258Y-60987818D01*
X152165714Y-61004221D01*
X152165714Y-60942034D01*
X152161872Y-60899717D01*
X152146823Y-60864031D01*
X152115280Y-60823057D01*
X152110592Y-60817733D01*
X152075506Y-60781280D01*
X152045347Y-60761717D01*
X152007615Y-60752717D01*
X151976335Y-60749770D01*
X151920385Y-60749035D01*
X151880555Y-60758340D01*
X151855708Y-60772154D01*
X151816656Y-60802533D01*
X151789625Y-60835387D01*
X151772517Y-60876706D01*
X151763238Y-60932479D01*
X151759693Y-61008695D01*
X151759410Y-61047378D01*
X151760372Y-61093753D01*
X151848007Y-61093753D01*
X151849023Y-61068874D01*
X151851556Y-61064800D01*
X151868274Y-61070335D01*
X151904249Y-61084983D01*
X151952331Y-61105810D01*
X151962386Y-61110286D01*
X152023152Y-61141186D01*
X152056632Y-61168343D01*
X152063990Y-61193780D01*
X152046391Y-61219519D01*
X152031856Y-61230891D01*
X151979410Y-61253636D01*
X151930322Y-61249878D01*
X151889227Y-61222116D01*
X151860758Y-61172848D01*
X151851631Y-61133743D01*
X151848007Y-61093753D01*
X151760372Y-61093753D01*
X151761285Y-61137751D01*
X151768196Y-61204616D01*
X151781884Y-61253305D01*
X151804096Y-61289151D01*
X151836574Y-61317487D01*
X151850733Y-61326645D01*
X151915053Y-61350493D01*
X151985473Y-61351994D01*
X152053595Y-61333034D01*
G36*
X151552600Y-61341248D02*
G01*
X151569948Y-61333666D01*
X151611356Y-61300872D01*
X151646765Y-61253453D01*
X151668664Y-61202849D01*
X151672229Y-61177902D01*
X151660279Y-61143073D01*
X151634067Y-61124643D01*
X151605964Y-61113484D01*
X151593095Y-61111428D01*
X151586829Y-61126351D01*
X151574456Y-61158825D01*
X151569028Y-61173498D01*
X151538590Y-61224256D01*
X151494520Y-61249573D01*
X151438010Y-61248794D01*
X151433825Y-61247797D01*
X151403655Y-61233493D01*
X151381476Y-61205607D01*
X151366327Y-61160713D01*
X151357250Y-61095385D01*
X151353286Y-61006196D01*
X151352914Y-60958739D01*
X151352730Y-60883929D01*
X151351522Y-60832931D01*
X151348309Y-60800529D01*
X151342109Y-60781505D01*
X151331940Y-60770644D01*
X151316819Y-60762728D01*
X151315946Y-60762330D01*
X151286828Y-60750019D01*
X151272403Y-60745486D01*
X151270186Y-60759191D01*
X151268289Y-60797075D01*
X151266847Y-60854285D01*
X151265998Y-60925973D01*
X151265829Y-60978435D01*
X151266692Y-61079953D01*
X151270070Y-61156968D01*
X151277142Y-61213977D01*
X151289088Y-61255474D01*
X151307090Y-61285957D01*
X151332327Y-61309920D01*
X151357247Y-61326645D01*
X151417171Y-61348903D01*
X151486911Y-61353924D01*
X151552600Y-61341248D01*
X151552600Y-61341248D01*
G37*
X151552600Y-61341248D02*
X151569948Y-61333666D01*
X151611356Y-61300872D01*
X151646765Y-61253453D01*
X151668664Y-61202849D01*
X151672229Y-61177902D01*
X151660279Y-61143073D01*
X151634067Y-61124643D01*
X151605964Y-61113484D01*
X151593095Y-61111428D01*
X151586829Y-61126351D01*
X151574456Y-61158825D01*
X151569028Y-61173498D01*
X151538590Y-61224256D01*
X151494520Y-61249573D01*
X151438010Y-61248794D01*
X151433825Y-61247797D01*
X151403655Y-61233493D01*
X151381476Y-61205607D01*
X151366327Y-61160713D01*
X151357250Y-61095385D01*
X151353286Y-61006196D01*
X151352914Y-60958739D01*
X151352730Y-60883929D01*
X151351522Y-60832931D01*
X151348309Y-60800529D01*
X151342109Y-60781505D01*
X151331940Y-60770644D01*
X151316819Y-60762728D01*
X151315946Y-60762330D01*
X151286828Y-60750019D01*
X151272403Y-60745486D01*
X151270186Y-60759191D01*
X151268289Y-60797075D01*
X151266847Y-60854285D01*
X151265998Y-60925973D01*
X151265829Y-60978435D01*
X151266692Y-61079953D01*
X151270070Y-61156968D01*
X151277142Y-61213977D01*
X151289088Y-61255474D01*
X151307090Y-61285957D01*
X151332327Y-61309920D01*
X151357247Y-61326645D01*
X151417171Y-61348903D01*
X151486911Y-61353924D01*
X151552600Y-61341248D01*
G36*
X151044876Y-61343665D02*
G01*
X151086667Y-61324656D01*
X151119469Y-61301622D01*
X151143503Y-61275867D01*
X151160097Y-61242642D01*
X151170577Y-61197200D01*
X151176271Y-61134793D01*
X151178507Y-61050673D01*
X151178743Y-60995279D01*
X151178743Y-60779174D01*
X151141774Y-60762330D01*
X151112656Y-60750019D01*
X151098231Y-60745486D01*
X151095472Y-60758975D01*
X151093282Y-60795347D01*
X151091942Y-60848458D01*
X151091657Y-60890628D01*
X151090434Y-60951553D01*
X151087136Y-60999885D01*
X151082321Y-61029482D01*
X151078496Y-61035771D01*
X151052783Y-61029348D01*
X151012418Y-61012875D01*
X150965679Y-60990542D01*
X150920845Y-60966543D01*
X150886193Y-60945070D01*
X150870002Y-60930315D01*
X150869938Y-60930155D01*
X150871330Y-60902848D01*
X150883818Y-60876781D01*
X150905743Y-60855608D01*
X150937743Y-60848526D01*
X150965092Y-60849351D01*
X151003826Y-60849958D01*
X151024158Y-60840884D01*
X151036369Y-60816908D01*
X151037909Y-60812387D01*
X151043203Y-60778194D01*
X151029047Y-60757432D01*
X150992148Y-60747538D01*
X150952289Y-60745708D01*
X150880562Y-60759273D01*
X150843432Y-60778645D01*
X150797576Y-60824155D01*
X150773256Y-60880017D01*
X150771073Y-60939043D01*
X150791629Y-60994047D01*
X150822549Y-61028514D01*
X150853420Y-61047811D01*
X150901942Y-61072241D01*
X150958485Y-61097015D01*
X150967910Y-61100801D01*
X151030019Y-61128209D01*
X151065822Y-61152366D01*
X151077337Y-61176381D01*
X151066580Y-61203365D01*
X151048114Y-61224457D01*
X151004469Y-61250428D01*
X150956446Y-61252376D01*
X150912406Y-61232363D01*
X150880709Y-61192449D01*
X150876549Y-61182152D01*
X150852327Y-61144276D01*
X150816965Y-61116158D01*
X150772343Y-61093083D01*
X150772343Y-61158515D01*
X150774969Y-61198494D01*
X150786230Y-61230003D01*
X150811199Y-61263622D01*
X150835169Y-61289516D01*
X150872441Y-61326183D01*
X150901401Y-61345879D01*
X150932505Y-61353780D01*
X150967713Y-61355086D01*
X151044876Y-61343665D01*
X151044876Y-61343665D01*
G37*
X151044876Y-61343665D02*
X151086667Y-61324656D01*
X151119469Y-61301622D01*
X151143503Y-61275867D01*
X151160097Y-61242642D01*
X151170577Y-61197200D01*
X151176271Y-61134793D01*
X151178507Y-61050673D01*
X151178743Y-60995279D01*
X151178743Y-60779174D01*
X151141774Y-60762330D01*
X151112656Y-60750019D01*
X151098231Y-60745486D01*
X151095472Y-60758975D01*
X151093282Y-60795347D01*
X151091942Y-60848458D01*
X151091657Y-60890628D01*
X151090434Y-60951553D01*
X151087136Y-60999885D01*
X151082321Y-61029482D01*
X151078496Y-61035771D01*
X151052783Y-61029348D01*
X151012418Y-61012875D01*
X150965679Y-60990542D01*
X150920845Y-60966543D01*
X150886193Y-60945070D01*
X150870002Y-60930315D01*
X150869938Y-60930155D01*
X150871330Y-60902848D01*
X150883818Y-60876781D01*
X150905743Y-60855608D01*
X150937743Y-60848526D01*
X150965092Y-60849351D01*
X151003826Y-60849958D01*
X151024158Y-60840884D01*
X151036369Y-60816908D01*
X151037909Y-60812387D01*
X151043203Y-60778194D01*
X151029047Y-60757432D01*
X150992148Y-60747538D01*
X150952289Y-60745708D01*
X150880562Y-60759273D01*
X150843432Y-60778645D01*
X150797576Y-60824155D01*
X150773256Y-60880017D01*
X150771073Y-60939043D01*
X150791629Y-60994047D01*
X150822549Y-61028514D01*
X150853420Y-61047811D01*
X150901942Y-61072241D01*
X150958485Y-61097015D01*
X150967910Y-61100801D01*
X151030019Y-61128209D01*
X151065822Y-61152366D01*
X151077337Y-61176381D01*
X151066580Y-61203365D01*
X151048114Y-61224457D01*
X151004469Y-61250428D01*
X150956446Y-61252376D01*
X150912406Y-61232363D01*
X150880709Y-61192449D01*
X150876549Y-61182152D01*
X150852327Y-61144276D01*
X150816965Y-61116158D01*
X150772343Y-61093083D01*
X150772343Y-61158515D01*
X150774969Y-61198494D01*
X150786230Y-61230003D01*
X150811199Y-61263622D01*
X150835169Y-61289516D01*
X150872441Y-61326183D01*
X150901401Y-61345879D01*
X150932505Y-61353780D01*
X150967713Y-61355086D01*
X151044876Y-61343665D01*
G36*
X150679833Y-61341337D02*
G01*
X150682048Y-61303150D01*
X150683784Y-61245114D01*
X150684899Y-61171820D01*
X150685257Y-61094945D01*
X150685257Y-60834804D01*
X150639326Y-60788873D01*
X150607675Y-60760571D01*
X150579890Y-60749107D01*
X150541915Y-60749832D01*
X150526840Y-60751679D01*
X150479726Y-60757052D01*
X150440756Y-60760131D01*
X150431257Y-60760415D01*
X150399233Y-60758555D01*
X150353432Y-60753886D01*
X150335674Y-60751679D01*
X150292057Y-60748265D01*
X150262745Y-60755680D01*
X150233680Y-60778573D01*
X150223188Y-60788873D01*
X150177257Y-60834804D01*
X150177257Y-61321398D01*
X150214226Y-61338242D01*
X150246059Y-61350718D01*
X150264683Y-61355086D01*
X150269458Y-61341282D01*
X150273921Y-61302714D01*
X150277775Y-61243644D01*
X150280722Y-61168337D01*
X150282143Y-61104714D01*
X150286114Y-60854343D01*
X150320759Y-60849444D01*
X150352268Y-60852869D01*
X150367708Y-60863959D01*
X150372023Y-60884692D01*
X150375708Y-60928855D01*
X150378469Y-60990854D01*
X150380012Y-61065091D01*
X150380235Y-61103294D01*
X150380457Y-61323217D01*
X150426166Y-61339151D01*
X150458518Y-61349985D01*
X150476115Y-61355038D01*
X150476623Y-61355086D01*
X150478388Y-61341352D01*
X150480329Y-61303270D01*
X150482282Y-61245518D01*
X150484084Y-61172773D01*
X150485343Y-61104714D01*
X150489314Y-60854343D01*
X150576400Y-60854343D01*
X150580396Y-61082760D01*
X150584392Y-61311178D01*
X150626847Y-61333132D01*
X150658192Y-61348207D01*
X150676744Y-61355049D01*
X150677279Y-61355086D01*
X150679833Y-61341337D01*
X150679833Y-61341337D01*
G37*
X150679833Y-61341337D02*
X150682048Y-61303150D01*
X150683784Y-61245114D01*
X150684899Y-61171820D01*
X150685257Y-61094945D01*
X150685257Y-60834804D01*
X150639326Y-60788873D01*
X150607675Y-60760571D01*
X150579890Y-60749107D01*
X150541915Y-60749832D01*
X150526840Y-60751679D01*
X150479726Y-60757052D01*
X150440756Y-60760131D01*
X150431257Y-60760415D01*
X150399233Y-60758555D01*
X150353432Y-60753886D01*
X150335674Y-60751679D01*
X150292057Y-60748265D01*
X150262745Y-60755680D01*
X150233680Y-60778573D01*
X150223188Y-60788873D01*
X150177257Y-60834804D01*
X150177257Y-61321398D01*
X150214226Y-61338242D01*
X150246059Y-61350718D01*
X150264683Y-61355086D01*
X150269458Y-61341282D01*
X150273921Y-61302714D01*
X150277775Y-61243644D01*
X150280722Y-61168337D01*
X150282143Y-61104714D01*
X150286114Y-60854343D01*
X150320759Y-60849444D01*
X150352268Y-60852869D01*
X150367708Y-60863959D01*
X150372023Y-60884692D01*
X150375708Y-60928855D01*
X150378469Y-60990854D01*
X150380012Y-61065091D01*
X150380235Y-61103294D01*
X150380457Y-61323217D01*
X150426166Y-61339151D01*
X150458518Y-61349985D01*
X150476115Y-61355038D01*
X150476623Y-61355086D01*
X150478388Y-61341352D01*
X150480329Y-61303270D01*
X150482282Y-61245518D01*
X150484084Y-61172773D01*
X150485343Y-61104714D01*
X150489314Y-60854343D01*
X150576400Y-60854343D01*
X150580396Y-61082760D01*
X150584392Y-61311178D01*
X150626847Y-61333132D01*
X150658192Y-61348207D01*
X150676744Y-61355049D01*
X150677279Y-61355086D01*
X150679833Y-61341337D01*
G36*
X150090117Y-61234642D02*
G01*
X150089933Y-61126163D01*
X150089219Y-61042713D01*
X150087675Y-60980296D01*
X150085001Y-60934915D01*
X150080894Y-60902571D01*
X150075055Y-60879267D01*
X150067182Y-60861005D01*
X150061221Y-60850582D01*
X150011855Y-60794055D01*
X149949264Y-60758623D01*
X149880013Y-60745910D01*
X149810668Y-60757537D01*
X149769375Y-60778432D01*
X149726025Y-60814578D01*
X149696481Y-60858724D01*
X149678655Y-60916538D01*
X149670463Y-60993687D01*
X149669302Y-61050286D01*
X149669458Y-61054353D01*
X149770857Y-61054353D01*
X149771476Y-60989450D01*
X149774314Y-60946486D01*
X149780840Y-60918378D01*
X149792523Y-60898047D01*
X149806483Y-60882712D01*
X149853365Y-60853110D01*
X149903701Y-60850581D01*
X149951276Y-60875295D01*
X149954979Y-60878644D01*
X149970783Y-60896065D01*
X149980693Y-60916791D01*
X149986058Y-60947638D01*
X149988228Y-60995423D01*
X149988571Y-61048252D01*
X149987827Y-61114619D01*
X149984748Y-61158894D01*
X149978061Y-61187991D01*
X149966496Y-61208827D01*
X149957013Y-61219893D01*
X149912960Y-61247802D01*
X149862224Y-61251157D01*
X149813796Y-61229841D01*
X149804450Y-61221927D01*
X149788540Y-61204353D01*
X149778610Y-61183413D01*
X149773278Y-61152218D01*
X149771163Y-61103878D01*
X149770857Y-61054353D01*
X149669458Y-61054353D01*
X149672810Y-61141432D01*
X149684726Y-61209914D01*
X149707135Y-61261400D01*
X149742124Y-61301557D01*
X149769375Y-61322139D01*
X149818907Y-61344375D01*
X149876316Y-61354696D01*
X149929682Y-61351933D01*
X149959543Y-61340788D01*
X149971261Y-61337617D01*
X149979037Y-61349443D01*
X149984465Y-61381134D01*
X149988571Y-61429407D01*
X149993067Y-61483171D01*
X149999313Y-61515518D01*
X150010676Y-61534015D01*
X150030528Y-61546230D01*
X150043000Y-61551638D01*
X150090171Y-61571399D01*
X150090117Y-61234642D01*
X150090117Y-61234642D01*
G37*
X150090117Y-61234642D02*
X150089933Y-61126163D01*
X150089219Y-61042713D01*
X150087675Y-60980296D01*
X150085001Y-60934915D01*
X150080894Y-60902571D01*
X150075055Y-60879267D01*
X150067182Y-60861005D01*
X150061221Y-60850582D01*
X150011855Y-60794055D01*
X149949264Y-60758623D01*
X149880013Y-60745910D01*
X149810668Y-60757537D01*
X149769375Y-60778432D01*
X149726025Y-60814578D01*
X149696481Y-60858724D01*
X149678655Y-60916538D01*
X149670463Y-60993687D01*
X149669302Y-61050286D01*
X149669458Y-61054353D01*
X149770857Y-61054353D01*
X149771476Y-60989450D01*
X149774314Y-60946486D01*
X149780840Y-60918378D01*
X149792523Y-60898047D01*
X149806483Y-60882712D01*
X149853365Y-60853110D01*
X149903701Y-60850581D01*
X149951276Y-60875295D01*
X149954979Y-60878644D01*
X149970783Y-60896065D01*
X149980693Y-60916791D01*
X149986058Y-60947638D01*
X149988228Y-60995423D01*
X149988571Y-61048252D01*
X149987827Y-61114619D01*
X149984748Y-61158894D01*
X149978061Y-61187991D01*
X149966496Y-61208827D01*
X149957013Y-61219893D01*
X149912960Y-61247802D01*
X149862224Y-61251157D01*
X149813796Y-61229841D01*
X149804450Y-61221927D01*
X149788540Y-61204353D01*
X149778610Y-61183413D01*
X149773278Y-61152218D01*
X149771163Y-61103878D01*
X149770857Y-61054353D01*
X149669458Y-61054353D01*
X149672810Y-61141432D01*
X149684726Y-61209914D01*
X149707135Y-61261400D01*
X149742124Y-61301557D01*
X149769375Y-61322139D01*
X149818907Y-61344375D01*
X149876316Y-61354696D01*
X149929682Y-61351933D01*
X149959543Y-61340788D01*
X149971261Y-61337617D01*
X149979037Y-61349443D01*
X149984465Y-61381134D01*
X149988571Y-61429407D01*
X149993067Y-61483171D01*
X149999313Y-61515518D01*
X150010676Y-61534015D01*
X150030528Y-61546230D01*
X150043000Y-61551638D01*
X150090171Y-61571399D01*
X150090117Y-61234642D01*
G36*
X149429926Y-61350245D02*
G01*
X149495858Y-61325916D01*
X149549273Y-61282883D01*
X149570164Y-61252591D01*
X149592939Y-61197006D01*
X149592466Y-61156814D01*
X149568562Y-61129783D01*
X149559717Y-61125187D01*
X149521530Y-61110856D01*
X149502028Y-61114528D01*
X149495422Y-61138593D01*
X149495086Y-61151886D01*
X149482992Y-61200790D01*
X149451471Y-61235001D01*
X149407659Y-61251524D01*
X149358695Y-61247366D01*
X149318894Y-61225773D01*
X149305450Y-61213456D01*
X149295921Y-61198513D01*
X149289485Y-61175925D01*
X149285317Y-61140672D01*
X149282597Y-61087734D01*
X149280502Y-61012093D01*
X149279960Y-60988143D01*
X149277981Y-60906210D01*
X149275731Y-60848545D01*
X149272357Y-60810392D01*
X149267006Y-60786996D01*
X149258824Y-60773602D01*
X149246959Y-60765455D01*
X149239362Y-60761856D01*
X149207102Y-60749548D01*
X149188111Y-60745486D01*
X149181836Y-60759052D01*
X149178006Y-60800066D01*
X149176600Y-60869001D01*
X149177598Y-60966331D01*
X149177908Y-60981343D01*
X149180101Y-61070141D01*
X149182693Y-61134981D01*
X149186382Y-61180933D01*
X149191864Y-61213065D01*
X149199835Y-61236447D01*
X149210993Y-61256148D01*
X149216830Y-61264590D01*
X149250296Y-61301943D01*
X149287727Y-61330997D01*
X149292309Y-61333533D01*
X149359426Y-61353557D01*
X149429926Y-61350245D01*
X149429926Y-61350245D01*
G37*
X149429926Y-61350245D02*
X149495858Y-61325916D01*
X149549273Y-61282883D01*
X149570164Y-61252591D01*
X149592939Y-61197006D01*
X149592466Y-61156814D01*
X149568562Y-61129783D01*
X149559717Y-61125187D01*
X149521530Y-61110856D01*
X149502028Y-61114528D01*
X149495422Y-61138593D01*
X149495086Y-61151886D01*
X149482992Y-61200790D01*
X149451471Y-61235001D01*
X149407659Y-61251524D01*
X149358695Y-61247366D01*
X149318894Y-61225773D01*
X149305450Y-61213456D01*
X149295921Y-61198513D01*
X149289485Y-61175925D01*
X149285317Y-61140672D01*
X149282597Y-61087734D01*
X149280502Y-61012093D01*
X149279960Y-60988143D01*
X149277981Y-60906210D01*
X149275731Y-60848545D01*
X149272357Y-60810392D01*
X149267006Y-60786996D01*
X149258824Y-60773602D01*
X149246959Y-60765455D01*
X149239362Y-60761856D01*
X149207102Y-60749548D01*
X149188111Y-60745486D01*
X149181836Y-60759052D01*
X149178006Y-60800066D01*
X149176600Y-60869001D01*
X149177598Y-60966331D01*
X149177908Y-60981343D01*
X149180101Y-61070141D01*
X149182693Y-61134981D01*
X149186382Y-61180933D01*
X149191864Y-61213065D01*
X149199835Y-61236447D01*
X149210993Y-61256148D01*
X149216830Y-61264590D01*
X149250296Y-61301943D01*
X149287727Y-61330997D01*
X149292309Y-61333533D01*
X149359426Y-61353557D01*
X149429926Y-61350245D01*
G36*
X148939744Y-61349032D02*
G01*
X148996616Y-61327913D01*
X148997267Y-61327507D01*
X149032440Y-61301620D01*
X149058407Y-61271367D01*
X149076670Y-61231942D01*
X149088732Y-61178538D01*
X149096096Y-61106349D01*
X149100264Y-61010568D01*
X149100629Y-60996922D01*
X149105876Y-60791158D01*
X149061716Y-60768322D01*
X149029763Y-60752890D01*
X149010470Y-60745577D01*
X149009578Y-60745486D01*
X149006239Y-60758978D01*
X149003587Y-60795374D01*
X149001956Y-60848548D01*
X149001600Y-60891607D01*
X149001592Y-60961359D01*
X148998403Y-61005163D01*
X148987288Y-61026056D01*
X148963501Y-61027075D01*
X148922296Y-61011259D01*
X148860086Y-60982185D01*
X148814341Y-60958037D01*
X148790813Y-60937087D01*
X148783896Y-60914253D01*
X148783886Y-60913123D01*
X148795299Y-60873788D01*
X148829092Y-60852538D01*
X148880809Y-60849461D01*
X148918061Y-60849994D01*
X148937703Y-60839265D01*
X148949952Y-60813495D01*
X148957002Y-60780663D01*
X148946842Y-60762034D01*
X148943017Y-60759368D01*
X148907001Y-60748660D01*
X148856566Y-60747144D01*
X148804626Y-60754241D01*
X148767822Y-60767212D01*
X148716938Y-60810415D01*
X148688014Y-60870554D01*
X148682286Y-60917538D01*
X148686657Y-60959918D01*
X148702475Y-60994512D01*
X148733797Y-61025237D01*
X148784678Y-61056010D01*
X148859176Y-61090748D01*
X148863714Y-61092712D01*
X148930821Y-61123713D01*
X148972232Y-61149138D01*
X148989981Y-61171986D01*
X148986107Y-61195255D01*
X148962643Y-61221944D01*
X148955627Y-61228086D01*
X148908630Y-61251900D01*
X148859933Y-61250897D01*
X148817522Y-61227549D01*
X148789384Y-61184325D01*
X148786769Y-61175840D01*
X148761308Y-61134692D01*
X148729001Y-61114872D01*
X148682286Y-61095230D01*
X148682286Y-61146050D01*
X148696496Y-61219918D01*
X148738675Y-61287673D01*
X148760624Y-61310339D01*
X148810517Y-61339431D01*
X148873967Y-61352600D01*
X148939744Y-61349032D01*
X148939744Y-61349032D01*
G37*
X148939744Y-61349032D02*
X148996616Y-61327913D01*
X148997267Y-61327507D01*
X149032440Y-61301620D01*
X149058407Y-61271367D01*
X149076670Y-61231942D01*
X149088732Y-61178538D01*
X149096096Y-61106349D01*
X149100264Y-61010568D01*
X149100629Y-60996922D01*
X149105876Y-60791158D01*
X149061716Y-60768322D01*
X149029763Y-60752890D01*
X149010470Y-60745577D01*
X149009578Y-60745486D01*
X149006239Y-60758978D01*
X149003587Y-60795374D01*
X149001956Y-60848548D01*
X149001600Y-60891607D01*
X149001592Y-60961359D01*
X148998403Y-61005163D01*
X148987288Y-61026056D01*
X148963501Y-61027075D01*
X148922296Y-61011259D01*
X148860086Y-60982185D01*
X148814341Y-60958037D01*
X148790813Y-60937087D01*
X148783896Y-60914253D01*
X148783886Y-60913123D01*
X148795299Y-60873788D01*
X148829092Y-60852538D01*
X148880809Y-60849461D01*
X148918061Y-60849994D01*
X148937703Y-60839265D01*
X148949952Y-60813495D01*
X148957002Y-60780663D01*
X148946842Y-60762034D01*
X148943017Y-60759368D01*
X148907001Y-60748660D01*
X148856566Y-60747144D01*
X148804626Y-60754241D01*
X148767822Y-60767212D01*
X148716938Y-60810415D01*
X148688014Y-60870554D01*
X148682286Y-60917538D01*
X148686657Y-60959918D01*
X148702475Y-60994512D01*
X148733797Y-61025237D01*
X148784678Y-61056010D01*
X148859176Y-61090748D01*
X148863714Y-61092712D01*
X148930821Y-61123713D01*
X148972232Y-61149138D01*
X148989981Y-61171986D01*
X148986107Y-61195255D01*
X148962643Y-61221944D01*
X148955627Y-61228086D01*
X148908630Y-61251900D01*
X148859933Y-61250897D01*
X148817522Y-61227549D01*
X148789384Y-61184325D01*
X148786769Y-61175840D01*
X148761308Y-61134692D01*
X148729001Y-61114872D01*
X148682286Y-61095230D01*
X148682286Y-61146050D01*
X148696496Y-61219918D01*
X148738675Y-61287673D01*
X148760624Y-61310339D01*
X148810517Y-61339431D01*
X148873967Y-61352600D01*
X148939744Y-61349032D01*
G36*
X148275886Y-61448711D02*
G01*
X148280139Y-61389387D01*
X148285025Y-61354428D01*
X148291795Y-61339180D01*
X148301702Y-61338985D01*
X148304914Y-61340805D01*
X148347644Y-61353985D01*
X148403227Y-61353215D01*
X148459737Y-61339667D01*
X148495082Y-61322139D01*
X148531321Y-61294139D01*
X148557813Y-61262451D01*
X148575999Y-61222187D01*
X148587322Y-61168457D01*
X148593222Y-61096374D01*
X148595143Y-61001049D01*
X148595177Y-60982763D01*
X148595200Y-60777354D01*
X148549491Y-60761420D01*
X148517027Y-60750580D01*
X148499215Y-60745532D01*
X148498691Y-60745486D01*
X148496937Y-60759172D01*
X148495444Y-60796924D01*
X148494326Y-60853776D01*
X148493697Y-60924766D01*
X148493600Y-60967927D01*
X148493398Y-61053027D01*
X148492358Y-61114019D01*
X148489831Y-61155823D01*
X148485164Y-61183358D01*
X148477707Y-61201544D01*
X148466811Y-61215302D01*
X148460007Y-61221927D01*
X148413272Y-61248625D01*
X148362272Y-61250625D01*
X148316001Y-61228045D01*
X148307444Y-61219893D01*
X148294893Y-61204564D01*
X148286188Y-61186382D01*
X148280631Y-61160091D01*
X148277526Y-61120438D01*
X148276176Y-61062168D01*
X148275886Y-60981827D01*
X148275886Y-60777354D01*
X148230177Y-60761420D01*
X148197713Y-60750580D01*
X148179901Y-60745532D01*
X148179377Y-60745486D01*
X148178037Y-60759377D01*
X148176828Y-60798561D01*
X148175801Y-60859300D01*
X148175002Y-60937859D01*
X148174481Y-61030502D01*
X148174286Y-61133491D01*
X148174286Y-61530658D01*
X148221457Y-61550556D01*
X148268629Y-61570453D01*
X148275886Y-61448711D01*
X148275886Y-61448711D01*
G37*
X148275886Y-61448711D02*
X148280139Y-61389387D01*
X148285025Y-61354428D01*
X148291795Y-61339180D01*
X148301702Y-61338985D01*
X148304914Y-61340805D01*
X148347644Y-61353985D01*
X148403227Y-61353215D01*
X148459737Y-61339667D01*
X148495082Y-61322139D01*
X148531321Y-61294139D01*
X148557813Y-61262451D01*
X148575999Y-61222187D01*
X148587322Y-61168457D01*
X148593222Y-61096374D01*
X148595143Y-61001049D01*
X148595177Y-60982763D01*
X148595200Y-60777354D01*
X148549491Y-60761420D01*
X148517027Y-60750580D01*
X148499215Y-60745532D01*
X148498691Y-60745486D01*
X148496937Y-60759172D01*
X148495444Y-60796924D01*
X148494326Y-60853776D01*
X148493697Y-60924766D01*
X148493600Y-60967927D01*
X148493398Y-61053027D01*
X148492358Y-61114019D01*
X148489831Y-61155823D01*
X148485164Y-61183358D01*
X148477707Y-61201544D01*
X148466811Y-61215302D01*
X148460007Y-61221927D01*
X148413272Y-61248625D01*
X148362272Y-61250625D01*
X148316001Y-61228045D01*
X148307444Y-61219893D01*
X148294893Y-61204564D01*
X148286188Y-61186382D01*
X148280631Y-61160091D01*
X148277526Y-61120438D01*
X148276176Y-61062168D01*
X148275886Y-60981827D01*
X148275886Y-60777354D01*
X148230177Y-60761420D01*
X148197713Y-60750580D01*
X148179901Y-60745532D01*
X148179377Y-60745486D01*
X148178037Y-60759377D01*
X148176828Y-60798561D01*
X148175801Y-60859300D01*
X148175002Y-60937859D01*
X148174481Y-61030502D01*
X148174286Y-61133491D01*
X148174286Y-61530658D01*
X148221457Y-61550556D01*
X148268629Y-61570453D01*
X148275886Y-61448711D01*
G36*
X147068303Y-61368761D02*
G01*
X147125527Y-61330265D01*
X147169749Y-61274665D01*
X147196167Y-61203914D01*
X147201510Y-61151838D01*
X147200903Y-61130107D01*
X147195822Y-61113469D01*
X147181855Y-61098563D01*
X147154589Y-61082027D01*
X147109612Y-61060502D01*
X147042511Y-61030626D01*
X147042171Y-61030476D01*
X146980407Y-61002187D01*
X146929759Y-60977067D01*
X146895404Y-60957821D01*
X146882518Y-60947152D01*
X146882514Y-60947066D01*
X146893872Y-60923834D01*
X146920431Y-60898226D01*
X146950923Y-60879779D01*
X146966370Y-60876114D01*
X147008515Y-60888788D01*
X147044808Y-60920529D01*
X147062517Y-60955428D01*
X147079552Y-60981155D01*
X147112922Y-61010454D01*
X147152149Y-61035765D01*
X147186756Y-61049529D01*
X147193993Y-61050286D01*
X147202139Y-61037840D01*
X147202630Y-61006028D01*
X147196643Y-60963134D01*
X147185357Y-60917442D01*
X147169950Y-60877239D01*
X147169171Y-60875678D01*
X147122804Y-60810938D01*
X147062711Y-60766903D01*
X146994465Y-60745289D01*
X146923638Y-60747815D01*
X146855804Y-60776196D01*
X146852788Y-60778192D01*
X146799427Y-60826552D01*
X146764340Y-60889648D01*
X146744922Y-60972613D01*
X146742316Y-60995922D01*
X146737701Y-61105945D01*
X146743233Y-61157252D01*
X146882514Y-61157252D01*
X146884324Y-61125247D01*
X146894222Y-61115907D01*
X146918898Y-61122895D01*
X146957795Y-61139413D01*
X147001275Y-61160119D01*
X147002356Y-61160667D01*
X147039209Y-61180051D01*
X147054000Y-61192987D01*
X147050353Y-61206549D01*
X147034995Y-61224368D01*
X146995923Y-61250155D01*
X146953846Y-61252050D01*
X146916103Y-61233283D01*
X146890034Y-61197085D01*
X146882514Y-61157252D01*
X146743233Y-61157252D01*
X146747194Y-61193973D01*
X146771550Y-61263788D01*
X146805456Y-61312698D01*
X146866653Y-61362122D01*
X146934063Y-61386641D01*
X147002880Y-61388203D01*
X147068303Y-61368761D01*
X147068303Y-61368761D01*
G37*
X147068303Y-61368761D02*
X147125527Y-61330265D01*
X147169749Y-61274665D01*
X147196167Y-61203914D01*
X147201510Y-61151838D01*
X147200903Y-61130107D01*
X147195822Y-61113469D01*
X147181855Y-61098563D01*
X147154589Y-61082027D01*
X147109612Y-61060502D01*
X147042511Y-61030626D01*
X147042171Y-61030476D01*
X146980407Y-61002187D01*
X146929759Y-60977067D01*
X146895404Y-60957821D01*
X146882518Y-60947152D01*
X146882514Y-60947066D01*
X146893872Y-60923834D01*
X146920431Y-60898226D01*
X146950923Y-60879779D01*
X146966370Y-60876114D01*
X147008515Y-60888788D01*
X147044808Y-60920529D01*
X147062517Y-60955428D01*
X147079552Y-60981155D01*
X147112922Y-61010454D01*
X147152149Y-61035765D01*
X147186756Y-61049529D01*
X147193993Y-61050286D01*
X147202139Y-61037840D01*
X147202630Y-61006028D01*
X147196643Y-60963134D01*
X147185357Y-60917442D01*
X147169950Y-60877239D01*
X147169171Y-60875678D01*
X147122804Y-60810938D01*
X147062711Y-60766903D01*
X146994465Y-60745289D01*
X146923638Y-60747815D01*
X146855804Y-60776196D01*
X146852788Y-60778192D01*
X146799427Y-60826552D01*
X146764340Y-60889648D01*
X146744922Y-60972613D01*
X146742316Y-60995922D01*
X146737701Y-61105945D01*
X146743233Y-61157252D01*
X146882514Y-61157252D01*
X146884324Y-61125247D01*
X146894222Y-61115907D01*
X146918898Y-61122895D01*
X146957795Y-61139413D01*
X147001275Y-61160119D01*
X147002356Y-61160667D01*
X147039209Y-61180051D01*
X147054000Y-61192987D01*
X147050353Y-61206549D01*
X147034995Y-61224368D01*
X146995923Y-61250155D01*
X146953846Y-61252050D01*
X146916103Y-61233283D01*
X146890034Y-61197085D01*
X146882514Y-61157252D01*
X146743233Y-61157252D01*
X146747194Y-61193973D01*
X146771550Y-61263788D01*
X146805456Y-61312698D01*
X146866653Y-61362122D01*
X146934063Y-61386641D01*
X147002880Y-61388203D01*
X147068303Y-61368761D01*
G36*
X145941115Y-61378038D02*
G01*
X146009145Y-61342267D01*
X146059351Y-61284699D01*
X146077185Y-61247688D01*
X146091063Y-61192118D01*
X146098167Y-61121904D01*
X146098840Y-61045273D01*
X146093427Y-60970448D01*
X146082270Y-60905658D01*
X146065714Y-60859127D01*
X146060626Y-60851113D01*
X146000355Y-60791293D01*
X145928769Y-60755465D01*
X145851092Y-60744980D01*
X145772548Y-60761190D01*
X145750689Y-60770908D01*
X145708122Y-60800857D01*
X145670763Y-60840567D01*
X145667232Y-60845603D01*
X145652881Y-60869876D01*
X145643394Y-60895822D01*
X145637790Y-60929978D01*
X145635086Y-60978881D01*
X145634299Y-61049065D01*
X145634286Y-61064800D01*
X145634322Y-61069808D01*
X145779429Y-61069808D01*
X145780273Y-61003570D01*
X145783596Y-60959614D01*
X145790583Y-60931221D01*
X145802416Y-60911675D01*
X145808457Y-60905143D01*
X145843186Y-60880320D01*
X145876903Y-60881452D01*
X145910995Y-60902984D01*
X145931329Y-60925971D01*
X145943371Y-60959522D01*
X145950134Y-61012431D01*
X145950598Y-61018601D01*
X145951752Y-61114487D01*
X145939688Y-61185701D01*
X145914570Y-61231806D01*
X145876560Y-61252365D01*
X145862992Y-61253486D01*
X145827364Y-61247848D01*
X145802994Y-61228314D01*
X145788093Y-61190958D01*
X145780875Y-61131850D01*
X145779429Y-61069808D01*
X145634322Y-61069808D01*
X145634826Y-61139587D01*
X145637096Y-61191841D01*
X145642068Y-61228051D01*
X145650713Y-61254701D01*
X145664005Y-61278278D01*
X145666943Y-61282662D01*
X145716313Y-61341751D01*
X145770109Y-61376053D01*
X145835602Y-61389669D01*
X145857842Y-61390335D01*
X145941115Y-61378038D01*
X145941115Y-61378038D01*
G37*
X145941115Y-61378038D02*
X146009145Y-61342267D01*
X146059351Y-61284699D01*
X146077185Y-61247688D01*
X146091063Y-61192118D01*
X146098167Y-61121904D01*
X146098840Y-61045273D01*
X146093427Y-60970448D01*
X146082270Y-60905658D01*
X146065714Y-60859127D01*
X146060626Y-60851113D01*
X146000355Y-60791293D01*
X145928769Y-60755465D01*
X145851092Y-60744980D01*
X145772548Y-60761190D01*
X145750689Y-60770908D01*
X145708122Y-60800857D01*
X145670763Y-60840567D01*
X145667232Y-60845603D01*
X145652881Y-60869876D01*
X145643394Y-60895822D01*
X145637790Y-60929978D01*
X145635086Y-60978881D01*
X145634299Y-61049065D01*
X145634286Y-61064800D01*
X145634322Y-61069808D01*
X145779429Y-61069808D01*
X145780273Y-61003570D01*
X145783596Y-60959614D01*
X145790583Y-60931221D01*
X145802416Y-60911675D01*
X145808457Y-60905143D01*
X145843186Y-60880320D01*
X145876903Y-60881452D01*
X145910995Y-60902984D01*
X145931329Y-60925971D01*
X145943371Y-60959522D01*
X145950134Y-61012431D01*
X145950598Y-61018601D01*
X145951752Y-61114487D01*
X145939688Y-61185701D01*
X145914570Y-61231806D01*
X145876560Y-61252365D01*
X145862992Y-61253486D01*
X145827364Y-61247848D01*
X145802994Y-61228314D01*
X145788093Y-61190958D01*
X145780875Y-61131850D01*
X145779429Y-61069808D01*
X145634322Y-61069808D01*
X145634826Y-61139587D01*
X145637096Y-61191841D01*
X145642068Y-61228051D01*
X145650713Y-61254701D01*
X145664005Y-61278278D01*
X145666943Y-61282662D01*
X145716313Y-61341751D01*
X145770109Y-61376053D01*
X145835602Y-61389669D01*
X145857842Y-61390335D01*
X145941115Y-61378038D01*
G36*
X147616093Y-61372220D02*
G01*
X147662672Y-61345277D01*
X147695057Y-61318534D01*
X147718742Y-61290516D01*
X147735059Y-61256252D01*
X147745339Y-61210773D01*
X147750914Y-61149108D01*
X147753116Y-61066289D01*
X147753371Y-61006754D01*
X147753371Y-60787609D01*
X147691686Y-60759956D01*
X147630000Y-60732303D01*
X147622743Y-60972330D01*
X147619744Y-61061972D01*
X147616598Y-61127038D01*
X147612701Y-61171974D01*
X147607447Y-61201230D01*
X147600231Y-61219252D01*
X147590450Y-61230489D01*
X147587312Y-61232921D01*
X147539761Y-61251917D01*
X147491697Y-61244400D01*
X147463086Y-61224457D01*
X147451447Y-61210325D01*
X147443391Y-61191780D01*
X147438271Y-61163666D01*
X147435441Y-61120827D01*
X147434256Y-61058105D01*
X147434057Y-60992739D01*
X147434018Y-60910732D01*
X147432614Y-60852684D01*
X147427914Y-60813535D01*
X147417987Y-60788220D01*
X147400903Y-60771677D01*
X147374732Y-60758844D01*
X147339775Y-60745509D01*
X147301596Y-60730993D01*
X147306141Y-60988611D01*
X147307971Y-61081481D01*
X147310112Y-61150111D01*
X147313181Y-61199289D01*
X147317794Y-61233802D01*
X147324568Y-61258438D01*
X147334119Y-61277984D01*
X147345634Y-61295230D01*
X147401190Y-61350320D01*
X147468980Y-61382178D01*
X147542713Y-61389809D01*
X147616093Y-61372220D01*
X147616093Y-61372220D01*
G37*
X147616093Y-61372220D02*
X147662672Y-61345277D01*
X147695057Y-61318534D01*
X147718742Y-61290516D01*
X147735059Y-61256252D01*
X147745339Y-61210773D01*
X147750914Y-61149108D01*
X147753116Y-61066289D01*
X147753371Y-61006754D01*
X147753371Y-60787609D01*
X147691686Y-60759956D01*
X147630000Y-60732303D01*
X147622743Y-60972330D01*
X147619744Y-61061972D01*
X147616598Y-61127038D01*
X147612701Y-61171974D01*
X147607447Y-61201230D01*
X147600231Y-61219252D01*
X147590450Y-61230489D01*
X147587312Y-61232921D01*
X147539761Y-61251917D01*
X147491697Y-61244400D01*
X147463086Y-61224457D01*
X147451447Y-61210325D01*
X147443391Y-61191780D01*
X147438271Y-61163666D01*
X147435441Y-61120827D01*
X147434256Y-61058105D01*
X147434057Y-60992739D01*
X147434018Y-60910732D01*
X147432614Y-60852684D01*
X147427914Y-60813535D01*
X147417987Y-60788220D01*
X147400903Y-60771677D01*
X147374732Y-60758844D01*
X147339775Y-60745509D01*
X147301596Y-60730993D01*
X147306141Y-60988611D01*
X147307971Y-61081481D01*
X147310112Y-61150111D01*
X147313181Y-61199289D01*
X147317794Y-61233802D01*
X147324568Y-61258438D01*
X147334119Y-61277984D01*
X147345634Y-61295230D01*
X147401190Y-61350320D01*
X147468980Y-61382178D01*
X147542713Y-61389809D01*
X147616093Y-61372220D01*
G36*
X146499744Y-61380082D02*
G01*
X146555201Y-61352432D01*
X146604148Y-61301520D01*
X146617629Y-61282662D01*
X146632314Y-61257985D01*
X146641842Y-61231184D01*
X146647293Y-61195413D01*
X146649747Y-61143831D01*
X146650286Y-61075733D01*
X146647852Y-60982412D01*
X146639394Y-60912343D01*
X146623174Y-60860069D01*
X146597454Y-60820131D01*
X146560497Y-60787071D01*
X146557782Y-60785114D01*
X146521360Y-60765092D01*
X146477502Y-60755185D01*
X146421724Y-60752743D01*
X146331048Y-60752743D01*
X146331010Y-60664717D01*
X146330166Y-60615692D01*
X146325024Y-60586935D01*
X146311587Y-60569689D01*
X146285858Y-60555192D01*
X146279679Y-60552231D01*
X146250764Y-60538352D01*
X146228376Y-60529586D01*
X146211729Y-60528829D01*
X146200036Y-60538977D01*
X146192510Y-60562927D01*
X146188366Y-60603574D01*
X146186815Y-60663814D01*
X146187071Y-60746545D01*
X146188349Y-60854661D01*
X146188748Y-60887000D01*
X146190185Y-60998476D01*
X146191472Y-61071397D01*
X146330971Y-61071397D01*
X146331755Y-61009501D01*
X146335240Y-60969003D01*
X146343124Y-60942292D01*
X146357105Y-60921756D01*
X146366597Y-60911740D01*
X146405404Y-60882433D01*
X146439763Y-60880048D01*
X146475216Y-60904250D01*
X146476114Y-60905143D01*
X146490539Y-60923847D01*
X146499313Y-60949268D01*
X146503739Y-60988416D01*
X146505118Y-61048303D01*
X146505143Y-61061570D01*
X146501812Y-61144099D01*
X146490969Y-61201309D01*
X146471340Y-61236234D01*
X146441650Y-61251906D01*
X146424491Y-61253486D01*
X146383766Y-61246074D01*
X146355832Y-61221670D01*
X146339017Y-61177020D01*
X146331650Y-61108870D01*
X146330971Y-61071397D01*
X146191472Y-61071397D01*
X146191708Y-61084755D01*
X146193677Y-61149667D01*
X146196450Y-61197042D01*
X146200388Y-61230710D01*
X146205849Y-61254502D01*
X146213192Y-61272247D01*
X146222777Y-61287776D01*
X146226887Y-61293619D01*
X146281405Y-61348815D01*
X146350336Y-61380110D01*
X146430072Y-61388835D01*
X146499744Y-61380082D01*
X146499744Y-61380082D01*
G37*
X146499744Y-61380082D02*
X146555201Y-61352432D01*
X146604148Y-61301520D01*
X146617629Y-61282662D01*
X146632314Y-61257985D01*
X146641842Y-61231184D01*
X146647293Y-61195413D01*
X146649747Y-61143831D01*
X146650286Y-61075733D01*
X146647852Y-60982412D01*
X146639394Y-60912343D01*
X146623174Y-60860069D01*
X146597454Y-60820131D01*
X146560497Y-60787071D01*
X146557782Y-60785114D01*
X146521360Y-60765092D01*
X146477502Y-60755185D01*
X146421724Y-60752743D01*
X146331048Y-60752743D01*
X146331010Y-60664717D01*
X146330166Y-60615692D01*
X146325024Y-60586935D01*
X146311587Y-60569689D01*
X146285858Y-60555192D01*
X146279679Y-60552231D01*
X146250764Y-60538352D01*
X146228376Y-60529586D01*
X146211729Y-60528829D01*
X146200036Y-60538977D01*
X146192510Y-60562927D01*
X146188366Y-60603574D01*
X146186815Y-60663814D01*
X146187071Y-60746545D01*
X146188349Y-60854661D01*
X146188748Y-60887000D01*
X146190185Y-60998476D01*
X146191472Y-61071397D01*
X146330971Y-61071397D01*
X146331755Y-61009501D01*
X146335240Y-60969003D01*
X146343124Y-60942292D01*
X146357105Y-60921756D01*
X146366597Y-60911740D01*
X146405404Y-60882433D01*
X146439763Y-60880048D01*
X146475216Y-60904250D01*
X146476114Y-60905143D01*
X146490539Y-60923847D01*
X146499313Y-60949268D01*
X146503739Y-60988416D01*
X146505118Y-61048303D01*
X146505143Y-61061570D01*
X146501812Y-61144099D01*
X146490969Y-61201309D01*
X146471340Y-61236234D01*
X146441650Y-61251906D01*
X146424491Y-61253486D01*
X146383766Y-61246074D01*
X146355832Y-61221670D01*
X146339017Y-61177020D01*
X146331650Y-61108870D01*
X146330971Y-61071397D01*
X146191472Y-61071397D01*
X146191708Y-61084755D01*
X146193677Y-61149667D01*
X146196450Y-61197042D01*
X146200388Y-61230710D01*
X146205849Y-61254502D01*
X146213192Y-61272247D01*
X146222777Y-61287776D01*
X146226887Y-61293619D01*
X146281405Y-61348815D01*
X146350336Y-61380110D01*
X146430072Y-61388835D01*
X146499744Y-61380082D01*
M02*
