G04 #@! TF.GenerationSoftware,KiCad,Pcbnew,(5.1.4)-1*
G04 #@! TF.CreationDate,2020-11-14T09:15:54+05:30*
G04 #@! TF.ProjectId,Breadboard_Power_Supply,42726561-6462-46f6-9172-645f506f7765,1*
G04 #@! TF.SameCoordinates,Original*
G04 #@! TF.FileFunction,Legend,Top*
G04 #@! TF.FilePolarity,Positive*
%FSLAX46Y46*%
G04 Gerber Fmt 4.6, Leading zero omitted, Abs format (unit mm)*
G04 Created by KiCad (PCBNEW (5.1.4)-1) date 2020-11-14 09:15:54*
%MOMM*%
%LPD*%
G04 APERTURE LIST*
%ADD10C,0.150000*%
%ADD11C,0.250000*%
%ADD12C,0.120000*%
%ADD13C,0.500000*%
%ADD14C,0.125000*%
G04 APERTURE END LIST*
D10*
X146423809Y-115561904D02*
X146690476Y-116361904D01*
X146957142Y-115561904D01*
X147223809Y-116361904D02*
X147223809Y-115561904D01*
X147604761Y-116361904D02*
X147604761Y-115561904D01*
X148061904Y-116361904D01*
X148061904Y-115561904D01*
X149390476Y-115600000D02*
X149314285Y-115561904D01*
X149200000Y-115561904D01*
X149085714Y-115600000D01*
X149009523Y-115676190D01*
X148971428Y-115752380D01*
X148933333Y-115904761D01*
X148933333Y-116019047D01*
X148971428Y-116171428D01*
X149009523Y-116247619D01*
X149085714Y-116323809D01*
X149200000Y-116361904D01*
X149276190Y-116361904D01*
X149390476Y-116323809D01*
X149428571Y-116285714D01*
X149428571Y-116019047D01*
X149276190Y-116019047D01*
X149771428Y-116361904D02*
X149771428Y-115561904D01*
X150228571Y-116361904D01*
X150228571Y-115561904D01*
X150609523Y-116361904D02*
X150609523Y-115561904D01*
X150800000Y-115561904D01*
X150914285Y-115600000D01*
X150990476Y-115676190D01*
X151028571Y-115752380D01*
X151066666Y-115904761D01*
X151066666Y-116019047D01*
X151028571Y-116171428D01*
X150990476Y-116247619D01*
X150914285Y-116323809D01*
X150800000Y-116361904D01*
X150609523Y-116361904D01*
D11*
X134057142Y-118228571D02*
X134200000Y-118276190D01*
X134247619Y-118323809D01*
X134295238Y-118419047D01*
X134295238Y-118561904D01*
X134247619Y-118657142D01*
X134200000Y-118704761D01*
X134104761Y-118752380D01*
X133723809Y-118752380D01*
X133723809Y-117752380D01*
X134057142Y-117752380D01*
X134152380Y-117800000D01*
X134200000Y-117847619D01*
X134247619Y-117942857D01*
X134247619Y-118038095D01*
X134200000Y-118133333D01*
X134152380Y-118180952D01*
X134057142Y-118228571D01*
X133723809Y-118228571D01*
X134723809Y-118752380D02*
X134723809Y-118085714D01*
X134723809Y-118276190D02*
X134771428Y-118180952D01*
X134819047Y-118133333D01*
X134914285Y-118085714D01*
X135009523Y-118085714D01*
X135723809Y-118704761D02*
X135628571Y-118752380D01*
X135438095Y-118752380D01*
X135342857Y-118704761D01*
X135295238Y-118609523D01*
X135295238Y-118228571D01*
X135342857Y-118133333D01*
X135438095Y-118085714D01*
X135628571Y-118085714D01*
X135723809Y-118133333D01*
X135771428Y-118228571D01*
X135771428Y-118323809D01*
X135295238Y-118419047D01*
X136628571Y-118752380D02*
X136628571Y-118228571D01*
X136580952Y-118133333D01*
X136485714Y-118085714D01*
X136295238Y-118085714D01*
X136200000Y-118133333D01*
X136628571Y-118704761D02*
X136533333Y-118752380D01*
X136295238Y-118752380D01*
X136200000Y-118704761D01*
X136152380Y-118609523D01*
X136152380Y-118514285D01*
X136200000Y-118419047D01*
X136295238Y-118371428D01*
X136533333Y-118371428D01*
X136628571Y-118323809D01*
X137533333Y-118752380D02*
X137533333Y-117752380D01*
X137533333Y-118704761D02*
X137438095Y-118752380D01*
X137247619Y-118752380D01*
X137152380Y-118704761D01*
X137104761Y-118657142D01*
X137057142Y-118561904D01*
X137057142Y-118276190D01*
X137104761Y-118180952D01*
X137152380Y-118133333D01*
X137247619Y-118085714D01*
X137438095Y-118085714D01*
X137533333Y-118133333D01*
X138009523Y-118752380D02*
X138009523Y-117752380D01*
X138009523Y-118133333D02*
X138104761Y-118085714D01*
X138295238Y-118085714D01*
X138390476Y-118133333D01*
X138438095Y-118180952D01*
X138485714Y-118276190D01*
X138485714Y-118561904D01*
X138438095Y-118657142D01*
X138390476Y-118704761D01*
X138295238Y-118752380D01*
X138104761Y-118752380D01*
X138009523Y-118704761D01*
X139057142Y-118752380D02*
X138961904Y-118704761D01*
X138914285Y-118657142D01*
X138866666Y-118561904D01*
X138866666Y-118276190D01*
X138914285Y-118180952D01*
X138961904Y-118133333D01*
X139057142Y-118085714D01*
X139200000Y-118085714D01*
X139295238Y-118133333D01*
X139342857Y-118180952D01*
X139390476Y-118276190D01*
X139390476Y-118561904D01*
X139342857Y-118657142D01*
X139295238Y-118704761D01*
X139200000Y-118752380D01*
X139057142Y-118752380D01*
X140247619Y-118752380D02*
X140247619Y-118228571D01*
X140200000Y-118133333D01*
X140104761Y-118085714D01*
X139914285Y-118085714D01*
X139819047Y-118133333D01*
X140247619Y-118704761D02*
X140152380Y-118752380D01*
X139914285Y-118752380D01*
X139819047Y-118704761D01*
X139771428Y-118609523D01*
X139771428Y-118514285D01*
X139819047Y-118419047D01*
X139914285Y-118371428D01*
X140152380Y-118371428D01*
X140247619Y-118323809D01*
X140723809Y-118752380D02*
X140723809Y-118085714D01*
X140723809Y-118276190D02*
X140771428Y-118180952D01*
X140819047Y-118133333D01*
X140914285Y-118085714D01*
X141009523Y-118085714D01*
X141771428Y-118752380D02*
X141771428Y-117752380D01*
X141771428Y-118704761D02*
X141676190Y-118752380D01*
X141485714Y-118752380D01*
X141390476Y-118704761D01*
X141342857Y-118657142D01*
X141295238Y-118561904D01*
X141295238Y-118276190D01*
X141342857Y-118180952D01*
X141390476Y-118133333D01*
X141485714Y-118085714D01*
X141676190Y-118085714D01*
X141771428Y-118133333D01*
X143009523Y-118752380D02*
X143009523Y-117752380D01*
X143390476Y-117752380D01*
X143485714Y-117800000D01*
X143533333Y-117847619D01*
X143580952Y-117942857D01*
X143580952Y-118085714D01*
X143533333Y-118180952D01*
X143485714Y-118228571D01*
X143390476Y-118276190D01*
X143009523Y-118276190D01*
X144152380Y-118752380D02*
X144057142Y-118704761D01*
X144009523Y-118657142D01*
X143961904Y-118561904D01*
X143961904Y-118276190D01*
X144009523Y-118180952D01*
X144057142Y-118133333D01*
X144152380Y-118085714D01*
X144295238Y-118085714D01*
X144390476Y-118133333D01*
X144438095Y-118180952D01*
X144485714Y-118276190D01*
X144485714Y-118561904D01*
X144438095Y-118657142D01*
X144390476Y-118704761D01*
X144295238Y-118752380D01*
X144152380Y-118752380D01*
X144819047Y-118085714D02*
X145009523Y-118752380D01*
X145200000Y-118276190D01*
X145390476Y-118752380D01*
X145580952Y-118085714D01*
X146342857Y-118704761D02*
X146247619Y-118752380D01*
X146057142Y-118752380D01*
X145961904Y-118704761D01*
X145914285Y-118609523D01*
X145914285Y-118228571D01*
X145961904Y-118133333D01*
X146057142Y-118085714D01*
X146247619Y-118085714D01*
X146342857Y-118133333D01*
X146390476Y-118228571D01*
X146390476Y-118323809D01*
X145914285Y-118419047D01*
X146819047Y-118752380D02*
X146819047Y-118085714D01*
X146819047Y-118276190D02*
X146866666Y-118180952D01*
X146914285Y-118133333D01*
X147009523Y-118085714D01*
X147104761Y-118085714D01*
X148152380Y-118704761D02*
X148295238Y-118752380D01*
X148533333Y-118752380D01*
X148628571Y-118704761D01*
X148676190Y-118657142D01*
X148723809Y-118561904D01*
X148723809Y-118466666D01*
X148676190Y-118371428D01*
X148628571Y-118323809D01*
X148533333Y-118276190D01*
X148342857Y-118228571D01*
X148247619Y-118180952D01*
X148200000Y-118133333D01*
X148152380Y-118038095D01*
X148152380Y-117942857D01*
X148200000Y-117847619D01*
X148247619Y-117800000D01*
X148342857Y-117752380D01*
X148580952Y-117752380D01*
X148723809Y-117800000D01*
X149580952Y-118085714D02*
X149580952Y-118752380D01*
X149152380Y-118085714D02*
X149152380Y-118609523D01*
X149200000Y-118704761D01*
X149295238Y-118752380D01*
X149438095Y-118752380D01*
X149533333Y-118704761D01*
X149580952Y-118657142D01*
X150057142Y-118085714D02*
X150057142Y-119085714D01*
X150057142Y-118133333D02*
X150152380Y-118085714D01*
X150342857Y-118085714D01*
X150438095Y-118133333D01*
X150485714Y-118180952D01*
X150533333Y-118276190D01*
X150533333Y-118561904D01*
X150485714Y-118657142D01*
X150438095Y-118704761D01*
X150342857Y-118752380D01*
X150152380Y-118752380D01*
X150057142Y-118704761D01*
X150961904Y-118085714D02*
X150961904Y-119085714D01*
X150961904Y-118133333D02*
X151057142Y-118085714D01*
X151247619Y-118085714D01*
X151342857Y-118133333D01*
X151390476Y-118180952D01*
X151438095Y-118276190D01*
X151438095Y-118561904D01*
X151390476Y-118657142D01*
X151342857Y-118704761D01*
X151247619Y-118752380D01*
X151057142Y-118752380D01*
X150961904Y-118704761D01*
X152009523Y-118752380D02*
X151914285Y-118704761D01*
X151866666Y-118609523D01*
X151866666Y-117752380D01*
X152295238Y-118085714D02*
X152533333Y-118752380D01*
X152771428Y-118085714D02*
X152533333Y-118752380D01*
X152438095Y-118990476D01*
X152390476Y-119038095D01*
X152295238Y-119085714D01*
D10*
X152050000Y-68309523D02*
X152011904Y-68385714D01*
X152011904Y-68500000D01*
X152050000Y-68614285D01*
X152126190Y-68690476D01*
X152202380Y-68728571D01*
X152354761Y-68766666D01*
X152469047Y-68766666D01*
X152621428Y-68728571D01*
X152697619Y-68690476D01*
X152773809Y-68614285D01*
X152811904Y-68500000D01*
X152811904Y-68423809D01*
X152773809Y-68309523D01*
X152735714Y-68271428D01*
X152469047Y-68271428D01*
X152469047Y-68423809D01*
X152811904Y-67928571D02*
X152011904Y-67928571D01*
X152811904Y-67471428D01*
X152011904Y-67471428D01*
X152811904Y-67090476D02*
X152011904Y-67090476D01*
X152011904Y-66900000D01*
X152050000Y-66785714D01*
X152126190Y-66709523D01*
X152202380Y-66671428D01*
X152354761Y-66633333D01*
X152469047Y-66633333D01*
X152621428Y-66671428D01*
X152697619Y-66709523D01*
X152773809Y-66785714D01*
X152811904Y-66900000D01*
X152811904Y-67090476D01*
X152061904Y-71390476D02*
X152061904Y-70895238D01*
X152366666Y-71161904D01*
X152366666Y-71047619D01*
X152404761Y-70971428D01*
X152442857Y-70933333D01*
X152519047Y-70895238D01*
X152709523Y-70895238D01*
X152785714Y-70933333D01*
X152823809Y-70971428D01*
X152861904Y-71047619D01*
X152861904Y-71276190D01*
X152823809Y-71352380D01*
X152785714Y-71390476D01*
X152061904Y-70666666D02*
X152861904Y-70400000D01*
X152061904Y-70133333D01*
X152061904Y-69942857D02*
X152061904Y-69447619D01*
X152366666Y-69714285D01*
X152366666Y-69600000D01*
X152404761Y-69523809D01*
X152442857Y-69485714D01*
X152519047Y-69447619D01*
X152709523Y-69447619D01*
X152785714Y-69485714D01*
X152823809Y-69523809D01*
X152861904Y-69600000D01*
X152861904Y-69828571D01*
X152823809Y-69904761D01*
X152785714Y-69942857D01*
X152061904Y-73052380D02*
X152061904Y-73433333D01*
X152442857Y-73471428D01*
X152404761Y-73433333D01*
X152366666Y-73357142D01*
X152366666Y-73166666D01*
X152404761Y-73090476D01*
X152442857Y-73052380D01*
X152519047Y-73014285D01*
X152709523Y-73014285D01*
X152785714Y-73052380D01*
X152823809Y-73090476D01*
X152861904Y-73166666D01*
X152861904Y-73357142D01*
X152823809Y-73433333D01*
X152785714Y-73471428D01*
X152061904Y-72785714D02*
X152861904Y-72519047D01*
X152061904Y-72252380D01*
X143525000Y-66300000D02*
X143525000Y-65600000D01*
X143000000Y-72000000D02*
X144000000Y-72000000D01*
X143525000Y-71500000D02*
X143525000Y-72500000D01*
X161200000Y-117109523D02*
X161161904Y-117185714D01*
X161161904Y-117300000D01*
X161200000Y-117414285D01*
X161276190Y-117490476D01*
X161352380Y-117528571D01*
X161504761Y-117566666D01*
X161619047Y-117566666D01*
X161771428Y-117528571D01*
X161847619Y-117490476D01*
X161923809Y-117414285D01*
X161961904Y-117300000D01*
X161961904Y-117223809D01*
X161923809Y-117109523D01*
X161885714Y-117071428D01*
X161619047Y-117071428D01*
X161619047Y-117223809D01*
X161961904Y-116728571D02*
X161161904Y-116728571D01*
X161961904Y-116271428D01*
X161161904Y-116271428D01*
X161961904Y-115890476D02*
X161161904Y-115890476D01*
X161161904Y-115700000D01*
X161200000Y-115585714D01*
X161276190Y-115509523D01*
X161352380Y-115471428D01*
X161504761Y-115433333D01*
X161619047Y-115433333D01*
X161771428Y-115471428D01*
X161847619Y-115509523D01*
X161923809Y-115585714D01*
X161961904Y-115700000D01*
X161961904Y-115890476D01*
X161200000Y-63209523D02*
X161161904Y-63285714D01*
X161161904Y-63400000D01*
X161200000Y-63514285D01*
X161276190Y-63590476D01*
X161352380Y-63628571D01*
X161504761Y-63666666D01*
X161619047Y-63666666D01*
X161771428Y-63628571D01*
X161847619Y-63590476D01*
X161923809Y-63514285D01*
X161961904Y-63400000D01*
X161961904Y-63323809D01*
X161923809Y-63209523D01*
X161885714Y-63171428D01*
X161619047Y-63171428D01*
X161619047Y-63323809D01*
X161961904Y-62828571D02*
X161161904Y-62828571D01*
X161961904Y-62371428D01*
X161161904Y-62371428D01*
X161961904Y-61990476D02*
X161161904Y-61990476D01*
X161161904Y-61800000D01*
X161200000Y-61685714D01*
X161276190Y-61609523D01*
X161352380Y-61571428D01*
X161504761Y-61533333D01*
X161619047Y-61533333D01*
X161771428Y-61571428D01*
X161847619Y-61609523D01*
X161923809Y-61685714D01*
X161961904Y-61800000D01*
X161961904Y-61990476D01*
X161261904Y-65502380D02*
X161261904Y-65883333D01*
X161642857Y-65921428D01*
X161604761Y-65883333D01*
X161566666Y-65807142D01*
X161566666Y-65616666D01*
X161604761Y-65540476D01*
X161642857Y-65502380D01*
X161719047Y-65464285D01*
X161909523Y-65464285D01*
X161985714Y-65502380D01*
X162023809Y-65540476D01*
X162061904Y-65616666D01*
X162061904Y-65807142D01*
X162023809Y-65883333D01*
X161985714Y-65921428D01*
X161261904Y-65235714D02*
X162061904Y-64969047D01*
X161261904Y-64702380D01*
X161161904Y-114690476D02*
X161161904Y-114195238D01*
X161466666Y-114461904D01*
X161466666Y-114347619D01*
X161504761Y-114271428D01*
X161542857Y-114233333D01*
X161619047Y-114195238D01*
X161809523Y-114195238D01*
X161885714Y-114233333D01*
X161923809Y-114271428D01*
X161961904Y-114347619D01*
X161961904Y-114576190D01*
X161923809Y-114652380D01*
X161885714Y-114690476D01*
X161161904Y-113966666D02*
X161961904Y-113700000D01*
X161161904Y-113433333D01*
X161161904Y-113242857D02*
X161161904Y-112747619D01*
X161466666Y-113014285D01*
X161466666Y-112900000D01*
X161504761Y-112823809D01*
X161542857Y-112785714D01*
X161619047Y-112747619D01*
X161809523Y-112747619D01*
X161885714Y-112785714D01*
X161923809Y-112823809D01*
X161961904Y-112900000D01*
X161961904Y-113128571D01*
X161923809Y-113204761D01*
X161885714Y-113242857D01*
X153916666Y-92766666D02*
X153916666Y-92333333D01*
X154183333Y-92566666D01*
X154183333Y-92466666D01*
X154216666Y-92400000D01*
X154250000Y-92366666D01*
X154316666Y-92333333D01*
X154483333Y-92333333D01*
X154550000Y-92366666D01*
X154583333Y-92400000D01*
X154616666Y-92466666D01*
X154616666Y-92666666D01*
X154583333Y-92733333D01*
X154550000Y-92766666D01*
X153916666Y-92133333D02*
X154616666Y-91900000D01*
X153916666Y-91666666D01*
X153916666Y-91500000D02*
X153916666Y-91066666D01*
X154183333Y-91300000D01*
X154183333Y-91200000D01*
X154216666Y-91133333D01*
X154250000Y-91100000D01*
X154316666Y-91066666D01*
X154483333Y-91066666D01*
X154550000Y-91100000D01*
X154583333Y-91133333D01*
X154616666Y-91200000D01*
X154616666Y-91400000D01*
X154583333Y-91466666D01*
X154550000Y-91500000D01*
X153886666Y-86613333D02*
X153886666Y-86946666D01*
X154220000Y-86980000D01*
X154186666Y-86946666D01*
X154153333Y-86880000D01*
X154153333Y-86713333D01*
X154186666Y-86646666D01*
X154220000Y-86613333D01*
X154286666Y-86580000D01*
X154453333Y-86580000D01*
X154520000Y-86613333D01*
X154553333Y-86646666D01*
X154586666Y-86713333D01*
X154586666Y-86880000D01*
X154553333Y-86946666D01*
X154520000Y-86980000D01*
X153886666Y-86380000D02*
X154586666Y-86146666D01*
X153886666Y-85913333D01*
X153866666Y-89756666D02*
X154566666Y-89523333D01*
X153866666Y-89290000D01*
X154566666Y-89056666D02*
X153866666Y-89056666D01*
X154566666Y-88723333D02*
X153866666Y-88723333D01*
X154566666Y-88323333D01*
X153866666Y-88323333D01*
D12*
X145420000Y-104130000D02*
X145420000Y-104460000D01*
X151960000Y-104130000D02*
X145420000Y-104130000D01*
X151960000Y-104460000D02*
X151960000Y-104130000D01*
X145420000Y-106870000D02*
X145420000Y-106540000D01*
X151960000Y-106870000D02*
X145420000Y-106870000D01*
X151960000Y-106540000D02*
X151960000Y-106870000D01*
X137090000Y-115660000D02*
X141350000Y-115660000D01*
X141350000Y-115660000D02*
X141350000Y-103340000D01*
X141350000Y-103340000D02*
X137090000Y-103340000D01*
X141570000Y-110750000D02*
X142070000Y-111250000D01*
X142070000Y-111250000D02*
X142070000Y-110250000D01*
X142070000Y-110250000D02*
X141570000Y-110750000D01*
D10*
X144275000Y-69675000D02*
G75*
G03X142850000Y-69750000I-750000J675000D01*
G01*
D13*
X143700000Y-69000000D02*
G75*
G03X143700000Y-69000000I-175000J0D01*
G01*
D10*
X144450000Y-72000000D02*
G75*
G03X144450000Y-72000000I-925000J0D01*
G01*
X144450000Y-66000000D02*
G75*
G03X144450000Y-66000000I-925000J0D01*
G01*
X143525000Y-67000000D02*
X143525000Y-67900000D01*
X143525000Y-69000000D02*
X143525000Y-71000000D01*
D12*
X141540000Y-60910000D02*
X141540000Y-62650000D01*
X139800000Y-60910000D02*
X141540000Y-60910000D01*
X141300000Y-70350000D02*
X139300000Y-70350000D01*
X141300000Y-67550000D02*
X141300000Y-70350000D01*
X141300000Y-61150000D02*
X141300000Y-63950000D01*
X141300000Y-61150000D02*
X132700000Y-61150000D01*
X136000000Y-70350000D02*
X132700000Y-70350000D01*
X152080000Y-64370000D02*
X152080000Y-64040000D01*
X145540000Y-64370000D02*
X152080000Y-64370000D01*
X145540000Y-64040000D02*
X145540000Y-64370000D01*
X152080000Y-61630000D02*
X152080000Y-61960000D01*
X145540000Y-61630000D02*
X152080000Y-61630000D01*
X145540000Y-61960000D02*
X145540000Y-61630000D01*
X146770000Y-108030000D02*
X146770000Y-110970000D01*
X147010000Y-108030000D02*
X147010000Y-110970000D01*
X146890000Y-108030000D02*
X146890000Y-110970000D01*
X151430000Y-110970000D02*
X151430000Y-110840000D01*
X145990000Y-110970000D02*
X151430000Y-110970000D01*
X145990000Y-110840000D02*
X145990000Y-110970000D01*
X151430000Y-108030000D02*
X151430000Y-108160000D01*
X145990000Y-108030000D02*
X151430000Y-108030000D01*
X145990000Y-108160000D02*
X145990000Y-108030000D01*
X149020000Y-99000000D02*
G75*
G03X149020000Y-99000000I-3270000J0D01*
G01*
X149020000Y-79000000D02*
G75*
G03X149020000Y-79000000I-3270000J0D01*
G01*
X138325000Y-75125000D02*
X138325000Y-73725000D01*
X139725000Y-75125000D02*
X138325000Y-75125000D01*
X139725000Y-73725000D02*
X139725000Y-75125000D01*
X138325000Y-73725000D02*
X139725000Y-73725000D01*
X138350000Y-77725000D02*
X138350000Y-76325000D01*
X139750000Y-77725000D02*
X138350000Y-77725000D01*
X139750000Y-76325000D02*
X139750000Y-77725000D01*
X138350000Y-76325000D02*
X139750000Y-76325000D01*
X135625000Y-75175000D02*
X135625000Y-73775000D01*
X137025000Y-75175000D02*
X135625000Y-75175000D01*
X137025000Y-73775000D02*
X137025000Y-75175000D01*
X135625000Y-73775000D02*
X137025000Y-73775000D01*
X135625000Y-77750000D02*
X135625000Y-76350000D01*
X137025000Y-77750000D02*
X135625000Y-77750000D01*
X137025000Y-76350000D02*
X137025000Y-77750000D01*
X135625000Y-76350000D02*
X137025000Y-76350000D01*
X151505000Y-66465000D02*
X146305000Y-66465000D01*
X151505000Y-71605000D02*
X151505000Y-66465000D01*
X146305000Y-74205000D02*
X146305000Y-66465000D01*
X151505000Y-71605000D02*
X148905000Y-71605000D01*
X148905000Y-71605000D02*
X148905000Y-74205000D01*
X148905000Y-74205000D02*
X146305000Y-74205000D01*
X151505000Y-72875000D02*
X151505000Y-74205000D01*
X151505000Y-74205000D02*
X150175000Y-74205000D01*
X143360000Y-84080000D02*
X153260000Y-84080000D01*
X143360000Y-94000000D02*
X153260000Y-94000000D01*
X143360000Y-84080000D02*
X143360000Y-94000000D01*
X153260000Y-84080000D02*
X153260000Y-94000000D01*
X143120000Y-83840000D02*
X144504000Y-83840000D01*
X143120000Y-83840000D02*
X143120000Y-85223000D01*
X146280000Y-85865000D02*
X146280000Y-87135000D01*
X146280000Y-87135000D02*
X150340000Y-87135000D01*
X150340000Y-87135000D02*
X150340000Y-85865000D01*
X150340000Y-85865000D02*
X146280000Y-85865000D01*
X146280000Y-85985000D02*
X147633333Y-85985000D01*
X146280000Y-86105000D02*
X147633333Y-86105000D01*
X146280000Y-86225000D02*
X147633333Y-86225000D01*
X146280000Y-86345000D02*
X147633333Y-86345000D01*
X146280000Y-86465000D02*
X147633333Y-86465000D01*
X146280000Y-86585000D02*
X147633333Y-86585000D01*
X146280000Y-86705000D02*
X147633333Y-86705000D01*
X146280000Y-86825000D02*
X147633333Y-86825000D01*
X146280000Y-86945000D02*
X147633333Y-86945000D01*
X146280000Y-87065000D02*
X147633333Y-87065000D01*
X147633333Y-85865000D02*
X147633333Y-87135000D01*
X146280000Y-88405000D02*
X146280000Y-89675000D01*
X146280000Y-89675000D02*
X150340000Y-89675000D01*
X150340000Y-89675000D02*
X150340000Y-88405000D01*
X150340000Y-88405000D02*
X146280000Y-88405000D01*
X146280000Y-88525000D02*
X147633333Y-88525000D01*
X146280000Y-88645000D02*
X147633333Y-88645000D01*
X146280000Y-88765000D02*
X147633333Y-88765000D01*
X146280000Y-88885000D02*
X147633333Y-88885000D01*
X146280000Y-89005000D02*
X147633333Y-89005000D01*
X146280000Y-89125000D02*
X147633333Y-89125000D01*
X146280000Y-89245000D02*
X147633333Y-89245000D01*
X146280000Y-89365000D02*
X147633333Y-89365000D01*
X146280000Y-89485000D02*
X147633333Y-89485000D01*
X146280000Y-89605000D02*
X147633333Y-89605000D01*
X147633333Y-88405000D02*
X147633333Y-89675000D01*
X146280000Y-90945000D02*
X146280000Y-92215000D01*
X146280000Y-92215000D02*
X150340000Y-92215000D01*
X150340000Y-92215000D02*
X150340000Y-90945000D01*
X150340000Y-90945000D02*
X146280000Y-90945000D01*
X146280000Y-91065000D02*
X147633333Y-91065000D01*
X146280000Y-91185000D02*
X147633333Y-91185000D01*
X146280000Y-91305000D02*
X147633333Y-91305000D01*
X146280000Y-91425000D02*
X147633333Y-91425000D01*
X146280000Y-91545000D02*
X147633333Y-91545000D01*
X146280000Y-91665000D02*
X147633333Y-91665000D01*
X146280000Y-91785000D02*
X147633333Y-91785000D01*
X146280000Y-91905000D02*
X147633333Y-91905000D01*
X146280000Y-92025000D02*
X147633333Y-92025000D01*
X146280000Y-92145000D02*
X147633333Y-92145000D01*
X147633333Y-90945000D02*
X147633333Y-92215000D01*
X153311130Y-80079837D02*
G75*
G02X151229039Y-80080000I-1041130J1079837D01*
G01*
X153311130Y-77920163D02*
G75*
G03X151229039Y-77920000I-1041130J-1079837D01*
G01*
X153942335Y-80078608D02*
G75*
G02X150710000Y-80235516I-1672335J1078608D01*
G01*
X153942335Y-77921392D02*
G75*
G03X150710000Y-77764484I-1672335J-1078608D01*
G01*
X150710000Y-77764000D02*
X150710000Y-77920000D01*
X150710000Y-80080000D02*
X150710000Y-80236000D01*
X153311130Y-100079837D02*
G75*
G02X151229039Y-100080000I-1041130J1079837D01*
G01*
X153311130Y-97920163D02*
G75*
G03X151229039Y-97920000I-1041130J-1079837D01*
G01*
X153942335Y-100078608D02*
G75*
G02X150710000Y-100235516I-1672335J1078608D01*
G01*
X153942335Y-97921392D02*
G75*
G03X150710000Y-97764484I-1672335J-1078608D01*
G01*
X150710000Y-97764000D02*
X150710000Y-97920000D01*
X150710000Y-100080000D02*
X150710000Y-100236000D01*
X145970000Y-112370000D02*
X145970000Y-115030000D01*
X148570000Y-112370000D02*
X145970000Y-112370000D01*
X148570000Y-115030000D02*
X145970000Y-115030000D01*
X148570000Y-112370000D02*
X148570000Y-115030000D01*
X149840000Y-112370000D02*
X151170000Y-112370000D01*
X151170000Y-112370000D02*
X151170000Y-113700000D01*
X142100000Y-87410000D02*
X136090000Y-87410000D01*
X139850000Y-80590000D02*
X136090000Y-80590000D01*
X136090000Y-87410000D02*
X136090000Y-86150000D01*
X136090000Y-80590000D02*
X136090000Y-81850000D01*
X142100000Y-96910000D02*
X136090000Y-96910000D01*
X139850000Y-90090000D02*
X136090000Y-90090000D01*
X136090000Y-96910000D02*
X136090000Y-95650000D01*
X136090000Y-90090000D02*
X136090000Y-91350000D01*
X160830000Y-66580000D02*
X159500000Y-66580000D01*
X160830000Y-65250000D02*
X160830000Y-66580000D01*
X158230000Y-66580000D02*
X155630000Y-66580000D01*
X158230000Y-63980000D02*
X158230000Y-66580000D01*
X160830000Y-63980000D02*
X158230000Y-63980000D01*
X155630000Y-66580000D02*
X155630000Y-61380000D01*
X160830000Y-63980000D02*
X160830000Y-61380000D01*
X160830000Y-61380000D02*
X155630000Y-61380000D01*
X160830000Y-117630000D02*
X159500000Y-117630000D01*
X160830000Y-116300000D02*
X160830000Y-117630000D01*
X158230000Y-117630000D02*
X155630000Y-117630000D01*
X158230000Y-115030000D02*
X158230000Y-117630000D01*
X160830000Y-115030000D02*
X158230000Y-115030000D01*
X155630000Y-117630000D02*
X155630000Y-112430000D01*
X160830000Y-115030000D02*
X160830000Y-112430000D01*
X160830000Y-112430000D02*
X155630000Y-112430000D01*
D10*
X148523333Y-103452380D02*
X148190000Y-102976190D01*
X147951904Y-103452380D02*
X147951904Y-102452380D01*
X148332857Y-102452380D01*
X148428095Y-102500000D01*
X148475714Y-102547619D01*
X148523333Y-102642857D01*
X148523333Y-102785714D01*
X148475714Y-102880952D01*
X148428095Y-102928571D01*
X148332857Y-102976190D01*
X147951904Y-102976190D01*
X148904285Y-102547619D02*
X148951904Y-102500000D01*
X149047142Y-102452380D01*
X149285238Y-102452380D01*
X149380476Y-102500000D01*
X149428095Y-102547619D01*
X149475714Y-102642857D01*
X149475714Y-102738095D01*
X149428095Y-102880952D01*
X148856666Y-103452380D01*
X149475714Y-103452380D01*
X133166666Y-70952380D02*
X133166666Y-71666666D01*
X133119047Y-71809523D01*
X133023809Y-71904761D01*
X132880952Y-71952380D01*
X132785714Y-71952380D01*
X133547619Y-70952380D02*
X134166666Y-70952380D01*
X133833333Y-71333333D01*
X133976190Y-71333333D01*
X134071428Y-71380952D01*
X134119047Y-71428571D01*
X134166666Y-71523809D01*
X134166666Y-71761904D01*
X134119047Y-71857142D01*
X134071428Y-71904761D01*
X133976190Y-71952380D01*
X133690476Y-71952380D01*
X133595238Y-71904761D01*
X133547619Y-71857142D01*
X148633333Y-65752380D02*
X148300000Y-65276190D01*
X148061904Y-65752380D02*
X148061904Y-64752380D01*
X148442857Y-64752380D01*
X148538095Y-64800000D01*
X148585714Y-64847619D01*
X148633333Y-64942857D01*
X148633333Y-65085714D01*
X148585714Y-65180952D01*
X148538095Y-65228571D01*
X148442857Y-65276190D01*
X148061904Y-65276190D01*
X149585714Y-65752380D02*
X149014285Y-65752380D01*
X149300000Y-65752380D02*
X149300000Y-64752380D01*
X149204761Y-64895238D01*
X149109523Y-64990476D01*
X149014285Y-65038095D01*
X147971904Y-107482380D02*
X147971904Y-106482380D01*
X148210000Y-106482380D01*
X148352857Y-106530000D01*
X148448095Y-106625238D01*
X148495714Y-106720476D01*
X148543333Y-106910952D01*
X148543333Y-107053809D01*
X148495714Y-107244285D01*
X148448095Y-107339523D01*
X148352857Y-107434761D01*
X148210000Y-107482380D01*
X147971904Y-107482380D01*
X149495714Y-107482380D02*
X148924285Y-107482380D01*
X149210000Y-107482380D02*
X149210000Y-106482380D01*
X149114761Y-106625238D01*
X149019523Y-106720476D01*
X148924285Y-106768095D01*
X144638095Y-107852380D02*
X144638095Y-106852380D01*
X145209523Y-107852380D02*
X144780952Y-107280952D01*
X145209523Y-106852380D02*
X144638095Y-107423809D01*
X148778333Y-96182142D02*
X148730714Y-96229761D01*
X148587857Y-96277380D01*
X148492619Y-96277380D01*
X148349761Y-96229761D01*
X148254523Y-96134523D01*
X148206904Y-96039285D01*
X148159285Y-95848809D01*
X148159285Y-95705952D01*
X148206904Y-95515476D01*
X148254523Y-95420238D01*
X148349761Y-95325000D01*
X148492619Y-95277380D01*
X148587857Y-95277380D01*
X148730714Y-95325000D01*
X148778333Y-95372619D01*
X149159285Y-95372619D02*
X149206904Y-95325000D01*
X149302142Y-95277380D01*
X149540238Y-95277380D01*
X149635476Y-95325000D01*
X149683095Y-95372619D01*
X149730714Y-95467857D01*
X149730714Y-95563095D01*
X149683095Y-95705952D01*
X149111666Y-96277380D01*
X149730714Y-96277380D01*
X148083333Y-75857142D02*
X148035714Y-75904761D01*
X147892857Y-75952380D01*
X147797619Y-75952380D01*
X147654761Y-75904761D01*
X147559523Y-75809523D01*
X147511904Y-75714285D01*
X147464285Y-75523809D01*
X147464285Y-75380952D01*
X147511904Y-75190476D01*
X147559523Y-75095238D01*
X147654761Y-75000000D01*
X147797619Y-74952380D01*
X147892857Y-74952380D01*
X148035714Y-75000000D01*
X148083333Y-75047619D01*
X149035714Y-75952380D02*
X148464285Y-75952380D01*
X148750000Y-75952380D02*
X148750000Y-74952380D01*
X148654761Y-75095238D01*
X148559523Y-75190476D01*
X148464285Y-75238095D01*
D14*
X140155952Y-74301190D02*
X140465476Y-74301190D01*
X140298809Y-74491666D01*
X140370238Y-74491666D01*
X140417857Y-74515476D01*
X140441666Y-74539285D01*
X140465476Y-74586904D01*
X140465476Y-74705952D01*
X140441666Y-74753571D01*
X140417857Y-74777380D01*
X140370238Y-74801190D01*
X140227380Y-74801190D01*
X140179761Y-74777380D01*
X140155952Y-74753571D01*
X140608333Y-74301190D02*
X140775000Y-74801190D01*
X140941666Y-74301190D01*
X141060714Y-74301190D02*
X141370238Y-74301190D01*
X141203571Y-74491666D01*
X141275000Y-74491666D01*
X141322619Y-74515476D01*
X141346428Y-74539285D01*
X141370238Y-74586904D01*
X141370238Y-74705952D01*
X141346428Y-74753571D01*
X141322619Y-74777380D01*
X141275000Y-74801190D01*
X141132142Y-74801190D01*
X141084523Y-74777380D01*
X141060714Y-74753571D01*
X140765238Y-76651190D02*
X140527142Y-76651190D01*
X140503333Y-76889285D01*
X140527142Y-76865476D01*
X140574761Y-76841666D01*
X140693809Y-76841666D01*
X140741428Y-76865476D01*
X140765238Y-76889285D01*
X140789047Y-76936904D01*
X140789047Y-77055952D01*
X140765238Y-77103571D01*
X140741428Y-77127380D01*
X140693809Y-77151190D01*
X140574761Y-77151190D01*
X140527142Y-77127380D01*
X140503333Y-77103571D01*
X140931904Y-76651190D02*
X141098571Y-77151190D01*
X141265238Y-76651190D01*
X134394047Y-74225000D02*
X134346428Y-74201190D01*
X134275000Y-74201190D01*
X134203571Y-74225000D01*
X134155952Y-74272619D01*
X134132142Y-74320238D01*
X134108333Y-74415476D01*
X134108333Y-74486904D01*
X134132142Y-74582142D01*
X134155952Y-74629761D01*
X134203571Y-74677380D01*
X134275000Y-74701190D01*
X134322619Y-74701190D01*
X134394047Y-74677380D01*
X134417857Y-74653571D01*
X134417857Y-74486904D01*
X134322619Y-74486904D01*
X134632142Y-74701190D02*
X134632142Y-74201190D01*
X134917857Y-74701190D01*
X134917857Y-74201190D01*
X135155952Y-74701190D02*
X135155952Y-74201190D01*
X135275000Y-74201190D01*
X135346428Y-74225000D01*
X135394047Y-74272619D01*
X135417857Y-74320238D01*
X135441666Y-74415476D01*
X135441666Y-74486904D01*
X135417857Y-74582142D01*
X135394047Y-74629761D01*
X135346428Y-74677380D01*
X135275000Y-74701190D01*
X135155952Y-74701190D01*
X134117857Y-76776190D02*
X134317857Y-77276190D01*
X134517857Y-76776190D01*
X134717857Y-77276190D02*
X134717857Y-76776190D01*
X135003571Y-77276190D02*
X135003571Y-76776190D01*
X135346428Y-77276190D01*
X135346428Y-76776190D01*
D10*
X144927380Y-73958333D02*
X145641666Y-73958333D01*
X145784523Y-74005952D01*
X145879761Y-74101190D01*
X145927380Y-74244047D01*
X145927380Y-74339285D01*
X144927380Y-73053571D02*
X144927380Y-73244047D01*
X144975000Y-73339285D01*
X145022619Y-73386904D01*
X145165476Y-73482142D01*
X145355952Y-73529761D01*
X145736904Y-73529761D01*
X145832142Y-73482142D01*
X145879761Y-73434523D01*
X145927380Y-73339285D01*
X145927380Y-73148809D01*
X145879761Y-73053571D01*
X145832142Y-73005952D01*
X145736904Y-72958333D01*
X145498809Y-72958333D01*
X145403571Y-73005952D01*
X145355952Y-73053571D01*
X145308333Y-73148809D01*
X145308333Y-73339285D01*
X145355952Y-73434523D01*
X145403571Y-73482142D01*
X145498809Y-73529761D01*
X146976666Y-83204761D02*
X147119523Y-83252380D01*
X147357619Y-83252380D01*
X147452857Y-83204761D01*
X147500476Y-83157142D01*
X147548095Y-83061904D01*
X147548095Y-82966666D01*
X147500476Y-82871428D01*
X147452857Y-82823809D01*
X147357619Y-82776190D01*
X147167142Y-82728571D01*
X147071904Y-82680952D01*
X147024285Y-82633333D01*
X146976666Y-82538095D01*
X146976666Y-82442857D01*
X147024285Y-82347619D01*
X147071904Y-82300000D01*
X147167142Y-82252380D01*
X147405238Y-82252380D01*
X147548095Y-82300000D01*
X147881428Y-82252380D02*
X148119523Y-83252380D01*
X148310000Y-82538095D01*
X148500476Y-83252380D01*
X148738571Y-82252380D01*
X149643333Y-83252380D02*
X149071904Y-83252380D01*
X149357619Y-83252380D02*
X149357619Y-82252380D01*
X149262380Y-82395238D01*
X149167142Y-82490476D01*
X149071904Y-82538095D01*
X151055714Y-76492380D02*
X151055714Y-75492380D01*
X151293809Y-75492380D01*
X151436666Y-75540000D01*
X151531904Y-75635238D01*
X151579523Y-75730476D01*
X151627142Y-75920952D01*
X151627142Y-76063809D01*
X151579523Y-76254285D01*
X151531904Y-76349523D01*
X151436666Y-76444761D01*
X151293809Y-76492380D01*
X151055714Y-76492380D01*
X152008095Y-76444761D02*
X152150952Y-76492380D01*
X152389047Y-76492380D01*
X152484285Y-76444761D01*
X152531904Y-76397142D01*
X152579523Y-76301904D01*
X152579523Y-76206666D01*
X152531904Y-76111428D01*
X152484285Y-76063809D01*
X152389047Y-76016190D01*
X152198571Y-75968571D01*
X152103333Y-75920952D01*
X152055714Y-75873333D01*
X152008095Y-75778095D01*
X152008095Y-75682857D01*
X152055714Y-75587619D01*
X152103333Y-75540000D01*
X152198571Y-75492380D01*
X152436666Y-75492380D01*
X152579523Y-75540000D01*
X153531904Y-76492380D02*
X152960476Y-76492380D01*
X153246190Y-76492380D02*
X153246190Y-75492380D01*
X153150952Y-75635238D01*
X153055714Y-75730476D01*
X152960476Y-75778095D01*
X150785714Y-96202380D02*
X150785714Y-95202380D01*
X151023809Y-95202380D01*
X151166666Y-95250000D01*
X151261904Y-95345238D01*
X151309523Y-95440476D01*
X151357142Y-95630952D01*
X151357142Y-95773809D01*
X151309523Y-95964285D01*
X151261904Y-96059523D01*
X151166666Y-96154761D01*
X151023809Y-96202380D01*
X150785714Y-96202380D01*
X151738095Y-96154761D02*
X151880952Y-96202380D01*
X152119047Y-96202380D01*
X152214285Y-96154761D01*
X152261904Y-96107142D01*
X152309523Y-96011904D01*
X152309523Y-95916666D01*
X152261904Y-95821428D01*
X152214285Y-95773809D01*
X152119047Y-95726190D01*
X151928571Y-95678571D01*
X151833333Y-95630952D01*
X151785714Y-95583333D01*
X151738095Y-95488095D01*
X151738095Y-95392857D01*
X151785714Y-95297619D01*
X151833333Y-95250000D01*
X151928571Y-95202380D01*
X152166666Y-95202380D01*
X152309523Y-95250000D01*
X152690476Y-95297619D02*
X152738095Y-95250000D01*
X152833333Y-95202380D01*
X153071428Y-95202380D01*
X153166666Y-95250000D01*
X153214285Y-95297619D01*
X153261904Y-95392857D01*
X153261904Y-95488095D01*
X153214285Y-95630952D01*
X152642857Y-96202380D01*
X153261904Y-96202380D01*
X144606666Y-113052380D02*
X144606666Y-113766666D01*
X144559047Y-113909523D01*
X144463809Y-114004761D01*
X144320952Y-114052380D01*
X144225714Y-114052380D01*
X145606666Y-114052380D02*
X145035238Y-114052380D01*
X145320952Y-114052380D02*
X145320952Y-113052380D01*
X145225714Y-113195238D01*
X145130476Y-113290476D01*
X145035238Y-113338095D01*
X137238095Y-87952380D02*
X137238095Y-88761904D01*
X137285714Y-88857142D01*
X137333333Y-88904761D01*
X137428571Y-88952380D01*
X137619047Y-88952380D01*
X137714285Y-88904761D01*
X137761904Y-88857142D01*
X137809523Y-88761904D01*
X137809523Y-87952380D01*
X138238095Y-88047619D02*
X138285714Y-88000000D01*
X138380952Y-87952380D01*
X138619047Y-87952380D01*
X138714285Y-88000000D01*
X138761904Y-88047619D01*
X138809523Y-88142857D01*
X138809523Y-88238095D01*
X138761904Y-88380952D01*
X138190476Y-88952380D01*
X138809523Y-88952380D01*
X137238095Y-97452380D02*
X137238095Y-98261904D01*
X137285714Y-98357142D01*
X137333333Y-98404761D01*
X137428571Y-98452380D01*
X137619047Y-98452380D01*
X137714285Y-98404761D01*
X137761904Y-98357142D01*
X137809523Y-98261904D01*
X137809523Y-97452380D01*
X138809523Y-98452380D02*
X138238095Y-98452380D01*
X138523809Y-98452380D02*
X138523809Y-97452380D01*
X138428571Y-97595238D01*
X138333333Y-97690476D01*
X138238095Y-97738095D01*
X154340666Y-65464380D02*
X154340666Y-66178666D01*
X154293047Y-66321523D01*
X154197809Y-66416761D01*
X154054952Y-66464380D01*
X153959714Y-66464380D01*
X155245428Y-65797714D02*
X155245428Y-66464380D01*
X155007333Y-65416761D02*
X154769238Y-66131047D01*
X155388285Y-66131047D01*
X154166666Y-116712380D02*
X154166666Y-117426666D01*
X154119047Y-117569523D01*
X154023809Y-117664761D01*
X153880952Y-117712380D01*
X153785714Y-117712380D01*
X155119047Y-116712380D02*
X154642857Y-116712380D01*
X154595238Y-117188571D01*
X154642857Y-117140952D01*
X154738095Y-117093333D01*
X154976190Y-117093333D01*
X155071428Y-117140952D01*
X155119047Y-117188571D01*
X155166666Y-117283809D01*
X155166666Y-117521904D01*
X155119047Y-117617142D01*
X155071428Y-117664761D01*
X154976190Y-117712380D01*
X154738095Y-117712380D01*
X154642857Y-117664761D01*
X154595238Y-117617142D01*
M02*
