M48
; DRILL file {KiCad (5.1.4)-1} date 11/14/2020 9:16:01 AM
; FORMAT={-:-/ absolute / inch / decimal}
; #@! TF.CreationDate,2020-11-14T09:16:01+05:30
; #@! TF.GenerationSoftware,Kicad,Pcbnew,(5.1.4)-1
; #@! TF.FileFunction,Plated,1,2,PTH
FMAT,2
INCH
T1C0.0315
T2C0.0354
T3C0.0362
T4C0.0394
T5C0.0433
T6C0.0630
T7C0.0917
%
G90
G05
T1
X5.7874Y-3.8976
X5.7087Y-2.4803
X5.689Y-3.1102
X5.7874Y-3.1102
X5.689Y-3.4055
X5.689Y-3.5055
X5.689Y-3.6055
X5.989Y-3.4055
X5.989Y-3.5055
X5.989Y-3.6055
X5.7039Y-4.1535
X6.0039Y-4.1535
X5.689Y-3.8976
X6.0087Y-2.4803
T2
X5.9449Y-3.1102
X6.0449Y-3.1102
X5.9449Y-3.8976
X6.0449Y-3.8976
T3
X5.4232Y-4.2618
X5.4232Y-4.3602
X5.502Y-4.2618
X5.502Y-4.3602
T4
X6.1795Y-2.4689
X6.1795Y-2.5689
X6.2795Y-2.4689
X6.2795Y-2.5689
X5.7992Y-4.4764
X5.8992Y-4.4764
X6.1795Y-4.4787
X6.1795Y-4.5787
X6.2795Y-4.4787
X6.2795Y-4.5787
X5.8124Y-2.6691
X5.8124Y-2.7691
X5.8124Y-2.8691
X5.9124Y-2.6691
X5.9124Y-2.7691
X5.9124Y-2.8691
T5
X5.7047Y-4.311
X6.0047Y-4.311
T6
X5.2953Y-2.5886
X5.4134Y-2.7736
X5.5315Y-2.5886
T7
X5.3165Y-4.074
X5.3165Y-4.548
T0
M30
