M48
; DRILL file {KiCad (5.1.4)-1} date 6/12/2021 5:19:13 PM
; FORMAT={-:-/ absolute / inch / decimal}
; #@! TF.CreationDate,2021-06-12T17:19:13+05:30
; #@! TF.GenerationSoftware,Kicad,Pcbnew,(5.1.4)-1
; #@! TF.FileFunction,Plated,1,2,PTH
FMAT,2
INCH
T1C0.0157
T2C0.0362
T3C0.0394
T4C0.0630
T5C0.0917
%
G90
G05
T1
X5.3691Y-3.1218
X5.411Y-3.5417
X5.6369Y-2.9968
X5.6487Y-3.8969
X5.6848Y-3.5929
X5.7206Y-3.9348
X5.8543Y-3.0052
X6.036Y-3.4596
T2
X5.4232Y-4.2618
X5.4232Y-4.3602
X5.502Y-4.2618
X5.502Y-4.3602
T3
X6.1795Y-2.4689
X6.1795Y-2.5689
X6.2795Y-2.4689
X6.2795Y-2.5689
X6.1795Y-4.4787
X6.1795Y-4.5787
X6.2795Y-4.4787
X6.2795Y-4.5787
T4
X5.2953Y-2.5886
X5.4134Y-2.7736
X5.5315Y-2.5886
T5
X5.3165Y-4.074
X5.3165Y-4.548
T0
M30
