G04 #@! TF.GenerationSoftware,KiCad,Pcbnew,(5.1.4)-1*
G04 #@! TF.CreationDate,2020-11-14T09:15:53+05:30*
G04 #@! TF.ProjectId,Breadboard_Power_Supply,42726561-6462-46f6-9172-645f506f7765,1*
G04 #@! TF.SameCoordinates,Original*
G04 #@! TF.FileFunction,Copper,L1,Top*
G04 #@! TF.FilePolarity,Positive*
%FSLAX46Y46*%
G04 Gerber Fmt 4.6, Leading zero omitted, Abs format (unit mm)*
G04 Created by KiCad (PCBNEW (5.1.4)-1) date 2020-11-14 09:15:53*
%MOMM*%
%LPD*%
G04 APERTURE LIST*
%ADD10O,1.600000X1.600000*%
%ADD11C,1.600000*%
%ADD12R,1.700000X1.700000*%
%ADD13C,1.700000*%
%ADD14C,3.500000*%
%ADD15C,2.600000*%
%ADD16R,2.600000X2.600000*%
%ADD17O,2.200000X2.200000*%
%ADD18R,2.200000X2.200000*%
%ADD19R,1.000000X1.000000*%
%ADD20O,1.700000X1.700000*%
%ADD21R,1.600000X1.600000*%
%ADD22C,1.800000*%
%ADD23R,1.800000X1.800000*%
%ADD24R,2.000000X1.500000*%
%ADD25R,2.000000X3.800000*%
%ADD26C,0.400000*%
%ADD27C,0.254000*%
G04 APERTURE END LIST*
D10*
X144880000Y-105500000D03*
D11*
X152500000Y-105500000D03*
D12*
X139750000Y-110750000D03*
D13*
X139750000Y-108250000D03*
X137750000Y-108250000D03*
X137750000Y-110750000D03*
D14*
X135040000Y-115520000D03*
X135040000Y-103480000D03*
D15*
X137500000Y-70450000D03*
X134500000Y-65750000D03*
D16*
X140500000Y-65750000D03*
D10*
X152620000Y-63000000D03*
D11*
X145000000Y-63000000D03*
D17*
X152520000Y-109500000D03*
D18*
X144900000Y-109500000D03*
D11*
X147000000Y-99000000D03*
X144500000Y-99000000D03*
X147000000Y-79000000D03*
X144500000Y-79000000D03*
D19*
X139025000Y-74425000D03*
X139050000Y-77025000D03*
X136325000Y-74475000D03*
X136325000Y-77050000D03*
D20*
X147635000Y-67795000D03*
X150175000Y-67795000D03*
X147635000Y-70335000D03*
X150175000Y-70335000D03*
X147635000Y-72875000D03*
D12*
X150175000Y-72875000D03*
D10*
X152120000Y-86500000D03*
X144500000Y-91580000D03*
X152120000Y-89040000D03*
X144500000Y-89040000D03*
X152120000Y-91580000D03*
D21*
X144500000Y-86500000D03*
D22*
X153540000Y-79000000D03*
D23*
X151000000Y-79000000D03*
D22*
X153540000Y-99000000D03*
D23*
X151000000Y-99000000D03*
D20*
X147300000Y-113700000D03*
D12*
X149840000Y-113700000D03*
D24*
X141150000Y-86300000D03*
X141150000Y-81700000D03*
X141150000Y-84000000D03*
D25*
X134850000Y-84000000D03*
D24*
X141150000Y-95800000D03*
X141150000Y-91200000D03*
X141150000Y-93500000D03*
D25*
X134850000Y-93500000D03*
D20*
X156960000Y-62710000D03*
X159500000Y-62710000D03*
X156960000Y-65250000D03*
D12*
X159500000Y-65250000D03*
D20*
X156960000Y-113760000D03*
X159500000Y-113760000D03*
X156960000Y-116300000D03*
D12*
X159500000Y-116300000D03*
D26*
X152120000Y-86500000D02*
X152120000Y-85199700D01*
X149564200Y-74836100D02*
X149564200Y-82643900D01*
X149564200Y-82643900D02*
X152120000Y-85199700D01*
X147635000Y-72875000D02*
X146284700Y-72875000D01*
X146284700Y-72875000D02*
X142134700Y-77025000D01*
X142134700Y-77025000D02*
X139050000Y-77025000D01*
X150175000Y-74225300D02*
X150175000Y-72875000D01*
X149564200Y-74836100D02*
X150175000Y-74225300D01*
X139025000Y-74425000D02*
X140025300Y-74425000D01*
X147635000Y-70335000D02*
X144115300Y-70335000D01*
X144115300Y-70335000D02*
X140025300Y-74425000D01*
X153540000Y-63920000D02*
X152620000Y-63000000D01*
X153540000Y-79000000D02*
X153540000Y-63920000D01*
X152640001Y-99899999D02*
X153540000Y-99000000D01*
X147839999Y-104700001D02*
X152640001Y-99899999D01*
X145679999Y-104700001D02*
X147839999Y-104700001D01*
X144880000Y-105500000D02*
X145679999Y-104700001D01*
X143158100Y-97191900D02*
X144500000Y-95850000D01*
X144500000Y-95850000D02*
X144500000Y-91580000D01*
X133349600Y-95610900D02*
X134930600Y-97191900D01*
X134930600Y-97191900D02*
X143158100Y-97191900D01*
X136750100Y-84000000D02*
X141150000Y-84000000D01*
X134850000Y-84000000D02*
X134850000Y-85900100D01*
X144500000Y-99000000D02*
X144500000Y-95850000D01*
X136750100Y-84000000D02*
X134850000Y-84000000D01*
X134850000Y-86300000D02*
X134850000Y-84000000D01*
X133349600Y-87800400D02*
X134850000Y-86300000D01*
X133349600Y-95610900D02*
X133349600Y-87800400D01*
X138469200Y-93500000D02*
X141150000Y-93500000D01*
X138469200Y-93500000D02*
X134850000Y-93500000D01*
X143199999Y-87800001D02*
X144500000Y-86500000D01*
X143199999Y-91800003D02*
X143199999Y-87800001D01*
X141500002Y-93500000D02*
X143199999Y-91800003D01*
X141150000Y-93500000D02*
X141500002Y-93500000D01*
X140075000Y-81700000D02*
X141150000Y-81700000D01*
X136325000Y-77950000D02*
X140075000Y-81700000D01*
X136325000Y-77050000D02*
X136325000Y-77950000D01*
X150819700Y-89040000D02*
X152120000Y-89040000D01*
X141150000Y-91200000D02*
X141150000Y-88859500D01*
X141150000Y-88859500D02*
X142650300Y-87359200D01*
X142650300Y-87359200D02*
X142650300Y-85849698D01*
X142650300Y-85849698D02*
X143301598Y-85198400D01*
X143301598Y-85198400D02*
X146978100Y-85198400D01*
X146978100Y-85198400D02*
X150819700Y-89040000D01*
X143479700Y-81700000D02*
X141150000Y-81700000D01*
X146978100Y-85198400D02*
X143479700Y-81700000D01*
D27*
G36*
X161555665Y-60218863D02*
G01*
X161609214Y-60235030D01*
X161658597Y-60261288D01*
X161701945Y-60296641D01*
X161737600Y-60339740D01*
X161764201Y-60388937D01*
X161780742Y-60442375D01*
X161790001Y-60530464D01*
X161790000Y-67465279D01*
X161781138Y-67555664D01*
X161764970Y-67609214D01*
X161738712Y-67658597D01*
X161703357Y-67701947D01*
X161660261Y-67737599D01*
X161611063Y-67764201D01*
X161557625Y-67780742D01*
X161469545Y-67790000D01*
X155534877Y-67790000D01*
X155500000Y-67786565D01*
X155390870Y-67797313D01*
X155360816Y-67800273D01*
X155226980Y-67840872D01*
X155103637Y-67906800D01*
X154995525Y-67995525D01*
X154906800Y-68103637D01*
X154840872Y-68226980D01*
X154800273Y-68360816D01*
X154786565Y-68500000D01*
X154790000Y-68534877D01*
X154790000Y-78107831D01*
X154732312Y-78021495D01*
X154518505Y-77807688D01*
X154375000Y-77711801D01*
X154375000Y-65250000D01*
X155467815Y-65250000D01*
X155496487Y-65541111D01*
X155581401Y-65821034D01*
X155719294Y-66079014D01*
X155904866Y-66305134D01*
X156130986Y-66490706D01*
X156388966Y-66628599D01*
X156668889Y-66713513D01*
X156887050Y-66735000D01*
X157032950Y-66735000D01*
X157251111Y-66713513D01*
X157531034Y-66628599D01*
X157789014Y-66490706D01*
X158015134Y-66305134D01*
X158039607Y-66275313D01*
X158060498Y-66344180D01*
X158119463Y-66454494D01*
X158198815Y-66551185D01*
X158295506Y-66630537D01*
X158405820Y-66689502D01*
X158525518Y-66725812D01*
X158650000Y-66738072D01*
X160350000Y-66738072D01*
X160474482Y-66725812D01*
X160594180Y-66689502D01*
X160704494Y-66630537D01*
X160801185Y-66551185D01*
X160880537Y-66454494D01*
X160939502Y-66344180D01*
X160975812Y-66224482D01*
X160988072Y-66100000D01*
X160988072Y-64400000D01*
X160975812Y-64275518D01*
X160939502Y-64155820D01*
X160880537Y-64045506D01*
X160801185Y-63948815D01*
X160704494Y-63869463D01*
X160594180Y-63810498D01*
X160474482Y-63774188D01*
X160350000Y-63761928D01*
X158650000Y-63761928D01*
X158525518Y-63774188D01*
X158405820Y-63810498D01*
X158295506Y-63869463D01*
X158198815Y-63948815D01*
X158119463Y-64045506D01*
X158060498Y-64155820D01*
X158039607Y-64224687D01*
X158015134Y-64194866D01*
X157789014Y-64009294D01*
X157531034Y-63871401D01*
X157251111Y-63786487D01*
X157032950Y-63765000D01*
X156887050Y-63765000D01*
X156668889Y-63786487D01*
X156388966Y-63871401D01*
X156130986Y-64009294D01*
X155904866Y-64194866D01*
X155719294Y-64420986D01*
X155581401Y-64678966D01*
X155496487Y-64958889D01*
X155467815Y-65250000D01*
X154375000Y-65250000D01*
X154375000Y-63961007D01*
X154379039Y-63919999D01*
X154375000Y-63878991D01*
X154375000Y-63878981D01*
X154362918Y-63756311D01*
X154315172Y-63598913D01*
X154237636Y-63453854D01*
X154133291Y-63326709D01*
X154101426Y-63300558D01*
X154038534Y-63237667D01*
X154061943Y-63000000D01*
X154034236Y-62718691D01*
X153952182Y-62448192D01*
X153818932Y-62198899D01*
X153639608Y-61980392D01*
X153421101Y-61801068D01*
X153171808Y-61667818D01*
X152901309Y-61585764D01*
X152690492Y-61565000D01*
X152549508Y-61565000D01*
X152338691Y-61585764D01*
X152068192Y-61667818D01*
X151818899Y-61801068D01*
X151600392Y-61980392D01*
X151421068Y-62198899D01*
X151287818Y-62448192D01*
X151205764Y-62718691D01*
X151178057Y-63000000D01*
X151205764Y-63281309D01*
X151287818Y-63551808D01*
X151421068Y-63801101D01*
X151600392Y-64019608D01*
X151818899Y-64198932D01*
X152068192Y-64332182D01*
X152338691Y-64414236D01*
X152549508Y-64435000D01*
X152690492Y-64435000D01*
X152705001Y-64433571D01*
X152705000Y-77711801D01*
X152561495Y-77807688D01*
X152347688Y-78021495D01*
X152179701Y-78272905D01*
X152063989Y-78552257D01*
X152005000Y-78848816D01*
X152005000Y-79151184D01*
X152063989Y-79447743D01*
X152179701Y-79727095D01*
X152347688Y-79978505D01*
X152561495Y-80192312D01*
X152812905Y-80360299D01*
X153092257Y-80476011D01*
X153388816Y-80535000D01*
X153691184Y-80535000D01*
X153987743Y-80476011D01*
X154267095Y-80360299D01*
X154518505Y-80192312D01*
X154732312Y-79978505D01*
X154790000Y-79892169D01*
X154790001Y-98107832D01*
X154732312Y-98021495D01*
X154518505Y-97807688D01*
X154267095Y-97639701D01*
X153987743Y-97523989D01*
X153691184Y-97465000D01*
X153388816Y-97465000D01*
X153092257Y-97523989D01*
X152812905Y-97639701D01*
X152561495Y-97807688D01*
X152347688Y-98021495D01*
X152179701Y-98272905D01*
X152063989Y-98552257D01*
X152005000Y-98848816D01*
X152005000Y-99151184D01*
X152038671Y-99320460D01*
X147494132Y-103865001D01*
X145721006Y-103865001D01*
X145679998Y-103860962D01*
X145638990Y-103865001D01*
X145638980Y-103865001D01*
X145516310Y-103877083D01*
X145358912Y-103924829D01*
X145213853Y-104002365D01*
X145117490Y-104081448D01*
X144950492Y-104065000D01*
X144809508Y-104065000D01*
X144598691Y-104085764D01*
X144328192Y-104167818D01*
X144078899Y-104301068D01*
X143860392Y-104480392D01*
X143681068Y-104698899D01*
X143547818Y-104948192D01*
X143465764Y-105218691D01*
X143438057Y-105500000D01*
X143465764Y-105781309D01*
X143547818Y-106051808D01*
X143681068Y-106301101D01*
X143860392Y-106519608D01*
X144078899Y-106698932D01*
X144328192Y-106832182D01*
X144598691Y-106914236D01*
X144809508Y-106935000D01*
X144950492Y-106935000D01*
X145161309Y-106914236D01*
X145431808Y-106832182D01*
X145681101Y-106698932D01*
X145899608Y-106519608D01*
X146078932Y-106301101D01*
X146212182Y-106051808D01*
X146294236Y-105781309D01*
X146318496Y-105535001D01*
X147798981Y-105535001D01*
X147839999Y-105539041D01*
X147881017Y-105535001D01*
X147881018Y-105535001D01*
X148003688Y-105522919D01*
X148161086Y-105475173D01*
X148306145Y-105397637D01*
X148353632Y-105358665D01*
X151065000Y-105358665D01*
X151065000Y-105641335D01*
X151120147Y-105918574D01*
X151228320Y-106179727D01*
X151385363Y-106414759D01*
X151585241Y-106614637D01*
X151820273Y-106771680D01*
X152081426Y-106879853D01*
X152358665Y-106935000D01*
X152641335Y-106935000D01*
X152918574Y-106879853D01*
X153179727Y-106771680D01*
X153414759Y-106614637D01*
X153614637Y-106414759D01*
X153771680Y-106179727D01*
X153879853Y-105918574D01*
X153935000Y-105641335D01*
X153935000Y-105358665D01*
X153879853Y-105081426D01*
X153771680Y-104820273D01*
X153614637Y-104585241D01*
X153414759Y-104385363D01*
X153179727Y-104228320D01*
X152918574Y-104120147D01*
X152641335Y-104065000D01*
X152358665Y-104065000D01*
X152081426Y-104120147D01*
X151820273Y-104228320D01*
X151585241Y-104385363D01*
X151385363Y-104585241D01*
X151228320Y-104820273D01*
X151120147Y-105081426D01*
X151065000Y-105358665D01*
X148353632Y-105358665D01*
X148433290Y-105293292D01*
X148459445Y-105261422D01*
X153219540Y-100501329D01*
X153388816Y-100535000D01*
X153691184Y-100535000D01*
X153987743Y-100476011D01*
X154267095Y-100360299D01*
X154518505Y-100192312D01*
X154732312Y-99978505D01*
X154790001Y-99892168D01*
X154790001Y-109965114D01*
X154790000Y-109965124D01*
X154790000Y-110465123D01*
X154786565Y-110500000D01*
X154800273Y-110639184D01*
X154840872Y-110773020D01*
X154906800Y-110896363D01*
X154995525Y-111004475D01*
X155103637Y-111093200D01*
X155226980Y-111159128D01*
X155360816Y-111199727D01*
X155465123Y-111210000D01*
X155500000Y-111213435D01*
X155534877Y-111210000D01*
X161465278Y-111210000D01*
X161555665Y-111218863D01*
X161609214Y-111235030D01*
X161658597Y-111261288D01*
X161701945Y-111296641D01*
X161737600Y-111339740D01*
X161764201Y-111388937D01*
X161780742Y-111442375D01*
X161790000Y-111530455D01*
X161790001Y-118465269D01*
X161781138Y-118555664D01*
X161764970Y-118609214D01*
X161738712Y-118658597D01*
X161703357Y-118701947D01*
X161660261Y-118737599D01*
X161611063Y-118764201D01*
X161557625Y-118780742D01*
X161469545Y-118790000D01*
X134034729Y-118790000D01*
X133847216Y-118771614D01*
X133700252Y-118727243D01*
X133564703Y-118655171D01*
X133445742Y-118558148D01*
X133347882Y-118439856D01*
X133274868Y-118304819D01*
X133229471Y-118158167D01*
X133210000Y-117972908D01*
X133210000Y-113700000D01*
X145807815Y-113700000D01*
X145836487Y-113991111D01*
X145921401Y-114271034D01*
X146059294Y-114529014D01*
X146244866Y-114755134D01*
X146470986Y-114940706D01*
X146728966Y-115078599D01*
X147008889Y-115163513D01*
X147227050Y-115185000D01*
X147372950Y-115185000D01*
X147591111Y-115163513D01*
X147871034Y-115078599D01*
X148129014Y-114940706D01*
X148355134Y-114755134D01*
X148540706Y-114529014D01*
X148678599Y-114271034D01*
X148763513Y-113991111D01*
X148786275Y-113760000D01*
X155467815Y-113760000D01*
X155496487Y-114051111D01*
X155581401Y-114331034D01*
X155719294Y-114589014D01*
X155904866Y-114815134D01*
X156130986Y-115000706D01*
X156388966Y-115138599D01*
X156668889Y-115223513D01*
X156887050Y-115245000D01*
X157032950Y-115245000D01*
X157251111Y-115223513D01*
X157531034Y-115138599D01*
X157789014Y-115000706D01*
X158015134Y-114815134D01*
X158200706Y-114589014D01*
X158230000Y-114534209D01*
X158259294Y-114589014D01*
X158444866Y-114815134D01*
X158670986Y-115000706D01*
X158928966Y-115138599D01*
X159208889Y-115223513D01*
X159427050Y-115245000D01*
X159572950Y-115245000D01*
X159791111Y-115223513D01*
X160071034Y-115138599D01*
X160329014Y-115000706D01*
X160555134Y-114815134D01*
X160740706Y-114589014D01*
X160878599Y-114331034D01*
X160963513Y-114051111D01*
X160992185Y-113760000D01*
X160963513Y-113468889D01*
X160878599Y-113188966D01*
X160740706Y-112930986D01*
X160555134Y-112704866D01*
X160329014Y-112519294D01*
X160071034Y-112381401D01*
X159791111Y-112296487D01*
X159572950Y-112275000D01*
X159427050Y-112275000D01*
X159208889Y-112296487D01*
X158928966Y-112381401D01*
X158670986Y-112519294D01*
X158444866Y-112704866D01*
X158259294Y-112930986D01*
X158230000Y-112985791D01*
X158200706Y-112930986D01*
X158015134Y-112704866D01*
X157789014Y-112519294D01*
X157531034Y-112381401D01*
X157251111Y-112296487D01*
X157032950Y-112275000D01*
X156887050Y-112275000D01*
X156668889Y-112296487D01*
X156388966Y-112381401D01*
X156130986Y-112519294D01*
X155904866Y-112704866D01*
X155719294Y-112930986D01*
X155581401Y-113188966D01*
X155496487Y-113468889D01*
X155467815Y-113760000D01*
X148786275Y-113760000D01*
X148792185Y-113700000D01*
X148763513Y-113408889D01*
X148678599Y-113128966D01*
X148540706Y-112870986D01*
X148355134Y-112644866D01*
X148129014Y-112459294D01*
X147871034Y-112321401D01*
X147591111Y-112236487D01*
X147372950Y-112215000D01*
X147227050Y-112215000D01*
X147008889Y-112236487D01*
X146728966Y-112321401D01*
X146470986Y-112459294D01*
X146244866Y-112644866D01*
X146059294Y-112870986D01*
X145921401Y-113128966D01*
X145836487Y-113408889D01*
X145807815Y-113700000D01*
X133210000Y-113700000D01*
X133210000Y-108103740D01*
X136265000Y-108103740D01*
X136265000Y-108396260D01*
X136322068Y-108683158D01*
X136434010Y-108953411D01*
X136596525Y-109196632D01*
X136803368Y-109403475D01*
X136947828Y-109500000D01*
X136803368Y-109596525D01*
X136596525Y-109803368D01*
X136434010Y-110046589D01*
X136322068Y-110316842D01*
X136265000Y-110603740D01*
X136265000Y-110896260D01*
X136322068Y-111183158D01*
X136434010Y-111453411D01*
X136596525Y-111696632D01*
X136803368Y-111903475D01*
X137046589Y-112065990D01*
X137316842Y-112177932D01*
X137603740Y-112235000D01*
X137896260Y-112235000D01*
X138183158Y-112177932D01*
X138453411Y-112065990D01*
X138460822Y-112061038D01*
X138545506Y-112130537D01*
X138655820Y-112189502D01*
X138775518Y-112225812D01*
X138900000Y-112238072D01*
X140600000Y-112238072D01*
X140724482Y-112225812D01*
X140844180Y-112189502D01*
X140954494Y-112130537D01*
X141051185Y-112051185D01*
X141130537Y-111954494D01*
X141189502Y-111844180D01*
X141225812Y-111724482D01*
X141238072Y-111600000D01*
X141238072Y-109900000D01*
X141225812Y-109775518D01*
X141189502Y-109655820D01*
X141130537Y-109545506D01*
X141051185Y-109448815D01*
X140954494Y-109369463D01*
X140844180Y-109310498D01*
X140802310Y-109297797D01*
X140903475Y-109196632D01*
X141065990Y-108953411D01*
X141177932Y-108683158D01*
X141234256Y-108400000D01*
X143161928Y-108400000D01*
X143161928Y-110600000D01*
X143174188Y-110724482D01*
X143210498Y-110844180D01*
X143269463Y-110954494D01*
X143348815Y-111051185D01*
X143445506Y-111130537D01*
X143555820Y-111189502D01*
X143675518Y-111225812D01*
X143800000Y-111238072D01*
X146000000Y-111238072D01*
X146124482Y-111225812D01*
X146244180Y-111189502D01*
X146354494Y-111130537D01*
X146451185Y-111051185D01*
X146530537Y-110954494D01*
X146589502Y-110844180D01*
X146625812Y-110724482D01*
X146638072Y-110600000D01*
X146638072Y-109500000D01*
X150776606Y-109500000D01*
X150810105Y-109840119D01*
X150909314Y-110167168D01*
X151070421Y-110468578D01*
X151287234Y-110732766D01*
X151551422Y-110949579D01*
X151852832Y-111110686D01*
X152179881Y-111209895D01*
X152434775Y-111235000D01*
X152605225Y-111235000D01*
X152860119Y-111209895D01*
X153187168Y-111110686D01*
X153488578Y-110949579D01*
X153752766Y-110732766D01*
X153969579Y-110468578D01*
X154130686Y-110167168D01*
X154229895Y-109840119D01*
X154263394Y-109500000D01*
X154229895Y-109159881D01*
X154130686Y-108832832D01*
X153969579Y-108531422D01*
X153752766Y-108267234D01*
X153488578Y-108050421D01*
X153187168Y-107889314D01*
X152860119Y-107790105D01*
X152605225Y-107765000D01*
X152434775Y-107765000D01*
X152179881Y-107790105D01*
X151852832Y-107889314D01*
X151551422Y-108050421D01*
X151287234Y-108267234D01*
X151070421Y-108531422D01*
X150909314Y-108832832D01*
X150810105Y-109159881D01*
X150776606Y-109500000D01*
X146638072Y-109500000D01*
X146638072Y-108400000D01*
X146625812Y-108275518D01*
X146589502Y-108155820D01*
X146530537Y-108045506D01*
X146451185Y-107948815D01*
X146354494Y-107869463D01*
X146244180Y-107810498D01*
X146124482Y-107774188D01*
X146000000Y-107761928D01*
X143800000Y-107761928D01*
X143675518Y-107774188D01*
X143555820Y-107810498D01*
X143445506Y-107869463D01*
X143348815Y-107948815D01*
X143269463Y-108045506D01*
X143210498Y-108155820D01*
X143174188Y-108275518D01*
X143161928Y-108400000D01*
X141234256Y-108400000D01*
X141235000Y-108396260D01*
X141235000Y-108103740D01*
X141177932Y-107816842D01*
X141065990Y-107546589D01*
X140903475Y-107303368D01*
X140696632Y-107096525D01*
X140453411Y-106934010D01*
X140183158Y-106822068D01*
X139896260Y-106765000D01*
X139603740Y-106765000D01*
X139316842Y-106822068D01*
X139046589Y-106934010D01*
X138803368Y-107096525D01*
X138750000Y-107149893D01*
X138696632Y-107096525D01*
X138453411Y-106934010D01*
X138183158Y-106822068D01*
X137896260Y-106765000D01*
X137603740Y-106765000D01*
X137316842Y-106822068D01*
X137046589Y-106934010D01*
X136803368Y-107096525D01*
X136596525Y-107303368D01*
X136434010Y-107546589D01*
X136322068Y-107816842D01*
X136265000Y-108103740D01*
X133210000Y-108103740D01*
X133210000Y-96652168D01*
X134311163Y-97753332D01*
X134337309Y-97785191D01*
X134464454Y-97889536D01*
X134609513Y-97967072D01*
X134766911Y-98014818D01*
X134889581Y-98026900D01*
X134889582Y-98026900D01*
X134930600Y-98030940D01*
X134971618Y-98026900D01*
X143117082Y-98026900D01*
X143158100Y-98030940D01*
X143199118Y-98026900D01*
X143199119Y-98026900D01*
X143321789Y-98014818D01*
X143479187Y-97967072D01*
X143531487Y-97939117D01*
X143385363Y-98085241D01*
X143228320Y-98320273D01*
X143120147Y-98581426D01*
X143065000Y-98858665D01*
X143065000Y-99141335D01*
X143120147Y-99418574D01*
X143228320Y-99679727D01*
X143385363Y-99914759D01*
X143585241Y-100114637D01*
X143820273Y-100271680D01*
X144081426Y-100379853D01*
X144358665Y-100435000D01*
X144641335Y-100435000D01*
X144918574Y-100379853D01*
X145179727Y-100271680D01*
X145414759Y-100114637D01*
X145614637Y-99914759D01*
X145771680Y-99679727D01*
X145879853Y-99418574D01*
X145935000Y-99141335D01*
X145935000Y-98858665D01*
X145879853Y-98581426D01*
X145771680Y-98320273D01*
X145614637Y-98085241D01*
X145414759Y-97885363D01*
X145335000Y-97832070D01*
X145335000Y-95891018D01*
X145339040Y-95850001D01*
X145335000Y-95808981D01*
X145335000Y-92751112D01*
X145519608Y-92599608D01*
X145698932Y-92381101D01*
X145832182Y-92131808D01*
X145914236Y-91861309D01*
X145941943Y-91580000D01*
X145914236Y-91298691D01*
X145832182Y-91028192D01*
X145698932Y-90778899D01*
X145519608Y-90560392D01*
X145301101Y-90381068D01*
X145168142Y-90310000D01*
X145301101Y-90238932D01*
X145519608Y-90059608D01*
X145698932Y-89841101D01*
X145832182Y-89591808D01*
X145914236Y-89321309D01*
X145941943Y-89040000D01*
X145914236Y-88758691D01*
X145832182Y-88488192D01*
X145698932Y-88238899D01*
X145519608Y-88020392D01*
X145406518Y-87927581D01*
X145424482Y-87925812D01*
X145544180Y-87889502D01*
X145654494Y-87830537D01*
X145751185Y-87751185D01*
X145830537Y-87654494D01*
X145889502Y-87544180D01*
X145925812Y-87424482D01*
X145938072Y-87300000D01*
X145938072Y-86033400D01*
X146632233Y-86033400D01*
X150200263Y-89601432D01*
X150226409Y-89633291D01*
X150258268Y-89659437D01*
X150258270Y-89659439D01*
X150353554Y-89737636D01*
X150498613Y-89815172D01*
X150656011Y-89862918D01*
X150819700Y-89879040D01*
X150860718Y-89875000D01*
X150948888Y-89875000D01*
X151100392Y-90059608D01*
X151318899Y-90238932D01*
X151451858Y-90310000D01*
X151318899Y-90381068D01*
X151100392Y-90560392D01*
X150921068Y-90778899D01*
X150787818Y-91028192D01*
X150705764Y-91298691D01*
X150678057Y-91580000D01*
X150705764Y-91861309D01*
X150787818Y-92131808D01*
X150921068Y-92381101D01*
X151100392Y-92599608D01*
X151318899Y-92778932D01*
X151568192Y-92912182D01*
X151838691Y-92994236D01*
X152049508Y-93015000D01*
X152190492Y-93015000D01*
X152401309Y-92994236D01*
X152671808Y-92912182D01*
X152921101Y-92778932D01*
X153139608Y-92599608D01*
X153318932Y-92381101D01*
X153452182Y-92131808D01*
X153534236Y-91861309D01*
X153561943Y-91580000D01*
X153534236Y-91298691D01*
X153452182Y-91028192D01*
X153318932Y-90778899D01*
X153139608Y-90560392D01*
X152921101Y-90381068D01*
X152788142Y-90310000D01*
X152921101Y-90238932D01*
X153139608Y-90059608D01*
X153318932Y-89841101D01*
X153452182Y-89591808D01*
X153534236Y-89321309D01*
X153561943Y-89040000D01*
X153534236Y-88758691D01*
X153452182Y-88488192D01*
X153318932Y-88238899D01*
X153139608Y-88020392D01*
X152921101Y-87841068D01*
X152788142Y-87770000D01*
X152921101Y-87698932D01*
X153139608Y-87519608D01*
X153318932Y-87301101D01*
X153452182Y-87051808D01*
X153534236Y-86781309D01*
X153561943Y-86500000D01*
X153534236Y-86218691D01*
X153452182Y-85948192D01*
X153318932Y-85698899D01*
X153139608Y-85480392D01*
X152955000Y-85328888D01*
X152955000Y-85240718D01*
X152959040Y-85199699D01*
X152942918Y-85036011D01*
X152895172Y-84878613D01*
X152817636Y-84733554D01*
X152788159Y-84697636D01*
X152713291Y-84606409D01*
X152681427Y-84580259D01*
X150399200Y-82298033D01*
X150399200Y-75181968D01*
X150736432Y-74844736D01*
X150768291Y-74818591D01*
X150827794Y-74746087D01*
X150872636Y-74691446D01*
X150950172Y-74546387D01*
X150997918Y-74388988D01*
X151000471Y-74363072D01*
X151025000Y-74363072D01*
X151149482Y-74350812D01*
X151269180Y-74314502D01*
X151379494Y-74255537D01*
X151476185Y-74176185D01*
X151555537Y-74079494D01*
X151614502Y-73969180D01*
X151650812Y-73849482D01*
X151663072Y-73725000D01*
X151663072Y-72025000D01*
X151650812Y-71900518D01*
X151614502Y-71780820D01*
X151555537Y-71670506D01*
X151476185Y-71573815D01*
X151379494Y-71494463D01*
X151269180Y-71435498D01*
X151200313Y-71414607D01*
X151230134Y-71390134D01*
X151415706Y-71164014D01*
X151553599Y-70906034D01*
X151638513Y-70626111D01*
X151667185Y-70335000D01*
X151638513Y-70043889D01*
X151553599Y-69763966D01*
X151415706Y-69505986D01*
X151230134Y-69279866D01*
X151004014Y-69094294D01*
X150746034Y-68956401D01*
X150466111Y-68871487D01*
X150247950Y-68850000D01*
X150102050Y-68850000D01*
X149883889Y-68871487D01*
X149603966Y-68956401D01*
X149345986Y-69094294D01*
X149119866Y-69279866D01*
X148934294Y-69505986D01*
X148905000Y-69560791D01*
X148875706Y-69505986D01*
X148690134Y-69279866D01*
X148464014Y-69094294D01*
X148206034Y-68956401D01*
X147926111Y-68871487D01*
X147707950Y-68850000D01*
X147562050Y-68850000D01*
X147343889Y-68871487D01*
X147063966Y-68956401D01*
X146805986Y-69094294D01*
X146579866Y-69279866D01*
X146399207Y-69500000D01*
X144156307Y-69500000D01*
X144115299Y-69495961D01*
X144074291Y-69500000D01*
X144074281Y-69500000D01*
X143951611Y-69512082D01*
X143794213Y-69559828D01*
X143649154Y-69637364D01*
X143522009Y-69741709D01*
X143495859Y-69773573D01*
X139876546Y-73392887D01*
X139769180Y-73335498D01*
X139649482Y-73299188D01*
X139525000Y-73286928D01*
X138525000Y-73286928D01*
X138400518Y-73299188D01*
X138280820Y-73335498D01*
X138170506Y-73394463D01*
X138073815Y-73473815D01*
X137994463Y-73570506D01*
X137935498Y-73680820D01*
X137899188Y-73800518D01*
X137886928Y-73925000D01*
X137886928Y-74925000D01*
X137899188Y-75049482D01*
X137935498Y-75169180D01*
X137994463Y-75279494D01*
X138073815Y-75376185D01*
X138170506Y-75455537D01*
X138280820Y-75514502D01*
X138400518Y-75550812D01*
X138525000Y-75563072D01*
X139525000Y-75563072D01*
X139649482Y-75550812D01*
X139769180Y-75514502D01*
X139879494Y-75455537D01*
X139976185Y-75376185D01*
X140055537Y-75279494D01*
X140065937Y-75260038D01*
X140066318Y-75260000D01*
X140066319Y-75260000D01*
X140188989Y-75247918D01*
X140346387Y-75200172D01*
X140491446Y-75122636D01*
X140618591Y-75018291D01*
X140644746Y-74986421D01*
X144461168Y-71170000D01*
X146399207Y-71170000D01*
X146579866Y-71390134D01*
X146805986Y-71575706D01*
X146860791Y-71605000D01*
X146805986Y-71634294D01*
X146579866Y-71819866D01*
X146399207Y-72040000D01*
X146325707Y-72040000D01*
X146284699Y-72035961D01*
X146243691Y-72040000D01*
X146243681Y-72040000D01*
X146121011Y-72052082D01*
X145963613Y-72099828D01*
X145818554Y-72177364D01*
X145691409Y-72281709D01*
X145665259Y-72313573D01*
X141788833Y-76190000D01*
X140090957Y-76190000D01*
X140080537Y-76170506D01*
X140001185Y-76073815D01*
X139904494Y-75994463D01*
X139794180Y-75935498D01*
X139674482Y-75899188D01*
X139550000Y-75886928D01*
X138550000Y-75886928D01*
X138425518Y-75899188D01*
X138305820Y-75935498D01*
X138195506Y-75994463D01*
X138098815Y-76073815D01*
X138019463Y-76170506D01*
X137960498Y-76280820D01*
X137924188Y-76400518D01*
X137911928Y-76525000D01*
X137911928Y-77525000D01*
X137924188Y-77649482D01*
X137960498Y-77769180D01*
X138019463Y-77879494D01*
X138098815Y-77976185D01*
X138195506Y-78055537D01*
X138305820Y-78114502D01*
X138425518Y-78150812D01*
X138550000Y-78163072D01*
X139550000Y-78163072D01*
X139674482Y-78150812D01*
X139794180Y-78114502D01*
X139904494Y-78055537D01*
X140001185Y-77976185D01*
X140080537Y-77879494D01*
X140090957Y-77860000D01*
X142093682Y-77860000D01*
X142134700Y-77864040D01*
X142175718Y-77860000D01*
X142175719Y-77860000D01*
X142298389Y-77847918D01*
X142455787Y-77800172D01*
X142600846Y-77722636D01*
X142727991Y-77618291D01*
X142754146Y-77586421D01*
X146503494Y-73837074D01*
X146579866Y-73930134D01*
X146805986Y-74115706D01*
X147063966Y-74253599D01*
X147343889Y-74338513D01*
X147562050Y-74360000D01*
X147707950Y-74360000D01*
X147926111Y-74338513D01*
X148206034Y-74253599D01*
X148464014Y-74115706D01*
X148690134Y-73930134D01*
X148714607Y-73900313D01*
X148735498Y-73969180D01*
X148794463Y-74079494D01*
X148873815Y-74176185D01*
X148964505Y-74250612D01*
X148912073Y-74314502D01*
X148866564Y-74369955D01*
X148789028Y-74515014D01*
X148741282Y-74672412D01*
X148725160Y-74836100D01*
X148729200Y-74877119D01*
X148729201Y-82602871D01*
X148725160Y-82643900D01*
X148741282Y-82807588D01*
X148789028Y-82964986D01*
X148866564Y-83110045D01*
X148890107Y-83138732D01*
X148970910Y-83237191D01*
X149002774Y-83263341D01*
X151165990Y-85426557D01*
X151100392Y-85480392D01*
X150921068Y-85698899D01*
X150787818Y-85948192D01*
X150705764Y-86218691D01*
X150678057Y-86500000D01*
X150705764Y-86781309D01*
X150787818Y-87051808D01*
X150921068Y-87301101D01*
X151100392Y-87519608D01*
X151318899Y-87698932D01*
X151451858Y-87770000D01*
X151318899Y-87841068D01*
X151100392Y-88020392D01*
X151046558Y-88085989D01*
X147597548Y-84636981D01*
X147597539Y-84636970D01*
X147597537Y-84636968D01*
X147571391Y-84605109D01*
X147539531Y-84578962D01*
X144099146Y-81138579D01*
X144072991Y-81106709D01*
X143945846Y-81002364D01*
X143800787Y-80924828D01*
X143643389Y-80877082D01*
X143520719Y-80865000D01*
X143520718Y-80865000D01*
X143479700Y-80860960D01*
X143438682Y-80865000D01*
X142779701Y-80865000D01*
X142775812Y-80825518D01*
X142739502Y-80705820D01*
X142680537Y-80595506D01*
X142601185Y-80498815D01*
X142504494Y-80419463D01*
X142394180Y-80360498D01*
X142274482Y-80324188D01*
X142150000Y-80311928D01*
X140150000Y-80311928D01*
X140025518Y-80324188D01*
X139913912Y-80358043D01*
X138414533Y-78858665D01*
X143065000Y-78858665D01*
X143065000Y-79141335D01*
X143120147Y-79418574D01*
X143228320Y-79679727D01*
X143385363Y-79914759D01*
X143585241Y-80114637D01*
X143820273Y-80271680D01*
X144081426Y-80379853D01*
X144358665Y-80435000D01*
X144641335Y-80435000D01*
X144918574Y-80379853D01*
X145179727Y-80271680D01*
X145414759Y-80114637D01*
X145614637Y-79914759D01*
X145771680Y-79679727D01*
X145879853Y-79418574D01*
X145935000Y-79141335D01*
X145935000Y-78858665D01*
X145879853Y-78581426D01*
X145771680Y-78320273D01*
X145614637Y-78085241D01*
X145414759Y-77885363D01*
X145179727Y-77728320D01*
X144918574Y-77620147D01*
X144641335Y-77565000D01*
X144358665Y-77565000D01*
X144081426Y-77620147D01*
X143820273Y-77728320D01*
X143585241Y-77885363D01*
X143385363Y-78085241D01*
X143228320Y-78320273D01*
X143120147Y-78581426D01*
X143065000Y-78858665D01*
X138414533Y-78858665D01*
X137392050Y-77836183D01*
X137414502Y-77794180D01*
X137450812Y-77674482D01*
X137463072Y-77550000D01*
X137463072Y-76550000D01*
X137450812Y-76425518D01*
X137414502Y-76305820D01*
X137355537Y-76195506D01*
X137276185Y-76098815D01*
X137179494Y-76019463D01*
X137069180Y-75960498D01*
X136949482Y-75924188D01*
X136825000Y-75911928D01*
X135825000Y-75911928D01*
X135700518Y-75924188D01*
X135580820Y-75960498D01*
X135470506Y-76019463D01*
X135373815Y-76098815D01*
X135294463Y-76195506D01*
X135235498Y-76305820D01*
X135199188Y-76425518D01*
X135186928Y-76550000D01*
X135186928Y-77550000D01*
X135199188Y-77674482D01*
X135235498Y-77794180D01*
X135294463Y-77904494D01*
X135373815Y-78001185D01*
X135470506Y-78080537D01*
X135500390Y-78096511D01*
X135502082Y-78113688D01*
X135549828Y-78271086D01*
X135627364Y-78416145D01*
X135627365Y-78416146D01*
X135731710Y-78543291D01*
X135763574Y-78569441D01*
X139455563Y-82261432D01*
X139481709Y-82293291D01*
X139511928Y-82318091D01*
X139511928Y-82450000D01*
X139524188Y-82574482D01*
X139560498Y-82694180D01*
X139619463Y-82804494D01*
X139656809Y-82850000D01*
X139619463Y-82895506D01*
X139560498Y-83005820D01*
X139524188Y-83125518D01*
X139520299Y-83165000D01*
X136488072Y-83165000D01*
X136488072Y-82100000D01*
X136475812Y-81975518D01*
X136439502Y-81855820D01*
X136380537Y-81745506D01*
X136301185Y-81648815D01*
X136204494Y-81569463D01*
X136094180Y-81510498D01*
X135974482Y-81474188D01*
X135850000Y-81461928D01*
X133850000Y-81461928D01*
X133725518Y-81474188D01*
X133605820Y-81510498D01*
X133495506Y-81569463D01*
X133398815Y-81648815D01*
X133319463Y-81745506D01*
X133260498Y-81855820D01*
X133224188Y-81975518D01*
X133211928Y-82100000D01*
X133211928Y-85900000D01*
X133224188Y-86024482D01*
X133260498Y-86144180D01*
X133319463Y-86254494D01*
X133398815Y-86351185D01*
X133495506Y-86430537D01*
X133523586Y-86445546D01*
X133210000Y-86759133D01*
X133210000Y-64450000D01*
X138561928Y-64450000D01*
X138561928Y-67050000D01*
X138574188Y-67174482D01*
X138610498Y-67294180D01*
X138669463Y-67404494D01*
X138748815Y-67501185D01*
X138845506Y-67580537D01*
X138955820Y-67639502D01*
X139075518Y-67675812D01*
X139200000Y-67688072D01*
X141800000Y-67688072D01*
X141924482Y-67675812D01*
X142044180Y-67639502D01*
X142154494Y-67580537D01*
X142251185Y-67501185D01*
X142330537Y-67404494D01*
X142389502Y-67294180D01*
X142425812Y-67174482D01*
X142438072Y-67050000D01*
X142438072Y-64450000D01*
X142425812Y-64325518D01*
X142389502Y-64205820D01*
X142330537Y-64095506D01*
X142251185Y-63998815D01*
X142154494Y-63919463D01*
X142044180Y-63860498D01*
X141924482Y-63824188D01*
X141800000Y-63811928D01*
X139200000Y-63811928D01*
X139075518Y-63824188D01*
X138955820Y-63860498D01*
X138845506Y-63919463D01*
X138748815Y-63998815D01*
X138669463Y-64095506D01*
X138610498Y-64205820D01*
X138574188Y-64325518D01*
X138561928Y-64450000D01*
X133210000Y-64450000D01*
X133210000Y-62858665D01*
X143565000Y-62858665D01*
X143565000Y-63141335D01*
X143620147Y-63418574D01*
X143728320Y-63679727D01*
X143885363Y-63914759D01*
X144085241Y-64114637D01*
X144320273Y-64271680D01*
X144581426Y-64379853D01*
X144858665Y-64435000D01*
X145141335Y-64435000D01*
X145418574Y-64379853D01*
X145679727Y-64271680D01*
X145914759Y-64114637D01*
X146114637Y-63914759D01*
X146271680Y-63679727D01*
X146379853Y-63418574D01*
X146435000Y-63141335D01*
X146435000Y-62858665D01*
X146379853Y-62581426D01*
X146271680Y-62320273D01*
X146114637Y-62085241D01*
X145914759Y-61885363D01*
X145679727Y-61728320D01*
X145418574Y-61620147D01*
X145141335Y-61565000D01*
X144858665Y-61565000D01*
X144581426Y-61620147D01*
X144320273Y-61728320D01*
X144085241Y-61885363D01*
X143885363Y-62085241D01*
X143728320Y-62320273D01*
X143620147Y-62581426D01*
X143565000Y-62858665D01*
X133210000Y-62858665D01*
X133210000Y-61034729D01*
X133228386Y-60847215D01*
X133272757Y-60700252D01*
X133344829Y-60564703D01*
X133441852Y-60445742D01*
X133560144Y-60347882D01*
X133695181Y-60274868D01*
X133841833Y-60229471D01*
X134027092Y-60210000D01*
X161465278Y-60210000D01*
X161555665Y-60218863D01*
X161555665Y-60218863D01*
G37*
X161555665Y-60218863D02*
X161609214Y-60235030D01*
X161658597Y-60261288D01*
X161701945Y-60296641D01*
X161737600Y-60339740D01*
X161764201Y-60388937D01*
X161780742Y-60442375D01*
X161790001Y-60530464D01*
X161790000Y-67465279D01*
X161781138Y-67555664D01*
X161764970Y-67609214D01*
X161738712Y-67658597D01*
X161703357Y-67701947D01*
X161660261Y-67737599D01*
X161611063Y-67764201D01*
X161557625Y-67780742D01*
X161469545Y-67790000D01*
X155534877Y-67790000D01*
X155500000Y-67786565D01*
X155390870Y-67797313D01*
X155360816Y-67800273D01*
X155226980Y-67840872D01*
X155103637Y-67906800D01*
X154995525Y-67995525D01*
X154906800Y-68103637D01*
X154840872Y-68226980D01*
X154800273Y-68360816D01*
X154786565Y-68500000D01*
X154790000Y-68534877D01*
X154790000Y-78107831D01*
X154732312Y-78021495D01*
X154518505Y-77807688D01*
X154375000Y-77711801D01*
X154375000Y-65250000D01*
X155467815Y-65250000D01*
X155496487Y-65541111D01*
X155581401Y-65821034D01*
X155719294Y-66079014D01*
X155904866Y-66305134D01*
X156130986Y-66490706D01*
X156388966Y-66628599D01*
X156668889Y-66713513D01*
X156887050Y-66735000D01*
X157032950Y-66735000D01*
X157251111Y-66713513D01*
X157531034Y-66628599D01*
X157789014Y-66490706D01*
X158015134Y-66305134D01*
X158039607Y-66275313D01*
X158060498Y-66344180D01*
X158119463Y-66454494D01*
X158198815Y-66551185D01*
X158295506Y-66630537D01*
X158405820Y-66689502D01*
X158525518Y-66725812D01*
X158650000Y-66738072D01*
X160350000Y-66738072D01*
X160474482Y-66725812D01*
X160594180Y-66689502D01*
X160704494Y-66630537D01*
X160801185Y-66551185D01*
X160880537Y-66454494D01*
X160939502Y-66344180D01*
X160975812Y-66224482D01*
X160988072Y-66100000D01*
X160988072Y-64400000D01*
X160975812Y-64275518D01*
X160939502Y-64155820D01*
X160880537Y-64045506D01*
X160801185Y-63948815D01*
X160704494Y-63869463D01*
X160594180Y-63810498D01*
X160474482Y-63774188D01*
X160350000Y-63761928D01*
X158650000Y-63761928D01*
X158525518Y-63774188D01*
X158405820Y-63810498D01*
X158295506Y-63869463D01*
X158198815Y-63948815D01*
X158119463Y-64045506D01*
X158060498Y-64155820D01*
X158039607Y-64224687D01*
X158015134Y-64194866D01*
X157789014Y-64009294D01*
X157531034Y-63871401D01*
X157251111Y-63786487D01*
X157032950Y-63765000D01*
X156887050Y-63765000D01*
X156668889Y-63786487D01*
X156388966Y-63871401D01*
X156130986Y-64009294D01*
X155904866Y-64194866D01*
X155719294Y-64420986D01*
X155581401Y-64678966D01*
X155496487Y-64958889D01*
X155467815Y-65250000D01*
X154375000Y-65250000D01*
X154375000Y-63961007D01*
X154379039Y-63919999D01*
X154375000Y-63878991D01*
X154375000Y-63878981D01*
X154362918Y-63756311D01*
X154315172Y-63598913D01*
X154237636Y-63453854D01*
X154133291Y-63326709D01*
X154101426Y-63300558D01*
X154038534Y-63237667D01*
X154061943Y-63000000D01*
X154034236Y-62718691D01*
X153952182Y-62448192D01*
X153818932Y-62198899D01*
X153639608Y-61980392D01*
X153421101Y-61801068D01*
X153171808Y-61667818D01*
X152901309Y-61585764D01*
X152690492Y-61565000D01*
X152549508Y-61565000D01*
X152338691Y-61585764D01*
X152068192Y-61667818D01*
X151818899Y-61801068D01*
X151600392Y-61980392D01*
X151421068Y-62198899D01*
X151287818Y-62448192D01*
X151205764Y-62718691D01*
X151178057Y-63000000D01*
X151205764Y-63281309D01*
X151287818Y-63551808D01*
X151421068Y-63801101D01*
X151600392Y-64019608D01*
X151818899Y-64198932D01*
X152068192Y-64332182D01*
X152338691Y-64414236D01*
X152549508Y-64435000D01*
X152690492Y-64435000D01*
X152705001Y-64433571D01*
X152705000Y-77711801D01*
X152561495Y-77807688D01*
X152347688Y-78021495D01*
X152179701Y-78272905D01*
X152063989Y-78552257D01*
X152005000Y-78848816D01*
X152005000Y-79151184D01*
X152063989Y-79447743D01*
X152179701Y-79727095D01*
X152347688Y-79978505D01*
X152561495Y-80192312D01*
X152812905Y-80360299D01*
X153092257Y-80476011D01*
X153388816Y-80535000D01*
X153691184Y-80535000D01*
X153987743Y-80476011D01*
X154267095Y-80360299D01*
X154518505Y-80192312D01*
X154732312Y-79978505D01*
X154790000Y-79892169D01*
X154790001Y-98107832D01*
X154732312Y-98021495D01*
X154518505Y-97807688D01*
X154267095Y-97639701D01*
X153987743Y-97523989D01*
X153691184Y-97465000D01*
X153388816Y-97465000D01*
X153092257Y-97523989D01*
X152812905Y-97639701D01*
X152561495Y-97807688D01*
X152347688Y-98021495D01*
X152179701Y-98272905D01*
X152063989Y-98552257D01*
X152005000Y-98848816D01*
X152005000Y-99151184D01*
X152038671Y-99320460D01*
X147494132Y-103865001D01*
X145721006Y-103865001D01*
X145679998Y-103860962D01*
X145638990Y-103865001D01*
X145638980Y-103865001D01*
X145516310Y-103877083D01*
X145358912Y-103924829D01*
X145213853Y-104002365D01*
X145117490Y-104081448D01*
X144950492Y-104065000D01*
X144809508Y-104065000D01*
X144598691Y-104085764D01*
X144328192Y-104167818D01*
X144078899Y-104301068D01*
X143860392Y-104480392D01*
X143681068Y-104698899D01*
X143547818Y-104948192D01*
X143465764Y-105218691D01*
X143438057Y-105500000D01*
X143465764Y-105781309D01*
X143547818Y-106051808D01*
X143681068Y-106301101D01*
X143860392Y-106519608D01*
X144078899Y-106698932D01*
X144328192Y-106832182D01*
X144598691Y-106914236D01*
X144809508Y-106935000D01*
X144950492Y-106935000D01*
X145161309Y-106914236D01*
X145431808Y-106832182D01*
X145681101Y-106698932D01*
X145899608Y-106519608D01*
X146078932Y-106301101D01*
X146212182Y-106051808D01*
X146294236Y-105781309D01*
X146318496Y-105535001D01*
X147798981Y-105535001D01*
X147839999Y-105539041D01*
X147881017Y-105535001D01*
X147881018Y-105535001D01*
X148003688Y-105522919D01*
X148161086Y-105475173D01*
X148306145Y-105397637D01*
X148353632Y-105358665D01*
X151065000Y-105358665D01*
X151065000Y-105641335D01*
X151120147Y-105918574D01*
X151228320Y-106179727D01*
X151385363Y-106414759D01*
X151585241Y-106614637D01*
X151820273Y-106771680D01*
X152081426Y-106879853D01*
X152358665Y-106935000D01*
X152641335Y-106935000D01*
X152918574Y-106879853D01*
X153179727Y-106771680D01*
X153414759Y-106614637D01*
X153614637Y-106414759D01*
X153771680Y-106179727D01*
X153879853Y-105918574D01*
X153935000Y-105641335D01*
X153935000Y-105358665D01*
X153879853Y-105081426D01*
X153771680Y-104820273D01*
X153614637Y-104585241D01*
X153414759Y-104385363D01*
X153179727Y-104228320D01*
X152918574Y-104120147D01*
X152641335Y-104065000D01*
X152358665Y-104065000D01*
X152081426Y-104120147D01*
X151820273Y-104228320D01*
X151585241Y-104385363D01*
X151385363Y-104585241D01*
X151228320Y-104820273D01*
X151120147Y-105081426D01*
X151065000Y-105358665D01*
X148353632Y-105358665D01*
X148433290Y-105293292D01*
X148459445Y-105261422D01*
X153219540Y-100501329D01*
X153388816Y-100535000D01*
X153691184Y-100535000D01*
X153987743Y-100476011D01*
X154267095Y-100360299D01*
X154518505Y-100192312D01*
X154732312Y-99978505D01*
X154790001Y-99892168D01*
X154790001Y-109965114D01*
X154790000Y-109965124D01*
X154790000Y-110465123D01*
X154786565Y-110500000D01*
X154800273Y-110639184D01*
X154840872Y-110773020D01*
X154906800Y-110896363D01*
X154995525Y-111004475D01*
X155103637Y-111093200D01*
X155226980Y-111159128D01*
X155360816Y-111199727D01*
X155465123Y-111210000D01*
X155500000Y-111213435D01*
X155534877Y-111210000D01*
X161465278Y-111210000D01*
X161555665Y-111218863D01*
X161609214Y-111235030D01*
X161658597Y-111261288D01*
X161701945Y-111296641D01*
X161737600Y-111339740D01*
X161764201Y-111388937D01*
X161780742Y-111442375D01*
X161790000Y-111530455D01*
X161790001Y-118465269D01*
X161781138Y-118555664D01*
X161764970Y-118609214D01*
X161738712Y-118658597D01*
X161703357Y-118701947D01*
X161660261Y-118737599D01*
X161611063Y-118764201D01*
X161557625Y-118780742D01*
X161469545Y-118790000D01*
X134034729Y-118790000D01*
X133847216Y-118771614D01*
X133700252Y-118727243D01*
X133564703Y-118655171D01*
X133445742Y-118558148D01*
X133347882Y-118439856D01*
X133274868Y-118304819D01*
X133229471Y-118158167D01*
X133210000Y-117972908D01*
X133210000Y-113700000D01*
X145807815Y-113700000D01*
X145836487Y-113991111D01*
X145921401Y-114271034D01*
X146059294Y-114529014D01*
X146244866Y-114755134D01*
X146470986Y-114940706D01*
X146728966Y-115078599D01*
X147008889Y-115163513D01*
X147227050Y-115185000D01*
X147372950Y-115185000D01*
X147591111Y-115163513D01*
X147871034Y-115078599D01*
X148129014Y-114940706D01*
X148355134Y-114755134D01*
X148540706Y-114529014D01*
X148678599Y-114271034D01*
X148763513Y-113991111D01*
X148786275Y-113760000D01*
X155467815Y-113760000D01*
X155496487Y-114051111D01*
X155581401Y-114331034D01*
X155719294Y-114589014D01*
X155904866Y-114815134D01*
X156130986Y-115000706D01*
X156388966Y-115138599D01*
X156668889Y-115223513D01*
X156887050Y-115245000D01*
X157032950Y-115245000D01*
X157251111Y-115223513D01*
X157531034Y-115138599D01*
X157789014Y-115000706D01*
X158015134Y-114815134D01*
X158200706Y-114589014D01*
X158230000Y-114534209D01*
X158259294Y-114589014D01*
X158444866Y-114815134D01*
X158670986Y-115000706D01*
X158928966Y-115138599D01*
X159208889Y-115223513D01*
X159427050Y-115245000D01*
X159572950Y-115245000D01*
X159791111Y-115223513D01*
X160071034Y-115138599D01*
X160329014Y-115000706D01*
X160555134Y-114815134D01*
X160740706Y-114589014D01*
X160878599Y-114331034D01*
X160963513Y-114051111D01*
X160992185Y-113760000D01*
X160963513Y-113468889D01*
X160878599Y-113188966D01*
X160740706Y-112930986D01*
X160555134Y-112704866D01*
X160329014Y-112519294D01*
X160071034Y-112381401D01*
X159791111Y-112296487D01*
X159572950Y-112275000D01*
X159427050Y-112275000D01*
X159208889Y-112296487D01*
X158928966Y-112381401D01*
X158670986Y-112519294D01*
X158444866Y-112704866D01*
X158259294Y-112930986D01*
X158230000Y-112985791D01*
X158200706Y-112930986D01*
X158015134Y-112704866D01*
X157789014Y-112519294D01*
X157531034Y-112381401D01*
X157251111Y-112296487D01*
X157032950Y-112275000D01*
X156887050Y-112275000D01*
X156668889Y-112296487D01*
X156388966Y-112381401D01*
X156130986Y-112519294D01*
X155904866Y-112704866D01*
X155719294Y-112930986D01*
X155581401Y-113188966D01*
X155496487Y-113468889D01*
X155467815Y-113760000D01*
X148786275Y-113760000D01*
X148792185Y-113700000D01*
X148763513Y-113408889D01*
X148678599Y-113128966D01*
X148540706Y-112870986D01*
X148355134Y-112644866D01*
X148129014Y-112459294D01*
X147871034Y-112321401D01*
X147591111Y-112236487D01*
X147372950Y-112215000D01*
X147227050Y-112215000D01*
X147008889Y-112236487D01*
X146728966Y-112321401D01*
X146470986Y-112459294D01*
X146244866Y-112644866D01*
X146059294Y-112870986D01*
X145921401Y-113128966D01*
X145836487Y-113408889D01*
X145807815Y-113700000D01*
X133210000Y-113700000D01*
X133210000Y-108103740D01*
X136265000Y-108103740D01*
X136265000Y-108396260D01*
X136322068Y-108683158D01*
X136434010Y-108953411D01*
X136596525Y-109196632D01*
X136803368Y-109403475D01*
X136947828Y-109500000D01*
X136803368Y-109596525D01*
X136596525Y-109803368D01*
X136434010Y-110046589D01*
X136322068Y-110316842D01*
X136265000Y-110603740D01*
X136265000Y-110896260D01*
X136322068Y-111183158D01*
X136434010Y-111453411D01*
X136596525Y-111696632D01*
X136803368Y-111903475D01*
X137046589Y-112065990D01*
X137316842Y-112177932D01*
X137603740Y-112235000D01*
X137896260Y-112235000D01*
X138183158Y-112177932D01*
X138453411Y-112065990D01*
X138460822Y-112061038D01*
X138545506Y-112130537D01*
X138655820Y-112189502D01*
X138775518Y-112225812D01*
X138900000Y-112238072D01*
X140600000Y-112238072D01*
X140724482Y-112225812D01*
X140844180Y-112189502D01*
X140954494Y-112130537D01*
X141051185Y-112051185D01*
X141130537Y-111954494D01*
X141189502Y-111844180D01*
X141225812Y-111724482D01*
X141238072Y-111600000D01*
X141238072Y-109900000D01*
X141225812Y-109775518D01*
X141189502Y-109655820D01*
X141130537Y-109545506D01*
X141051185Y-109448815D01*
X140954494Y-109369463D01*
X140844180Y-109310498D01*
X140802310Y-109297797D01*
X140903475Y-109196632D01*
X141065990Y-108953411D01*
X141177932Y-108683158D01*
X141234256Y-108400000D01*
X143161928Y-108400000D01*
X143161928Y-110600000D01*
X143174188Y-110724482D01*
X143210498Y-110844180D01*
X143269463Y-110954494D01*
X143348815Y-111051185D01*
X143445506Y-111130537D01*
X143555820Y-111189502D01*
X143675518Y-111225812D01*
X143800000Y-111238072D01*
X146000000Y-111238072D01*
X146124482Y-111225812D01*
X146244180Y-111189502D01*
X146354494Y-111130537D01*
X146451185Y-111051185D01*
X146530537Y-110954494D01*
X146589502Y-110844180D01*
X146625812Y-110724482D01*
X146638072Y-110600000D01*
X146638072Y-109500000D01*
X150776606Y-109500000D01*
X150810105Y-109840119D01*
X150909314Y-110167168D01*
X151070421Y-110468578D01*
X151287234Y-110732766D01*
X151551422Y-110949579D01*
X151852832Y-111110686D01*
X152179881Y-111209895D01*
X152434775Y-111235000D01*
X152605225Y-111235000D01*
X152860119Y-111209895D01*
X153187168Y-111110686D01*
X153488578Y-110949579D01*
X153752766Y-110732766D01*
X153969579Y-110468578D01*
X154130686Y-110167168D01*
X154229895Y-109840119D01*
X154263394Y-109500000D01*
X154229895Y-109159881D01*
X154130686Y-108832832D01*
X153969579Y-108531422D01*
X153752766Y-108267234D01*
X153488578Y-108050421D01*
X153187168Y-107889314D01*
X152860119Y-107790105D01*
X152605225Y-107765000D01*
X152434775Y-107765000D01*
X152179881Y-107790105D01*
X151852832Y-107889314D01*
X151551422Y-108050421D01*
X151287234Y-108267234D01*
X151070421Y-108531422D01*
X150909314Y-108832832D01*
X150810105Y-109159881D01*
X150776606Y-109500000D01*
X146638072Y-109500000D01*
X146638072Y-108400000D01*
X146625812Y-108275518D01*
X146589502Y-108155820D01*
X146530537Y-108045506D01*
X146451185Y-107948815D01*
X146354494Y-107869463D01*
X146244180Y-107810498D01*
X146124482Y-107774188D01*
X146000000Y-107761928D01*
X143800000Y-107761928D01*
X143675518Y-107774188D01*
X143555820Y-107810498D01*
X143445506Y-107869463D01*
X143348815Y-107948815D01*
X143269463Y-108045506D01*
X143210498Y-108155820D01*
X143174188Y-108275518D01*
X143161928Y-108400000D01*
X141234256Y-108400000D01*
X141235000Y-108396260D01*
X141235000Y-108103740D01*
X141177932Y-107816842D01*
X141065990Y-107546589D01*
X140903475Y-107303368D01*
X140696632Y-107096525D01*
X140453411Y-106934010D01*
X140183158Y-106822068D01*
X139896260Y-106765000D01*
X139603740Y-106765000D01*
X139316842Y-106822068D01*
X139046589Y-106934010D01*
X138803368Y-107096525D01*
X138750000Y-107149893D01*
X138696632Y-107096525D01*
X138453411Y-106934010D01*
X138183158Y-106822068D01*
X137896260Y-106765000D01*
X137603740Y-106765000D01*
X137316842Y-106822068D01*
X137046589Y-106934010D01*
X136803368Y-107096525D01*
X136596525Y-107303368D01*
X136434010Y-107546589D01*
X136322068Y-107816842D01*
X136265000Y-108103740D01*
X133210000Y-108103740D01*
X133210000Y-96652168D01*
X134311163Y-97753332D01*
X134337309Y-97785191D01*
X134464454Y-97889536D01*
X134609513Y-97967072D01*
X134766911Y-98014818D01*
X134889581Y-98026900D01*
X134889582Y-98026900D01*
X134930600Y-98030940D01*
X134971618Y-98026900D01*
X143117082Y-98026900D01*
X143158100Y-98030940D01*
X143199118Y-98026900D01*
X143199119Y-98026900D01*
X143321789Y-98014818D01*
X143479187Y-97967072D01*
X143531487Y-97939117D01*
X143385363Y-98085241D01*
X143228320Y-98320273D01*
X143120147Y-98581426D01*
X143065000Y-98858665D01*
X143065000Y-99141335D01*
X143120147Y-99418574D01*
X143228320Y-99679727D01*
X143385363Y-99914759D01*
X143585241Y-100114637D01*
X143820273Y-100271680D01*
X144081426Y-100379853D01*
X144358665Y-100435000D01*
X144641335Y-100435000D01*
X144918574Y-100379853D01*
X145179727Y-100271680D01*
X145414759Y-100114637D01*
X145614637Y-99914759D01*
X145771680Y-99679727D01*
X145879853Y-99418574D01*
X145935000Y-99141335D01*
X145935000Y-98858665D01*
X145879853Y-98581426D01*
X145771680Y-98320273D01*
X145614637Y-98085241D01*
X145414759Y-97885363D01*
X145335000Y-97832070D01*
X145335000Y-95891018D01*
X145339040Y-95850001D01*
X145335000Y-95808981D01*
X145335000Y-92751112D01*
X145519608Y-92599608D01*
X145698932Y-92381101D01*
X145832182Y-92131808D01*
X145914236Y-91861309D01*
X145941943Y-91580000D01*
X145914236Y-91298691D01*
X145832182Y-91028192D01*
X145698932Y-90778899D01*
X145519608Y-90560392D01*
X145301101Y-90381068D01*
X145168142Y-90310000D01*
X145301101Y-90238932D01*
X145519608Y-90059608D01*
X145698932Y-89841101D01*
X145832182Y-89591808D01*
X145914236Y-89321309D01*
X145941943Y-89040000D01*
X145914236Y-88758691D01*
X145832182Y-88488192D01*
X145698932Y-88238899D01*
X145519608Y-88020392D01*
X145406518Y-87927581D01*
X145424482Y-87925812D01*
X145544180Y-87889502D01*
X145654494Y-87830537D01*
X145751185Y-87751185D01*
X145830537Y-87654494D01*
X145889502Y-87544180D01*
X145925812Y-87424482D01*
X145938072Y-87300000D01*
X145938072Y-86033400D01*
X146632233Y-86033400D01*
X150200263Y-89601432D01*
X150226409Y-89633291D01*
X150258268Y-89659437D01*
X150258270Y-89659439D01*
X150353554Y-89737636D01*
X150498613Y-89815172D01*
X150656011Y-89862918D01*
X150819700Y-89879040D01*
X150860718Y-89875000D01*
X150948888Y-89875000D01*
X151100392Y-90059608D01*
X151318899Y-90238932D01*
X151451858Y-90310000D01*
X151318899Y-90381068D01*
X151100392Y-90560392D01*
X150921068Y-90778899D01*
X150787818Y-91028192D01*
X150705764Y-91298691D01*
X150678057Y-91580000D01*
X150705764Y-91861309D01*
X150787818Y-92131808D01*
X150921068Y-92381101D01*
X151100392Y-92599608D01*
X151318899Y-92778932D01*
X151568192Y-92912182D01*
X151838691Y-92994236D01*
X152049508Y-93015000D01*
X152190492Y-93015000D01*
X152401309Y-92994236D01*
X152671808Y-92912182D01*
X152921101Y-92778932D01*
X153139608Y-92599608D01*
X153318932Y-92381101D01*
X153452182Y-92131808D01*
X153534236Y-91861309D01*
X153561943Y-91580000D01*
X153534236Y-91298691D01*
X153452182Y-91028192D01*
X153318932Y-90778899D01*
X153139608Y-90560392D01*
X152921101Y-90381068D01*
X152788142Y-90310000D01*
X152921101Y-90238932D01*
X153139608Y-90059608D01*
X153318932Y-89841101D01*
X153452182Y-89591808D01*
X153534236Y-89321309D01*
X153561943Y-89040000D01*
X153534236Y-88758691D01*
X153452182Y-88488192D01*
X153318932Y-88238899D01*
X153139608Y-88020392D01*
X152921101Y-87841068D01*
X152788142Y-87770000D01*
X152921101Y-87698932D01*
X153139608Y-87519608D01*
X153318932Y-87301101D01*
X153452182Y-87051808D01*
X153534236Y-86781309D01*
X153561943Y-86500000D01*
X153534236Y-86218691D01*
X153452182Y-85948192D01*
X153318932Y-85698899D01*
X153139608Y-85480392D01*
X152955000Y-85328888D01*
X152955000Y-85240718D01*
X152959040Y-85199699D01*
X152942918Y-85036011D01*
X152895172Y-84878613D01*
X152817636Y-84733554D01*
X152788159Y-84697636D01*
X152713291Y-84606409D01*
X152681427Y-84580259D01*
X150399200Y-82298033D01*
X150399200Y-75181968D01*
X150736432Y-74844736D01*
X150768291Y-74818591D01*
X150827794Y-74746087D01*
X150872636Y-74691446D01*
X150950172Y-74546387D01*
X150997918Y-74388988D01*
X151000471Y-74363072D01*
X151025000Y-74363072D01*
X151149482Y-74350812D01*
X151269180Y-74314502D01*
X151379494Y-74255537D01*
X151476185Y-74176185D01*
X151555537Y-74079494D01*
X151614502Y-73969180D01*
X151650812Y-73849482D01*
X151663072Y-73725000D01*
X151663072Y-72025000D01*
X151650812Y-71900518D01*
X151614502Y-71780820D01*
X151555537Y-71670506D01*
X151476185Y-71573815D01*
X151379494Y-71494463D01*
X151269180Y-71435498D01*
X151200313Y-71414607D01*
X151230134Y-71390134D01*
X151415706Y-71164014D01*
X151553599Y-70906034D01*
X151638513Y-70626111D01*
X151667185Y-70335000D01*
X151638513Y-70043889D01*
X151553599Y-69763966D01*
X151415706Y-69505986D01*
X151230134Y-69279866D01*
X151004014Y-69094294D01*
X150746034Y-68956401D01*
X150466111Y-68871487D01*
X150247950Y-68850000D01*
X150102050Y-68850000D01*
X149883889Y-68871487D01*
X149603966Y-68956401D01*
X149345986Y-69094294D01*
X149119866Y-69279866D01*
X148934294Y-69505986D01*
X148905000Y-69560791D01*
X148875706Y-69505986D01*
X148690134Y-69279866D01*
X148464014Y-69094294D01*
X148206034Y-68956401D01*
X147926111Y-68871487D01*
X147707950Y-68850000D01*
X147562050Y-68850000D01*
X147343889Y-68871487D01*
X147063966Y-68956401D01*
X146805986Y-69094294D01*
X146579866Y-69279866D01*
X146399207Y-69500000D01*
X144156307Y-69500000D01*
X144115299Y-69495961D01*
X144074291Y-69500000D01*
X144074281Y-69500000D01*
X143951611Y-69512082D01*
X143794213Y-69559828D01*
X143649154Y-69637364D01*
X143522009Y-69741709D01*
X143495859Y-69773573D01*
X139876546Y-73392887D01*
X139769180Y-73335498D01*
X139649482Y-73299188D01*
X139525000Y-73286928D01*
X138525000Y-73286928D01*
X138400518Y-73299188D01*
X138280820Y-73335498D01*
X138170506Y-73394463D01*
X138073815Y-73473815D01*
X137994463Y-73570506D01*
X137935498Y-73680820D01*
X137899188Y-73800518D01*
X137886928Y-73925000D01*
X137886928Y-74925000D01*
X137899188Y-75049482D01*
X137935498Y-75169180D01*
X137994463Y-75279494D01*
X138073815Y-75376185D01*
X138170506Y-75455537D01*
X138280820Y-75514502D01*
X138400518Y-75550812D01*
X138525000Y-75563072D01*
X139525000Y-75563072D01*
X139649482Y-75550812D01*
X139769180Y-75514502D01*
X139879494Y-75455537D01*
X139976185Y-75376185D01*
X140055537Y-75279494D01*
X140065937Y-75260038D01*
X140066318Y-75260000D01*
X140066319Y-75260000D01*
X140188989Y-75247918D01*
X140346387Y-75200172D01*
X140491446Y-75122636D01*
X140618591Y-75018291D01*
X140644746Y-74986421D01*
X144461168Y-71170000D01*
X146399207Y-71170000D01*
X146579866Y-71390134D01*
X146805986Y-71575706D01*
X146860791Y-71605000D01*
X146805986Y-71634294D01*
X146579866Y-71819866D01*
X146399207Y-72040000D01*
X146325707Y-72040000D01*
X146284699Y-72035961D01*
X146243691Y-72040000D01*
X146243681Y-72040000D01*
X146121011Y-72052082D01*
X145963613Y-72099828D01*
X145818554Y-72177364D01*
X145691409Y-72281709D01*
X145665259Y-72313573D01*
X141788833Y-76190000D01*
X140090957Y-76190000D01*
X140080537Y-76170506D01*
X140001185Y-76073815D01*
X139904494Y-75994463D01*
X139794180Y-75935498D01*
X139674482Y-75899188D01*
X139550000Y-75886928D01*
X138550000Y-75886928D01*
X138425518Y-75899188D01*
X138305820Y-75935498D01*
X138195506Y-75994463D01*
X138098815Y-76073815D01*
X138019463Y-76170506D01*
X137960498Y-76280820D01*
X137924188Y-76400518D01*
X137911928Y-76525000D01*
X137911928Y-77525000D01*
X137924188Y-77649482D01*
X137960498Y-77769180D01*
X138019463Y-77879494D01*
X138098815Y-77976185D01*
X138195506Y-78055537D01*
X138305820Y-78114502D01*
X138425518Y-78150812D01*
X138550000Y-78163072D01*
X139550000Y-78163072D01*
X139674482Y-78150812D01*
X139794180Y-78114502D01*
X139904494Y-78055537D01*
X140001185Y-77976185D01*
X140080537Y-77879494D01*
X140090957Y-77860000D01*
X142093682Y-77860000D01*
X142134700Y-77864040D01*
X142175718Y-77860000D01*
X142175719Y-77860000D01*
X142298389Y-77847918D01*
X142455787Y-77800172D01*
X142600846Y-77722636D01*
X142727991Y-77618291D01*
X142754146Y-77586421D01*
X146503494Y-73837074D01*
X146579866Y-73930134D01*
X146805986Y-74115706D01*
X147063966Y-74253599D01*
X147343889Y-74338513D01*
X147562050Y-74360000D01*
X147707950Y-74360000D01*
X147926111Y-74338513D01*
X148206034Y-74253599D01*
X148464014Y-74115706D01*
X148690134Y-73930134D01*
X148714607Y-73900313D01*
X148735498Y-73969180D01*
X148794463Y-74079494D01*
X148873815Y-74176185D01*
X148964505Y-74250612D01*
X148912073Y-74314502D01*
X148866564Y-74369955D01*
X148789028Y-74515014D01*
X148741282Y-74672412D01*
X148725160Y-74836100D01*
X148729200Y-74877119D01*
X148729201Y-82602871D01*
X148725160Y-82643900D01*
X148741282Y-82807588D01*
X148789028Y-82964986D01*
X148866564Y-83110045D01*
X148890107Y-83138732D01*
X148970910Y-83237191D01*
X149002774Y-83263341D01*
X151165990Y-85426557D01*
X151100392Y-85480392D01*
X150921068Y-85698899D01*
X150787818Y-85948192D01*
X150705764Y-86218691D01*
X150678057Y-86500000D01*
X150705764Y-86781309D01*
X150787818Y-87051808D01*
X150921068Y-87301101D01*
X151100392Y-87519608D01*
X151318899Y-87698932D01*
X151451858Y-87770000D01*
X151318899Y-87841068D01*
X151100392Y-88020392D01*
X151046558Y-88085989D01*
X147597548Y-84636981D01*
X147597539Y-84636970D01*
X147597537Y-84636968D01*
X147571391Y-84605109D01*
X147539531Y-84578962D01*
X144099146Y-81138579D01*
X144072991Y-81106709D01*
X143945846Y-81002364D01*
X143800787Y-80924828D01*
X143643389Y-80877082D01*
X143520719Y-80865000D01*
X143520718Y-80865000D01*
X143479700Y-80860960D01*
X143438682Y-80865000D01*
X142779701Y-80865000D01*
X142775812Y-80825518D01*
X142739502Y-80705820D01*
X142680537Y-80595506D01*
X142601185Y-80498815D01*
X142504494Y-80419463D01*
X142394180Y-80360498D01*
X142274482Y-80324188D01*
X142150000Y-80311928D01*
X140150000Y-80311928D01*
X140025518Y-80324188D01*
X139913912Y-80358043D01*
X138414533Y-78858665D01*
X143065000Y-78858665D01*
X143065000Y-79141335D01*
X143120147Y-79418574D01*
X143228320Y-79679727D01*
X143385363Y-79914759D01*
X143585241Y-80114637D01*
X143820273Y-80271680D01*
X144081426Y-80379853D01*
X144358665Y-80435000D01*
X144641335Y-80435000D01*
X144918574Y-80379853D01*
X145179727Y-80271680D01*
X145414759Y-80114637D01*
X145614637Y-79914759D01*
X145771680Y-79679727D01*
X145879853Y-79418574D01*
X145935000Y-79141335D01*
X145935000Y-78858665D01*
X145879853Y-78581426D01*
X145771680Y-78320273D01*
X145614637Y-78085241D01*
X145414759Y-77885363D01*
X145179727Y-77728320D01*
X144918574Y-77620147D01*
X144641335Y-77565000D01*
X144358665Y-77565000D01*
X144081426Y-77620147D01*
X143820273Y-77728320D01*
X143585241Y-77885363D01*
X143385363Y-78085241D01*
X143228320Y-78320273D01*
X143120147Y-78581426D01*
X143065000Y-78858665D01*
X138414533Y-78858665D01*
X137392050Y-77836183D01*
X137414502Y-77794180D01*
X137450812Y-77674482D01*
X137463072Y-77550000D01*
X137463072Y-76550000D01*
X137450812Y-76425518D01*
X137414502Y-76305820D01*
X137355537Y-76195506D01*
X137276185Y-76098815D01*
X137179494Y-76019463D01*
X137069180Y-75960498D01*
X136949482Y-75924188D01*
X136825000Y-75911928D01*
X135825000Y-75911928D01*
X135700518Y-75924188D01*
X135580820Y-75960498D01*
X135470506Y-76019463D01*
X135373815Y-76098815D01*
X135294463Y-76195506D01*
X135235498Y-76305820D01*
X135199188Y-76425518D01*
X135186928Y-76550000D01*
X135186928Y-77550000D01*
X135199188Y-77674482D01*
X135235498Y-77794180D01*
X135294463Y-77904494D01*
X135373815Y-78001185D01*
X135470506Y-78080537D01*
X135500390Y-78096511D01*
X135502082Y-78113688D01*
X135549828Y-78271086D01*
X135627364Y-78416145D01*
X135627365Y-78416146D01*
X135731710Y-78543291D01*
X135763574Y-78569441D01*
X139455563Y-82261432D01*
X139481709Y-82293291D01*
X139511928Y-82318091D01*
X139511928Y-82450000D01*
X139524188Y-82574482D01*
X139560498Y-82694180D01*
X139619463Y-82804494D01*
X139656809Y-82850000D01*
X139619463Y-82895506D01*
X139560498Y-83005820D01*
X139524188Y-83125518D01*
X139520299Y-83165000D01*
X136488072Y-83165000D01*
X136488072Y-82100000D01*
X136475812Y-81975518D01*
X136439502Y-81855820D01*
X136380537Y-81745506D01*
X136301185Y-81648815D01*
X136204494Y-81569463D01*
X136094180Y-81510498D01*
X135974482Y-81474188D01*
X135850000Y-81461928D01*
X133850000Y-81461928D01*
X133725518Y-81474188D01*
X133605820Y-81510498D01*
X133495506Y-81569463D01*
X133398815Y-81648815D01*
X133319463Y-81745506D01*
X133260498Y-81855820D01*
X133224188Y-81975518D01*
X133211928Y-82100000D01*
X133211928Y-85900000D01*
X133224188Y-86024482D01*
X133260498Y-86144180D01*
X133319463Y-86254494D01*
X133398815Y-86351185D01*
X133495506Y-86430537D01*
X133523586Y-86445546D01*
X133210000Y-86759133D01*
X133210000Y-64450000D01*
X138561928Y-64450000D01*
X138561928Y-67050000D01*
X138574188Y-67174482D01*
X138610498Y-67294180D01*
X138669463Y-67404494D01*
X138748815Y-67501185D01*
X138845506Y-67580537D01*
X138955820Y-67639502D01*
X139075518Y-67675812D01*
X139200000Y-67688072D01*
X141800000Y-67688072D01*
X141924482Y-67675812D01*
X142044180Y-67639502D01*
X142154494Y-67580537D01*
X142251185Y-67501185D01*
X142330537Y-67404494D01*
X142389502Y-67294180D01*
X142425812Y-67174482D01*
X142438072Y-67050000D01*
X142438072Y-64450000D01*
X142425812Y-64325518D01*
X142389502Y-64205820D01*
X142330537Y-64095506D01*
X142251185Y-63998815D01*
X142154494Y-63919463D01*
X142044180Y-63860498D01*
X141924482Y-63824188D01*
X141800000Y-63811928D01*
X139200000Y-63811928D01*
X139075518Y-63824188D01*
X138955820Y-63860498D01*
X138845506Y-63919463D01*
X138748815Y-63998815D01*
X138669463Y-64095506D01*
X138610498Y-64205820D01*
X138574188Y-64325518D01*
X138561928Y-64450000D01*
X133210000Y-64450000D01*
X133210000Y-62858665D01*
X143565000Y-62858665D01*
X143565000Y-63141335D01*
X143620147Y-63418574D01*
X143728320Y-63679727D01*
X143885363Y-63914759D01*
X144085241Y-64114637D01*
X144320273Y-64271680D01*
X144581426Y-64379853D01*
X144858665Y-64435000D01*
X145141335Y-64435000D01*
X145418574Y-64379853D01*
X145679727Y-64271680D01*
X145914759Y-64114637D01*
X146114637Y-63914759D01*
X146271680Y-63679727D01*
X146379853Y-63418574D01*
X146435000Y-63141335D01*
X146435000Y-62858665D01*
X146379853Y-62581426D01*
X146271680Y-62320273D01*
X146114637Y-62085241D01*
X145914759Y-61885363D01*
X145679727Y-61728320D01*
X145418574Y-61620147D01*
X145141335Y-61565000D01*
X144858665Y-61565000D01*
X144581426Y-61620147D01*
X144320273Y-61728320D01*
X144085241Y-61885363D01*
X143885363Y-62085241D01*
X143728320Y-62320273D01*
X143620147Y-62581426D01*
X143565000Y-62858665D01*
X133210000Y-62858665D01*
X133210000Y-61034729D01*
X133228386Y-60847215D01*
X133272757Y-60700252D01*
X133344829Y-60564703D01*
X133441852Y-60445742D01*
X133560144Y-60347882D01*
X133695181Y-60274868D01*
X133841833Y-60229471D01*
X134027092Y-60210000D01*
X161465278Y-60210000D01*
X161555665Y-60218863D01*
G36*
X143665001Y-92751112D02*
G01*
X143665000Y-95504132D01*
X142812233Y-96356900D01*
X135276469Y-96356900D01*
X134957640Y-96038072D01*
X135850000Y-96038072D01*
X135974482Y-96025812D01*
X136094180Y-95989502D01*
X136204494Y-95930537D01*
X136301185Y-95851185D01*
X136380537Y-95754494D01*
X136439502Y-95644180D01*
X136475812Y-95524482D01*
X136488072Y-95400000D01*
X136488072Y-94335000D01*
X139520299Y-94335000D01*
X139524188Y-94374482D01*
X139560498Y-94494180D01*
X139619463Y-94604494D01*
X139698815Y-94701185D01*
X139795506Y-94780537D01*
X139905820Y-94839502D01*
X140025518Y-94875812D01*
X140150000Y-94888072D01*
X142150000Y-94888072D01*
X142274482Y-94875812D01*
X142394180Y-94839502D01*
X142504494Y-94780537D01*
X142601185Y-94701185D01*
X142680537Y-94604494D01*
X142739502Y-94494180D01*
X142775812Y-94374482D01*
X142788072Y-94250000D01*
X142788072Y-93392798D01*
X143535795Y-92645076D01*
X143665001Y-92751112D01*
X143665001Y-92751112D01*
G37*
X143665001Y-92751112D02*
X143665000Y-95504132D01*
X142812233Y-96356900D01*
X135276469Y-96356900D01*
X134957640Y-96038072D01*
X135850000Y-96038072D01*
X135974482Y-96025812D01*
X136094180Y-95989502D01*
X136204494Y-95930537D01*
X136301185Y-95851185D01*
X136380537Y-95754494D01*
X136439502Y-95644180D01*
X136475812Y-95524482D01*
X136488072Y-95400000D01*
X136488072Y-94335000D01*
X139520299Y-94335000D01*
X139524188Y-94374482D01*
X139560498Y-94494180D01*
X139619463Y-94604494D01*
X139698815Y-94701185D01*
X139795506Y-94780537D01*
X139905820Y-94839502D01*
X140025518Y-94875812D01*
X140150000Y-94888072D01*
X142150000Y-94888072D01*
X142274482Y-94875812D01*
X142394180Y-94839502D01*
X142504494Y-94780537D01*
X142601185Y-94701185D01*
X142680537Y-94604494D01*
X142739502Y-94494180D01*
X142775812Y-94374482D01*
X142788072Y-94250000D01*
X142788072Y-93392798D01*
X143535795Y-92645076D01*
X143665001Y-92751112D01*
G36*
X139524188Y-84874482D02*
G01*
X139560498Y-84994180D01*
X139619463Y-85104494D01*
X139698815Y-85201185D01*
X139795506Y-85280537D01*
X139905820Y-85339502D01*
X140025518Y-85375812D01*
X140150000Y-85388072D01*
X141950249Y-85388072D01*
X141875128Y-85528612D01*
X141827382Y-85686010D01*
X141811260Y-85849698D01*
X141815301Y-85890726D01*
X141815300Y-87013331D01*
X140588574Y-88240059D01*
X140556710Y-88266209D01*
X140530562Y-88298071D01*
X140452364Y-88393355D01*
X140374828Y-88538414D01*
X140327082Y-88695812D01*
X140310960Y-88859500D01*
X140315001Y-88900528D01*
X140315001Y-89811928D01*
X140150000Y-89811928D01*
X140025518Y-89824188D01*
X139905820Y-89860498D01*
X139795506Y-89919463D01*
X139698815Y-89998815D01*
X139619463Y-90095506D01*
X139560498Y-90205820D01*
X139524188Y-90325518D01*
X139511928Y-90450000D01*
X139511928Y-91950000D01*
X139524188Y-92074482D01*
X139560498Y-92194180D01*
X139619463Y-92304494D01*
X139656809Y-92350000D01*
X139619463Y-92395506D01*
X139560498Y-92505820D01*
X139524188Y-92625518D01*
X139520299Y-92665000D01*
X136488072Y-92665000D01*
X136488072Y-91600000D01*
X136475812Y-91475518D01*
X136439502Y-91355820D01*
X136380537Y-91245506D01*
X136301185Y-91148815D01*
X136204494Y-91069463D01*
X136094180Y-91010498D01*
X135974482Y-90974188D01*
X135850000Y-90961928D01*
X134184600Y-90961928D01*
X134184600Y-88146267D01*
X135411428Y-86919440D01*
X135443291Y-86893291D01*
X135547636Y-86766146D01*
X135625172Y-86621087D01*
X135650354Y-86538072D01*
X135850000Y-86538072D01*
X135974482Y-86525812D01*
X136094180Y-86489502D01*
X136204494Y-86430537D01*
X136301185Y-86351185D01*
X136380537Y-86254494D01*
X136439502Y-86144180D01*
X136475812Y-86024482D01*
X136488072Y-85900000D01*
X136488072Y-84835000D01*
X139520299Y-84835000D01*
X139524188Y-84874482D01*
X139524188Y-84874482D01*
G37*
X139524188Y-84874482D02*
X139560498Y-84994180D01*
X139619463Y-85104494D01*
X139698815Y-85201185D01*
X139795506Y-85280537D01*
X139905820Y-85339502D01*
X140025518Y-85375812D01*
X140150000Y-85388072D01*
X141950249Y-85388072D01*
X141875128Y-85528612D01*
X141827382Y-85686010D01*
X141811260Y-85849698D01*
X141815301Y-85890726D01*
X141815300Y-87013331D01*
X140588574Y-88240059D01*
X140556710Y-88266209D01*
X140530562Y-88298071D01*
X140452364Y-88393355D01*
X140374828Y-88538414D01*
X140327082Y-88695812D01*
X140310960Y-88859500D01*
X140315001Y-88900528D01*
X140315001Y-89811928D01*
X140150000Y-89811928D01*
X140025518Y-89824188D01*
X139905820Y-89860498D01*
X139795506Y-89919463D01*
X139698815Y-89998815D01*
X139619463Y-90095506D01*
X139560498Y-90205820D01*
X139524188Y-90325518D01*
X139511928Y-90450000D01*
X139511928Y-91950000D01*
X139524188Y-92074482D01*
X139560498Y-92194180D01*
X139619463Y-92304494D01*
X139656809Y-92350000D01*
X139619463Y-92395506D01*
X139560498Y-92505820D01*
X139524188Y-92625518D01*
X139520299Y-92665000D01*
X136488072Y-92665000D01*
X136488072Y-91600000D01*
X136475812Y-91475518D01*
X136439502Y-91355820D01*
X136380537Y-91245506D01*
X136301185Y-91148815D01*
X136204494Y-91069463D01*
X136094180Y-91010498D01*
X135974482Y-90974188D01*
X135850000Y-90961928D01*
X134184600Y-90961928D01*
X134184600Y-88146267D01*
X135411428Y-86919440D01*
X135443291Y-86893291D01*
X135547636Y-86766146D01*
X135625172Y-86621087D01*
X135650354Y-86538072D01*
X135850000Y-86538072D01*
X135974482Y-86525812D01*
X136094180Y-86489502D01*
X136204494Y-86430537D01*
X136301185Y-86351185D01*
X136380537Y-86254494D01*
X136439502Y-86144180D01*
X136475812Y-86024482D01*
X136488072Y-85900000D01*
X136488072Y-84835000D01*
X139520299Y-84835000D01*
X139524188Y-84874482D01*
M02*
