G04 #@! TF.GenerationSoftware,KiCad,Pcbnew,(5.1.4)-1*
G04 #@! TF.CreationDate,2020-11-14T09:15:54+05:30*
G04 #@! TF.ProjectId,Breadboard_Power_Supply,42726561-6462-46f6-9172-645f506f7765,1*
G04 #@! TF.SameCoordinates,Original*
G04 #@! TF.FileFunction,Soldermask,Top*
G04 #@! TF.FilePolarity,Negative*
%FSLAX46Y46*%
G04 Gerber Fmt 4.6, Leading zero omitted, Abs format (unit mm)*
G04 Created by KiCad (PCBNEW (5.1.4)-1) date 2020-11-14 09:15:54*
%MOMM*%
%LPD*%
G04 APERTURE LIST*
%ADD10O,2.000000X2.000000*%
%ADD11C,2.000000*%
%ADD12R,2.100000X2.100000*%
%ADD13C,2.100000*%
%ADD14C,3.900000*%
%ADD15C,3.000000*%
%ADD16R,3.000000X3.000000*%
%ADD17O,2.600000X2.600000*%
%ADD18R,2.600000X2.600000*%
%ADD19R,1.400000X1.400000*%
%ADD20O,2.100000X2.100000*%
%ADD21R,2.000000X2.000000*%
%ADD22C,2.200000*%
%ADD23R,2.200000X2.200000*%
%ADD24R,2.400000X1.900000*%
%ADD25R,2.400000X4.200000*%
G04 APERTURE END LIST*
D10*
X144880000Y-105500000D03*
D11*
X152500000Y-105500000D03*
D12*
X139750000Y-110750000D03*
D13*
X139750000Y-108250000D03*
X137750000Y-108250000D03*
X137750000Y-110750000D03*
D14*
X135040000Y-115520000D03*
X135040000Y-103480000D03*
D15*
X137500000Y-70450000D03*
X134500000Y-65750000D03*
D16*
X140500000Y-65750000D03*
D10*
X152620000Y-63000000D03*
D11*
X145000000Y-63000000D03*
D17*
X152520000Y-109500000D03*
D18*
X144900000Y-109500000D03*
D11*
X147000000Y-99000000D03*
X144500000Y-99000000D03*
X147000000Y-79000000D03*
X144500000Y-79000000D03*
D19*
X139025000Y-74425000D03*
X139050000Y-77025000D03*
X136325000Y-74475000D03*
X136325000Y-77050000D03*
D20*
X147635000Y-67795000D03*
X150175000Y-67795000D03*
X147635000Y-70335000D03*
X150175000Y-70335000D03*
X147635000Y-72875000D03*
D12*
X150175000Y-72875000D03*
D10*
X152120000Y-86500000D03*
X144500000Y-91580000D03*
X152120000Y-89040000D03*
X144500000Y-89040000D03*
X152120000Y-91580000D03*
D21*
X144500000Y-86500000D03*
D22*
X153540000Y-79000000D03*
D23*
X151000000Y-79000000D03*
D22*
X153540000Y-99000000D03*
D23*
X151000000Y-99000000D03*
D20*
X147300000Y-113700000D03*
D12*
X149840000Y-113700000D03*
D24*
X141150000Y-86300000D03*
X141150000Y-81700000D03*
X141150000Y-84000000D03*
D25*
X134850000Y-84000000D03*
D24*
X141150000Y-95800000D03*
X141150000Y-91200000D03*
X141150000Y-93500000D03*
D25*
X134850000Y-93500000D03*
D20*
X156960000Y-62710000D03*
X159500000Y-62710000D03*
X156960000Y-65250000D03*
D12*
X159500000Y-65250000D03*
D20*
X156960000Y-113760000D03*
X159500000Y-113760000D03*
X156960000Y-116300000D03*
D12*
X159500000Y-116300000D03*
M02*
